<svg xmlns="http://www.w3.org/2000/svg" xmlns:xlink="http://www.w3.org/1999/xlink" width="300.912" height="291.988" viewBox="0 0 300.912 291.988">
  <defs>
    <clipPath id="clip-path">
      <path id="Trazado_72556" data-name="Trazado 72556" d="M310.688,343.238h35.17l2.407,47.3H308.282Z" transform="translate(-308.282 -343.238)" fill="#ffd54f"/>
    </clipPath>
    <clipPath id="clip-path-2">
      <path id="Trazado_72605" data-name="Trazado 72605" d="M611.41,386.333H589.791l-1.479,29.072h24.577Z" transform="translate(-588.312 -386.333)" fill="#7817aa"/>
    </clipPath>
    <clipPath id="clip-path-3">
      <path id="Trazado_72685" data-name="Trazado 72685" d="M147.413,409.9H107.334a8.489,8.489,0,0,1-8.453-9.269l4.975-53.921h47.035l4.975,53.921A8.489,8.489,0,0,1,147.413,409.9Z" transform="translate(-98.844 -346.708)" fill="none"/>
    </clipPath>
  </defs>
  <g id="Grupo_47994" data-name="Grupo 47994" transform="translate(-381.463 -5288.554)">
    <g id="Grupo_47993" data-name="Grupo 47993" transform="translate(311.057 5332.986)">
      <g id="Grupo_47961" data-name="Grupo 47961" transform="translate(140.35 -34.083)">
        <rect id="Rectángulo_27284" data-name="Rectángulo 27284" width="102.899" height="131.531" transform="translate(0 8.054)" fill="#cacaff"/>
        <rect id="Rectángulo_27285" data-name="Rectángulo 27285" width="9.65" height="15.451" transform="translate(46.624)" fill="#6a6ae2"/>
      </g>
      <g id="Grupo_47965" data-name="Grupo 47965" transform="translate(178.744 165.788)">
        <path id="Trazado_72554" data-name="Trazado 72554" d="M300.954,322.686c-2.776-4.895.146-13.88-4.676-19.8s-11.4-4.091-12.346,0,4.968,4.018,4.6-.438-11.324-7.379-7.379-12.42" transform="translate(-280.3 -290.03)" fill="none" stroke="#ffd54f" stroke-linecap="round" stroke-linejoin="round" stroke-width="0.75"/>
        <path id="Rectángulo_27286" data-name="Rectángulo 27286" d="M0,0H26.674a0,0,0,0,1,0,0V5.554A4.875,4.875,0,0,1,21.8,10.429H4.875A4.875,4.875,0,0,1,0,5.554V0A0,0,0,0,1,0,0Z" transform="translate(47.127 32.656) rotate(180)" fill="#9fa8da"/>
        <path id="Trazado_72555" data-name="Trazado 72555" d="M310.688,343.238h35.17l2.407,47.3H308.282Z" transform="translate(-294.483 -317)" fill="#673ab7"/>
        <g id="Grupo_47964" data-name="Grupo 47964" transform="translate(13.798 26.238)">
          <g id="Grupo_47963" data-name="Grupo 47963" clip-path="url(#clip-path)">
            <g id="Grupo_47962" data-name="Grupo 47962" transform="translate(-0.666 -13.518)">
              <line id="Línea_294" data-name="Línea 294" x2="42.318" y2="12.034" fill="none" stroke="#eb4d4b" stroke-linecap="round" stroke-linejoin="round" stroke-width="0.75"/>
              <line id="Línea_295" data-name="Línea 295" x2="42.318" y2="12.034" transform="translate(0 3.49)" fill="none" stroke="#eb4d4b" stroke-linecap="round" stroke-linejoin="round" stroke-width="0.75"/>
              <line id="Línea_296" data-name="Línea 296" x2="42.318" y2="12.033" transform="translate(0 6.98)" fill="none" stroke="#ffd54f" stroke-linecap="round" stroke-linejoin="round" stroke-width="0.75"/>
              <line id="Línea_297" data-name="Línea 297" x2="42.318" y2="12.033" transform="translate(0 10.47)" fill="none" stroke="#ffd54f" stroke-linecap="round" stroke-linejoin="round" stroke-width="0.75"/>
              <line id="Línea_298" data-name="Línea 298" x2="42.318" y2="12.033" transform="translate(0 13.96)" fill="none" stroke="#ffd54f" stroke-linecap="round" stroke-linejoin="round" stroke-width="0.75"/>
              <line id="Línea_299" data-name="Línea 299" x2="42.318" y2="12.033" transform="translate(0 17.45)" fill="none" stroke="#ffd54f" stroke-linecap="round" stroke-linejoin="round" stroke-width="0.75"/>
              <line id="Línea_300" data-name="Línea 300" x2="42.318" y2="12.034" transform="translate(0 20.939)" fill="none" stroke="#ffd54f" stroke-linecap="round" stroke-linejoin="round" stroke-width="0.75"/>
              <line id="Línea_301" data-name="Línea 301" x2="42.318" y2="12.034" transform="translate(0 24.429)" fill="none" stroke="#ffd54f" stroke-linecap="round" stroke-linejoin="round" stroke-width="0.75"/>
              <line id="Línea_302" data-name="Línea 302" x2="42.318" y2="12.033" transform="translate(0 27.919)" fill="none" stroke="#eb4d4b" stroke-linecap="round" stroke-linejoin="round" stroke-width="0.75"/>
              <line id="Línea_303" data-name="Línea 303" x2="42.318" y2="12.033" transform="translate(0 31.409)" fill="none" stroke="#eb4d4b" stroke-linecap="round" stroke-linejoin="round" stroke-width="0.75"/>
              <line id="Línea_304" data-name="Línea 304" x2="42.318" y2="12.033" transform="translate(0 34.899)" fill="none" stroke="#eb4d4b" stroke-linecap="round" stroke-linejoin="round" stroke-width="0.75"/>
              <line id="Línea_305" data-name="Línea 305" x2="42.318" y2="12.033" transform="translate(0 38.389)" fill="none" stroke="#eb4d4b" stroke-linecap="round" stroke-linejoin="round" stroke-width="0.75"/>
              <line id="Línea_306" data-name="Línea 306" x2="42.318" y2="12.034" transform="translate(0 41.879)" fill="none" stroke="#eb4d4b" stroke-linecap="round" stroke-linejoin="round" stroke-width="0.75"/>
              <line id="Línea_307" data-name="Línea 307" x2="42.318" y2="12.034" transform="translate(0 45.369)" fill="none" stroke="#eb4d4b" stroke-linecap="round" stroke-linejoin="round" stroke-width="0.75"/>
              <line id="Línea_308" data-name="Línea 308" x2="42.318" y2="12.033" transform="translate(0 48.859)" fill="none" stroke="#eb4d4b" stroke-linecap="round" stroke-linejoin="round" stroke-width="0.75"/>
              <line id="Línea_309" data-name="Línea 309" x2="42.318" y2="12.033" transform="translate(0 52.349)" fill="none" stroke="#eb4d4b" stroke-linecap="round" stroke-linejoin="round" stroke-width="0.75"/>
              <line id="Línea_310" data-name="Línea 310" x2="42.318" y2="12.033" transform="translate(0 55.839)" fill="none" stroke="#eb4d4b" stroke-linecap="round" stroke-linejoin="round" stroke-width="0.75"/>
              <line id="Línea_311" data-name="Línea 311" x2="42.318" y2="12.033" transform="translate(0 59.328)" fill="none" stroke="#eb4d4b" stroke-linecap="round" stroke-linejoin="round" stroke-width="0.75"/>
              <line id="Línea_312" data-name="Línea 312" x2="42.318" y2="12.033" transform="translate(0 62.818)" fill="none" stroke="#eb4d4b" stroke-linecap="round" stroke-linejoin="round" stroke-width="0.75"/>
            </g>
          </g>
        </g>
        <rect id="Rectángulo_27287" data-name="Rectángulo 27287" width="47.933" height="9.827" transform="translate(57.757 81.392) rotate(180)" fill="#4e4ece"/>
      </g>
      <g id="Grupo_47968" data-name="Grupo 47968" transform="translate(240.289 -44.432)">
        <path id="Trazado_72557" data-name="Trazado 72557" d="M455.318,199.894c1.088-3.456-2.618-10.231-8.088-17.416a25.8,25.8,0,0,1-3.907-24.07l6.952-20.083c1.563-.733,3.126-1.4,4.664-2a85.024,85.024,0,0,1,24.82-5.574s18.576,1.112,32.867,5.156c1.82.508,3.577,1.071,5.212,1.684-6.026,15.91-19.293,50.96-22.419,59.547a8.249,8.249,0,0,0-.652,3.214,8.157,8.157,0,0,0,3.029,6.356,50.829,50.829,0,0,1,18.359,35.412l11.254,149.9h-122.3C418,320.188,455.318,199.894,455.318,199.894Z" transform="translate(-405.106 -100.408)" fill="#ffd54f"/>
        <g id="Grupo_47966" data-name="Grupo 47966" transform="translate(34.577 8.192)">
          <path id="Trazado_72558" data-name="Trazado 72558" d="M552.566,148.112c-.588-3.754-4.987-6.646-10.924-8.869-3.426,9.047-9.193,24.28-14.107,37.321l21.482-19.7a10.889,10.889,0,0,0,3.59-7.033A7.192,7.192,0,0,0,552.566,148.112Z" transform="translate(-463.488 -110.251)" fill="#9fa8da"/>
          <path id="Trazado_72559" data-name="Trazado 72559" d="M451.669,160.236l6.952-20.083a65.7,65.7,0,0,0-6.756,3.663,8.159,8.159,0,0,0-3.454,9.385l2.749,8.7C451.31,161.342,451.478,160.787,451.669,160.236Z" transform="translate(-448.029 -110.428)" fill="#9fa8da"/>
          <path id="Trazado_72560" data-name="Trazado 72560" d="M505.055,126.747l-3.046-17.275a2.217,2.217,0,0,0-.072-.314,7.5,7.5,0,0,0-7.339-5.9h-6.243a7.525,7.525,0,0,0-7.347,5.9,7.68,7.68,0,0,0-.153.975l-1.466,17.092a85.331,85.331,0,0,0-12.422,3.756c.451,5.429,4.044,12.873,20.349,12.873a59.777,59.777,0,0,0,37.338-13.292A144.317,144.317,0,0,0,505.055,126.747Z" transform="translate(-451.711 -103.253)" fill="#9fa8da"/>
        </g>
        <g id="Grupo_47967" data-name="Grupo 47967" transform="translate(63.874 0)">
          <path id="Trazado_72561" data-name="Trazado 72561" d="M505.326,109.158H484.4a7.525,7.525,0,0,1,7.347-5.9h6.243A7.5,7.5,0,0,1,505.326,109.158Z" transform="translate(-484.397 -95.06)" fill="#00223d"/>
          <path id="Trazado_72562" data-name="Trazado 72562" d="M500.035,96.574a3.491,3.491,0,1,1-3.491-3.491A3.491,3.491,0,0,1,500.035,96.574Z" transform="translate(-486.08 -93.083)" fill="#00223d"/>
          <rect id="Rectángulo_27288" data-name="Rectángulo 27288" width="2.571" height="5.639" transform="translate(9.179 4.297)" fill="#00223d"/>
        </g>
      </g>
      <path id="Trazado_72563" data-name="Trazado 72563" d="M250.957,176.216h-1.726v-1.6a.863.863,0,0,1,.863-.863h0a.863.863,0,0,1,.863.863Z" transform="translate(-85.808 -65.302)" fill="#4e4ece"/>
      <g id="Grupo_47971" data-name="Grupo 47971" transform="translate(98.495 85.343)">
        <rect id="Rectángulo_27289" data-name="Rectángulo 27289" width="21.72" height="3.207" transform="translate(127.524 117.183)" fill="#9fa8da"/>
        <line id="Línea_313" data-name="Línea 313" y2="19.97" transform="translate(138.384 88.661)" fill="none" stroke="#130f40" stroke-linecap="round" stroke-linejoin="round" stroke-width="0.75"/>
        <rect id="Rectángulo_27290" data-name="Rectángulo 27290" width="5.442" height="13.994" transform="translate(135.663 76.806)" fill="#b3b3ff"/>
        <path id="Rectángulo_27291" data-name="Rectángulo 27291" d="M0,0H14.418a0,0,0,0,1,0,0V6.049a6.39,6.39,0,0,1-6.39,6.39H6.39A6.39,6.39,0,0,1,0,6.049V0A0,0,0,0,1,0,0Z" transform="translate(131.175 67.671)" fill="#7986cb"/>
        <path id="Trazado_72564" data-name="Trazado 72564" d="M390.665,200.873l3.208,50.532a7.839,7.839,0,0,1-7.823,8.335H342.6l-3.738-58.867Z" transform="translate(-220.64 -187.259)" fill="#b3b3ff"/>
        <path id="Trazado_72565" data-name="Trazado 72565" d="M390.665,200.873l3.208,50.532a7.839,7.839,0,0,1-7.823,8.335H342.6l-3.738-58.867Z" transform="translate(-220.64 -187.259)" fill="#b3b3ff"/>
        <path id="Trazado_72566" data-name="Trazado 72566" d="M252.368,189.976h-9.74l2.01-12.451h5.72Z" transform="translate(-180.518 -177.525)" fill="#7986cb"/>
        <rect id="Rectángulo_27292" data-name="Rectángulo 27292" width="13.652" height="7.191" transform="translate(60.154 10.627)" fill="#b3b3ff"/>
        <path id="Trazado_72567" data-name="Trazado 72567" d="M173.861,250.848c-4.373,23.031-10.5,56.412-10.5,56.412H256.2V349.1H136.107l16.122-106.452a49.126,49.126,0,0,1,48.57-41.771h64.9l3.208,50.532a7.838,7.838,0,0,1-7.823,8.335H256.2c-7.411,0-12.95-4.227-26.507-18.95A24.945,24.945,0,0,0,223.3,235.9C206.852,226.884,177.669,230.808,173.861,250.848Z" transform="translate(-136.107 -187.259)" fill="#7986cb"/>
        <rect id="Rectángulo_27293" data-name="Rectángulo 27293" width="68.826" height="41.835" transform="translate(120.091 120.002)" fill="#b3b3ff"/>
        <path id="Trazado_72568" data-name="Trazado 72568" d="M237.375,329.028H182.857s6.122-33.381,10.5-56.412c3.808-20.04,32.99-23.964,49.439-14.95-5.627,3.213-9.8,8.157-11.032,14.95C229.066,287.484,237.375,329.028,237.375,329.028Z" transform="translate(-155.598 -209.026)" fill="#00223d"/>
        <g id="Grupo_47969" data-name="Grupo 47969" transform="translate(44.022 31.175)">
          <path id="Trazado_72569" data-name="Trazado 72569" d="M215.224,233.086h-2.57a1.047,1.047,0,0,1-1.047-1.047h0a1.047,1.047,0,0,1,1.047-1.047h2.57a1.047,1.047,0,0,1,1.047,1.047h0A1.047,1.047,0,0,1,215.224,233.086Z" transform="translate(-211.607 -230.992)" fill="#00223d"/>
          <path id="Trazado_72570" data-name="Trazado 72570" d="M227.391,233.086h-2.57a1.047,1.047,0,0,1-1.047-1.047h0a1.047,1.047,0,0,1,1.047-1.047h2.57a1.047,1.047,0,0,1,1.047,1.047h0A1.047,1.047,0,0,1,227.391,233.086Z" transform="translate(-216.68 -230.992)" fill="#00223d"/>
          <path id="Trazado_72571" data-name="Trazado 72571" d="M239.558,233.086h-2.571a1.047,1.047,0,0,1-1.047-1.047h0a1.047,1.047,0,0,1,1.047-1.047h2.571a1.047,1.047,0,0,1,1.047,1.047h0A1.047,1.047,0,0,1,239.558,233.086Z" transform="translate(-221.752 -230.992)" fill="#00223d"/>
        </g>
        <path id="Trazado_72572" data-name="Trazado 72572" d="M282.44,429.3h28.182V410.25H284.31Z" transform="translate(-197.117 -274.554)" fill="#9fa8da"/>
        <g id="Grupo_47970" data-name="Grupo 47970" transform="translate(126.657 126.278)">
          <rect id="Rectángulo_27294" data-name="Rectángulo 27294" width="55.694" height="4.708" transform="translate(0 24.575)" fill="#dedede" stroke="#fff" stroke-linecap="round" stroke-linejoin="round" stroke-width="0.75"/>
          <rect id="Rectángulo_27295" data-name="Rectángulo 27295" width="55.694" height="4.708" transform="translate(0 16.383)" fill="#dedede" stroke="#fff" stroke-linecap="round" stroke-linejoin="round" stroke-width="0.75"/>
          <rect id="Rectángulo_27296" data-name="Rectángulo 27296" width="55.694" height="4.708" transform="translate(0 8.192)" fill="#dedede" stroke="#fff" stroke-linecap="round" stroke-linejoin="round" stroke-width="0.75"/>
          <rect id="Rectángulo_27297" data-name="Rectángulo 27297" width="55.694" height="4.708" fill="#dedede" stroke="#fff" stroke-linecap="round" stroke-linejoin="round" stroke-width="0.75"/>
        </g>
      </g>
      <g id="Grupo_47972" data-name="Grupo 47972" transform="translate(172.301 44.202)">
        <rect id="Rectángulo_27298" data-name="Rectángulo 27298" width="0.777" height="9.548" transform="translate(40.04 21.811)" fill="#130f40"/>
        <path id="Trazado_72573" data-name="Trazado 72573" d="M339.572,206.535l-6.869,1.778-4.49,1.166-2.286-13.947h-6.321v-7.58h10.758a6.387,6.387,0,0,1,6.233,5.014l2.816,12.851Z" transform="translate(-286.418 -140.73)" fill="#fff"/>
        <path id="Trazado_72574" data-name="Trazado 72574" d="M313.07,193.724l-1.259,3.084-2.583,6.332-.822,2.017-7.487-.822-3.551-.391,3.324-10.74H288.5a4.164,4.164,0,0,1-4.1-4.9l1.015-5.936H302.86v3.254h4.764A5.882,5.882,0,0,1,313.07,193.724Z" transform="translate(-271.712 -138.404)" fill="#fff"/>
        <path id="Trazado_72575" data-name="Trazado 72575" d="M314.868,230.048l2.023,5.411c-1.009,1.382-6.256-4.186-8.064-6.181l.554-1.125,1.749-8.111,7.487.822Z" transform="translate(-281.924 -154.11)" fill="#ff8e77"/>
        <path id="Trazado_72576" data-name="Trazado 72576" d="M291.843,107.688s-6.365-2.818-10.592,2.672,2.672,13.022-3.159,11.9-7.094,2.672-6.22,5.491a3.169,3.169,0,0,0-3.79,2.235c-.875,2.915-.243,3.742-.243,3.742a3.871,3.871,0,0,0-4.956,2.818c-1.118,3.984,2.77,5.782,5.977,3.838,0,0,.68,4.616,5.393,2.09l20.942-7.434s3.5-1.215,1.749-4.325c0,0,3.061-1.069,1.652-3.838s-3.644.468-2.673-2.414S302.727,109.826,291.843,107.688Z" transform="translate(-262.687 -106.965)" fill="#00223d"/>
        <path id="Trazado_72577" data-name="Trazado 72577" d="M289.4,152.622l-2.041,16.423h19.582l.243-12.439Z" transform="translate(-272.973 -126)" fill="#eb4d4b"/>
        <path id="Trazado_72578" data-name="Trazado 72578" d="M293.676,161.072l.122,5.3-9.918,1.347a4.592,4.592,0,0,1-5.125-5.423l2.8-14.507a6.674,6.674,0,0,1,3.65-4.77,20.423,20.423,0,0,1,2.991-1.154,13.737,13.737,0,0,1,5.44-.548,12.031,12.031,0,0,1,6.379,2.9,24.217,24.217,0,0,1,6.245,9.125H287.542l-.746,8.046Z" transform="translate(-269.35 -121.255)" fill="#eb4d4b"/>
        <path id="Trazado_72579" data-name="Trazado 72579" d="M293.353,162l-.746,8.046,6.88-.321" transform="translate(-275.161 -129.911)" fill="none" stroke="#00223d" stroke-linecap="round" stroke-linejoin="round" stroke-width="0.75"/>
        <path id="Trazado_72580" data-name="Trazado 72580" d="M310.675,118.132h.006c-.006.017-.012.035-.017.058a8.344,8.344,0,0,1-.268.921c-1.429,4.822-3.446,9.51-7.417,7.37a11.9,11.9,0,0,1-3.207-2.8,7.872,7.872,0,1,1,11.078-7.189A7.626,7.626,0,0,1,310.675,118.132Z" transform="translate(-276.204 -107.656)" fill="#ff8e77"/>
        <path id="Trazado_72581" data-name="Trazado 72581" d="M309.94,112.182s-.656,3.681-6.56,2.733c0,0-1.3,5.223-5.575,7.906,0,0-6.487-4.627-2.77-10.968S306.879,107.409,309.94,112.182Z" transform="translate(-275.694 -107.317)" fill="#00223d"/>
        <path id="Trazado_72582" data-name="Trazado 72582" d="M303.337,126.054s-.315-2.648-2.308-2.939-3.887,6.219.292,5.952" transform="translate(-277.753 -113.694)" fill="#ff8e77"/>
        <path id="Trazado_72583" data-name="Trazado 72583" d="M306.826,140.436c-5.778,3.586-10.041-.216-11.819-2.356.5-.147,1.024-.276,1.562-.377a1.467,1.467,0,0,0,1.185-1.224l.64-4.317h5.154l-.7,4.724a1.467,1.467,0,0,0,.858,1.552A13.353,13.353,0,0,1,306.826,140.436Z" transform="translate(-276.162 -117.47)" fill="#ff8e77"/>
        <path id="Trazado_72584" data-name="Trazado 72584" d="M312.027,127.859c-.077.229-.247.378-.378.334s-.177-.266-.1-.494.247-.378.378-.334S312.1,127.63,312.027,127.859Z" transform="translate(-283.043 -115.467)" fill="#130f40"/>
        <path id="Trazado_72585" data-name="Trazado 72585" d="M318.176,129.137c-.078.229-.247.378-.379.334s-.177-.266-.1-.5.247-.378.378-.334S318.253,128.909,318.176,129.137Z" transform="translate(-285.606 -115.999)" fill="#130f40"/>
        <path id="Trazado_72586" data-name="Trazado 72586" d="M309.657,133.038a1.87,1.87,0,0,0,1.914,1.482" transform="translate(-282.27 -117.835)" fill="none" stroke="#eb4d4b" stroke-linecap="round" stroke-linejoin="round" stroke-width="0.5"/>
        <path id="Trazado_72587" data-name="Trazado 72587" d="M301.565,125.806s1.847-.51,1.361,2.43" transform="translate(-278.896 -114.806)" fill="none" stroke="#eb4d4b" stroke-linecap="round" stroke-linejoin="round" stroke-width="0.5"/>
        <path id="Trazado_72588" data-name="Trazado 72588" d="M303.152,127.445a1.481,1.481,0,0,0-1.021,1.974" transform="translate(-279.098 -115.503)" fill="none" stroke="#eb4d4b" stroke-linecap="round" stroke-linejoin="round" stroke-width="0.5"/>
        <path id="Trazado_72589" data-name="Trazado 72589" d="M306.314,137.251a11.9,11.9,0,0,1-3.207-2.8" transform="translate(-279.539 -118.425)" fill="none" stroke="#eb4d4b" stroke-linecap="round" stroke-linejoin="round" stroke-width="0.5"/>
        <path id="Trazado_72590" data-name="Trazado 72590" d="M314.31,129.138l.437,2.724-1.2-.271" transform="translate(-283.891 -116.209)" fill="none" stroke="#eb4d4b" stroke-linecap="round" stroke-linejoin="round" stroke-width="0.5"/>
        <path id="Trazado_72591" data-name="Trazado 72591" d="M313.607,173.954s.292-12.674,4.956-19.577h17.3c-4.665,6.9-7.677,19.577-7.677,19.577H313.607" transform="translate(-283.917 -126.732)" fill="#fff"/>
        <path id="Trazado_72592" data-name="Trazado 72592" d="M318.21,173.763l-4.354-.843s3.171-.8,2.806-1.968-8.418,2.223-8.418,2.223h0l-3.837.181.122,5.3,4.7-.636,5.731.473a2.86,2.86,0,0,0,2.691-1.382l1.178-1.968A.924.924,0,0,0,318.21,173.763Z" transform="translate(-280.081 -133.541)" fill="#ff8e77"/>
        <path id="Trazado_72593" data-name="Trazado 72593" d="M324.277,187.952a5.882,5.882,0,0,1,5.446,8.1l-1.259,3.084" transform="translate(-288.365 -140.73)" fill="none" stroke="#00223d" stroke-linecap="round" stroke-linejoin="round" stroke-width="0.75"/>
        <path id="Trazado_72594" data-name="Trazado 72594" d="M317.56,247.439l-11.953-7.726,1.877-3.831c1.808,1.994,7.055,7.562,8.064,6.181Z" transform="translate(-280.581 -160.714)" fill="#00223d"/>
        <path id="Trazado_72595" data-name="Trazado 72595" d="M363.558,236.61l-14.968,7.58-.723-4.688c2.385-.542,9.749-2.344,9.854-3.72Z" transform="translate(-298.201 -160.672)" fill="#00223d"/>
        <path id="Trazado_72596" data-name="Trazado 72596" d="M355.3,229.128c-.1,1.376-7.469,3.178-9.854,3.72l-.443-2.892-2.939-8.355,6.869-1.778,1.9,8.676Z" transform="translate(-295.782 -154.018)" fill="#ff8e77"/>
        <path id="Trazado_72597" data-name="Trazado 72597" d="M324.64,187.952H305.107" transform="translate(-280.373 -140.73)" fill="none" stroke="#00223d" stroke-linecap="round" stroke-linejoin="round" stroke-width="0.75"/>
      </g>
      <g id="Grupo_47978" data-name="Grupo 47978" transform="translate(156.297 197.15)">
        <path id="Trazado_72603" data-name="Trazado 72603" d="M629.607,373.7c1.706-3.009-.09-8.532,2.874-12.17s7.005-2.514,7.589,0-3.053,2.47-2.829-.269,6.96-4.536,4.536-7.634" transform="translate(-606.8 -353.627)" fill="none" stroke="#673ab7" stroke-linecap="round" stroke-linejoin="round" stroke-width="0.75"/>
        <path id="Rectángulo_27300" data-name="Rectángulo 27300" d="M4.875,0h6.646A4.875,4.875,0,0,1,16.4,4.875V6.411a0,0,0,0,1,0,0H0a0,0,0,0,1,0,0V4.875A4.875,4.875,0,0,1,4.875,0Z" transform="translate(6.534 13.663)" fill="#9fa8da"/>
        <path id="Trazado_72604" data-name="Trazado 72604" d="M611.41,386.333H589.791l-1.479,29.072h24.577Z" transform="translate(-585.869 -370.205)" fill="#ffd54f"/>
        <g id="Grupo_47977" data-name="Grupo 47977" transform="translate(2.443 16.128)">
          <g id="Grupo_47976" data-name="Grupo 47976" clip-path="url(#clip-path-2)">
            <g id="Grupo_47975" data-name="Grupo 47975" transform="translate(-1.026 -8.309)">
              <line id="Línea_314" data-name="Línea 314" x1="26.012" y2="7.397" fill="none" stroke="#673ab7" stroke-linecap="round" stroke-linejoin="round" stroke-width="0.75"/>
              <line id="Línea_315" data-name="Línea 315" x1="26.012" y2="7.397" transform="translate(0 2.145)" fill="none" stroke="#673ab7" stroke-linecap="round" stroke-linejoin="round" stroke-width="0.75"/>
              <line id="Línea_316" data-name="Línea 316" x1="26.012" y2="7.397" transform="translate(0 4.29)" fill="none" stroke="#673ab7" stroke-linecap="round" stroke-linejoin="round" stroke-width="0.75"/>
              <line id="Línea_317" data-name="Línea 317" x1="26.012" y2="7.397" transform="translate(0 6.436)" fill="none" stroke="#673ab7" stroke-linecap="round" stroke-linejoin="round" stroke-width="0.75"/>
              <line id="Línea_318" data-name="Línea 318" x1="26.012" y2="7.397" transform="translate(0 8.581)" fill="none" stroke="#673ab7" stroke-linecap="round" stroke-linejoin="round" stroke-width="0.75"/>
              <line id="Línea_319" data-name="Línea 319" x1="26.012" y2="7.397" transform="translate(0 10.726)" fill="none" stroke="#673ab7" stroke-linecap="round" stroke-linejoin="round" stroke-width="0.75"/>
              <line id="Línea_320" data-name="Línea 320" x1="26.012" y2="7.397" transform="translate(0 12.871)" fill="none" stroke="#673ab7" stroke-linecap="round" stroke-linejoin="round" stroke-width="0.75"/>
              <line id="Línea_321" data-name="Línea 321" x1="26.012" y2="7.397" transform="translate(0 15.016)" fill="none" stroke="#673ab7" stroke-linecap="round" stroke-linejoin="round" stroke-width="0.75"/>
              <line id="Línea_322" data-name="Línea 322" x1="26.012" y2="7.397" transform="translate(0 17.162)" fill="none" stroke="#673ab7" stroke-linecap="round" stroke-linejoin="round" stroke-width="0.75"/>
              <line id="Línea_323" data-name="Línea 323" x1="26.012" y2="7.397" transform="translate(0 19.307)" fill="none" stroke="#673ab7" stroke-linecap="round" stroke-linejoin="round" stroke-width="0.75"/>
              <line id="Línea_324" data-name="Línea 324" x1="26.012" y2="7.397" transform="translate(0 21.452)" fill="none" stroke="#673ab7" stroke-linecap="round" stroke-linejoin="round" stroke-width="0.75"/>
              <line id="Línea_325" data-name="Línea 325" x1="26.012" y2="7.397" transform="translate(0 23.597)" fill="none" stroke="#673ab7" stroke-linecap="round" stroke-linejoin="round" stroke-width="0.75"/>
              <line id="Línea_326" data-name="Línea 326" x1="26.012" y2="7.397" transform="translate(0 25.743)" fill="none" stroke="#673ab7" stroke-linecap="round" stroke-linejoin="round" stroke-width="0.75"/>
              <line id="Línea_327" data-name="Línea 327" x1="26.012" y2="7.397" transform="translate(0 27.888)" fill="none" stroke="#673ab7" stroke-linecap="round" stroke-linejoin="round" stroke-width="0.75"/>
              <line id="Línea_328" data-name="Línea 328" x1="26.012" y2="7.397" transform="translate(0 30.033)" fill="none" stroke="#673ab7" stroke-linecap="round" stroke-linejoin="round" stroke-width="0.75"/>
              <line id="Línea_329" data-name="Línea 329" x1="26.012" y2="7.397" transform="translate(0 32.178)" fill="none" stroke="#673ab7" stroke-linecap="round" stroke-linejoin="round" stroke-width="0.75"/>
              <line id="Línea_330" data-name="Línea 330" x1="26.012" y2="7.397" transform="translate(0 34.323)" fill="none" stroke="#673ab7" stroke-linecap="round" stroke-linejoin="round" stroke-width="0.75"/>
              <line id="Línea_331" data-name="Línea 331" x1="26.012" y2="7.397" transform="translate(0 36.469)" fill="none" stroke="#673ab7" stroke-linecap="round" stroke-linejoin="round" stroke-width="0.75"/>
              <line id="Línea_332" data-name="Línea 332" x1="26.012" y2="7.397" transform="translate(0 38.614)" fill="none" stroke="#673ab7" stroke-linecap="round" stroke-linejoin="round" stroke-width="0.75"/>
            </g>
          </g>
        </g>
        <rect id="Rectángulo_27301" data-name="Rectángulo 27301" width="29.464" height="6.041" transform="translate(0 43.99)" fill="#9fa8da"/>
      </g>
      <g id="Grupo_47988" data-name="Grupo 47988" transform="translate(70.406 93.443)">
        <g id="Grupo_47980" data-name="Grupo 47980" transform="translate(0 0)">
          <rect id="Rectángulo_27302" data-name="Rectángulo 27302" width="23.27" height="126.644" transform="matrix(0.983, -0.184, 0.184, 0.983, 0, 4.276)" fill="#b3b3ff"/>
          <g id="Grupo_47979" data-name="Grupo 47979" transform="translate(17.245 12.915)">
            <line id="Línea_333" data-name="Línea 333" y1="1.504" x2="8.043" fill="none" stroke="#130f40" stroke-linecap="round" stroke-linejoin="round" stroke-width="0.75"/>
            <line id="Línea_334" data-name="Línea 334" y1="1.504" x2="8.043" transform="translate(2.049 10.962)" fill="none" stroke="#130f40" stroke-linecap="round" stroke-linejoin="round" stroke-width="0.75"/>
            <line id="Línea_335" data-name="Línea 335" y1="1.504" x2="8.043" transform="translate(4.099 21.924)" fill="none" stroke="#130f40" stroke-linecap="round" stroke-linejoin="round" stroke-width="0.75"/>
            <line id="Línea_336" data-name="Línea 336" y1="1.504" x2="8.043" transform="translate(6.148 32.886)" fill="none" stroke="#130f40" stroke-linecap="round" stroke-linejoin="round" stroke-width="0.75"/>
            <line id="Línea_337" data-name="Línea 337" y1="1.504" x2="8.043" transform="translate(8.198 43.847)" fill="none" stroke="#130f40" stroke-linecap="round" stroke-linejoin="round" stroke-width="0.75"/>
            <line id="Línea_338" data-name="Línea 338" y1="1.504" x2="8.043" transform="translate(10.247 54.809)" fill="none" stroke="#130f40" stroke-linecap="round" stroke-linejoin="round" stroke-width="0.75"/>
            <line id="Línea_339" data-name="Línea 339" y1="1.504" x2="8.043" transform="translate(12.296 65.771)" fill="none" stroke="#130f40" stroke-linecap="round" stroke-linejoin="round" stroke-width="0.75"/>
            <line id="Línea_340" data-name="Línea 340" y1="1.504" x2="8.043" transform="translate(14.346 76.733)" fill="none" stroke="#130f40" stroke-linecap="round" stroke-linejoin="round" stroke-width="0.75"/>
            <line id="Línea_341" data-name="Línea 341" y1="1.504" x2="8.043" transform="translate(16.395 87.695)" fill="none" stroke="#130f40" stroke-linecap="round" stroke-linejoin="round" stroke-width="0.75"/>
            <line id="Línea_342" data-name="Línea 342" y1="1.504" x2="8.043" transform="translate(18.445 98.657)" fill="none" stroke="#130f40" stroke-linecap="round" stroke-linejoin="round" stroke-width="0.75"/>
          </g>
        </g>
        <g id="Grupo_47981" data-name="Grupo 47981" transform="translate(38.663 30.073)">
          <rect id="Rectángulo_27303" data-name="Rectángulo 27303" width="5.727" height="99.076" transform="translate(12.489 11.63) rotate(7.242)" fill="#7817aa"/>
          <path id="Trazado_72606" data-name="Trazado 72606" d="M181.342,255.343l-5.684-.722,2.695-7.176,1.671-4.453.5,4.73Z" transform="translate(-163.17 -242.992)" fill="#fff"/>
          <path id="Trazado_72607" data-name="Trazado 72607" d="M182.454,247.722l-2.175-.276,1.671-4.453Z" transform="translate(-165.097 -242.992)" fill="#00223d"/>
        </g>
        <g id="Grupo_47982" data-name="Grupo 47982" transform="translate(32.803 15.519)">
          <rect id="Rectángulo_27304" data-name="Rectángulo 27304" width="7.434" height="68.074" transform="translate(1.141 24.197)" fill="#d1bcff"/>
          <path id="Trazado_72608" data-name="Trazado 72608" d="M152.255,219.557l1.652,25.89h-9.715l1.652-25.89a1.63,1.63,0,0,1,1.627-1.526h3.157A1.63,1.63,0,0,1,152.255,219.557Z" transform="translate(-144.192 -218.031)" fill="#00223d"/>
        </g>
        <path id="Trazado_72609" data-name="Trazado 72609" d="M147.413,409.9H107.334a8.489,8.489,0,0,1-8.453-9.269l4.975-53.921h47.035l4.975,53.921A8.489,8.489,0,0,1,147.413,409.9Z" transform="translate(-92.482 -256.161)" fill="#ffd54f"/>
        <g id="Grupo_47987" data-name="Grupo 47987" transform="translate(6.362 90.547)">
          <g id="Grupo_47986" data-name="Grupo 47986" clip-path="url(#clip-path-3)">
            <g id="Grupo_47985" data-name="Grupo 47985" transform="translate(-13.614 -6.232)">
              <g id="Grupo_47983" data-name="Grupo 47983" transform="translate(6.547 4.125)">
                <path id="Trazado_72610" data-name="Trazado 72610" d="M203.858,345.523a2.428,2.428,0,1,1-2.428-2.428A2.429,2.429,0,0,1,203.858,345.523Z" transform="translate(-133.535 -343.095)" fill="#7986cb"/>
                <path id="Trazado_72611" data-name="Trazado 72611" d="M203.858,359.673a2.428,2.428,0,1,1-2.428-2.428A2.428,2.428,0,0,1,203.858,359.673Z" transform="translate(-133.535 -348.995)" fill="#7986cb"/>
                <path id="Trazado_72612" data-name="Trazado 72612" d="M203.858,373.823a2.428,2.428,0,1,1-2.428-2.429A2.428,2.428,0,0,1,203.858,373.823Z" transform="translate(-133.535 -354.894)" fill="#7986cb"/>
                <path id="Trazado_72613" data-name="Trazado 72613" d="M203.858,387.972a2.428,2.428,0,1,1-2.428-2.428A2.428,2.428,0,0,1,203.858,387.972Z" transform="translate(-133.535 -360.793)" fill="#7986cb"/>
                <path id="Trazado_72614" data-name="Trazado 72614" d="M203.858,402.121a2.428,2.428,0,1,1-2.428-2.428A2.428,2.428,0,0,1,203.858,402.121Z" transform="translate(-133.535 -366.692)" fill="#7986cb"/>
                <path id="Trazado_72615" data-name="Trazado 72615" d="M203.858,416.271a2.428,2.428,0,1,1-2.428-2.428A2.429,2.429,0,0,1,203.858,416.271Z" transform="translate(-133.535 -372.592)" fill="#7986cb"/>
                <path id="Trazado_72616" data-name="Trazado 72616" d="M203.858,430.421a2.428,2.428,0,1,1-2.428-2.428A2.428,2.428,0,0,1,203.858,430.421Z" transform="translate(-133.535 -378.491)" fill="#7986cb"/>
                <path id="Trazado_72617" data-name="Trazado 72617" d="M203.858,444.57a2.428,2.428,0,1,1-2.428-2.428A2.428,2.428,0,0,1,203.858,444.57Z" transform="translate(-133.535 -384.39)" fill="#7986cb"/>
                <path id="Trazado_72618" data-name="Trazado 72618" d="M181.4,345.523a2.428,2.428,0,1,1-2.428-2.428A2.428,2.428,0,0,1,181.4,345.523Z" transform="translate(-124.172 -343.095)" fill="#7986cb"/>
                <path id="Trazado_72619" data-name="Trazado 72619" d="M181.4,359.673a2.428,2.428,0,1,1-2.428-2.428A2.428,2.428,0,0,1,181.4,359.673Z" transform="translate(-124.172 -348.995)" fill="#7986cb"/>
                <path id="Trazado_72620" data-name="Trazado 72620" d="M181.4,373.823a2.428,2.428,0,1,1-2.428-2.429A2.428,2.428,0,0,1,181.4,373.823Z" transform="translate(-124.172 -354.894)" fill="#7986cb"/>
                <path id="Trazado_72621" data-name="Trazado 72621" d="M181.4,387.972a2.428,2.428,0,1,1-2.428-2.428A2.428,2.428,0,0,1,181.4,387.972Z" transform="translate(-124.172 -360.793)" fill="#7986cb"/>
                <path id="Trazado_72622" data-name="Trazado 72622" d="M181.4,402.121a2.428,2.428,0,1,1-2.428-2.428A2.428,2.428,0,0,1,181.4,402.121Z" transform="translate(-124.172 -366.692)" fill="#7986cb"/>
                <path id="Trazado_72623" data-name="Trazado 72623" d="M181.4,416.271a2.428,2.428,0,1,1-2.428-2.428A2.428,2.428,0,0,1,181.4,416.271Z" transform="translate(-124.172 -372.592)" fill="#7986cb"/>
                <path id="Trazado_72624" data-name="Trazado 72624" d="M181.4,430.421a2.428,2.428,0,1,1-2.428-2.428A2.428,2.428,0,0,1,181.4,430.421Z" transform="translate(-124.172 -378.491)" fill="#7986cb"/>
                <path id="Trazado_72625" data-name="Trazado 72625" d="M181.4,444.57a2.428,2.428,0,1,1-2.428-2.428A2.428,2.428,0,0,1,181.4,444.57Z" transform="translate(-124.172 -384.39)" fill="#7986cb"/>
                <path id="Trazado_72626" data-name="Trazado 72626" d="M158.946,345.523a2.428,2.428,0,1,1-2.428-2.428A2.428,2.428,0,0,1,158.946,345.523Z" transform="translate(-114.81 -343.095)" fill="#7986cb"/>
                <path id="Trazado_72627" data-name="Trazado 72627" d="M158.946,359.673a2.428,2.428,0,1,1-2.428-2.428A2.428,2.428,0,0,1,158.946,359.673Z" transform="translate(-114.81 -348.995)" fill="#7986cb"/>
                <path id="Trazado_72628" data-name="Trazado 72628" d="M158.946,373.823a2.428,2.428,0,1,1-2.428-2.429A2.428,2.428,0,0,1,158.946,373.823Z" transform="translate(-114.81 -354.894)" fill="#7986cb"/>
                <path id="Trazado_72629" data-name="Trazado 72629" d="M158.946,387.972a2.428,2.428,0,1,1-2.428-2.428A2.428,2.428,0,0,1,158.946,387.972Z" transform="translate(-114.81 -360.793)" fill="#7986cb"/>
                <path id="Trazado_72630" data-name="Trazado 72630" d="M158.946,402.121a2.428,2.428,0,1,1-2.428-2.428A2.428,2.428,0,0,1,158.946,402.121Z" transform="translate(-114.81 -366.692)" fill="#7986cb"/>
                <path id="Trazado_72631" data-name="Trazado 72631" d="M158.946,416.271a2.428,2.428,0,1,1-2.428-2.428A2.428,2.428,0,0,1,158.946,416.271Z" transform="translate(-114.81 -372.592)" fill="#7986cb"/>
                <path id="Trazado_72632" data-name="Trazado 72632" d="M158.946,430.421a2.428,2.428,0,1,1-2.428-2.428A2.428,2.428,0,0,1,158.946,430.421Z" transform="translate(-114.81 -378.491)" fill="#7986cb"/>
                <path id="Trazado_72633" data-name="Trazado 72633" d="M158.946,444.57a2.428,2.428,0,1,1-2.428-2.428A2.428,2.428,0,0,1,158.946,444.57Z" transform="translate(-114.81 -384.39)" fill="#7986cb"/>
                <path id="Trazado_72634" data-name="Trazado 72634" d="M136.491,345.523a2.428,2.428,0,1,1-2.428-2.428A2.428,2.428,0,0,1,136.491,345.523Z" transform="translate(-105.448 -343.095)" fill="#7986cb"/>
                <ellipse id="Elipse_3383" data-name="Elipse 3383" cx="2.428" cy="2.428" rx="2.428" ry="2.428" transform="translate(26.187 8.25)" fill="#7986cb"/>
                <ellipse id="Elipse_3384" data-name="Elipse 3384" cx="2.428" cy="2.428" rx="2.428" ry="2.428" transform="translate(26.187 16.501)" fill="#7986cb"/>
                <ellipse id="Elipse_3385" data-name="Elipse 3385" cx="2.428" cy="2.428" rx="2.428" ry="2.428" transform="translate(26.187 24.751)" fill="#7986cb"/>
                <path id="Trazado_72635" data-name="Trazado 72635" d="M136.491,402.121a2.428,2.428,0,1,1-2.428-2.428A2.428,2.428,0,0,1,136.491,402.121Z" transform="translate(-105.448 -366.692)" fill="#7986cb"/>
                <path id="Trazado_72636" data-name="Trazado 72636" d="M136.491,416.271a2.428,2.428,0,1,1-2.428-2.428A2.428,2.428,0,0,1,136.491,416.271Z" transform="translate(-105.448 -372.592)" fill="#7986cb"/>
                <path id="Trazado_72637" data-name="Trazado 72637" d="M136.491,430.421a2.428,2.428,0,1,1-2.428-2.428A2.428,2.428,0,0,1,136.491,430.421Z" transform="translate(-105.448 -378.491)" fill="#7986cb"/>
                <ellipse id="Elipse_3386" data-name="Elipse 3386" cx="2.428" cy="2.428" rx="2.428" ry="2.428" transform="translate(26.187 57.752)" fill="#7986cb"/>
                <path id="Trazado_72638" data-name="Trazado 72638" d="M114.035,345.523a2.428,2.428,0,1,1-2.428-2.428A2.428,2.428,0,0,1,114.035,345.523Z" transform="translate(-96.085 -343.095)" fill="#7986cb"/>
                <ellipse id="Elipse_3387" data-name="Elipse 3387" cx="2.428" cy="2.428" rx="2.428" ry="2.428" transform="translate(13.093 8.25)" fill="#7986cb"/>
                <ellipse id="Elipse_3388" data-name="Elipse 3388" cx="2.428" cy="2.428" rx="2.428" ry="2.428" transform="translate(13.093 16.501)" fill="#7986cb"/>
                <ellipse id="Elipse_3389" data-name="Elipse 3389" cx="2.428" cy="2.428" rx="2.428" ry="2.428" transform="translate(13.093 24.751)" fill="#7986cb"/>
                <path id="Trazado_72639" data-name="Trazado 72639" d="M114.035,402.121a2.428,2.428,0,1,1-2.428-2.428A2.428,2.428,0,0,1,114.035,402.121Z" transform="translate(-96.085 -366.692)" fill="#7986cb"/>
                <path id="Trazado_72640" data-name="Trazado 72640" d="M114.035,416.271a2.428,2.428,0,1,1-2.428-2.428A2.428,2.428,0,0,1,114.035,416.271Z" transform="translate(-96.085 -372.592)" fill="#7986cb"/>
                <path id="Trazado_72641" data-name="Trazado 72641" d="M114.035,430.421a2.428,2.428,0,1,1-2.428-2.428A2.428,2.428,0,0,1,114.035,430.421Z" transform="translate(-96.085 -378.491)" fill="#7986cb"/>
                <ellipse id="Elipse_3390" data-name="Elipse 3390" cx="2.428" cy="2.428" rx="2.428" ry="2.428" transform="translate(13.093 57.752)" fill="#7986cb"/>
                <path id="Trazado_72642" data-name="Trazado 72642" d="M91.579,345.523a2.428,2.428,0,1,1-2.428-2.428A2.428,2.428,0,0,1,91.579,345.523Z" transform="translate(-86.723 -343.095)" fill="#7986cb"/>
                <ellipse id="Elipse_3391" data-name="Elipse 3391" cx="2.428" cy="2.428" rx="2.428" ry="2.428" transform="translate(0 8.25)" fill="#7986cb"/>
                <ellipse id="Elipse_3392" data-name="Elipse 3392" cx="2.428" cy="2.428" rx="2.428" ry="2.428" transform="translate(0 16.501)" fill="#7986cb"/>
                <ellipse id="Elipse_3393" data-name="Elipse 3393" cx="2.428" cy="2.428" rx="2.428" ry="2.428" transform="translate(0 24.751)" fill="#7986cb"/>
                <path id="Trazado_72643" data-name="Trazado 72643" d="M91.579,402.121a2.428,2.428,0,1,1-2.428-2.428A2.428,2.428,0,0,1,91.579,402.121Z" transform="translate(-86.723 -366.692)" fill="#7986cb"/>
                <path id="Trazado_72644" data-name="Trazado 72644" d="M91.579,416.271a2.428,2.428,0,1,1-2.428-2.428A2.428,2.428,0,0,1,91.579,416.271Z" transform="translate(-86.723 -372.592)" fill="#7986cb"/>
                <path id="Trazado_72645" data-name="Trazado 72645" d="M91.579,430.421a2.428,2.428,0,1,1-2.428-2.428A2.428,2.428,0,0,1,91.579,430.421Z" transform="translate(-86.723 -378.491)" fill="#7986cb"/>
                <ellipse id="Elipse_3394" data-name="Elipse 3394" cx="2.428" cy="2.428" rx="2.428" ry="2.428" transform="translate(0 57.752)" fill="#7986cb"/>
              </g>
              <g id="Grupo_47984" data-name="Grupo 47984">
                <path id="Trazado_72646" data-name="Trazado 72646" d="M192.63,338.448a2.428,2.428,0,1,1-2.428-2.428A2.428,2.428,0,0,1,192.63,338.448Z" transform="translate(-122.307 -336.02)" fill="#7986cb"/>
                <path id="Trazado_72647" data-name="Trazado 72647" d="M192.63,352.6a2.428,2.428,0,1,1-2.428-2.428A2.428,2.428,0,0,1,192.63,352.6Z" transform="translate(-122.307 -341.92)" fill="#7986cb"/>
                <ellipse id="Elipse_3395" data-name="Elipse 3395" cx="2.428" cy="2.428" rx="2.428" ry="2.428" transform="translate(65.467 16.501)" fill="#7986cb"/>
                <ellipse id="Elipse_3396" data-name="Elipse 3396" cx="2.428" cy="2.428" rx="2.428" ry="2.428" transform="translate(65.467 24.751)" fill="#7986cb"/>
                <ellipse id="Elipse_3397" data-name="Elipse 3397" cx="2.428" cy="2.428" rx="2.428" ry="2.428" transform="translate(65.467 33.001)" fill="#7986cb"/>
                <path id="Trazado_72648" data-name="Trazado 72648" d="M192.63,409.2a2.428,2.428,0,1,1-2.428-2.429A2.428,2.428,0,0,1,192.63,409.2Z" transform="translate(-122.307 -365.517)" fill="#7986cb"/>
                <path id="Trazado_72649" data-name="Trazado 72649" d="M192.63,423.346a2.428,2.428,0,1,1-2.428-2.428A2.428,2.428,0,0,1,192.63,423.346Z" transform="translate(-122.307 -371.416)" fill="#7986cb"/>
                <ellipse id="Elipse_3398" data-name="Elipse 3398" cx="2.428" cy="2.428" rx="2.428" ry="2.428" transform="translate(65.467 57.752)" fill="#7986cb"/>
                <ellipse id="Elipse_3399" data-name="Elipse 3399" cx="2.428" cy="2.428" rx="2.428" ry="2.428" transform="translate(65.467 66.002)" fill="#7986cb"/>
                <path id="Trazado_72650" data-name="Trazado 72650" d="M170.174,338.448a2.428,2.428,0,1,1-2.428-2.428A2.428,2.428,0,0,1,170.174,338.448Z" transform="translate(-112.944 -336.02)" fill="#7986cb"/>
                <path id="Trazado_72651" data-name="Trazado 72651" d="M170.174,352.6a2.428,2.428,0,1,1-2.428-2.428A2.428,2.428,0,0,1,170.174,352.6Z" transform="translate(-112.944 -341.92)" fill="#7986cb"/>
                <ellipse id="Elipse_3400" data-name="Elipse 3400" cx="2.428" cy="2.428" rx="2.428" ry="2.428" transform="translate(52.374 16.501)" fill="#7986cb"/>
                <ellipse id="Elipse_3401" data-name="Elipse 3401" cx="2.428" cy="2.428" rx="2.428" ry="2.428" transform="translate(52.374 24.751)" fill="#7986cb"/>
                <ellipse id="Elipse_3402" data-name="Elipse 3402" cx="2.428" cy="2.428" rx="2.428" ry="2.428" transform="translate(52.374 33.001)" fill="#7986cb"/>
                <path id="Trazado_72652" data-name="Trazado 72652" d="M170.174,409.2a2.428,2.428,0,1,1-2.428-2.429A2.428,2.428,0,0,1,170.174,409.2Z" transform="translate(-112.944 -365.517)" fill="#7986cb"/>
                <path id="Trazado_72653" data-name="Trazado 72653" d="M170.174,423.346a2.428,2.428,0,1,1-2.428-2.428A2.428,2.428,0,0,1,170.174,423.346Z" transform="translate(-112.944 -371.416)" fill="#7986cb"/>
                <ellipse id="Elipse_3403" data-name="Elipse 3403" cx="2.428" cy="2.428" rx="2.428" ry="2.428" transform="translate(52.374 57.752)" fill="#7986cb"/>
                <ellipse id="Elipse_3404" data-name="Elipse 3404" cx="2.428" cy="2.428" rx="2.428" ry="2.428" transform="translate(52.374 66.002)" fill="#7986cb"/>
                <path id="Trazado_72654" data-name="Trazado 72654" d="M147.719,338.448a2.428,2.428,0,1,1-2.428-2.428A2.428,2.428,0,0,1,147.719,338.448Z" transform="translate(-103.582 -336.02)" fill="#7986cb"/>
                <path id="Trazado_72655" data-name="Trazado 72655" d="M147.719,352.6a2.428,2.428,0,1,1-2.428-2.428A2.428,2.428,0,0,1,147.719,352.6Z" transform="translate(-103.582 -341.92)" fill="#7986cb"/>
                <path id="Trazado_72656" data-name="Trazado 72656" d="M147.719,366.747a2.428,2.428,0,1,1-2.428-2.428A2.428,2.428,0,0,1,147.719,366.747Z" transform="translate(-103.582 -347.819)" fill="#7986cb"/>
                <path id="Trazado_72657" data-name="Trazado 72657" d="M147.719,380.9a2.428,2.428,0,1,1-2.428-2.428A2.428,2.428,0,0,1,147.719,380.9Z" transform="translate(-103.582 -353.718)" fill="#7986cb"/>
                <path id="Trazado_72658" data-name="Trazado 72658" d="M147.719,395.047a2.428,2.428,0,1,1-2.428-2.428A2.428,2.428,0,0,1,147.719,395.047Z" transform="translate(-103.582 -359.618)" fill="#7986cb"/>
                <path id="Trazado_72659" data-name="Trazado 72659" d="M147.719,409.2a2.428,2.428,0,1,1-2.428-2.429A2.428,2.428,0,0,1,147.719,409.2Z" transform="translate(-103.582 -365.517)" fill="#7986cb"/>
                <path id="Trazado_72660" data-name="Trazado 72660" d="M147.719,423.346a2.428,2.428,0,1,1-2.428-2.428A2.428,2.428,0,0,1,147.719,423.346Z" transform="translate(-103.582 -371.416)" fill="#7986cb"/>
                <path id="Trazado_72661" data-name="Trazado 72661" d="M147.719,437.5a2.428,2.428,0,1,1-2.428-2.429A2.428,2.428,0,0,1,147.719,437.5Z" transform="translate(-103.582 -377.315)" fill="#7986cb"/>
                <path id="Trazado_72662" data-name="Trazado 72662" d="M147.719,451.645a2.428,2.428,0,1,1-2.428-2.428A2.428,2.428,0,0,1,147.719,451.645Z" transform="translate(-103.582 -383.215)" fill="#7986cb"/>
                <path id="Trazado_72663" data-name="Trazado 72663" d="M125.263,338.448a2.428,2.428,0,1,1-2.428-2.428A2.428,2.428,0,0,1,125.263,338.448Z" transform="translate(-94.22 -336.02)" fill="#7986cb"/>
                <path id="Trazado_72664" data-name="Trazado 72664" d="M125.263,352.6a2.428,2.428,0,1,1-2.428-2.428A2.428,2.428,0,0,1,125.263,352.6Z" transform="translate(-94.22 -341.92)" fill="#7986cb"/>
                <path id="Trazado_72665" data-name="Trazado 72665" d="M125.263,366.747a2.428,2.428,0,1,1-2.428-2.428A2.428,2.428,0,0,1,125.263,366.747Z" transform="translate(-94.22 -347.819)" fill="#7986cb"/>
                <path id="Trazado_72666" data-name="Trazado 72666" d="M125.263,380.9a2.428,2.428,0,1,1-2.428-2.428A2.428,2.428,0,0,1,125.263,380.9Z" transform="translate(-94.22 -353.718)" fill="#7986cb"/>
                <path id="Trazado_72667" data-name="Trazado 72667" d="M125.263,395.047a2.428,2.428,0,1,1-2.428-2.428A2.428,2.428,0,0,1,125.263,395.047Z" transform="translate(-94.22 -359.618)" fill="#7986cb"/>
                <path id="Trazado_72668" data-name="Trazado 72668" d="M125.263,409.2a2.428,2.428,0,1,1-2.428-2.429A2.428,2.428,0,0,1,125.263,409.2Z" transform="translate(-94.22 -365.517)" fill="#7986cb"/>
                <path id="Trazado_72669" data-name="Trazado 72669" d="M125.263,423.346a2.428,2.428,0,1,1-2.428-2.428A2.428,2.428,0,0,1,125.263,423.346Z" transform="translate(-94.22 -371.416)" fill="#7986cb"/>
                <path id="Trazado_72670" data-name="Trazado 72670" d="M125.263,437.5a2.428,2.428,0,1,1-2.428-2.429A2.428,2.428,0,0,1,125.263,437.5Z" transform="translate(-94.22 -377.315)" fill="#7986cb"/>
                <path id="Trazado_72671" data-name="Trazado 72671" d="M125.263,451.645a2.428,2.428,0,1,1-2.428-2.428A2.428,2.428,0,0,1,125.263,451.645Z" transform="translate(-94.22 -383.215)" fill="#7986cb"/>
                <path id="Trazado_72672" data-name="Trazado 72672" d="M102.807,338.448a2.428,2.428,0,1,1-2.428-2.428A2.428,2.428,0,0,1,102.807,338.448Z" transform="translate(-84.857 -336.02)" fill="#7986cb"/>
                <path id="Trazado_72673" data-name="Trazado 72673" d="M102.807,352.6a2.428,2.428,0,1,1-2.428-2.428A2.428,2.428,0,0,1,102.807,352.6Z" transform="translate(-84.857 -341.92)" fill="#7986cb"/>
                <path id="Trazado_72674" data-name="Trazado 72674" d="M102.807,366.747a2.428,2.428,0,1,1-2.428-2.428A2.428,2.428,0,0,1,102.807,366.747Z" transform="translate(-84.857 -347.819)" fill="#7986cb"/>
                <path id="Trazado_72675" data-name="Trazado 72675" d="M102.807,380.9a2.428,2.428,0,1,1-2.428-2.428A2.428,2.428,0,0,1,102.807,380.9Z" transform="translate(-84.857 -353.718)" fill="#7986cb"/>
                <path id="Trazado_72676" data-name="Trazado 72676" d="M102.807,395.047a2.428,2.428,0,1,1-2.428-2.428A2.428,2.428,0,0,1,102.807,395.047Z" transform="translate(-84.857 -359.618)" fill="#7986cb"/>
                <path id="Trazado_72677" data-name="Trazado 72677" d="M102.807,409.2a2.428,2.428,0,1,1-2.428-2.429A2.428,2.428,0,0,1,102.807,409.2Z" transform="translate(-84.857 -365.517)" fill="#7986cb"/>
                <path id="Trazado_72678" data-name="Trazado 72678" d="M102.807,423.346a2.428,2.428,0,1,1-2.428-2.428A2.428,2.428,0,0,1,102.807,423.346Z" transform="translate(-84.857 -371.416)" fill="#7986cb"/>
                <path id="Trazado_72679" data-name="Trazado 72679" d="M102.807,437.5a2.428,2.428,0,1,1-2.428-2.429A2.428,2.428,0,0,1,102.807,437.5Z" transform="translate(-84.857 -377.315)" fill="#7986cb"/>
                <path id="Trazado_72680" data-name="Trazado 72680" d="M102.807,451.645a2.428,2.428,0,1,1-2.428-2.428A2.428,2.428,0,0,1,102.807,451.645Z" transform="translate(-84.857 -383.215)" fill="#7986cb"/>
                <path id="Trazado_72681" data-name="Trazado 72681" d="M80.351,338.448a2.428,2.428,0,1,1-2.429-2.428A2.428,2.428,0,0,1,80.351,338.448Z" transform="translate(-75.495 -336.02)" fill="#7986cb"/>
                <path id="Trazado_72682" data-name="Trazado 72682" d="M80.351,352.6a2.428,2.428,0,1,1-2.429-2.428A2.429,2.429,0,0,1,80.351,352.6Z" transform="translate(-75.495 -341.92)" fill="#7986cb"/>
                <ellipse id="Elipse_3405" data-name="Elipse 3405" cx="2.428" cy="2.428" rx="2.428" ry="2.428" transform="translate(0 16.501)" fill="#7986cb"/>
                <ellipse id="Elipse_3406" data-name="Elipse 3406" cx="2.428" cy="2.428" rx="2.428" ry="2.428" transform="translate(0 24.751)" fill="#7986cb"/>
                <ellipse id="Elipse_3407" data-name="Elipse 3407" cx="2.428" cy="2.428" rx="2.428" ry="2.428" transform="translate(0 33.001)" fill="#7986cb"/>
                <path id="Trazado_72683" data-name="Trazado 72683" d="M80.351,409.2a2.428,2.428,0,1,1-2.429-2.429A2.428,2.428,0,0,1,80.351,409.2Z" transform="translate(-75.495 -365.517)" fill="#7986cb"/>
                <path id="Trazado_72684" data-name="Trazado 72684" d="M80.351,423.346a2.428,2.428,0,1,1-2.429-2.428A2.428,2.428,0,0,1,80.351,423.346Z" transform="translate(-75.495 -371.416)" fill="#7986cb"/>
                <ellipse id="Elipse_3408" data-name="Elipse 3408" cx="2.428" cy="2.428" rx="2.428" ry="2.428" transform="translate(0 57.752)" fill="#7986cb"/>
                <ellipse id="Elipse_3409" data-name="Elipse 3409" cx="2.428" cy="2.428" rx="2.428" ry="2.428" transform="translate(0 66.002)" fill="#7986cb"/>
              </g>
            </g>
          </g>
        </g>
      </g>
      <g id="Grupo_47990" data-name="Grupo 47990" transform="translate(80.083 79.024)">
        <path id="Trazado_72690" data-name="Trazado 72690" d="M439.893,114.083a1.727,1.727,0,0,0,0,3.452A1.727,1.727,0,0,0,439.893,114.083Z" transform="translate(-261.687 -114.083)" fill="#00223d"/>
        <path id="Trazado_72691" data-name="Trazado 72691" d="M120.893,139.583a1.727,1.727,0,0,0,0,3.452A1.727,1.727,0,0,0,120.893,139.583Z" transform="translate(-99.994 -127.008)" fill="#00223d"/>
        <path id="Trazado_72692" data-name="Trazado 72692" d="M398.893,345.083a1.727,1.727,0,0,0,0,3.452A1.727,1.727,0,0,0,398.893,345.083Z" transform="translate(-240.905 -231.171)" fill="#00223d"/>
        <path id="Trazado_72694" data-name="Trazado 72694" d="M81.893,330.583a1.727,1.727,0,0,0,0,3.452A1.727,1.727,0,0,0,81.893,330.583Z" transform="translate(-80.226 -223.821)" fill="#54c3ea"/>
        <path id="Trazado_72695" data-name="Trazado 72695" d="M441.893,211.083a1.727,1.727,0,0,0,0,3.452A1.727,1.727,0,0,0,441.893,211.083Z" transform="translate(-262.701 -163.25)" fill="#00223d"/>
        <path id="Trazado_72696" data-name="Trazado 72696" d="M135.628,164.083a.987.987,0,0,0,0,1.973A.987.987,0,0,0,135.628,164.083Z" transform="translate(-107.825 -139.427)" fill="#00223d"/>
        <path id="Trazado_72697" data-name="Trazado 72697" d="M85.628,285.583a.987.987,0,0,0,0,1.973A.987.987,0,0,0,85.628,285.583Z" transform="translate(-82.481 -201.012)" fill="#54c3ea"/>
        <path id="Trazado_72698" data-name="Trazado 72698" d="M179.628,210.083a.987.987,0,0,0,0,1.973A.987.987,0,0,0,179.628,210.083Z" transform="translate(-130.127 -162.743)" fill="#54c3ea"/>
        <path id="Trazado_72699" data-name="Trazado 72699" d="M429.628,164.583a.987.987,0,0,0,0,1.973A.987.987,0,0,0,429.628,164.583Z" transform="translate(-256.846 -139.68)" fill="#00223d"/>
        <path id="Trazado_72702" data-name="Trazado 72702" d="M294.128,347.583a.987.987,0,0,0,0,1.973A.987.987,0,0,0,294.128,347.583Z" transform="translate(-188.165 -232.438)" fill="#00223d"/>
        <path id="Trazado_72703" data-name="Trazado 72703" d="M87.628,390.583a.987.987,0,0,0,0,1.973A.987.987,0,0,0,87.628,390.583Z" transform="translate(-83.495 -254.234)" fill="#54c3ea"/>
      </g>
      <line id="Línea_343" data-name="Línea 343" x2="291.001" transform="translate(79.943 247.18)" fill="none" stroke="#130f40" stroke-linecap="round" stroke-linejoin="round" stroke-width="0.75"/>
      <g id="Grupo_47992" data-name="Grupo 47992" transform="translate(278.87 71.561)">
        <g id="Grupo_47991" data-name="Grupo 47991" transform="translate(62.2 16.046)">
          <rect id="Rectángulo_27305" data-name="Rectángulo 27305" width="10.207" height="127.544" transform="translate(0 22.003) rotate(-8.378)" fill="#00223d"/>
          <path id="Trazado_72705" data-name="Trazado 72705" d="M540.31,277.51,530.212,279l.926-14.117.477-7.323a.6.6,0,0,1,1.166-.172l2.574,6.874Z" transform="translate(-530.212 -256.993)" fill="#fff"/>
          <path id="Trazado_72706" data-name="Trazado 72706" d="M535.577,264.259l-4.216.62.477-7.323a.6.6,0,0,1,1.166-.172Z" transform="translate(-530.435 -256.993)" fill="#00223d"/>
          <path id="Trazado_72707" data-name="Trazado 72707" d="M563.38,439.1l1.149,7.8a3.794,3.794,0,0,1-3.2,4.307l-2.59.382a3.794,3.794,0,0,1-4.307-3.2l-1.15-7.8Z" transform="translate(-534.698 -292.403)" fill="#6a6ae2"/>
          <rect id="Rectángulo_27306" data-name="Rectángulo 27306" width="10.207" height="2.282" transform="matrix(0.989, -0.146, 0.146, 0.989, 18.252, 145.928)" fill="#130f40"/>
        </g>
        <path id="Trazado_72708" data-name="Trazado 72708" d="M476.916,322.627l2.719,3.424s-2.517-.3-2.719,1.309,3.323,2.115,5.337,1.611,8.761-10.372-4.632-12.688Z" transform="translate(-457.648 -252.475)" fill="#ff8e77"/>
        <path id="Trazado_72709" data-name="Trazado 72709" d="M485.494,451.562H463.873a16.5,16.5,0,0,1,2.046-3.891,36.6,36.6,0,0,1,9.771-8.934h9.127l.475,8.934Z" transform="translate(-455.113 -276.285)" fill="#d1bcff"/>
        <path id="Trazado_72710" data-name="Trazado 72710" d="M533.326,451.562H511.713l.2-3.891.467-8.934h9.127a36.6,36.6,0,0,1,9.772,8.934A16.5,16.5,0,0,1,533.326,451.562Z" transform="translate(-464.415 -276.285)" fill="#d1bcff"/>
        <path id="Trazado_72711" data-name="Trazado 72711" d="M543.214,291.358a1.722,1.722,0,0,0-.713-2.38,2.339,2.339,0,0,0-.22-2,1.538,1.538,0,0,0-2.213-.424l-7.642,5.6-2.132-1.515a1.366,1.366,0,0,0-1.945.384,1.944,1.944,0,0,0,.287,2.431l5.853,5.706s6.24-1.352,8.429-4.724C543.989,292.783,543.742,291.866,543.214,291.358Z" transform="translate(-467.591 -246.636)" fill="#ff8e77"/>
        <path id="Trazado_72712" data-name="Trazado 72712" d="M484.161,335.408l-9.868,84.382h14.1l8.66-73.1,6.243,73.1h14.5l-9.667-83.375Z" transform="translate(-457.139 -256.194)" fill="#673ab7"/>
        <rect id="Rectángulo_27307" data-name="Rectángulo 27307" width="9.012" height="6.847" transform="translate(31.554 26.299)" fill="#ff8e77"/>
        <path id="Trazado_72713" data-name="Trazado 72713" d="M497.836,237.913a.839.839,0,1,1-.839-.839A.839.839,0,0,1,497.836,237.913Z" transform="translate(-461.39 -237.074)" fill="#130f40"/>
        <path id="Trazado_72714" data-name="Trazado 72714" d="M504.438,255.136a9.541,9.541,0,1,0-19.081,0c0,.1.011.187.014.281h-.008c0,4.326,3.922,10.166,5.331,12.281l1.057-1.712,1.763,1.712,1.712-1.812,1.41,1.812,1.762-1.964,1.813,1.964s3.367-7.6,3.975-10.372c0-.01,0-.019,0-.029A9.55,9.55,0,0,0,504.438,255.136Z" transform="translate(-459.29 -238.731)" fill="#00223d"/>
        <path id="Trazado_72715" data-name="Trazado 72715" d="M510.969,251.819c0-2.252-8.127-5.286-18.15-5.286s-18.151,3.034-18.151,5.286,8.127,4.079,18.151,4.079S510.969,254.071,510.969,251.819Z" transform="translate(-457.212 -238.913)" fill="#d1bcff"/>
        <path id="Trazado_72716" data-name="Trazado 72716" d="M504.058,246.678v2.683c0,1.128-4.044,2.038-9.039,2.038s-9.046-.91-9.046-2.038v-2.683c0,.717,4.052,1.3,9.046,1.3S504.058,247.395,504.058,246.678Z" transform="translate(-459.41 -238.941)" fill="#fff"/>
        <path id="Trazado_72717" data-name="Trazado 72717" d="M504.058,238.867v6.154c0,.717-4.044,1.3-9.039,1.3s-9.046-.58-9.046-1.3v-6.154a58.016,58.016,0,0,1,18.085,0Z" transform="translate(-459.41 -237.285)" fill="#d1bcff"/>
        <path id="Trazado_72718" data-name="Trazado 72718" d="M516.287,314.981,506.3,301.439l-6.042-8.2H480.673l-3.875,3.069-10.569,8.362,7.548,2.666c1.764,3.931-1.458,9.715-1.458,9.715a35.238,35.238,0,0,1-15.644-4.431,7.163,7.163,0,0,1-1.821-11.076L468.839,286a22.582,22.582,0,0,1,7.959-5.679c.33-.145.661-.282,1-.4l3-1.12a28.893,28.893,0,0,1,17.449-.838l1.16.314a22.706,22.706,0,0,1,12.752,8.909l5.679,8.112h8.152a129.2,129.2,0,0,1,2.3,15.072A6.667,6.667,0,0,1,516.287,314.981Z" transform="translate(-452.999 -244.837)" fill="#fff"/>
        <path id="Trazado_72719" data-name="Trazado 72719" d="M512.285,281.59l-.242,19.849-.3,24.827h-29.2V280.325c.33-.145.661-.282,1-.4l3-1.12a28.893,28.893,0,0,1,17.449-.838l1.16.314A22.558,22.558,0,0,1,512.285,281.59Z" transform="translate(-458.743 -244.837)" fill="#fff"/>
        <line id="Línea_344" data-name="Línea 344" x1="4.326" y1="6.052" transform="translate(48.974 50.549)" fill="none" stroke="#130f40" stroke-linecap="round" stroke-linejoin="round" stroke-width="0.75"/>
        <path id="Trazado_72720" data-name="Trazado 72720" d="M533.483,299.718a76.44,76.44,0,0,1,6.158,10.894" transform="translate(-468.648 -249.254)" fill="#00223d" stroke="#130f40" stroke-linecap="round" stroke-linejoin="round" stroke-width="0.75"/>
        <path id="Trazado_72721" data-name="Trazado 72721" d="M482.543,298.639v-9.648" transform="translate(-458.743 -247.169)" fill="#00223d" stroke="#130f40" stroke-linecap="round" stroke-linejoin="round" stroke-width="0.75"/>
        <path id="Trazado_72722" data-name="Trazado 72722" d="M485.293,449.828l.2,3.891H463.873a16.5,16.5,0,0,1,2.046-3.891Z" transform="translate(-455.113 -278.442)" fill="#fff"/>
        <path id="Trazado_72723" data-name="Trazado 72723" d="M533.326,453.719H511.713l.2-3.891H531.28A16.5,16.5,0,0,1,533.326,453.719Z" transform="translate(-464.415 -278.442)" fill="#fff"/>
      </g>
    </g>
  </g>
</svg>
