<svg xmlns="http://www.w3.org/2000/svg" xmlns:xlink="http://www.w3.org/1999/xlink" width="232.141" height="204.561" viewBox="0 0 232.141 204.561">
  <defs>
    <clipPath id="clip-path">
      <path id="Trazado_72739" data-name="Trazado 72739" d="M103.714,289.767s1.718-18.354.817-20.016S76,268.366,76,268.366s-.415,9.622,0,10.178,5.748.357,5.748.357-.277-4.164.623-4.718,13.713-.138,14.129.831-2.424,7.349-2.424,9.25l.623,5.5Z" transform="translate(-75.812 -268.349)" fill="none"/>
    </clipPath>
  </defs>
  <g id="Grupo_48157" data-name="Grupo 48157" transform="translate(-31.305 -48.551)">
    <path id="Trazado_72727" data-name="Trazado 72727" d="M150.375,236.94a147.829,147.829,0,0,0-31.4.782c-27.094,3.586-82.931,7.4-86.276-21.428-4.427-38.152,8.294-32.717,11.915-63.387s-25.886-46.372-6.855-68.911,54.31-34.873,70.77-23.121,60.937-23.593,91.063-8.511S229.65,111,237.681,112.985s42.692,61.9,15.561,102.074C228.2,252.142,213.352,242.073,150.375,236.94Z" transform="translate(0 0)" fill="#c9c9f4" opacity="0.5"/>
    <g id="Grupo_48037" data-name="Grupo 48037" transform="translate(50.725 63.636)">
      <path id="Trazado_72728" data-name="Trazado 72728" d="M68.748,78.812l2.058,63.895h34.4V77.636Z" transform="translate(-68.748 -77.636)" fill="#673ab7"/>
      <path id="Trazado_72729" data-name="Trazado 72729" d="M75.047,85.6l1.488,56.918,28.271.158V84.662Z" transform="translate(-71.78 -81.018)" fill="#8484d3"/>
      <g id="Grupo_48036" data-name="Grupo 48036" transform="translate(3.869 9.311)">
        <path id="Trazado_72730" data-name="Trazado 72730" d="M105.364,116.486,96,110.157a.819.819,0,0,0-.458-.14H92.009a.817.817,0,0,1-.816-.784l-.008-.193a.817.817,0,0,1,1.078-.807l.46.156a.817.817,0,0,0,1.048-.553l1.118-3.974a.806.806,0,0,0,0-.433c-.317-1.173-1.852-6.754-2.483-7.48-.59-.679-6.808-.223-8.829-.055a.813.813,0,0,0-.736.677c-.389,2.322-1.731,10.415-1.731,11.687v2.365a.817.817,0,0,1-.413.711l-4.492,2.549.141,5.39a.811.811,0,0,1,.5-.548l4.194-1.559a.817.817,0,0,1,1.054.492l3.121,8.763a.816.816,0,0,1-.074.7l-3.318,5.388-5.443-12.7c-.009-.022-.013-.045-.021-.067l.208,7.963,3.9,7-1.849,3a.815.815,0,0,0-.089.656l2.742,9.428,19.534.109,1.163-13.494a.816.816,0,0,0-.329-.727l-1.013-.749,4.736-9.778ZM99.226,131.9,95.8,129.372a.816.816,0,0,1-.232-.267L93.7,125.66a.818.818,0,0,1-.068-.613l2.146-7.586a.817.817,0,0,1,1.017-.561l6.357,1.875a.817.817,0,0,1,.535,1.067Z" transform="translate(-76.207 -95.588)" fill="#8484d3" opacity="0.5" style="mix-blend-mode: multiply;isolation: isolate"/>
      </g>
    </g>
    <g id="Grupo_48045" data-name="Grupo 48045" transform="translate(42.719 156.609)">
      <g id="Grupo_48043" data-name="Grupo 48043" transform="translate(6.079)">
        <g id="Grupo_48038" data-name="Grupo 48038" transform="translate(0 1.707)">
          <path id="Trazado_72731" data-name="Trazado 72731" d="M72.2,276.509a.252.252,0,0,1-.044,0,.745.745,0,0,1-.463-.383,2.058,2.058,0,0,0-.839-.738,3.823,3.823,0,0,0-1.055-.241,2.318,2.318,0,0,1-1.59-.631,1.943,1.943,0,0,1-.177-1.818,7.575,7.575,0,0,1,.3-.714,5.407,5.407,0,0,0,.357-.927,4.463,4.463,0,0,0,.091-1.244c0-.077-.007-.154-.013-.232a1.707,1.707,0,0,1-.77,1.057,2.017,2.017,0,0,1-1.026.214,2.358,2.358,0,0,1-.888-.157,1.793,1.793,0,0,1-1-2.023,1.933,1.933,0,0,1,1.779-1.415,2.115,2.115,0,0,1,1.762.935,5.886,5.886,0,0,0-1.139-3.1c-.078-.1-.16-.207-.241-.312a3.244,3.244,0,0,1-.779-1.414,1.946,1.946,0,0,1,.647-1.734,2.774,2.774,0,0,1,1.729-.67,2.286,2.286,0,0,1,1.234.245,3.877,3.877,0,0,1,.868-.408,7.63,7.63,0,0,1,1.873-.281,6.7,6.7,0,0,0,1.975-.328l.093.242a6.9,6.9,0,0,1-2.05.345,7.485,7.485,0,0,0-1.811.268,3.665,3.665,0,0,0-.714.323,1.3,1.3,0,0,1,.484,1.1.605.605,0,0,1-.253.461.746.746,0,0,1-.356.093c-.2.017-.808.065-1.025-.355-.153-.3-.025-.678.341-1.022a3.8,3.8,0,0,1,.329-.274,2.167,2.167,0,0,0-.976-.154,2.519,2.519,0,0,0-1.568.6,1.711,1.711,0,0,0-.565,1.5,3.058,3.058,0,0,0,.726,1.3c.084.105.167.211.246.317a6.143,6.143,0,0,1,1.2,3.734c0,.033,0,.067,0,.1a4.233,4.233,0,0,1,.147,1.031,4.718,4.718,0,0,1-.1,1.317,5.744,5.744,0,0,1-.373.971c-.1.225-.207.456-.287.689a1.7,1.7,0,0,0,.131,1.568,2.1,2.1,0,0,0,1.425.54,4.042,4.042,0,0,1,1.128.26,2.29,2.29,0,0,1,.928.8c.1.152.192.282.306.3a.09.09,0,0,0,.06-.028.11.11,0,0,0,.037-.071l.117-.223a.251.251,0,0,1,.129.313A.378.378,0,0,1,72.2,276.509Zm-5.286-9h-.049a1.668,1.668,0,0,0-1.536,1.218,1.525,1.525,0,0,0,.848,1.722,2.11,2.11,0,0,0,.791.137,1.76,1.76,0,0,0,.9-.18,1.907,1.907,0,0,0,.761-1.609,2.041,2.041,0,0,0-.08-.209A1.839,1.839,0,0,0,66.915,267.512Zm3.158-6a3.641,3.641,0,0,0-.4.323c-.214.2-.4.493-.288.714.092.178.344.249.774.215a.558.558,0,0,0,.238-.053.38.38,0,0,0,.133-.271A1.049,1.049,0,0,0,70.074,261.51Z" transform="translate(-65.032 -260.184)" fill="#ffd54f"/>
        </g>
        <g id="Grupo_48042" data-name="Grupo 48042" transform="translate(3.325)">
          <path id="Trazado_72732" data-name="Trazado 72732" d="M77.221,297.929v-.516H79.87v.8Z" transform="translate(-74.224 -276.397)" fill="#3d3da0"/>
          <path id="Trazado_72733" data-name="Trazado 72733" d="M78.713,288.94v3.837l.434-3.837Z" transform="translate(-74.942 -272.318)" fill="#9fa8da"/>
          <path id="Trazado_72734" data-name="Trazado 72734" d="M78.17,287.211v1.8h1.313l.117-2.133Z" transform="translate(-74.681 -271.328)" fill="#895cd8"/>
          <path id="Trazado_72735" data-name="Trazado 72735" d="M130.685,277.859s3.332.12,3.53.636.159,1.826,0,1.826-3.731.555-3.731.555Z" transform="translate(-99.862 -266.984)" fill="#895cd8"/>
          <path id="Trazado_72736" data-name="Trazado 72736" d="M103.714,289.767s1.718-18.354.817-20.016S76,268.366,76,268.366s-.415,9.622,0,10.178,5.748.357,5.748.357-.277-4.164.623-4.718,13.713-.138,14.129.831-2.424,7.349-2.424,9.25l.623,5.5Z" transform="translate(-73.546 -262.406)" fill="#9fa8da"/>
          <g id="Grupo_48041" data-name="Grupo 48041" transform="translate(2.266 5.942)">
            <g id="Grupo_48040" data-name="Grupo 48040" clip-path="url(#clip-path)">
              <g id="Grupo_48039" data-name="Grupo 48039" transform="translate(-0.938 2.791)">
                <path id="Trazado_72737" data-name="Trazado 72737" d="M121.96,292.331s.555-8.693.4-8.653-5,0-5,0l-.952,8.358Z" transform="translate(-94.412 -278.518)" fill="#895cd8"/>
                <path id="Trazado_72738" data-name="Trazado 72738" d="M74.758,273.729s2.1.317,2.54.992,0,6.927,0,6.927H74Z" transform="translate(-74.004 -273.729)" fill="#895cd8"/>
              </g>
            </g>
          </g>
          <rect id="Rectángulo_27324" data-name="Rectángulo 27324" width="31.609" height="6.046" transform="translate(0 21.315)" fill="#7986cb"/>
          <rect id="Rectángulo_27325" data-name="Rectángulo 27325" width="0.357" height="6.55" transform="translate(5.139)" fill="#895cd8"/>
          <path id="Trazado_72740" data-name="Trazado 72740" d="M78.713,258.8h3.432l-.357,4.173-3.075-.04.217-3.969" transform="translate(-74.942 -257.808)" fill="#ffd54f"/>
          <path id="Trazado_72741" data-name="Trazado 72741" d="M132.688,270.78s.118,9.8.362,10.161,1.792.234,1.753-.24-.039-10-.357-10.2S132.683,270.383,132.688,270.78Z" transform="translate(-100.923 -263.393)" fill="#9fa8da"/>
          <path id="Trazado_72742" data-name="Trazado 72742" d="M115.4,272.211l.831,2.93h.436l-.935-2.93Z" transform="translate(-92.601 -264.265)" fill="#895cd8"/>
          <path id="Trazado_72743" data-name="Trazado 72743" d="M118.044,272.211l.831,2.93h.436l-.935-2.93Z" transform="translate(-93.874 -264.265)" fill="#895cd8"/>
          <path id="Trazado_72744" data-name="Trazado 72744" d="M120.687,272.211l.831,2.93h.436l-.935-2.93Z" transform="translate(-95.146 -264.265)" fill="#895cd8"/>
        </g>
      </g>
      <g id="Grupo_48044" data-name="Grupo 48044" transform="translate(0 26.491)">
        <path id="Trazado_72745" data-name="Trazado 72745" d="M66.028,313.751l1.784,61.591,3.068-.229,2.205-61.363Z" transform="translate(-59.433 -310.752)" fill="#af7452"/>
        <path id="Trazado_72746" data-name="Trazado 72746" d="M131.251,313.751l-1.784,61.591-3.068-.229-2.205-61.363Z" transform="translate(-87.431 -310.752)" fill="#af7452"/>
        <path id="Trazado_72747" data-name="Trazado 72747" d="M66.028,313.751l.193,6.665H103.06l.193-6.665Z" transform="translate(-59.433 -310.752)" fill="#e99163"/>
        <path id="Trazado_72748" data-name="Trazado 72748" d="M53.312,311.322l50.416.249v-3.6H53.312Z" transform="translate(-53.312 -307.969)" fill="#2b1811"/>
      </g>
    </g>
    <g id="Grupo_48051" data-name="Grupo 48051" transform="translate(143.254 61.265)">
      <path id="Trazado_72749" data-name="Trazado 72749" d="M247.148,76.966s2.2,143.275,3.434,145.986,90,0,91.548,0,2.323-145.211,0-147.922S249.361,71.933,247.148,76.966Z" transform="translate(-247.148 -73.065)" fill="#2b1811"/>
      <path id="Trazado_72750" data-name="Trazado 72750" d="M259.449,88.8s1.748,133.219,2.728,135.343,82,0,82,0L342.243,88.8Z" transform="translate(-253.069 -80.639)" fill="#dedede"/>
      <g id="Grupo_48046" data-name="Grupo 48046" transform="translate(21.976 17.245)">
        <path id="Trazado_72751" data-name="Trazado 72751" d="M290.9,182.832c1.351.441,20.245-6.737,20.875-12.6s-3.779-17.483-3.988-19.963,2.519-21.615,2.519-21.615-13.856-5.872-11.127-18.352l-9.657-3.993S289.548,182.39,290.9,182.832Z" transform="translate(-289.519 -106.313)" fill="none" stroke="#707070" stroke-miterlimit="10" stroke-width="0.878" stroke-dasharray="2.634 2.634"/>
        <path id="Trazado_72752" data-name="Trazado 72752" d="M335.168,131.9l32.169,15.924,4.619-7.264-33.381-27.511Z" transform="translate(-311.492 -109.555)" fill="none" stroke="#707070" stroke-miterlimit="10" stroke-width="0.878" stroke-dasharray="2.634 2.634"/>
        <line id="Línea_345" data-name="Línea 345" x1="3.359" y2="5.803" transform="translate(52.696 29.588)" fill="none" stroke="#707070" stroke-miterlimit="10" stroke-width="0.878" stroke-dasharray="2.634 2.634"/>
        <path id="Trazado_72753" data-name="Trazado 72753" d="M294.535,109.291l6.552,18.019-6.552,12.9,7.422,11.69-9.779,18.109" transform="translate(-290.799 -107.746)" fill="none" stroke="#707070" stroke-miterlimit="10" stroke-width="0.878" stroke-dasharray="2.634 2.634"/>
        <path id="Trazado_72754" data-name="Trazado 72754" d="M301.605,225.682v6.738l10.527-5.651V221.5Z" transform="translate(-295.337 -161.759)" fill="none" stroke="#707070" stroke-miterlimit="10" stroke-width="0.878" stroke-dasharray="2.634 2.634"/>
        <line id="Línea_346" data-name="Línea 346" x1="2.729" y2="14.887" transform="translate(25.613 6.629)" fill="none" stroke="#707070" stroke-miterlimit="10" stroke-width="0.878" stroke-dasharray="2.634 2.634"/>
      </g>
      <g id="Grupo_48048" data-name="Grupo 48048" transform="translate(54.689 54.016)">
        <path id="Trazado_72755" data-name="Trazado 72755" d="M360.191,195.472l20.032,29.785,7.614-4.016L372.5,180.793Z" transform="translate(-356.25 -178.935)" fill="#c4b9bd"/>
        <path id="Trazado_72756" data-name="Trazado 72756" d="M352.711,253.3c1.285.607,20.93-4.147,22.289-9.88s-1.558-17.819-1.456-20.306,5.208-21.129,5.208-21.129-13.012-7.562-8.74-19.6l-9.081-5.172S351.427,252.691,352.711,253.3Z" transform="translate(-352.592 -177.21)" fill="#fff"/>
        <g id="Grupo_48047" data-name="Grupo 48047" transform="translate(13.515 1.076)">
          <path id="Trazado_72757" data-name="Trazado 72757" d="M378.65,186.747l1.518-5.9.253.077-1.594,5.876Z" transform="translate(-378.65 -180.037)" fill="#d5d5d5"/>
          <path id="Trazado_72758" data-name="Trazado 72758" d="M382.157,180.159a.793.793,0,1,1-.559-.834A.717.717,0,0,1,382.157,180.159Z" transform="translate(-379.611 -179.284)" fill="#a34551"/>
        </g>
      </g>
      <path id="Trazado_72759" data-name="Trazado 72759" d="M312.016,199.108c-11.767-5.3-20.718-15.635-26.584-27.133s-8.939-24.193-11.565-36.83c-1.372-6.6-2.634-13.234-3.626-19.906-.866-5.827-1.531-11.686-1.876-17.568-.171-2.909-.027-5.9.058-8.872h-8.973s1.748,133.219,2.728,135.343,82,0,82,0l-.232-16.214q-9.748-2.132-19.4-4.686A80.3,80.3,0,0,1,312.016,199.108Z" transform="translate(-253.069 -80.639)" fill="#f6d5ac" opacity="0.2" style="mix-blend-mode: multiply;isolation: isolate"/>
      <g id="Grupo_48050" data-name="Grupo 48050" transform="translate(37.677 91.926)">
        <path id="Trazado_72760" data-name="Trazado 72760" d="M319.792,251.73l2.079,19.408,13.871-1.418L333.757,250.3Z" transform="translate(-319.792 -250.302)" fill="#fff"/>
        <g id="Grupo_48049" data-name="Grupo 48049" transform="translate(1.6 3.741)">
          <path id="Trazado_72761" data-name="Trazado 72761" d="M322.877,258.438c.214.111.27.4.457.552a.632.632,0,0,0,.8-.1,1.845,1.845,0,0,0,.413-.766,5.282,5.282,0,0,0,.977,1.309.329.329,0,0,0,.258.126.336.336,0,0,0,.191-.148l.868-1.112c.121.179.283.379.5.365a.619.619,0,0,0,.236-.082l1.51-.764.737,1.288a10.348,10.348,0,0,0,1.422-1.229l.227.273a13.328,13.328,0,0,1,1.277-.594.363.363,0,0,1,.233-.037c.1.03.158.141.248.2a.277.277,0,0,0,.385-.12" transform="translate(-322.877 -257.516)" fill="none" stroke="#2b1811" stroke-linecap="round" stroke-linejoin="round" stroke-width="0.5"/>
          <path id="Trazado_72762" data-name="Trazado 72762" d="M323.48,265.171a.922.922,0,0,0,1.389-.413c.309.382.773.806,1.221.6.351-.158.552-.669.933-.616a.894.894,0,0,1,.374.2,2.024,2.024,0,0,0,1.332.367,4.01,4.01,0,0,0,1.076-.3l2.114-.8a.577.577,0,0,1,.268-.054.862.862,0,0,1,.258.109c.608.3,1.339-.2,2-.051" transform="translate(-323.167 -260.715)" fill="none" stroke="#2b1811" stroke-linecap="round" stroke-linejoin="round" stroke-width="0.5"/>
          <path id="Trazado_72763" data-name="Trazado 72763" d="M324.052,271.3l1.362-.982a.258.258,0,0,1,.182-.07.262.262,0,0,1,.156.131l.644.937.5-.715a.264.264,0,0,1,.11-.106.244.244,0,0,1,.2.033c.3.155.518.423.8.6a.774.774,0,0,0,.929.028c.188-.181.218-.494.431-.645a2.092,2.092,0,0,0,1.044.8.372.372,0,0,0,.226.024.41.41,0,0,0,.2-.189l.587-.889a.6.6,0,0,0,.594.465,1.5,1.5,0,0,0,.77-.259c.2-.119.5-.232.639-.039a1.5,1.5,0,0,1,1.393-.107" transform="translate(-323.443 -263.621)" fill="none" stroke="#2b1811" stroke-linecap="round" stroke-linejoin="round" stroke-width="0.5"/>
          <path id="Trazado_72764" data-name="Trazado 72764" d="M325.348,277.132a4.273,4.273,0,0,1,1.17-1.279,1.333,1.333,0,0,0,1.574.707c.419-.135.808-.487,1.235-.383a2.31,2.31,0,0,1,.4.182,2.134,2.134,0,0,0,1.694-.092c.538-.225,1.028-.553,1.575-.755a.336.336,0,0,1,.2-.028c.107.03.158.147.231.231.26.3.746.142,1.09-.053s.789-.4,1.1-.165" transform="translate(-324.066 -266.12)" fill="none" stroke="#2b1811" stroke-linecap="round" stroke-linejoin="round" stroke-width="0.5"/>
          <path id="Trazado_72765" data-name="Trazado 72765" d="M326.005,282.737c-.04.122.163.158.286.12l.969-.3a.815.815,0,0,1,.473-.046c.232.073.345.33.527.491a1.113,1.113,0,0,0,1.141.1c.372-.15.691-.409,1.049-.592a1.319,1.319,0,0,1,1.157-.109c.17.084.309.224.485.293a1.294,1.294,0,0,0,.964-.132,11.9,11.9,0,0,0,1.7-.908q.112.3.225.594c.031.082.073.174.158.2a.262.262,0,0,0,.2-.053c.467-.284.914-.766,1.449-.657" transform="translate(-324.38 -269.135)" fill="none" stroke="#2b1811" stroke-linecap="round" stroke-linejoin="round" stroke-width="0.5"/>
        </g>
      </g>
      <path id="Trazado_72766" data-name="Trazado 72766" d="M385.225,102.056s-1.764,11.131-1.764,12.9l8.823,1.357,1.629-13.575Z" transform="translate(-312.761 -87.019)" fill="#673ab7"/>
      <path id="Trazado_72767" data-name="Trazado 72767" d="M363.913,295.618s-.514,6.079-.26,6.944l10.767-2.434V292.9Z" transform="translate(-303.193 -178.88)" fill="#707070"/>
    </g>
    <g id="Grupo_48116" data-name="Grupo 48116" transform="translate(181.506 191.607)">
      <g id="Grupo_48108" data-name="Grupo 48108" transform="translate(0.279 8.221)">
        <path id="Trazado_72768" data-name="Trazado 72768" d="M329.792,346.1l1.254,41.083,20.828.252-1.189-40.807-15.451-1.8Z" transform="translate(-325.46 -342.437)" fill="#707070"/>
        <path id="Trazado_72769" data-name="Trazado 72769" d="M321.439,340.221l4.332,4.982,20.893-.791,3.119-4.026Z" transform="translate(-321.439 -340.221)" fill="#fead54"/>
        <path id="Trazado_72770" data-name="Trazado 72770" d="M354.529,430.1l-4.4-4.061-20.822-.13-3.119,4.026Z" transform="translate(-323.723 -381.466)" fill="#fead54"/>
        <g id="Grupo_48052" data-name="Grupo 48052" transform="translate(3.771 5.685)">
          <path id="Trazado_72771" data-name="Trazado 72771" d="M329.125,352.708q5.326-.331,10.664-.419c3.553-.057,7.113.034,10.659-.242.55-.043.554-.907,0-.864-3.546.276-7.106.186-10.659.243s-7.113.2-10.664.419c-.552.034-.555.9,0,.863Z" transform="translate(-328.709 -351.182)" fill="#77afb2"/>
        </g>
        <g id="Grupo_48053" data-name="Grupo 48053" transform="translate(3.771 7.041)">
          <path id="Trazado_72772" data-name="Trazado 72772" d="M329.127,355.5c7.231-.2,14.458-.535,21.685-.84.553-.023.557-.886,0-.863-7.227.3-14.453.642-21.685.84a.432.432,0,0,0,0,.863Z" transform="translate(-328.711 -353.796)" fill="#77afb2"/>
        </g>
        <g id="Grupo_48054" data-name="Grupo 48054" transform="translate(3.303 5.392)">
          <path id="Trazado_72773" data-name="Trazado 72773" d="M328.12,351.458q8.528,1.57,17.171,2.4,2.492.238,4.989.413c.554.039.552-.824,0-.863q-8.577-.6-17.079-1.95-2.431-.386-4.851-.832c-.543-.1-.776.731-.23.832Z" transform="translate(-327.808 -350.618)" fill="#77afb2"/>
        </g>
        <g id="Grupo_48055" data-name="Grupo 48055" transform="translate(3.84 9.41)">
          <path id="Trazado_72774" data-name="Trazado 72774" d="M329.26,359.414q10.81.312,21.622-.185c.553-.026.556-.889,0-.864q-10.8.5-21.622.186a.432.432,0,0,0,0,.863Z" transform="translate(-328.843 -358.365)" fill="#77afb2"/>
        </g>
        <g id="Grupo_48056" data-name="Grupo 48056" transform="translate(3.539 9.096)">
          <path id="Trazado_72775" data-name="Trazado 72775" d="M328.678,361.611a84.163,84.163,0,0,0,8.933-1.393,58.2,58.2,0,0,1,8.963-1.057,22.591,22.591,0,0,0,5.011-.554.432.432,0,0,0-.23-.832c-2.871.747-5.917.448-8.847.791s-5.839.98-8.754,1.5c-1.682.3-3.372.551-5.076.685-.55.043-.554.906,0,.863Z" transform="translate(-328.264 -357.759)" fill="#77afb2"/>
        </g>
        <g id="Grupo_48057" data-name="Grupo 48057" transform="translate(3.408 11.082)">
          <path id="Trazado_72776" data-name="Trazado 72776" d="M328.425,362.487a73.146,73.146,0,0,1,8.471.494c1.425.079,2.852.036,4.277.055s2.8.206,4.2.336c1.624.149,3.213-.2,4.832-.149.556.019.555-.844,0-.863-1.427-.049-2.836.267-4.264.191-1.4-.074-2.78-.325-4.184-.366-1.427-.042-2.855.012-4.282-.04s-2.828-.212-4.238-.348a30.87,30.87,0,0,0-4.816-.173c-.552.033-.555.9,0,.863Z" transform="translate(-328.009 -361.589)" fill="#77afb2"/>
        </g>
        <g id="Grupo_48058" data-name="Grupo 48058" transform="translate(14.983 10.84)">
          <path id="Trazado_72777" data-name="Trazado 72777" d="M350.744,361.984l10.643.08a.432.432,0,0,0,0-.863l-10.643-.08a.432.432,0,0,0,0,.863Z" transform="translate(-350.327 -361.121)" fill="#77afb2"/>
        </g>
        <g id="Grupo_48059" data-name="Grupo 48059" transform="translate(3.942 12.817)">
          <path id="Trazado_72778" data-name="Trazado 72778" d="M329.456,366.369q10.568-.517,21.152-.572a.432.432,0,0,0,0-.863q-10.581.054-21.152.572c-.552.027-.556.891,0,.863Z" transform="translate(-329.041 -364.934)" fill="#77afb2"/>
        </g>
        <g id="Grupo_48060" data-name="Grupo 48060" transform="translate(3.839 13.447)">
          <path id="Trazado_72779" data-name="Trazado 72779" d="M329.379,368.533a37.19,37.19,0,0,1,8.2-.784c1.439-.017,2.878-.023,4.317-.034,1.4-.01,2.822.034,4.22-.1a32.691,32.691,0,0,1,4.558-.594c.556.023.554-.84,0-.863a21.279,21.279,0,0,0-4.019.527,30.94,30.94,0,0,1-4.331.168c-2.839.021-5.692-.031-8.526.171a28.933,28.933,0,0,0-4.65.68c-.54.129-.311.961.229.832Z" transform="translate(-328.842 -366.148)" fill="#77afb2"/>
        </g>
        <g id="Grupo_48061" data-name="Grupo 48061" transform="translate(3.63 4.602)">
          <path id="Trazado_72780" data-name="Trazado 72780" d="M328.853,350.084c7.077-.37,14.161.212,21.24-.057.554-.021.557-.884,0-.863-7.079.268-14.163-.314-21.24.057-.553.029-.556.892,0,.863Z" transform="translate(-328.437 -349.093)" fill="#77afb2"/>
        </g>
        <g id="Grupo_48062" data-name="Grupo 48062" transform="translate(4.041 14.712)">
          <path id="Trazado_72781" data-name="Trazado 72781" d="M329.646,370.287l10.792-.073a36.061,36.061,0,0,0,5.124-.293,47.122,47.122,0,0,1,5.378-.472c.554-.019.557-.882,0-.863a44.3,44.3,0,0,0-5.3.455,35.029,35.029,0,0,1-5.2.309l-10.792.074a.432.432,0,0,0,0,.863Z" transform="translate(-329.23 -368.586)" fill="#77afb2"/>
        </g>
        <g id="Grupo_48063" data-name="Grupo 48063" transform="translate(4.006 16.378)">
          <path id="Trazado_72782" data-name="Trazado 72782" d="M329.58,372.772q10.594.087,21.188-.11a.432.432,0,0,0,0-.863q-10.593.2-21.188.11a.432.432,0,0,0,0,.863Z" transform="translate(-329.163 -371.799)" fill="#77afb2"/>
        </g>
        <g id="Grupo_48064" data-name="Grupo 48064" transform="translate(4.239 17.378)">
          <path id="Trazado_72783" data-name="Trazado 72783" d="M330.029,374.59q10.461,0,20.92.107a.432.432,0,0,0,0-.863q-10.459-.1-20.92-.107a.432.432,0,0,0,0,.863Z" transform="translate(-329.613 -373.727)" fill="#77afb2"/>
        </g>
        <g id="Grupo_48065" data-name="Grupo 48065" transform="translate(4.34 19.131)">
          <path id="Trazado_72784" data-name="Trazado 72784" d="M330.224,378.278q10.445.234,20.887-.307c.552-.029.556-.892,0-.863q-10.434.541-20.887.307a.432.432,0,0,0,0,.863Z" transform="translate(-329.808 -377.108)" fill="#77afb2"/>
        </g>
        <g id="Grupo_48066" data-name="Grupo 48066" transform="translate(3.978 18.334)">
          <path id="Trazado_72785" data-name="Trazado 72785" d="M329.421,376.409a34.871,34.871,0,0,0,4.234.487c1.419.073,2.839.021,4.258.044,1.449.023,2.892.155,4.335.256,1.422.1,2.841.125,4.265.133a31.578,31.578,0,0,1,4.873.341c.543.088.777-.744.229-.832a80.855,80.855,0,0,0-8.432-.445c-1.446-.082-2.887-.226-4.334-.288-1.421-.061-2.842,0-4.264-.037a33.038,33.038,0,0,1-4.936-.491c-.543-.1-.776.736-.229.832Z" transform="translate(-329.109 -375.569)" fill="#77afb2"/>
        </g>
        <g id="Grupo_48067" data-name="Grupo 48067" transform="translate(4.373 20.166)">
          <path id="Trazado_72786" data-name="Trazado 72786" d="M330.288,380.728c3.555-.12,7.134-.367,10.691-.281,1.729.042,3.452.173,5.182.081,1.761-.093,3.509-.343,5.254-.589.548-.077.315-.909-.229-.832-1.724.243-3.451.484-5.191.566s-3.454-.059-5.183-.093c-3.5-.071-7.024.166-10.524.284-.554.019-.557.882,0,.863Z" transform="translate(-329.871 -379.102)" fill="#77afb2"/>
        </g>
        <g id="Grupo_48068" data-name="Grupo 48068" transform="translate(4.22 21.252)">
          <path id="Trazado_72787" data-name="Trazado 72787" d="M330.115,383.032c6.885-1.545,13.982-.531,20.959-.971.551-.035.555-.9,0-.864-5.531.349-11.084-.205-16.608.3a35.837,35.837,0,0,0-4.581.7c-.541.122-.312.954.23.832Z" transform="translate(-329.576 -381.196)" fill="#77afb2"/>
        </g>
        <g id="Grupo_48069" data-name="Grupo 48069" transform="translate(4.315 23.289)">
          <path id="Trazado_72788" data-name="Trazado 72788" d="M330.175,386.082q10.5.067,21.008-.1a.432.432,0,0,0,0-.863q-10.5.163-21.008.1a.432.432,0,0,0,0,.863Z" transform="translate(-329.758 -385.123)" fill="#77afb2"/>
        </g>
        <g id="Grupo_48070" data-name="Grupo 48070" transform="translate(8.429 22.155)">
          <path id="Trazado_72789" data-name="Trazado 72789" d="M338.106,384.046a132.585,132.585,0,0,0,16.574-.244c.55-.043.555-.906,0-.864a132.393,132.393,0,0,1-16.574.244c-.555-.026-.553.837,0,.864Z" transform="translate(-337.691 -382.937)" fill="#77afb2"/>
        </g>
        <g id="Grupo_48071" data-name="Grupo 48071" transform="translate(4.045 23.887)">
          <path id="Trazado_72790" data-name="Trazado 72790" d="M329.655,388.225c3.478-.015,6.95-.262,10.42-.465l10.59-.618c.552-.032.555-.9,0-.863l-10.59.618c-3.47.2-6.943.45-10.42.465a.432.432,0,0,0,0,.863Z" transform="translate(-329.238 -386.277)" fill="#77afb2"/>
        </g>
        <g id="Grupo_48072" data-name="Grupo 48072" transform="translate(4.382 25.268)">
          <path id="Trazado_72791" data-name="Trazado 72791" d="M330.3,390.437c6.907-.308,13.828-.75,20.745-.607a.432.432,0,0,0,0-.863c-6.917-.143-13.838.3-20.745.607-.553.024-.556.887,0,.863Z" transform="translate(-329.887 -388.939)" fill="#77afb2"/>
        </g>
        <g id="Grupo_48073" data-name="Grupo 48073" transform="translate(4.379 27.003)">
          <path id="Trazado_72792" data-name="Trazado 72792" d="M330.3,393.159q10.5.2,21.008-.012a.432.432,0,0,0,0-.863q-10.5.213-21.008.012a.432.432,0,0,0,0,.863Z" transform="translate(-329.882 -392.284)" fill="#77afb2"/>
        </g>
        <g id="Grupo_48074" data-name="Grupo 48074" transform="translate(4.706 28.084)">
          <path id="Trazado_72793" data-name="Trazado 72793" d="M330.929,395.689l20.814-.457a.432.432,0,0,0,0-.863l-20.814.457a.432.432,0,0,0,0,.863Z" transform="translate(-330.513 -394.369)" fill="#77afb2"/>
        </g>
        <g id="Grupo_48075" data-name="Grupo 48075" transform="translate(4.441 29.507)">
          <path id="Trazado_72794" data-name="Trazado 72794" d="M330.419,398.666q10.536-.455,21.078-.69a.432.432,0,0,0,0-.863q-10.543.235-21.078.69c-.553.024-.557.887,0,.863Z" transform="translate(-330.002 -397.113)" fill="#77afb2"/>
        </g>
        <g id="Grupo_48076" data-name="Grupo 48076" transform="translate(4.536 30.807)">
          <path id="Trazado_72795" data-name="Trazado 72795" d="M330.6,401.71a59.177,59.177,0,0,0,10.564-.452,67.464,67.464,0,0,1,10.552-.746c.555.026.554-.837,0-.863a67.405,67.405,0,0,0-10.552.746,59.174,59.174,0,0,1-10.564.452c-.554-.038-.552.826,0,.863Z" transform="translate(-330.185 -399.618)" fill="#77afb2"/>
        </g>
        <g id="Grupo_48077" data-name="Grupo 48077" transform="translate(4.658 33.049)">
          <path id="Trazado_72796" data-name="Trazado 72796" d="M330.838,405.308q10.269-.048,20.532-.5c.553-.024.557-.887,0-.863q-10.259.455-20.532.5a.432.432,0,0,0,0,.863Z" transform="translate(-330.421 -403.941)" fill="#77afb2"/>
        </g>
        <g id="Grupo_48078" data-name="Grupo 48078" transform="translate(4.423 34.314)">
          <path id="Trazado_72797" data-name="Trazado 72797" d="M330.26,407.242a14.137,14.137,0,0,0,4.9.665c1.79,0,3.581-.022,5.371-.046,3.65-.048,7.3-.123,10.951-.2a.432.432,0,0,0,0-.863c-3.593.074-7.185.148-10.779.2-1.769.024-3.538.045-5.308.048a13.922,13.922,0,0,1-4.9-.635c-.522-.192-.747.642-.23.832Z" transform="translate(-329.967 -406.381)" fill="#77afb2"/>
        </g>
        <g id="Grupo_48079" data-name="Grupo 48079" transform="translate(4.856 36.155)">
          <path id="Trazado_72798" data-name="Trazado 72798" d="M331.218,411.37c3.419-.14,6.841-.027,10.262-.044q5.073-.026,10.127-.531c.547-.054.553-.919,0-.863q-5.048.5-10.127.531c-3.421.017-6.843-.1-10.262.044-.553.023-.556.886,0,.863Z" transform="translate(-330.802 -409.93)" fill="#77afb2"/>
        </g>
        <g id="Grupo_48080" data-name="Grupo 48080" transform="translate(4.792 38.278)">
          <path id="Trazado_72799" data-name="Trazado 72799" d="M331.095,415.4a171.468,171.468,0,0,0,20.4-.511c.549-.046.554-.91,0-.863a171.468,171.468,0,0,1-20.4.511c-.555-.019-.555.844,0,.863Z" transform="translate(-330.678 -414.022)" fill="#77afb2"/>
        </g>
        <g id="Grupo_48081" data-name="Grupo 48081" transform="translate(4.79 37.552)">
          <path id="Trazado_72800" data-name="Trazado 72800" d="M331.091,413.621l20.467-.134a.432.432,0,0,0,0-.863l-20.467.134a.432.432,0,0,0,0,.863Z" transform="translate(-330.674 -412.624)" fill="#77afb2"/>
        </g>
        <g id="Grupo_48082" data-name="Grupo 48082" transform="translate(4.66 38.991)">
          <path id="Trazado_72801" data-name="Trazado 72801" d="M330.84,417.13a35.1,35.1,0,0,0,5.319-.125c1.743-.175,3.461-.568,5.21-.682,1.776-.115,3.569-.04,5.347-.005,1.795.035,3.589.1,5.378.253.553.047.55-.816,0-.863-1.789-.152-3.583-.217-5.378-.253-1.778-.035-3.57-.11-5.347.005-1.749.114-3.466.506-5.21.682a35.1,35.1,0,0,1-5.319.125c-.555-.029-.554.835,0,.863Z" transform="translate(-330.424 -415.398)" fill="#77afb2"/>
        </g>
        <g id="Grupo_48083" data-name="Grupo 48083" transform="translate(4.986 40.895)">
          <path id="Trazado_72802" data-name="Trazado 72802" d="M331.47,420.106l20.467-.174a.432.432,0,0,0,0-.863l-20.467.174a.432.432,0,0,0,0,.863Z" transform="translate(-331.053 -419.069)" fill="#77afb2"/>
        </g>
        <g id="Grupo_48084" data-name="Grupo 48084" transform="translate(5.059 42.486)">
          <path id="Trazado_72803" data-name="Trazado 72803" d="M331.609,423.61,342,423.2c3.507-.136,7.017-.263,10.527-.178a.432.432,0,0,0,0-.863c-3.51-.085-7.02.042-10.527.178l-10.393.406c-.553.021-.556.885,0,.863Z" transform="translate(-331.193 -422.136)" fill="#77afb2"/>
        </g>
        <g id="Grupo_48085" data-name="Grupo 48085" transform="translate(4.863 42.11)">
          <path id="Trazado_72804" data-name="Trazado 72804" d="M331.231,422.394a106.182,106.182,0,0,1,10.642.029q2.631.141,5.253.413a26.894,26.894,0,0,1,5.086.93c.533.162.76-.671.229-.832A27.356,27.356,0,0,0,347.37,422q-2.656-.286-5.326-.429a106.2,106.2,0,0,0-10.812-.039c-.553.026-.556.889,0,.864Z" transform="translate(-330.815 -421.412)" fill="#77afb2"/>
        </g>
        <g id="Grupo_48086" data-name="Grupo 48086" transform="translate(2.87 4.515)">
          <path id="Trazado_72805" data-name="Trazado 72805" d="M327.2,349.709a34.943,34.943,0,0,0,8.476,2.205q4.5.689,9.028,1.205,2.6.295,5.2.533c.553.05.55-.813,0-.863q-4.435-.407-8.852-.979c-2.947-.383-5.931-.739-8.834-1.386a26.614,26.614,0,0,1-4.578-1.461c-.506-.214-.946.529-.436.745Z" transform="translate(-326.973 -348.926)" fill="#6aa5a5"/>
        </g>
        <g id="Grupo_48087" data-name="Grupo 48087" transform="translate(3.483 6.425)">
          <path id="Trazado_72806" data-name="Trazado 72806" d="M328.569,355.744c6.993-.511,13.97-1.177,20.9-2.3.547-.088.315-.92-.23-.832-6.848,1.107-13.749,1.761-20.665,2.266-.551.04-.555.9,0,.863Z" transform="translate(-328.154 -352.608)" fill="#6aa5a5"/>
        </g>
        <g id="Grupo_48088" data-name="Grupo 48088" transform="translate(3.548 10.339)">
          <path id="Trazado_72807" data-name="Trazado 72807" d="M328.694,361.216a122.359,122.359,0,0,0,21.519-.2c.548-.053.553-.917,0-.863a122.356,122.356,0,0,1-21.519.2c-.553-.044-.551.819,0,.863Z" transform="translate(-328.28 -360.155)" fill="#6aa5a5"/>
        </g>
        <g id="Grupo_48089" data-name="Grupo 48089" transform="translate(3.871 9.172)">
          <path id="Trazado_72808" data-name="Trazado 72808" d="M329.32,359.169l5.43.008a35.925,35.925,0,0,0,5.341-.174,18.983,18.983,0,0,1,2.687-.26c.888-.006,1.778.038,2.666.066l5.454.173c.555.018.555-.845,0-.863l-5.454-.173a28.005,28.005,0,0,0-5.25.174,35.187,35.187,0,0,1-5.444.194l-5.43-.008a.432.432,0,0,0,0,.863Z" transform="translate(-328.903 -357.905)" fill="#6aa5a5"/>
        </g>
        <g id="Grupo_48090" data-name="Grupo 48090" transform="translate(3.675 5.175)">
          <path id="Trazado_72809" data-name="Trazado 72809" d="M328.941,352.579c3.621-.024,7.259-.012,10.875-.207a33.78,33.78,0,0,0,5.177-.692,17.2,17.2,0,0,1,5.262-.572c.552.055.549-.809,0-.863a16.926,16.926,0,0,0-5.167.533,34.148,34.148,0,0,1-5.272.73c-3.617.2-7.254.184-10.875.208a.432.432,0,0,0,0,.863Z" transform="translate(-328.524 -350.199)" fill="#6aa5a5"/>
        </g>
        <g id="Grupo_48091" data-name="Grupo 48091" transform="translate(3.343 12.249)">
          <path id="Trazado_72810" data-name="Trazado 72810" d="M328.195,364.682q8.383,1.754,16.845,3.091,2.43.384,4.863.731c.544.078.778-.754.23-.832q-8.479-1.214-16.889-2.848-2.414-.47-4.821-.974c-.542-.114-.773.718-.229.832Z" transform="translate(-327.884 -363.839)" fill="#6aa5a5"/>
        </g>
        <g id="Grupo_48092" data-name="Grupo 48092" transform="translate(3.699 13.348)">
          <path id="Trazado_72811" data-name="Trazado 72811" d="M328.785,366.759c5.3,2.876,11.324,3.72,17.164,4.856,1.673.325,3.341.679,4.99,1.112a.432.432,0,0,0,.229-.832c-5.734-1.5-11.708-2.01-17.344-3.9a28.877,28.877,0,0,1-4.6-1.98c-.488-.265-.924.48-.436.745Z" transform="translate(-328.571 -365.958)" fill="#6aa5a5"/>
        </g>
        <g id="Grupo_48093" data-name="Grupo 48093" transform="translate(3.937 14.95)">
          <path id="Trazado_72812" data-name="Trazado 72812" d="M329.447,370.767q5.384.025,10.767-.04a52.8,52.8,0,0,0,10.286-.838c.543-.115.313-.947-.229-.832a52.4,52.4,0,0,1-10.228.809q-5.3.063-10.6.038a.432.432,0,0,0,0,.863Z" transform="translate(-329.03 -369.045)" fill="#6aa5a5"/>
        </g>
        <g id="Grupo_48094" data-name="Grupo 48094" transform="translate(3.96 12.712)">
          <path id="Trazado_72813" data-name="Trazado 72813" d="M329.59,372.046a82.253,82.253,0,0,1,8.379-2.5c2.707-.783,5.22-2.02,7.867-2.966a15.2,15.2,0,0,1,4.559-.98c.554-.02.557-.883,0-.863-2.815.1-5.406,1.213-7.966,2.285-1.313.55-2.634,1.069-4,1.487-1.409.432-2.84.787-4.263,1.167a39.574,39.574,0,0,0-4.808,1.544c-.507.207-.285,1.042.229.832Z" transform="translate(-329.074 -364.731)" fill="#6aa5a5"/>
        </g>
        <g id="Grupo_48095" data-name="Grupo 48095" transform="translate(4.133 20.163)">
          <path id="Trazado_72814" data-name="Trazado 72814" d="M329.825,379.96q10.486.527,20.992.4a.432.432,0,0,0,0-.863q-10.5.131-20.992-.4c-.555-.028-.554.835,0,.863Z" transform="translate(-329.409 -379.097)" fill="#6aa5a5"/>
        </g>
        <g id="Grupo_48096" data-name="Grupo 48096" transform="translate(4.122 21.87)">
          <path id="Trazado_72815" data-name="Trazado 72815" d="M329.6,383.195c4.894,2.857,10.713,2.592,16.177,2.666a47.293,47.293,0,0,1,5.106.3c.55.067.546-.8,0-.864-5.566-.681-11.289.239-16.768-1.19a16.111,16.111,0,0,1-4.08-1.655.432.432,0,0,0-.436.745Z" transform="translate(-329.388 -382.388)" fill="#6aa5a5"/>
        </g>
        <g id="Grupo_48097" data-name="Grupo 48097" transform="translate(4.59 21.617)">
          <path id="Trazado_72816" data-name="Trazado 72816" d="M330.706,382.764c1.722.065,3.43.334,5.146.5q2.61.245,5.232.328a84.669,84.669,0,0,0,10.474-.326c.548-.051.553-.915,0-.864a84.563,84.563,0,0,1-10.474.326q-2.62-.082-5.232-.328c-1.715-.161-3.423-.43-5.146-.5-.556-.021-.555.842,0,.863Z" transform="translate(-330.289 -381.9)" fill="#6aa5a5"/>
        </g>
        <g id="Grupo_48098" data-name="Grupo 48098" transform="translate(4.381 25.663)">
          <path id="Trazado_72817" data-name="Trazado 72817" d="M330.3,391.189c7.084-.428,14.211.38,21.261-.649.548-.08.315-.912-.229-.832-6.968,1.017-14.029.2-21.032.619-.552.033-.556.9,0,.863Z" transform="translate(-329.886 -389.702)" fill="#6aa5a5"/>
        </g>
        <g id="Grupo_48099" data-name="Grupo 48099" transform="translate(4.118 23.529)">
          <path id="Trazado_72818" data-name="Trazado 72818" d="M329.795,387.695c5.6.24,11.124-.853,16.7-1.167a43.6,43.6,0,0,1,4.737-.027c.555.03.553-.833,0-.863-5.6-.3-11.126.785-16.694,1.13a45.145,45.145,0,0,1-4.739.064c-.556-.023-.554.84,0,.863Z" transform="translate(-329.378 -385.586)" fill="#6aa5a5"/>
        </g>
        <g id="Grupo_48100" data-name="Grupo 48100" transform="translate(4.92 27.727)">
          <path id="Trazado_72819" data-name="Trazado 72819" d="M331.234,394.527a101.1,101.1,0,0,0,20.577,2.767c.556.017.555-.846,0-.863a99.932,99.932,0,0,1-20.347-2.736c-.539-.13-.77.7-.229.832Z" transform="translate(-330.926 -393.68)" fill="#6aa5a5"/>
        </g>
        <g id="Grupo_48101" data-name="Grupo 48101" transform="translate(4.79 31.815)">
          <path id="Trazado_72820" data-name="Trazado 72820" d="M331.091,402.425H351.1a.432.432,0,0,0,0-.863H331.091a.432.432,0,0,0,0,.863Z" transform="translate(-330.674 -401.562)" fill="#6aa5a5"/>
        </g>
        <g id="Grupo_48102" data-name="Grupo 48102" transform="translate(4.346 28.248)">
          <path id="Trazado_72821" data-name="Trazado 72821" d="M330.235,397.084a87.111,87.111,0,0,0,10.454-.092c3.427-.305,6.768-1.255,10.206-1.442.552-.03.556-.894,0-.863-3.439.188-6.779,1.137-10.206,1.442a87.213,87.213,0,0,1-10.454.092c-.556-.017-.555.846,0,.863Z" transform="translate(-329.818 -394.685)" fill="#6aa5a5"/>
        </g>
        <g id="Grupo_48103" data-name="Grupo 48103" transform="translate(4.796 33.765)">
          <path id="Trazado_72822" data-name="Trazado 72822" d="M331.1,406.186q10.054.616,20.133.583a.432.432,0,0,0,0-.863q-10.073.033-20.133-.583c-.555-.034-.553.829,0,.863Z" transform="translate(-330.687 -405.322)" fill="#6aa5a5"/>
        </g>
        <g id="Grupo_48104" data-name="Grupo 48104" transform="translate(5.121 35.923)">
          <path id="Trazado_72823" data-name="Trazado 72823" d="M331.729,410.808a209.5,209.5,0,0,0,20.992-.46c.551-.039.555-.9,0-.863a209.492,209.492,0,0,1-20.992.46.432.432,0,0,0,0,.863Z" transform="translate(-331.312 -409.483)" fill="#6aa5a5"/>
        </g>
        <g id="Grupo_48105" data-name="Grupo 48105" transform="translate(4.724 37.82)">
          <path id="Trazado_72824" data-name="Trazado 72824" d="M330.965,414.488q10.888-.33,21.779-.484a.432.432,0,0,0,0-.864q-10.892.155-21.779.485c-.554.017-.557.88,0,.863Z" transform="translate(-330.548 -413.14)" fill="#6aa5a5"/>
        </g>
        <g id="Grupo_48106" data-name="Grupo 48106" transform="translate(4.661 39.145)">
          <path id="Trazado_72825" data-name="Trazado 72825" d="M330.841,419.53a72.76,72.76,0,0,0,8.635-1.144c2.779-.489,5.6-.551,8.4-.892a23.606,23.606,0,0,0,4.512-.943c.525-.172.3-1.006-.229-.832a34.587,34.587,0,0,1-8.082,1.259c-1.339.107-2.676.23-4,.438-1.405.22-2.8.519-4.2.735-1.665.256-3.342.424-5.024.516-.552.031-.556.894,0,.863Z" transform="translate(-330.426 -415.695)" fill="#6aa5a5"/>
        </g>
        <g id="Grupo_48107" data-name="Grupo 48107" transform="translate(4.921 40.977)">
          <path id="Trazado_72826" data-name="Trazado 72826" d="M331.344,420.1c3.518-.115,7.008.478,10.522.5,3.489.019,6.979-.36,10.462-.027.553.052.549-.811,0-.863-3.484-.333-6.973.047-10.462.027-3.514-.02-7-.613-10.522-.5-.554.018-.557.881,0,.863Z" transform="translate(-330.927 -419.226)" fill="#6aa5a5"/>
        </g>
        <path id="Trazado_72827" data-name="Trazado 72827" d="M351.023,380.257l-.715.012-.03-1.021c.118-.008.236-.015.354-.023.551-.039.555-.9,0-.863-.126.009-.253.016-.379.025l-.012-.408a.449.449,0,0,0-.022-.775l-.09-3.067h.04c.5.023.547-.669.151-.829a.427.427,0,0,0-.225-.349l0-.159a.431.431,0,0,0-.025-.855l-.017-.563a.432.432,0,0,0-.01-.862h-.015l-.007-.235a.437.437,0,0,0-.024-.84l-.015-.485c.061-.008.121-.015.182-.023.5-.074.347-.779-.1-.832a.473.473,0,0,0-.034-.122.481.481,0,0,0-.092-.686l-.009-.314a.489.489,0,0,0,.048-.108l.1,0c.486.026.545-.632.181-.816a.388.388,0,0,0-.366-.335l-.009-.307.086-.007c.548-.051.553-.915,0-.864l-.111.01v-.013a.441.441,0,0,0,.117-.842.467.467,0,0,0,.093-.276.368.368,0,0,0,.21-.571l.089.012c.5.081.736-.617.343-.8a.386.386,0,0,0-.3-.353c-.148-.039-.3-.074-.444-.112a.393.393,0,0,0-.152-.038l-.038-.01-.023-.782a.432.432,0,0,0-.025-.854l-.007-.247h.006a.442.442,0,0,0,.289-.755.34.34,0,0,0-.309-.4l-.021,0-.01-.351a.342.342,0,0,0,.122-.149l.067,0c.554-.019.557-.882,0-.863l-.219.01-.012-.406c.051,0,.1,0,.154,0,.487.02.546-.639.182-.819a.436.436,0,0,0-.275-.673.35.35,0,0,0-.105-.074v-.034c.045,0,.089,0,.134,0,.556.019.555-.844,0-.863-.053,0-.106,0-.159,0l0-.074.6,0a.432.432,0,0,0,0-.863l-.186,0c.1-.265-.019-.612-.377-.577l-.076.007,0-.054c.159-.007.317-.012.476-.02a.409.409,0,0,0,.332-.18c.217-.045.434-.094.649-.15a.432.432,0,0,0-.23-.832c-.411.107-.826.191-1.244.26h-.011l0-.171.427.042a.39.39,0,0,0,.388-.551.447.447,0,0,0-.411-.508l-.435-.033-.007-.222.539-.023c.553-.023.557-.886,0-.863l-.564.024-.014-.5.215-.014a.461.461,0,0,0,.3-.762.493.493,0,0,0-.164-.47.419.419,0,0,0-.359-.645l-.047,0-.014-.483-15.451-1.8-5.442,1.276.032,1.051c-.106.005-.212.008-.318.014a.487.487,0,0,0-.049.008c-.154-.062-.31-.119-.463-.184-.506-.214-.946.529-.436.745.14.059.281.111.421.168a.482.482,0,0,0-.171.213c.239.2.507.421.8.649l.092.017-.056,0-.008,0a32.85,32.85,0,0,0,12.456,5.652c10.549,2.534-2.219,29.977-8.135,29.473a7.371,7.371,0,0,0-3.3.409.412.412,0,0,0,.206.049h.1l.005.157c-.143.009-.286.021-.429.029a.439.439,0,0,0-.109.856.378.378,0,0,0,.312.12c.086,0,.171-.005.257-.009v.011l-.061,0c-.553.021-.556.885,0,.863l.088,0,.024.79,20.828.252-.015-.515a.438.438,0,0,0,.09-.851l-.116-.033-.007-.224h.028a.432.432,0,0,0,0-.863h-.053l-.006-.188c.537.035.53-.811-.015-.863h-.01l-.038-1.3.057,0a.352.352,0,0,0,.369-.2c.417-.228.19-.961-.31-.8-.048.016-.1.027-.144.043l-.015-.517.69-.011A.432.432,0,0,0,351.023,380.257Z" transform="translate(-324.103 -342.437)" fill="#9fa8da" opacity="0.2" style="mix-blend-mode: multiply;isolation: isolate"/>
      </g>
      <g id="Grupo_48115" data-name="Grupo 48115">
        <g id="Grupo_48109" data-name="Grupo 48109">
          <path id="Trazado_72828" data-name="Trazado 72828" d="M322.544,325.459c-.508-1.327-2.333-1.8-1.364.67,0,0,9.014,23.148,15.216,36.154C336.4,362.283,322.946,326.511,322.544,325.459Zm-.226,1.336c-.537.208-.989-1.347-.989-1.347-.057-.367-.1-.546.16-.64S322.855,326.586,322.318,326.795Z" transform="translate(-320.901 -324.371)" fill="#d5d5d5"/>
        </g>
        <g id="Grupo_48114" data-name="Grupo 48114" transform="translate(6.055 19.756)">
          <g id="Grupo_48110" data-name="Grupo 48110" transform="translate(0.833 4.677)">
            <path id="Trazado_72829" data-name="Trazado 72829" d="M334.593,372.934q4.086-.453,8.2-.592c.554-.019.557-.882,0-.863q-4.109.139-8.2.592c-.546.06-.552.924,0,.863Z" transform="translate(-334.181 -371.478)" fill="#6aa5a5"/>
          </g>
          <g id="Grupo_48111" data-name="Grupo 48111" transform="translate(2.324 5.871)">
            <path id="Trazado_72830" data-name="Trazado 72830" d="M337.472,374.878a26.544,26.544,0,0,0,3.4-.258.434.434,0,0,0,.3-.531.443.443,0,0,0-.531-.3,24.825,24.825,0,0,1-3.17.227.432.432,0,0,0,0,.863Z" transform="translate(-337.055 -373.781)" fill="#6aa5a5"/>
          </g>
          <g id="Grupo_48112" data-name="Grupo 48112" transform="translate(0.549 0.274)">
            <path id="Trazado_72831" data-name="Trazado 72831" d="M334.274,365.388c1.157-.7,2.534-.9,3.7-1.59a.432.432,0,0,0-.436-.745c-1.162.689-2.539.891-3.7,1.59a.432.432,0,0,0,.436.745Z" transform="translate(-333.632 -362.989)" fill="#6aa5a5"/>
          </g>
          <g id="Grupo_48113" data-name="Grupo 48113">
            <path id="Trazado_72832" data-name="Trazado 72832" d="M333.119,363.834l2.849-.532a.435.435,0,0,0,.3-.531.442.442,0,0,0-.531-.3L332.89,363a.435.435,0,0,0-.3.531.442.442,0,0,0,.531.3Z" transform="translate(-332.575 -362.461)" fill="#6aa5a5"/>
          </g>
        </g>
      </g>
    </g>
    <g id="Grupo_48151" data-name="Grupo 48151" transform="translate(75.047 92.113)">
      <g id="Grupo_48120" data-name="Grupo 48120" transform="translate(0 72.442)">
        <g id="Grupo_48117" data-name="Grupo 48117" transform="translate(40.885 81.537)">
          <path id="Trazado_72833" data-name="Trazado 72833" d="M207.138,433.748c.317-.03.346-.276.284-.537-2.055-.728-4.494-1.511-6.912-2.193l-4.546-1.6-1.474,1.6s-.034,1.07-.012,2.2A45.62,45.62,0,0,0,207.138,433.748Z" transform="translate(-194.471 -429.419)" fill="#eb7451"/>
          <path id="Trazado_72834" data-name="Trazado 72834" d="M207.428,436.731c.062.261.033.507-.284.537a45.62,45.62,0,0,1-12.659-.531c.024,1.261.118,2.6.4,2.6.541,0,17.812,1.092,17.811-.233C212.7,438.78,210.491,437.817,207.428,436.731Z" transform="translate(-194.478 -432.939)" fill="#707070"/>
        </g>
        <g id="Grupo_48118" data-name="Grupo 48118" transform="translate(11.403)">
          <path id="Trazado_72835" data-name="Trazado 72835" d="M140.452,276.994s-1.724,12.907-2.412,30.289-.306,47.506-.306,47.506h5.493s9.728-62.929,11.526-62.951,12.376,63.51,12.376,63.51h6.02s-6.174-73.446-7.472-80.48S140.452,276.994,140.452,276.994Z" transform="translate(-137.628 -272.211)" fill="#9fa8da"/>
          <path id="Trazado_72836" data-name="Trazado 72836" d="M143.053,288.7s-1.352,11.513-1.014,11.513,5.541-7.637,5.677-10.61A37.146,37.146,0,0,1,143.053,288.7Z" transform="translate(-139.725 -280.145)" fill="#7986cb"/>
          <path id="Trazado_72837" data-name="Trazado 72837" d="M157.022,312.291s-8.641,39.153-10.19,61.062" transform="translate(-142.058 -291.503)" fill="none" stroke="#7986cb" stroke-linecap="round" stroke-linejoin="round" stroke-width="0.878" stroke-dasharray="2.634"/>
          <path id="Trazado_72838" data-name="Trazado 72838" d="M174.111,310.892s6.141,25.856,11.52,62.516" transform="translate(-155.189 -290.83)" fill="none" stroke="#7986cb" stroke-linecap="round" stroke-linejoin="round" stroke-width="0.878" stroke-dasharray="2.634"/>
          <path id="Trazado_72839" data-name="Trazado 72839" d="M166.479,290.1l.637,9.266s3.936.164,3.28-9.266Z" transform="translate(-151.515 -280.824)" fill="#7986cb"/>
          <path id="Trazado_72840" data-name="Trazado 72840" d="M186.679,288.363a39.356,39.356,0,0,0,3.311,10l-.687-10.354A17.252,17.252,0,0,1,186.679,288.363Z" transform="translate(-161.238 -279.814)" fill="#7986cb"/>
        </g>
        <g id="Grupo_48119" data-name="Grupo 48119" transform="translate(0 82.578)">
          <path id="Trazado_72841" data-name="Trazado 72841" d="M121.257,436a.667.667,0,0,1-.244-.557c-2.873,1.267-5.618,2.629-5.353,3.11.541.984,16.629-.492,17.072-1.033a7.615,7.615,0,0,0,.081-3.022C130.206,436.008,121.786,436.51,121.257,436Z" transform="translate(-115.642 -432.906)" fill="#707070"/>
          <path id="Trazado_72842" data-name="Trazado 72842" d="M132.133,431.426s-3.139,1.218-6.138,2.54a.667.667,0,0,0,.244.557c.53.507,8.949.006,11.556-1.5-.076-.873-.169-1.594-.169-1.594Z" transform="translate(-120.624 -431.426)" fill="#eb7451"/>
        </g>
      </g>
      <g id="Grupo_48122" data-name="Grupo 48122" transform="translate(86.445 85.898)">
        <path id="Trazado_72843" data-name="Trazado 72843" d="M291.56,298.776s1.575,16.485,1.238,18.623-2.675,2.912-4.12,2.7c-1.087-.159-2.1-1.688-2.761-1.688a8.7,8.7,0,0,0-2.459,1.125l-1.145-21.382Z" transform="translate(-282.313 -298.156)" fill="#d6ae2c"/>
        <g id="Grupo_48121" data-name="Grupo 48121" transform="translate(1.027 3.075)">
          <path id="Trazado_72844" data-name="Trazado 72844" d="M292.74,304.092a4.829,4.829,0,0,0-.6.007,33.369,33.369,0,0,0-4.883.625,5.749,5.749,0,0,0-1.826.632,2.273,2.273,0,0,0-1.116,1.514,3.463,3.463,0,0,0,.344,1.752c.678.33,1.567.013,2.2.43a2.132,2.132,0,0,1,.72,1.5c.5,2.947.567,5.968,1.3,8.864a1.475,1.475,0,0,0,.255-1.063,28.27,28.27,0,0,1,.505-7.854,4.432,4.432,0,0,1,.345-.953,4.186,4.186,0,0,1,1.174-1.289,6.78,6.78,0,0,1,1.862-.961C292.92,306.1,292.823,305,292.74,304.092Z" transform="translate(-284.293 -304.085)" fill="#ea9644" opacity="0.2" style="mix-blend-mode: multiply;isolation: isolate"/>
          <path id="Trazado_72845" data-name="Trazado 72845" d="M287.136,317.55c-.009-.193-.057-.433-.244-.48q-.084.986-.168,1.971a39.321,39.321,0,0,1-1.588,9.408,6.758,6.758,0,0,1,2.139-.933,1.605,1.605,0,0,1,.841.464,17.816,17.816,0,0,1-.92-4.486C287.094,321.515,287.226,319.529,287.136,317.55Z" transform="translate(-284.699 -310.335)" fill="#ea9644" opacity="0.2" style="mix-blend-mode: multiply;isolation: isolate"/>
        </g>
      </g>
      <path id="Trazado_72846" data-name="Trazado 72846" d="M236.7,201.406c-.452-.312-3.082,1.276-4.213,2.009-.006-.015-.066-.107-.072-.122,1.422-1.082,5.546-4.1,5.3-4.563s-4.382,2.466-5.817,3.5c-.011-.019-.135-.161-.146-.179,1.2-1.074,4.418-3.778,4.144-4.051-.339-.337-6.65,4.222-7.182,4.23-.627.009,1.095-4.9.268-4.927-.752-.025-2.58,5.678-2.58,5.678a106.88,106.88,0,0,1-7.009,10.149c-6.08,7.357-9.173,5.992-9.729,5.669-8.72-5.057-37.417-27.705-32.69-14.313,3.3,9.345,17.151,18.854,32.825,22.219,6.6,1.416,15.776-12.021,20.314-19.406v0s6.178-3.5,5.879-3.928c-.129-.186-2.171.652-3.159,1.1-.008-.02.02-.052-.006-.119C234.044,203.6,237.161,201.727,236.7,201.406Z" transform="translate(-144.909 -163.712)" fill="#db6449"/>
      <g id="Grupo_48124" data-name="Grupo 48124" transform="translate(48.512 43.752)">
        <path id="Trazado_72847" data-name="Trazado 72847" d="M209.176,217.41s.657,30.463.914,35,1.369,26.439.685,29.092.219,10.464.219,10.464,1.92-.089,3.973-.1,4.278.945,6.246.852,3.508.008,4.45,0c0,0-1.284-25.332-1.284-28.584s-2.177-37.446-2.177-37.446-5.78-5.477-6.551-5.878-.941-2.578-2.909-3.2S209.155,216.474,209.176,217.41Z" transform="translate(-209.176 -216.896)" fill="#8484d3"/>
        <g id="Grupo_48123" data-name="Grupo 48123">
          <path id="Trazado_72848" data-name="Trazado 72848" d="M209.9,247.235c1.046.568-.072-24.186,1.17-24.419s1.145,39.137,2.685,42.374-1.042-41.979,0-42.107,2.16,21.835,2.533,22.035-1.118-20.73,0-20.7,1.988,36.856,3.106,37.7-1.74-35.986-.746-35.835,1.118,7.233,1.616,8.724c.294.882,1.33-1.572,2.229-3.663-.178-2.837-.294-4.658-.294-4.658s-5.78-5.477-6.551-5.878-.941-2.578-2.909-3.2-3.587-1.134-3.566-.2c0,0,.426,19.767.727,29.824Z" transform="translate(-209.176 -216.896)" fill="#673ab7"/>
          <path id="Trazado_72849" data-name="Trazado 72849" d="M226.024,334.4c-.373-.077-.534.45-.812.712a.916.916,0,0,1-1.111.014,2.115,2.115,0,0,1-.691-.963,12.466,12.466,0,0,1-.766-3.431,94.156,94.156,0,0,1-.666-11.21,26.431,26.431,0,0,0-.112-3.218.967.967,0,0,0-.185-.538.7.7,0,0,0-1.022.158,2,2,0,0,0-.266,1.137q-.245,8.249.192,16.5c.048.91.021,1.993-.739,2.5a1.36,1.36,0,0,1-1.837-.408,2.616,2.616,0,0,1-.287-.924l-1.316-7.371c-.075-.422-.2-.91-.594-1.078a.9.9,0,0,0-1.069.49,2.616,2.616,0,0,0-.19,1.266l.106,6.191a1.156,1.156,0,0,1-.125.672.833.833,0,0,1-.76.3,2.421,2.421,0,0,1-1.7-1.262,4.129,4.129,0,0,1-.271-.516c.095,2.956.453,6.051.453,6.051s1.92-.089,3.973-.1,4.278.945,6.246.852,3.508.007,4.45,0c0,0-.106-2.084-.256-5.131-.1-.141-.2-.28-.307-.417A.637.637,0,0,0,226.024,334.4Z" transform="translate(-210.443 -264.409)" fill="#673ab7"/>
        </g>
      </g>
      <g id="Grupo_48127" data-name="Grupo 48127" transform="translate(67.935 8.602)">
        <g id="Grupo_48125" data-name="Grupo 48125" transform="translate(13.477)">
          <path id="Trazado_72850" data-name="Trazado 72850" d="M281.89,169.184s.042-2.112-.331-2.191c-.164-.035-.495-.09-.813-.14v2.529l2.271.649L283,169.26Z" transform="translate(-276.525 -157.658)" fill="#545455"/>
          <path id="Trazado_72851" data-name="Trazado 72851" d="M273.853,153.79c.991.209,1.956,2.087,4.8,1.044,2.364-.867.637-4.13.871-5.357a7.2,7.2,0,0,0-1.4-.309c-2.734-.325-5.378,1.168-5.508,4.088a2.537,2.537,0,0,0,.165,1.04A.949.949,0,0,1,273.853,153.79Z" transform="translate(-272.609 -149.125)" fill="#545455"/>
          <path id="Trazado_72852" data-name="Trazado 72852" d="M278.128,160.977l1.107.076-.109-4.031s3.569-.973,3.7-3.244c.106-1.859-1.179-3.325-3.147-3.974-.234,1.227,1.493,4.49-.871,5.357-2.843,1.044-3.808-.835-4.8-1.044a.949.949,0,0,0-1.076.506c.782,2.024,4.053,2.464,4.053,2.464v1.559c.318.05.648.105.813.14C278.17,158.865,278.128,160.977,278.128,160.977Z" transform="translate(-272.764 -149.452)" fill="#414144"/>
        </g>
        <g id="Grupo_48126" data-name="Grupo 48126" transform="translate(0 10.57)">
          <path id="Trazado_72853" data-name="Trazado 72853" d="M278.843,303.746l1.272,69.539h1.492l1.371-69.539Z" transform="translate(-262.132 -234.121)" fill="#af7452"/>
          <path id="Trazado_72854" data-name="Trazado 72854" d="M282.793,194.148c.257-3.958,1.093-12.385-2.717-16.177-1.675-1.668-6.09-1.922-9.26-1.9l-.616-6.569h-9.47l-.616,6.569c-3.818-.087-8.165,1.075-9.812,4.048-2.25,4.06-1.372,10.326-1.094,14.026.693,9.206,5.113,14.944,3.676,21.513s-7.745,13.424-5.938,23.406c0,0,6.215,3.312,18.519,3.312S283.6,238.55,283.6,238.55c.516-11.789-3.984-16.837-5.422-23.406S282.268,202.221,282.793,194.148Z" transform="translate(-246.624 -169.505)" fill="#fcdfe1"/>
          <path id="Trazado_72855" data-name="Trazado 72855" d="M267.2,429.225v-.018c-.182,0-.357.006-.536.009s-.354-.009-.536-.009v.018c-11.4.358-17.439,6.324-17.439,6.324h35.95S278.6,429.583,267.2,429.225Z" transform="translate(-247.618 -294.51)" fill="#e99163"/>
          <path id="Trazado_72935" data-name="Trazado 72935" d="M0,0V72.874" transform="translate(18.841 0)" fill="none" stroke="#707070" stroke-width="0.878" stroke-dasharray="2.634 2.634"/>
          <path id="Trazado_72856" data-name="Trazado 72856" d="M272.635,182.171s.346,5.541,5.35,4.626,5.35-4.626,5.35-4.626" transform="translate(-259.144 -175.602)" fill="none" stroke="#707070" stroke-miterlimit="10" stroke-width="0.878" stroke-dasharray="2.634 2.634"/>
          <path id="Trazado_72857" data-name="Trazado 72857" d="M259.238,253.126s10.434,4.928,24.781,0" transform="translate(-252.696 -209.755)" fill="none" stroke="#b79197" stroke-miterlimit="10" stroke-width="0.878" stroke-dasharray="2.634 2.634"/>
        </g>
      </g>
      <g id="Grupo_48130" data-name="Grupo 48130" transform="translate(7.475)">
        <path id="Trazado_72858" data-name="Trazado 72858" d="M169.749,134.6s2.72-2.7,3.99-1.917,4.443,2.71,3.819,10.755.114,11.218.793,11.841,5.633,8.729.963,15.184c-2.153,2.976-13.344-2.493-13.344-2.493Z" transform="translate(-147.343 -132.54)" fill="#2b1811"/>
        <path id="Trazado_72859" data-name="Trazado 72859" d="M154.558,179.331l.737,12.464s3.913,2.323,6.546,2.323,2.859-1.764,2.859-1.764l-.443-7.471Z" transform="translate(-141.849 -155.062)" fill="#db6449"/>
        <g id="Grupo_48129" data-name="Grupo 48129" transform="translate(0 0.143)">
          <path id="Trazado_72860" data-name="Trazado 72860" d="M166.961,142.372s4.014,20.069-.858,24.053c-3.325,2.719-13.944,4.008-14.56-12.181S164.185,134.972,166.961,142.372Z" transform="translate(-140.388 -135.581)" fill="#eb7451"/>
          <g id="Grupo_48128" data-name="Grupo 48128" transform="translate(18.628 13.479)">
            <path id="Trazado_72861" data-name="Trazado 72861" d="M167.334,163.326c0,.853-.3,1.545-.682,1.545s-.682-.691-.682-1.545.3-1.545.682-1.545S167.334,162.472,167.334,163.326Z" transform="translate(-165.971 -160.236)" fill="#2b1710"/>
            <path id="Trazado_72862" data-name="Trazado 72862" d="M181,160.348c0,.853-.3,1.545-.682,1.545s-.681-.691-.681-1.545.3-1.545.681-1.545S181,159.494,181,160.348Z" transform="translate(-172.548 -158.803)" fill="#2b1710"/>
            <path id="Trazado_72863" data-name="Trazado 72863" d="M173.54,162.552s3.078,5.042,3.024,5.8-2.54-.242-2.817-.173S172.92,161.516,173.54,162.552Z" transform="translate(-169.478 -160.556)" fill="#c6523e"/>
            <path id="Trazado_72864" data-name="Trazado 72864" d="M172.637,181.081a2.858,2.858,0,0,1-5.677,0c0-1.394,1.156-.488,2.723-.488S172.637,179.687,172.637,181.081Z" transform="translate(-166.447 -169.152)" fill="#fff"/>
          </g>
          <path id="Trazado_72865" data-name="Trazado 72865" d="M150.267,165.223l-4.589-3.442-.623,3.48.283,7.777,5.382-.908Z" transform="translate(-137.275 -146.757)" fill="#eb7451"/>
          <path id="Trazado_72866" data-name="Trazado 72866" d="M154.548,138.3s-2.776,8.838-9.065,10.708-7.252.51-6.4,4.646,2.681,2.59,2.681,2.59,5.545,12.027,1.738,14.237-11.161,3.456-11.161,3.456-3.173-6.4-2.04-12.238,4.7-5.213,5.949-8.158-1.36-13.031,1.3-16.26S154.831,128.613,154.548,138.3Z" transform="translate(-130.055 -132.814)" fill="#2b1811"/>
        </g>
        <path id="Trazado_72867" data-name="Trazado 72867" d="M134.043,207.767c1.869-2.209,12.166-4.671,12.166-4.671s6.146,3.62,8.359,0c0,0,9.238.989,9.767,3.935.3,1.646.026,12.313-1.737,22.587-1.332,7.759,3.289,15.214.755,16.015-5.741,1.813-25,2.526-25.212-1-.261-4.259,5.217-8.666,4.752-15.011S131.248,211.072,134.043,207.767Z" transform="translate(-131.759 -166.501)" fill="#707070"/>
      </g>
      <g id="Grupo_48132" data-name="Grupo 48132" transform="translate(69.825 25.742)">
        <path id="Trazado_72868" data-name="Trazado 72868" d="M261.082,182.171s-6.377,1.056-7.152,1.4a4.646,4.646,0,0,0-2.126,2.19,12.148,12.148,0,0,0-1.488,4.257c-.31,3.006.791,19.7,5.6,41.742,1.592,7.287,0,17.985,0,17.985s1.279,1.721,4.463,1.29,3.158,1.389,4.849,1.383,3.161-.6,3.846-.435,1.976-1.207,3.18-.432c0,0-2.1-20.456-3.912-26.8S257.735,200.82,261.082,182.171Z" transform="translate(-250.268 -182.171)" fill="#ffd54f"/>
        <g id="Grupo_48131" data-name="Grupo 48131" transform="translate(0.819 0.116)">
          <path id="Trazado_72869" data-name="Trazado 72869" d="M263.992,189.629a27.063,27.063,0,0,1,.946-4.51,25.16,25.16,0,0,0-.3,4.778c.173,4.449,3.464,24.713,4.272,25.772s-4.005-19.927-3.283-26.136c.415-3.569.744-5.844.949-7.139l-.891.153-.24.041c-.5.088-1.066.188-1.635.291a57.331,57.331,0,0,0,.181,19.033C265.965,213.6,263.606,193.143,263.992,189.629Z" transform="translate(-257.27 -182.394)" fill="#fead54" opacity="0.4" style="mix-blend-mode: multiply;isolation: isolate"/>
          <path id="Trazado_72870" data-name="Trazado 72870" d="M257.34,222.423c1.439,3.21-1.512-3.431-1.66-12.435s-.59-17.969-.812-19.888c-.115-1,.708-3.1,1.546-4.991-.439,4.491-1.206,16.857,2.106,28.37,4.139,14.392,3.693,15.21,4.109,15.5S260.482,218.2,259,212.323c-1.428-5.641-2.791-22.092-1.478-28.68l-.479.091-.487.1c-.272.055-.526.107-.757.158l-.042.009c-.424.093-.76.176-.954.242-.946,1.41-3.083,4.841-2.947,6.857.175,2.583,1.581,14.514,1.689,16.519s.592.124,0-7.09-1.589-9.683-.371-11.6A40.584,40.584,0,0,0,255.355,185a24.39,24.39,0,0,0-1.594,5.06c0,1.4,1.367,18.893,1.329,19.925S255.9,219.213,257.34,222.423Z" transform="translate(-251.846 -182.995)" fill="#fead54" opacity="0.4" style="mix-blend-mode: multiply;isolation: isolate"/>
          <path id="Trazado_72871" data-name="Trazado 72871" d="M270.377,276.455c-.324.414.807,14.765.22,17.7a3.29,3.29,0,0,1-1.4,2.292c.1-.009.193-.015.3-.029a3.909,3.909,0,0,1,3.394.823C271.7,295.425,270.7,276.041,270.377,276.455Z" transform="translate(-260.2 -227.666)" fill="#fead54" opacity="0.4" style="mix-blend-mode: multiply;isolation: isolate"/>
          <path id="Trazado_72872" data-name="Trazado 72872" d="M262.486,295.572c-.828-.448-.345-6.658-.449-11.832a21.632,21.632,0,0,0-1.016-6.634c.025.117.049.232.075.35,1.592,7.287,0,17.985,0,17.985a3.826,3.826,0,0,0,2.088,1.2A1.781,1.781,0,0,0,262.486,295.572Z" transform="translate(-256.263 -227.983)" fill="#fead54" opacity="0.4" style="mix-blend-mode: multiply;isolation: isolate"/>
          <path id="Trazado_72873" data-name="Trazado 72873" d="M280.667,276.422c-.138-.856,2.345,17.772,2.207,18.91s-.574,1.345-1.356,2.1a.341.341,0,0,0-.115.188,8.783,8.783,0,0,1,2.272-.291c-.138-.912-.372-2.665-.766-5.9C281.771,282.086,280.8,277.278,280.667,276.422Z" transform="translate(-265.716 -227.64)" fill="#fead54" opacity="0.4" style="mix-blend-mode: multiply;isolation: isolate"/>
          <path id="Trazado_72874" data-name="Trazado 72874" d="M286.74,283.507c.58,3.661,1.242,14.62,1.351,16.461a2.037,2.037,0,0,1,1.267-.136C289.052,293.646,286.135,279.693,286.74,283.507Z" transform="translate(-268.602 -230.751)" fill="#fead54" opacity="0.4" style="mix-blend-mode: multiply;isolation: isolate"/>
          <path id="Trazado_72875" data-name="Trazado 72875" d="M264.564,263.1s.968,16.005,1.291,19.619-.1-9.743-.4-13.068S264.4,260.334,264.564,263.1Z" transform="translate(-257.956 -220.901)" fill="#fead54" opacity="0.4" style="mix-blend-mode: multiply;isolation: isolate"/>
          <path id="Trazado_72876" data-name="Trazado 72876" d="M272.755,250.916s2.772,9.422,2.614,16.715,1.131-1.484-.2-9.1S272.492,249.966,272.755,250.916Z" transform="translate(-261.894 -215.23)" fill="#fead54" opacity="0.4" style="mix-blend-mode: multiply;isolation: isolate"/>
        </g>
      </g>
      <path id="Trazado_72877" data-name="Trazado 72877" d="M155.986,202.478l-2.315.8a50.168,50.168,0,0,1,5.531,23.085c-.2,12.936-6.836,26.746-5.071,34.355h2.308s-3.942,3.311,1.475-18.469C164.272,216.68,155.986,202.478,155.986,202.478Z" transform="translate(-133.947 -166.204)" fill="#fcdfe1"/>
      <path id="Trazado_72878" data-name="Trazado 72878" d="M174.032,203.1a24.823,24.823,0,0,1,5.318,15.674c-.15,9.466-.823,14.141,0,19.576a70.875,70.875,0,0,1,.352,12.9h1.3s.451-8.041-.6-13.631c-2.065-10.958,4.3-23.891-4.685-34.282Z" transform="translate(-143.747 -166.501)" fill="#fcdfe1"/>
      <g id="Grupo_48150" data-name="Grupo 48150" transform="translate(9.312 29.332)">
        <g id="Grupo_48148" data-name="Grupo 48148" transform="translate(0 3.109)">
          <g id="Grupo_48133" data-name="Grupo 48133">
            <path id="Trazado_72879" data-name="Trazado 72879" d="M206.03,197.934c-.5-.226-2.8,1.808-3.785,2.731-.008-.013-.084-.094-.092-.107,1.2-1.32,4.72-5.032,4.394-5.439s-3.869,3.212-5.1,4.485c-.013-.017-.161-.134-.175-.15a8.319,8.319,0,0,0,1.06-3.058c.1-1.55-2.509-1.207-2.582-.971-.3.97,1.271.435,1.2,1.1-.35,3.157-1.756,3.311-2.126,3.384-.336.066-1.311-.992-.764-3.016.029-.108,1.541-.336,1.479-1.41-.019-.325-2.512-.283-3.007.853,0,0-.174,1.339-.248,2.065a26.033,26.033,0,0,0-.107,2.93,44.668,44.668,0,0,1-8.714,6.429c-7.179,3.736-17.54,7.506-18.144,7.289-9.485-3.412-41.778-20.546-34.726-8.219,4.921,8.6,20.254,15.474,36.277,15.973,6.745.211,24.467-12.687,29.734-17.89v0s5.451-4.547,5.079-4.919c-.16-.16-2.019,1.031-2.911,1.648-.011-.018.01-.055-.027-.116C203.815,200.567,206.545,198.167,206.03,197.934Z" transform="translate(-133.595 -195.088)" fill="#eb7451"/>
          </g>
          <path id="Trazado_72880" data-name="Trazado 72880" d="M235.515,216.423s3.56,5.007,3.768,5.086a63.816,63.816,0,0,0,6.8-4.94c.183-.358-3.973-4.308-4.245-4.266S235.512,215.733,235.515,216.423Z" transform="translate(-182.654 -203.374)" fill="#87bec3"/>
          <path id="Trazado_72881" data-name="Trazado 72881" d="M239.223,213.341s-3.007,2.34-.8,5.148,3.767,2.667,5.709,1.357,2.036-2.9.585-5.194S240.931,212.077,239.223,213.341Z" transform="translate(-183.665 -203.515)" fill="#728194"/>
          <g id="Grupo_48134" data-name="Grupo 48134" transform="translate(56.951 5.363)">
            <path id="Trazado_72882" data-name="Trazado 72882" d="M244.284,210.6l-.176-4.048h.176l.123,4.048Z" transform="translate(-243.74 -205.967)" fill="#d5d5d5"/>
            <ellipse id="Elipse_3410" data-name="Elipse 3410" cx="0.517" cy="0.422" rx="0.517" ry="0.422" fill="#a34551"/>
          </g>
          <g id="Grupo_48135" data-name="Grupo 48135" transform="translate(51.682 10.073)">
            <path id="Trazado_72883" data-name="Trazado 72883" d="M238.254,216.542l-3.963-.847.044-.17,3.949.9Z" transform="translate(-233.747 -214.998)" fill="#d5d5d5"/>
            <path id="Trazado_72884" data-name="Trazado 72884" d="M233.8,214.521a.528.528,0,1,1-.539.395A.478.478,0,0,1,233.8,214.521Z" transform="translate(-233.241 -214.509)" fill="#a34551"/>
          </g>
          <g id="Grupo_48136" data-name="Grupo 48136" transform="translate(53.426 7.927)">
            <path id="Trazado_72885" data-name="Trazado 72885" d="M240.558,214.281l-3.028-2.693.123-.126,2.991,2.731Z" transform="translate(-237.05 -210.896)" fill="#d5d5d5"/>
            <path id="Trazado_72886" data-name="Trazado 72886" d="M237.435,210.475a.528.528,0,1,1-.663.077A.476.476,0,0,1,237.435,210.475Z" transform="translate(-236.604 -210.372)" fill="#fe9594"/>
          </g>
          <g id="Grupo_48137" data-name="Grupo 48137" transform="translate(52.504 13.21)">
            <path id="Trazado_72887" data-name="Trazado 72887" d="M239.3,220.659l-3.277,2.383-.1-.147,3.307-2.339Z" transform="translate(-235.355 -220.557)" fill="#d5d5d5"/>
            <path id="Trazado_72888" data-name="Trazado 72888" d="M234.993,224.392a.528.528,0,1,1-.067.664A.476.476,0,0,1,234.993,224.392Z" transform="translate(-234.825 -222.374)" fill="#a34551"/>
          </g>
          <g id="Grupo_48138" data-name="Grupo 48138" transform="translate(52.472 12.15)">
            <path id="Trazado_72889" data-name="Trazado 72889" d="M239.88,218.636l-3.975.787-.027-.174,3.983-.735Z" transform="translate(-235.301 -218.514)" fill="#d5d5d5"/>
            <path id="Trazado_72890" data-name="Trazado 72890" d="M235.111,219.038a.528.528,0,1,1-.339.575A.477.477,0,0,1,235.111,219.038Z" transform="translate(-234.765 -218.765)" fill="#fe9594"/>
          </g>
          <g id="Grupo_48139" data-name="Grupo 48139" transform="translate(55.653 12.806)">
            <path id="Trazado_72891" data-name="Trazado 72891" d="M243.119,219.814l-1.029,3.919-.168-.052,1.079-3.9Z" transform="translate(-241.391 -219.778)" fill="#d5d5d5"/>
            <path id="Trazado_72892" data-name="Trazado 72892" d="M240.913,227.057a.527.527,0,1,1,.369.557A.477.477,0,0,1,240.913,227.057Z" transform="translate(-240.898 -223.148)" fill="#fe9594"/>
          </g>
          <g id="Grupo_48140" data-name="Grupo 48140" transform="translate(58.715 13.383)">
            <path id="Trazado_72893" data-name="Trazado 72893" d="M246.894,220.891l2.82,2.91-.132.117-2.78-2.945Z" transform="translate(-246.802 -220.891)" fill="#d5d5d5"/>
            <path id="Trazado_72894" data-name="Trazado 72894" d="M251.573,226.832a.528.528,0,1,1,.667-.027A.477.477,0,0,1,251.573,226.832Z" transform="translate(-249.055 -223.361)" fill="#a34551"/>
          </g>
          <g id="Grupo_48141" data-name="Grupo 48141" transform="translate(59.555 11.311)">
            <path id="Trazado_72895" data-name="Trazado 72895" d="M248.421,218.64l3.933-.975.035.173-3.944.923Z" transform="translate(-248.421 -217.267)" fill="#d5d5d5"/>
            <path id="Trazado_72896" data-name="Trazado 72896" d="M256.067,217.918a.528.528,0,1,1,.312-.591A.477.477,0,0,1,256.067,217.918Z" transform="translate(-251.847 -216.897)" fill="#a34551"/>
          </g>
          <g id="Grupo_48142" data-name="Grupo 48142" transform="translate(57.736 10.45)">
            <path id="Trazado_72897" data-name="Trazado 72897" d="M244.913,218.294l3.4-2.2.089.152-3.431,2.152Z" transform="translate(-244.913 -215.65)" fill="#d5d5d5"/>
            <path id="Trazado_72898" data-name="Trazado 72898" d="M251.731,216.178a.528.528,0,1,1,.1-.66A.477.477,0,0,1,251.731,216.178Z" transform="translate(-247.853 -215.237)" fill="#a34551"/>
          </g>
          <g id="Grupo_48143" data-name="Grupo 48143" transform="translate(57.382 13.983)">
            <path id="Trazado_72899" data-name="Trazado 72899" d="M245.166,222.05l.124,4.05-.176,0-.071-4.05Z" transform="translate(-244.621 -222.048)" fill="#d5d5d5"/>
            <path id="Trazado_72900" data-name="Trazado 72900" d="M244.23,229.764a.528.528,0,1,1,.511.429A.477.477,0,0,1,244.23,229.764Z" transform="translate(-244.23 -225.562)" fill="#a34551"/>
          </g>
          <g id="Grupo_48144" data-name="Grupo 48144" transform="translate(58.451 8.408)">
            <path id="Trazado_72901" data-name="Trazado 72901" d="M246.292,215.274l2.669-3.049.127.122-2.708,3.012Z" transform="translate(-246.292 -211.744)" fill="#d5d5d5"/>
            <path id="Trazado_72902" data-name="Trazado 72902" d="M251.792,212.125a.528.528,0,1,1-.082-.663A.477.477,0,0,1,251.792,212.125Z" transform="translate(-248.531 -211.298)" fill="#fe9594"/>
          </g>
          <g id="Grupo_48145" data-name="Grupo 48145" transform="translate(58.243 7.43)">
            <path id="Trazado_72903" data-name="Trazado 72903" d="M245.89,212.757l1.65-2.61.11.077-1.683,2.587Z" transform="translate(-245.89 -209.766)" fill="#d5d5d5"/>
            <path id="Trazado_72904" data-name="Trazado 72904" d="M249.364,209.984a.4.4,0,1,1-.14-.489A.364.364,0,0,1,249.364,209.984Z" transform="translate(-247.227 -209.413)" fill="#a34551"/>
          </g>
          <g id="Grupo_48146" data-name="Grupo 48146" transform="translate(60.251 13.483)">
            <path id="Trazado_72905" data-name="Trazado 72905" d="M249.816,221.084l2.623,1.629-.076.111-2.6-1.662Z" transform="translate(-249.763 -221.084)" fill="#d5d5d5"/>
            <path id="Trazado_72906" data-name="Trazado 72906" d="M254.448,224.518a.4.4,0,1,1,.488-.144A.364.364,0,0,1,254.448,224.518Z" transform="translate(-251.958 -222.401)" fill="#fe9594"/>
          </g>
          <g id="Grupo_48147" data-name="Grupo 48147" transform="translate(59.07 14.48)">
            <path id="Trazado_72907" data-name="Trazado 72907" d="M247.578,223.005l.77,2.991-.131.028-.73-3Z" transform="translate(-247.486 -223.005)" fill="#d5d5d5"/>
            <path id="Trazado_72908" data-name="Trazado 72908" d="M248.232,228.824a.4.4,0,1,1,.452.233A.363.363,0,0,1,248.232,228.824Z" transform="translate(-247.842 -225.611)" fill="#a34551"/>
          </g>
        </g>
        <g id="Grupo_48149" data-name="Grupo 48149" transform="translate(65.582)">
          <path id="Trazado_72909" data-name="Trazado 72909" d="M260.925,193.994l-.176,0-.084-4.9Z" transform="translate(-260.341 -189.094)" fill="#d5d5d5"/>
          <path id="Trazado_72910" data-name="Trazado 72910" d="M260.042,198.472a.528.528,0,1,1,.532.4A.477.477,0,0,1,260.042,198.472Z" transform="translate(-260.042 -193.396)" fill="#a34551"/>
        </g>
      </g>
    </g>
    <g id="Grupo_48155" data-name="Grupo 48155" transform="translate(208.844 119.184)">
      <g id="Grupo_48152" data-name="Grupo 48152" transform="translate(20.733 24.503)">
        <path id="Trazado_72911" data-name="Trazado 72911" d="M417.8,237.838v-5.353s1.678-1.141,5.235,0v5.353Z" transform="translate(-415.614 -231.978)" fill="#2b1811"/>
        <path id="Trazado_72912" data-name="Trazado 72912" d="M413.584,242.065l.57,52.363h10.261l-.855-52.415S419.284,238.919,413.584,242.065Z" transform="translate(-413.584 -236.154)" fill="#7986cb"/>
        <path id="Trazado_72913" data-name="Trazado 72913" d="M413.684,252.115,414.2,299.7h10.261l-.06-3.676c-4.19-1.089-2.773-22.158-6.887-27.555-4.229-5.547-3.692-16.861-3.692-16.861Z" transform="translate(-413.632 -241.428)" fill="#fe9594" opacity="0.2" style="mix-blend-mode: multiply;isolation: isolate"/>
      </g>
      <g id="Grupo_48153" data-name="Grupo 48153" transform="translate(0 24.009)">
        <path id="Trazado_72914" data-name="Trazado 72914" d="M377.027,241.45s-3.526,5.656-3.415,11.162,4.319,9.7,2.769,15.575-2.99,8.059-2.215,10.955,10.35,3.791,10.3,13.7,6.867-1.664,6.867-1.664l-7.42-41.394Z" transform="translate(-373.61 -236.044)" fill="#d6ae2c"/>
        <path id="Trazado_72915" data-name="Trazado 72915" d="M377.027,241.45s-3.526,5.656-3.415,11.162a22.122,22.122,0,0,0,1.824,7.136,18.868,18.868,0,0,1-.2-3.873c.087-1.688.637-3.658,2.234-4.212a34.212,34.212,0,0,0,.539,9.471l.5-.837a17.113,17.113,0,0,1-.431,10.963,33.523,33.523,0,0,0-1.5,3.9,8.472,8.472,0,0,0,.063,4.3,3.957,3.957,0,0,0,2.523,2.971,18.991,18.991,0,0,1-1.33-4.674,6.4,6.4,0,0,1,1.114-4.621,1.026,1.026,0,0,1,.656-.455c.595-.055.85.735.87,1.333.057,1.619-.066,3.245.072,4.859a8.251,8.251,0,0,0,1.58,4.521,23.226,23.226,0,0,0-.069-3.756,7.885,7.885,0,0,1,1.268,5.605c-.086.551-.23,1.1-.352,1.646a10.187,10.187,0,0,1,1.132,2.75,3.368,3.368,0,0,0,2.1-1.361,7.115,7.115,0,0,0,1.1-2.945,33.984,33.984,0,0,0,.432-6.014q.023-5.277-.411-10.543l-3.4-18.992Z" transform="translate(-373.61 -236.044)" fill="#d6ae2c" opacity="0.2" style="mix-blend-mode: multiply;isolation: isolate"/>
        <path id="Trazado_72916" data-name="Trazado 72916" d="M401.362,295.184l-9.405-60.718s-9.834-.389-11.757,3.617l9.192,57.1Z" transform="translate(-376.782 -232.677)" fill="#ffd54f"/>
        <path id="Trazado_72917" data-name="Trazado 72917" d="M391.956,234.466s-9.834-.389-11.757,3.617C380.2,238.084,388.112,239.147,391.956,234.466Z" transform="translate(-376.782 -232.677)" fill="#d6ae2c"/>
        <path id="Trazado_72918" data-name="Trazado 72918" d="M386.538,235.166l-.735-3.311a34.43,34.43,0,0,1,3.868-.828l.77,3.34A4.477,4.477,0,0,1,386.538,235.166Z" transform="translate(-379.479 -231.026)" fill="#2b1811"/>
        <path id="Trazado_72919" data-name="Trazado 72919" d="M399.005,295.91c-8.264-7.363-12.665-39.973-14.1-48.448-1.5-8.818,2.044-9.176,2.044-9.176-3.179.308-2.88-1.3-2.4-2.321-1.924.525-3.653,1.4-4.349,2.845l9.192,57.1Z" transform="translate(-376.782 -233.404)" fill="#87bec3" opacity="0.2" style="mix-blend-mode: multiply;isolation: isolate"/>
      </g>
      <g id="Grupo_48154" data-name="Grupo 48154" transform="translate(22.988)">
        <path id="Trazado_72920" data-name="Trazado 72920" d="M467.166,189.339l.005.388a2.132,2.132,0,0,0,1.219-.62q.03.891.058,1.781a7.756,7.756,0,0,1,1.167-1.483l.209.568c.04.109.129.243.238.2a.226.226,0,0,0,.1-.119l.113-.219v-5.1Z" transform="translate(-441.63 -184.735)" fill="#2b1811"/>
        <path id="Trazado_72921" data-name="Trazado 72921" d="M445.786,214.253a.251.251,0,0,1-.2-.052c-.082-.09,0-.228.015-.348a.409.409,0,0,0-.385-.409,1.022,1.022,0,0,0-.591.176,4.831,4.831,0,0,0-1.638,1.531,15.029,15.029,0,0,0-2.14-2.722,1.038,1.038,0,0,0-.44-.332.979.979,0,0,0-.5.028,8.424,8.424,0,0,0-1.987.762l-.551-1.373L417.932,281.72l9.154,1.063,19.487-68.552Z" transform="translate(-417.932 -197.624)" fill="#d1bcff"/>
        <path id="Trazado_72922" data-name="Trazado 72922" d="M427.086,326.436l6.888-24.233a5.22,5.22,0,0,0-.65.509,9.837,9.837,0,0,0-2.076,3.12,38.87,38.87,0,0,1-2.211,4.557,6.956,6.956,0,0,1-3.835,3.137A3.238,3.238,0,0,1,421.5,312.5l-3.563,12.872Z" transform="translate(-417.932 -241.277)" fill="#7986cb" opacity="0.4" style="mix-blend-mode: multiply;isolation: isolate"/>
        <path id="Trazado_72923" data-name="Trazado 72923" d="M457.943,203.292a.979.979,0,0,1,.5-.028,1.038,1.038,0,0,1,.44.332,15.031,15.031,0,0,1,2.14,2.722,4.831,4.831,0,0,1,1.638-1.531,1.022,1.022,0,0,1,.591-.176.409.409,0,0,1,.385.409c-.015.12-.1.258-.015.348a.251.251,0,0,0,.2.052l.786-.022.007-.025v-11.48l-.113.219a.226.226,0,0,1-.1.119c-.109.042-.2-.092-.238-.2l-.209-.568a7.756,7.756,0,0,0-1.167,1.483q-.029-.89-.058-1.781a2.132,2.132,0,0,1-1.219.62l-.005-.388-5.979,8.845-.121.439.551,1.373A8.424,8.424,0,0,1,457.943,203.292Z" transform="translate(-435.969 -188.792)" fill="#eb7451"/>
      </g>
      <path id="Trazado_72924" data-name="Trazado 72924" d="M392.319,330.3l3.848,53.163s9.94,4.717,18.918.344l2.5-53.507Z" transform="translate(-382.615 -254.802)" fill="#707070"/>
      <path id="Trazado_72925" data-name="Trazado 72925" d="M417.589,330.3h-25.27l.039.543c4.823,1.134,14.627,4.227,16.432,10.9,2.412,8.915,3.237,38.989-.655,39.859-2.216.5-8.074-1-12.194-1.254l.226,3.119s9.94,4.717,18.918.344Z" transform="translate(-382.615 -254.802)" fill="#57464c" opacity="0.2" style="mix-blend-mode: multiply;isolation: isolate"/>
    </g>
    <g id="Grupo_48156" data-name="Grupo 48156" transform="translate(70.679 88.731)">
      <path id="Trazado_72926" data-name="Trazado 72926" d="M198.826,131.31l.591,1.607a.636.636,0,0,0,1.213-.06l.4-1.547a.636.636,0,0,1,.32-.4l1.4-.735a.636.636,0,0,0-.03-1.141l-1.2-.553a.633.633,0,0,1-.307-.3l-.869-1.8a.636.636,0,0,0-1.195.146l-.35,1.653a.635.635,0,0,1-.4.465l-1.442.533a.636.636,0,0,0,0,1.191l1.5.568A.633.633,0,0,1,198.826,131.31Z" transform="translate(-150.213 -126.02)" fill="#9fa8da"/>
      <path id="Trazado_72927" data-name="Trazado 72927" d="M211.463,181.883l.591,1.607a.636.636,0,0,0,1.213-.06l.4-1.547a.637.637,0,0,1,.32-.4l1.4-.735a.636.636,0,0,0-.03-1.141l-1.2-.553a.634.634,0,0,1-.307-.3l-.869-1.8a.636.636,0,0,0-1.195.145l-.35,1.653a.635.635,0,0,1-.4.465l-1.442.533a.636.636,0,0,0,0,1.191l1.5.568A.635.635,0,0,1,211.463,181.883Z" transform="translate(-156.296 -150.362)" fill="#9fa8da"/>
      <path id="Trazado_72928" data-name="Trazado 72928" d="M116.457,141.905l.591,1.607a.636.636,0,0,0,1.213-.06l.4-1.547a.637.637,0,0,1,.32-.4l1.4-.735a.636.636,0,0,0-.03-1.141l-1.2-.553a.636.636,0,0,1-.307-.3l-.869-1.8a.636.636,0,0,0-1.194.145l-.35,1.653a.636.636,0,0,1-.4.465l-1.442.532a.636.636,0,0,0,0,1.192l1.5.567A.637.637,0,0,1,116.457,141.905Z" transform="translate(-110.565 -131.12)" fill="#9fa8da"/>
      <path id="Trazado_72929" data-name="Trazado 72929" d="M271.637,134.855l.591,1.607a.636.636,0,0,0,1.213-.06l.4-1.547a.637.637,0,0,1,.32-.4l1.4-.735a.636.636,0,0,0-.03-1.141l-1.2-.553a.636.636,0,0,1-.307-.3l-.869-1.8a.636.636,0,0,0-1.194.145l-.35,1.653a.636.636,0,0,1-.4.465l-1.442.532a.636.636,0,0,0,0,1.192l1.5.567A.637.637,0,0,1,271.637,134.855Z" transform="translate(-185.26 -127.726)" fill="#9fa8da"/>
      <path id="Trazado_72930" data-name="Trazado 72930" d="M198.826,267.893l.591,1.607a.636.636,0,0,0,1.213-.06l.4-1.547a.637.637,0,0,1,.32-.4l1.4-.735a.636.636,0,0,0-.03-1.141l-1.2-.553a.635.635,0,0,1-.307-.3l-.869-1.8a.636.636,0,0,0-1.195.145l-.35,1.653a.636.636,0,0,1-.4.465l-1.442.532a.636.636,0,0,0,0,1.192l1.5.567A.635.635,0,0,1,198.826,267.893Z" transform="translate(-150.213 -191.763)" fill="#9fa8da"/>
      <path id="Trazado_72931" data-name="Trazado 72931" d="M126.454,248.131l.591,1.607a.636.636,0,0,0,1.212-.06l.4-1.547a.637.637,0,0,1,.32-.4l1.4-.735a.636.636,0,0,0-.031-1.141l-1.2-.553a.636.636,0,0,1-.307-.3l-.869-1.8a.636.636,0,0,0-1.195.145l-.35,1.653a.637.637,0,0,1-.4.465l-1.442.532a.636.636,0,0,0,0,1.192l1.5.567A.637.637,0,0,1,126.454,248.131Z" transform="translate(-115.377 -182.251)" fill="#9fa8da"/>
      <path id="Trazado_72932" data-name="Trazado 72932" d="M216.4,158.472l.235.64a.253.253,0,0,0,.483-.024l.16-.616a.253.253,0,0,1,.128-.161l.558-.293a.253.253,0,0,0-.012-.454l-.479-.22a.251.251,0,0,1-.122-.12l-.346-.715a.254.254,0,0,0-.476.058l-.139.659a.254.254,0,0,1-.16.185l-.574.212a.253.253,0,0,0,0,.475l.6.226A.253.253,0,0,1,216.4,158.472Z" transform="translate(-159.337 -140.627)" fill="#9fa8da"/>
      <path id="Trazado_72933" data-name="Trazado 72933" d="M108.131,239.516l.235.64a.253.253,0,0,0,.483-.024l.16-.616a.251.251,0,0,1,.127-.16l.558-.293a.253.253,0,0,0-.012-.454l-.479-.22a.257.257,0,0,1-.122-.12l-.346-.716a.253.253,0,0,0-.476.058l-.14.658a.252.252,0,0,1-.16.185l-.575.212a.253.253,0,0,0,0,.475l.6.226A.255.255,0,0,1,108.131,239.516Z" transform="translate(-107.22 -179.636)" fill="#9fa8da"/>
      <path id="Trazado_72934" data-name="Trazado 72934" d="M115.017,212.014l.235.64a.253.253,0,0,0,.483-.024l.16-.616a.252.252,0,0,1,.127-.161l.558-.293a.254.254,0,0,0-.012-.455l-.479-.22a.254.254,0,0,1-.122-.12l-.346-.715a.253.253,0,0,0-.476.058l-.14.659a.253.253,0,0,1-.16.185l-.575.212a.253.253,0,0,0,0,.475l.6.226A.254.254,0,0,1,115.017,212.014Z" transform="translate(-110.535 -166.399)" fill="#9fa8da"/>
    </g>
  </g>
</svg>
