<?xml version="1.0" encoding="utf-8"?>
<!-- Generator: Adobe Illustrator 25.2.0, SVG Export Plug-In . SVG Version: 6.00 Build 0)  -->
<svg version="1.1" id="Capa_1" xmlns="http://www.w3.org/2000/svg" xmlns:xlink="http://www.w3.org/1999/xlink" x="0px" y="0px"
	 viewBox="0 0 751.6 419.3" style="enable-background:new 0 0 751.6 419.3;" xml:space="preserve">
<style type="text/css">
	.st0{enable-background:new    ;}
	.st1{fill:#00223D;}
	.st2{fill:#D1BCFF;}
	.st3{fill:#325A6A;}
	.st4{fill:#FFFFFF;}
	.st5{fill:url(#Trazado_40937_1_);}
	.st6{fill:none;stroke:#825EC3;stroke-width:4;stroke-miterlimit:10;}
	.st7{fill:#ECEEF0;}
	.st8{fill:#673AB7;}
	.st9{fill:#FFD54F;}
	.st10{fill:url(#Trazado_40937-2_1_);}
	.st11{fill:url(#Trazado_40937-3_1_);}
	.st12{fill:none;stroke:#707070;stroke-dasharray:3;}
	.st13{fill:url(#Trazado_40937-4_1_);}
	.st14{fill:url(#Trazado_40937-5_1_);}
	.st15{fill:url(#Trazado_40937-6_1_);}
</style>
<g id="Grupo_48198" transform="translate(-326.138 -3747.032)">
	<g class="st0">
		<path class="st1" d="M427.2,3883.1c0.4,0.3,0.8,0.8,1,1.3c0.2,0.6,0.4,1.2,0.4,2c0,0.9-0.2,1.7-0.5,2.4c-0.3,0.7-0.9,1.3-1.6,1.7
			c-0.5,0.3-1.1,0.5-1.7,0.5c-0.6,0.1-1.2,0.1-1.6,0.1h-1.8v5h-2.9V3882h4.7c1,0,1.8,0.1,2.5,0.3
			C426.2,3882.4,426.7,3882.7,427.2,3883.1z M424.9,3888.3c0.5-0.3,0.8-0.9,0.8-1.7c0-0.8-0.2-1.4-0.7-1.7c-0.3-0.2-0.6-0.3-1-0.4
			c-0.4-0.1-0.8-0.1-1.2-0.1h-1.4v4.3h1.4c0.4,0,0.8,0,1.2-0.1S424.6,3888.5,424.9,3888.3z"/>
		<path class="st1" d="M439,3894.3c0,0.3,0,0.6,0,0.9c0,0.3,0.1,0.5,0.2,0.7v0.3h-2.7l-0.1-1.4c-0.3,0.5-0.8,0.9-1.4,1.2
			c-0.6,0.3-1.3,0.4-1.9,0.4c-0.4,0-0.8,0-1.2-0.1c-0.4-0.1-0.7-0.2-1.1-0.5c-0.3-0.2-0.6-0.5-0.8-0.8c-0.2-0.3-0.3-0.8-0.3-1.3
			c0-0.6,0.1-1,0.3-1.4c0.2-0.4,0.5-0.7,0.9-1c0.4-0.3,0.8-0.5,1.2-0.6c0.5-0.1,0.9-0.3,1.4-0.4l1.8-0.4c0.3-0.1,0.5-0.1,0.7-0.2
			c0.2-0.1,0.3-0.3,0.3-0.5c0-0.5-0.2-0.8-0.5-1c-0.4-0.2-0.8-0.3-1.2-0.3c-0.6,0-1,0.1-1.4,0.4c-0.4,0.3-0.6,0.6-0.7,1.1l-2.7-0.4
			c0.2-1.1,0.8-1.9,1.6-2.4c0.8-0.5,1.9-0.7,3.2-0.7c1.5,0,2.6,0.3,3.4,0.9c0.8,0.6,1.1,1.5,1.1,2.8V3894.3z M433.8,3894.4
			c0.3,0,0.7-0.1,1-0.2c0.3-0.1,0.6-0.3,0.8-0.6s0.4-0.6,0.6-1c0.1-0.4,0.2-0.8,0.2-1.4l-2.5,0.6c-0.4,0.1-0.7,0.2-1,0.4
			c-0.3,0.2-0.5,0.5-0.5,1c0,0.4,0.1,0.7,0.4,0.8S433.4,3894.4,433.8,3894.4z"/>
		<path class="st1" d="M445.4,3896.1c-1,0-1.8-0.3-2.3-0.8c-0.5-0.6-0.8-1.3-0.8-2.3v-4.8h-2v-2.1h0.8c0.5,0,0.8-0.1,1.1-0.4
			c0.3-0.2,0.4-0.7,0.4-1.4v-1.4h2.4v3.2h2.2v2.1h-2.2v4.4c0,0.5,0.1,0.8,0.4,1c0.2,0.2,0.5,0.3,0.9,0.3h0.9v2.2H445.4z"/>
		<path class="st1" d="M452,3887.5c0.3-0.5,0.8-0.9,1.3-1.2s1.3-0.5,2.1-0.5v2.6c-1.2,0-2.1,0.2-2.6,0.7c-0.5,0.4-0.8,1.2-0.8,2.4
			v4.6h-2.8V3886h2.8V3887.5z"/>
		<path class="st1" d="M461.9,3896.3c-0.8,0-1.6-0.1-2.2-0.4c-0.7-0.2-1.3-0.6-1.7-1c-0.5-0.5-0.9-1-1.1-1.7
			c-0.3-0.6-0.4-1.4-0.4-2.2c0-0.8,0.1-1.5,0.4-2.2c0.3-0.6,0.7-1.2,1.1-1.6c0.5-0.4,1.1-0.8,1.7-1c0.7-0.2,1.4-0.4,2.2-0.4
			c0.8,0,1.6,0.1,2.2,0.4c0.7,0.2,1.3,0.6,1.8,1c0.5,0.4,0.9,1,1.1,1.6c0.3,0.6,0.4,1.4,0.4,2.2c0,0.8-0.1,1.5-0.4,2.2
			c-0.3,0.6-0.7,1.2-1.1,1.7c-0.5,0.5-1.1,0.8-1.8,1C463.5,3896.2,462.7,3896.3,461.9,3896.3z M461.9,3894.1c0.8,0,1.5-0.3,2-0.8
			c0.5-0.6,0.8-1.3,0.8-2.2c0-0.9-0.2-1.6-0.8-2.2c-0.5-0.6-1.2-0.8-2-0.8c-0.8,0-1.5,0.3-2,0.8c-0.5,0.6-0.8,1.3-0.8,2.2
			c0,0.9,0.2,1.7,0.8,2.2C460.4,3893.8,461.1,3894.1,461.9,3894.1z"/>
		<path class="st1" d="M475.4,3885.8c1.3,0,2.2,0.3,2.9,0.9c0.6,0.6,1,1.5,1,2.6v6.7h-2.8v-6.2c0-0.7-0.2-1.2-0.5-1.5
			s-0.8-0.5-1.4-0.5c-0.6,0-1.1,0.2-1.5,0.5c-0.4,0.3-0.7,0.9-0.8,1.7v5.9h-2.8V3886h2.8v1.1c0.4-0.4,0.8-0.8,1.4-1
			S474.7,3885.8,475.4,3885.8z"/>
		<path class="st1" d="M491.5,3891.6h-7.7c0.1,0.8,0.3,1.4,0.8,1.9s1.1,0.6,1.8,0.6c0.5,0,1-0.1,1.4-0.3c0.4-0.2,0.7-0.6,0.9-1
			l2.6,0.3c-0.3,1-0.9,1.8-1.8,2.4c-0.9,0.6-1.9,0.8-3,0.8c-0.8,0-1.6-0.1-2.2-0.4c-0.7-0.2-1.2-0.6-1.7-1c-0.5-0.5-0.8-1-1.1-1.6
			c-0.3-0.6-0.4-1.4-0.4-2.2s0.1-1.5,0.4-2.2c0.3-0.6,0.6-1.2,1.1-1.6c0.5-0.5,1-0.8,1.7-1s1.4-0.4,2.2-0.4c0.7,0,1.4,0.1,2,0.3
			c0.6,0.2,1.2,0.5,1.6,1c0.5,0.4,0.8,1,1.1,1.6c0.3,0.6,0.4,1.4,0.4,2.3L491.5,3891.6z M486.4,3887.9c-0.7,0-1.3,0.2-1.7,0.5
			c-0.4,0.3-0.7,0.9-0.9,1.5h4.9c-0.1-0.7-0.3-1.2-0.7-1.5C487.6,3888.1,487,3887.9,486.4,3887.9z"/>
		<path class="st1" d="M497.6,3896.3c-0.6,0-1.1-0.1-1.7-0.2c-0.5-0.1-1-0.3-1.4-0.5s-0.8-0.5-1-0.9s-0.4-0.8-0.5-1.2l2.3-0.6
			c0.2,0.5,0.4,0.9,0.8,1.2s0.9,0.3,1.4,0.3c0.4,0,0.8-0.1,1.1-0.2s0.4-0.4,0.4-0.8c0-0.2-0.1-0.4-0.2-0.5c-0.1-0.1-0.3-0.3-0.5-0.4
			c-0.2-0.1-0.4-0.2-0.7-0.2c-0.3-0.1-0.5-0.1-0.8-0.2c-0.5-0.1-1-0.2-1.5-0.4c-0.4-0.1-0.8-0.3-1.1-0.5c-0.3-0.2-0.6-0.5-0.7-0.8
			c-0.2-0.3-0.3-0.7-0.3-1.2c0-1,0.4-1.8,1.1-2.3c0.7-0.5,1.7-0.8,3-0.8c0.5,0,0.9,0,1.4,0.2c0.5,0.1,0.9,0.3,1.2,0.5
			c0.4,0.2,0.7,0.5,1,0.8c0.3,0.3,0.5,0.7,0.6,1.2l-2.4,0.5c-0.2-0.4-0.4-0.7-0.7-0.9c-0.3-0.2-0.7-0.3-1.2-0.3
			c-0.4,0-0.8,0.1-1,0.2c-0.3,0.2-0.4,0.4-0.4,0.7c0,0.2,0.1,0.3,0.2,0.4c0.1,0.1,0.3,0.2,0.5,0.3c0.2,0.1,0.4,0.2,0.7,0.2
			c0.3,0.1,0.5,0.1,0.8,0.2c0.6,0.1,1.1,0.3,1.6,0.4s0.9,0.3,1.2,0.6s0.6,0.5,0.7,0.9c0.2,0.3,0.3,0.8,0.3,1.3
			c0,0.6-0.1,1.1-0.3,1.5c-0.2,0.4-0.5,0.8-0.9,1c-0.4,0.3-0.8,0.5-1.3,0.6C498.6,3896.3,498.1,3896.3,497.6,3896.3z"/>
	</g>
	<g class="st0">
		<path class="st1" d="M380.8,4129.3c-0.6,0-1.2-0.1-1.9-0.2c-0.6-0.2-1.2-0.4-1.9-0.8l1.2-2.4c0.4,0.2,0.7,0.4,1.1,0.5
			s0.7,0.2,1.1,0.2c0.6,0,1-0.2,1.2-0.5c0.3-0.3,0.4-0.9,0.4-1.8v-9.5h2.9v10c0,0.7-0.1,1.3-0.3,1.9c-0.2,0.6-0.5,1-0.9,1.4
			c-0.4,0.4-0.8,0.7-1.3,0.9S381.4,4129.3,380.8,4129.3z"/>
		<path class="st1" d="M396.3,4127.2c0,0.3,0,0.6,0,0.9c0,0.3,0.1,0.5,0.2,0.7v0.3h-2.7l-0.1-1.4c-0.3,0.5-0.8,0.9-1.4,1.2
			c-0.6,0.3-1.3,0.4-1.9,0.4c-0.4,0-0.8,0-1.2-0.1c-0.4-0.1-0.7-0.2-1.1-0.5c-0.3-0.2-0.6-0.5-0.8-0.8c-0.2-0.3-0.3-0.8-0.3-1.3
			c0-0.6,0.1-1,0.3-1.4c0.2-0.4,0.5-0.7,0.9-1c0.4-0.3,0.8-0.5,1.2-0.6c0.5-0.1,0.9-0.3,1.4-0.4l1.8-0.4c0.3-0.1,0.5-0.1,0.7-0.2
			c0.2-0.1,0.3-0.3,0.3-0.5c0-0.5-0.2-0.8-0.5-1c-0.4-0.2-0.8-0.3-1.2-0.3c-0.6,0-1,0.1-1.4,0.4c-0.4,0.3-0.6,0.6-0.7,1.1l-2.7-0.4
			c0.2-1.1,0.8-1.9,1.6-2.4c0.8-0.5,1.9-0.7,3.2-0.7c1.5,0,2.6,0.3,3.4,0.9c0.8,0.6,1.1,1.5,1.1,2.8V4127.2z M391.1,4127.3
			c0.3,0,0.7-0.1,1-0.2c0.3-0.1,0.6-0.3,0.8-0.6s0.4-0.6,0.6-1c0.1-0.4,0.2-0.8,0.2-1.4l-2.5,0.6c-0.4,0.1-0.7,0.2-1,0.4
			c-0.3,0.2-0.5,0.5-0.5,1c0,0.4,0.1,0.7,0.4,0.8S390.7,4127.3,391.1,4127.3z"/>
		<path class="st1" d="M404.7,4118.8c0.7,0,1.3,0.1,1.9,0.4s1.1,0.6,1.6,1s0.8,1,1,1.6c0.3,0.6,0.4,1.4,0.4,2.2
			c0,0.8-0.1,1.5-0.4,2.2c-0.3,0.6-0.6,1.2-1,1.7s-1,0.8-1.6,1c-0.6,0.2-1.2,0.4-1.9,0.4c-0.7,0-1.3-0.1-1.9-0.4
			c-0.6-0.2-1-0.6-1.3-1v1.2h-2.8v-15h2.8v6.1c0.3-0.5,0.7-0.8,1.3-1.1S404,4118.8,404.7,4118.8z M404.1,4126.9
			c0.8,0,1.4-0.3,1.9-0.8c0.5-0.5,0.8-1.2,0.8-2.1c0-0.9-0.3-1.6-0.8-2.2s-1.2-0.8-1.9-0.8c-0.8,0-1.4,0.3-1.9,0.8
			c-0.5,0.5-0.8,1.3-0.8,2.2c0,0.9,0.3,1.6,0.8,2.1C402.7,4126.7,403.3,4126.9,404.1,4126.9z"/>
		<path class="st1" d="M416.6,4129.2c-0.8,0-1.6-0.1-2.2-0.4c-0.7-0.2-1.3-0.6-1.7-1c-0.5-0.5-0.9-1-1.1-1.7
			c-0.3-0.6-0.4-1.4-0.4-2.2c0-0.8,0.1-1.5,0.4-2.2c0.3-0.6,0.7-1.2,1.1-1.6c0.5-0.4,1.1-0.8,1.7-1c0.7-0.2,1.4-0.4,2.2-0.4
			c0.8,0,1.6,0.1,2.2,0.4c0.7,0.2,1.3,0.6,1.8,1c0.5,0.4,0.9,1,1.1,1.6c0.3,0.6,0.4,1.4,0.4,2.2c0,0.8-0.1,1.5-0.4,2.2
			c-0.3,0.6-0.7,1.2-1.1,1.7c-0.5,0.5-1.1,0.8-1.8,1C418.2,4129.1,417.4,4129.2,416.6,4129.2z M416.6,4127c0.8,0,1.5-0.3,2-0.8
			c0.5-0.6,0.8-1.3,0.8-2.2c0-0.9-0.2-1.6-0.8-2.2c-0.5-0.6-1.2-0.8-2-0.8c-0.8,0-1.5,0.3-2,0.8c-0.5,0.6-0.8,1.3-0.8,2.2
			c0,0.9,0.2,1.7,0.8,2.2C415.1,4126.8,415.8,4127,416.6,4127z"/>
		<path class="st1" d="M430.1,4118.8c1.3,0,2.2,0.3,2.9,0.9c0.6,0.6,1,1.5,1,2.6v6.7h-2.8v-6.2c0-0.7-0.2-1.2-0.5-1.5
			s-0.8-0.5-1.4-0.5c-0.6,0-1.1,0.2-1.5,0.5c-0.4,0.3-0.7,0.9-0.8,1.7v5.9h-2.8V4119h2.8v1.1c0.4-0.4,0.8-0.8,1.4-1
			S429.4,4118.8,430.1,4118.8z"/>
		<path class="st1" d="M441.3,4129.2c-0.8,0-1.5-0.1-2.2-0.4c-0.7-0.3-1.2-0.6-1.7-1.1s-0.9-1-1.1-1.7c-0.3-0.6-0.4-1.4-0.4-2.1
			s0.1-1.5,0.4-2.1c0.3-0.6,0.6-1.2,1.1-1.7s1.1-0.8,1.7-1.1c0.7-0.3,1.4-0.4,2.2-0.4c1.3,0,2.4,0.3,3.3,1c0.9,0.6,1.4,1.6,1.7,2.8
			l-2.6,0.2c-0.1-0.6-0.4-1.1-0.9-1.4s-1-0.5-1.6-0.5c-0.8,0-1.4,0.3-1.9,0.9c-0.5,0.6-0.7,1.3-0.7,2.2c0,0.9,0.2,1.7,0.7,2.2
			c0.5,0.6,1.1,0.8,1.9,0.8c0.6,0,1.2-0.1,1.6-0.4c0.4-0.3,0.7-0.8,0.9-1.4l2.6,0.2c-0.1,0.6-0.3,1.1-0.6,1.6
			c-0.3,0.5-0.7,0.9-1.1,1.2c-0.4,0.3-0.9,0.6-1.5,0.7C442.5,4129.2,441.9,4129.2,441.3,4129.2z"/>
		<path class="st1" d="M449.6,4117.4c-0.5,0-0.8-0.2-1.1-0.5c-0.3-0.3-0.5-0.7-0.5-1.1c0-0.4,0.2-0.8,0.5-1.1
			c0.3-0.3,0.7-0.5,1.1-0.5c0.4,0,0.8,0.2,1.1,0.5c0.3,0.3,0.5,0.7,0.5,1.1c0,0.5-0.2,0.8-0.5,1.1
			C450.4,4117.2,450,4117.4,449.6,4117.4z M448.1,4129V4119h2.8v10.1H448.1z"/>
		<path class="st1" d="M453.3,4129v-15h2.8v15H453.3z"/>
		<path class="st1" d="M458.6,4129v-15h2.8v15H458.6z"/>
		<path class="st1" d="M468.8,4129.2c-0.8,0-1.6-0.1-2.2-0.4c-0.7-0.2-1.3-0.6-1.7-1c-0.5-0.5-0.9-1-1.1-1.7
			c-0.3-0.6-0.4-1.4-0.4-2.2c0-0.8,0.1-1.5,0.4-2.2c0.3-0.6,0.7-1.2,1.1-1.6c0.5-0.4,1.1-0.8,1.7-1c0.7-0.2,1.4-0.4,2.2-0.4
			c0.8,0,1.6,0.1,2.2,0.4c0.7,0.2,1.3,0.6,1.8,1c0.5,0.4,0.9,1,1.1,1.6c0.3,0.6,0.4,1.4,0.4,2.2c0,0.8-0.1,1.5-0.4,2.2
			c-0.3,0.6-0.7,1.2-1.1,1.7c-0.5,0.5-1.1,0.8-1.8,1C470.4,4129.1,469.7,4129.2,468.8,4129.2z M468.8,4127c0.8,0,1.5-0.3,2-0.8
			c0.5-0.6,0.8-1.3,0.8-2.2c0-0.9-0.2-1.6-0.8-2.2c-0.5-0.6-1.2-0.8-2-0.8c-0.8,0-1.5,0.3-2,0.8c-0.5,0.6-0.8,1.3-0.8,2.2
			c0,0.9,0.2,1.7,0.8,2.2C467.3,4126.8,468,4127,468.8,4127z"/>
		<path class="st1" d="M486.6,4129.2c-0.8,0-1.6-0.1-2.2-0.4c-0.7-0.2-1.3-0.6-1.7-1c-0.5-0.5-0.9-1-1.1-1.7
			c-0.3-0.6-0.4-1.4-0.4-2.2c0-0.8,0.1-1.5,0.4-2.2c0.3-0.6,0.7-1.2,1.1-1.6c0.5-0.4,1.1-0.8,1.7-1c0.7-0.2,1.4-0.4,2.2-0.4
			c0.8,0,1.6,0.1,2.2,0.4c0.7,0.2,1.3,0.6,1.8,1c0.5,0.4,0.9,1,1.1,1.6c0.3,0.6,0.4,1.4,0.4,2.2c0,0.8-0.1,1.5-0.4,2.2
			c-0.3,0.6-0.7,1.2-1.1,1.7c-0.5,0.5-1.1,0.8-1.8,1C488.2,4129.1,487.4,4129.2,486.6,4129.2z M486.6,4127c0.8,0,1.5-0.3,2-0.8
			c0.5-0.6,0.8-1.3,0.8-2.2c0-0.9-0.2-1.6-0.8-2.2c-0.5-0.6-1.2-0.8-2-0.8c-0.8,0-1.5,0.3-2,0.8c-0.5,0.6-0.8,1.3-0.8,2.2
			c0,0.9,0.2,1.7,0.8,2.2C485.1,4126.8,485.8,4127,486.6,4127z"/>
		<path class="st1" d="M503.5,4129c-1,0-1.8-0.3-2.3-0.8c-0.5-0.6-0.8-1.3-0.8-2.3v-4.8h-2v-2.1h0.8c0.5,0,0.8-0.1,1.1-0.4
			c0.3-0.2,0.4-0.7,0.4-1.4v-1.4h2.4v3.2h2.2v2.1h-2.2v4.4c0,0.5,0.1,0.8,0.4,1c0.2,0.2,0.5,0.3,0.9,0.3h0.9v2.2H503.5z"/>
		<path class="st1" d="M508.8,4117.4c-0.5,0-0.8-0.2-1.1-0.5c-0.3-0.3-0.5-0.7-0.5-1.1c0-0.4,0.2-0.8,0.5-1.1
			c0.3-0.3,0.7-0.5,1.1-0.5c0.4,0,0.8,0.2,1.1,0.5c0.3,0.3,0.5,0.7,0.5,1.1c0,0.5-0.2,0.8-0.5,1.1
			C509.6,4117.2,509.2,4117.4,508.8,4117.4z M507.3,4129V4119h2.8v10.1H507.3z"/>
		<path class="st1" d="M520.6,4119l-4.7,8h4.5v2.1h-8.6l4.6-8h-4.2v-2.1H520.6z"/>
		<path class="st1" d="M531.2,4127.2c0,0.3,0,0.6,0,0.9c0,0.3,0.1,0.5,0.2,0.7v0.3h-2.7l-0.1-1.4c-0.3,0.5-0.8,0.9-1.4,1.2
			c-0.6,0.3-1.3,0.4-1.9,0.4c-0.4,0-0.8,0-1.2-0.1c-0.4-0.1-0.7-0.2-1.1-0.5c-0.3-0.2-0.6-0.5-0.8-0.8c-0.2-0.3-0.3-0.8-0.3-1.3
			c0-0.6,0.1-1,0.3-1.4c0.2-0.4,0.5-0.7,0.9-1c0.4-0.3,0.8-0.5,1.2-0.6c0.5-0.1,0.9-0.3,1.4-0.4l1.8-0.4c0.3-0.1,0.5-0.1,0.7-0.2
			c0.2-0.1,0.3-0.3,0.3-0.5c0-0.5-0.2-0.8-0.5-1c-0.4-0.2-0.8-0.3-1.2-0.3c-0.6,0-1,0.1-1.4,0.4c-0.4,0.3-0.6,0.6-0.7,1.1l-2.7-0.4
			c0.2-1.1,0.8-1.9,1.6-2.4c0.8-0.5,1.9-0.7,3.2-0.7c1.5,0,2.6,0.3,3.4,0.9c0.8,0.6,1.1,1.5,1.1,2.8V4127.2z M526,4127.3
			c0.3,0,0.7-0.1,1-0.2c0.3-0.1,0.6-0.3,0.8-0.6s0.4-0.6,0.6-1c0.1-0.4,0.2-0.8,0.2-1.4l-2.5,0.6c-0.4,0.1-0.7,0.2-1,0.4
			c-0.3,0.2-0.5,0.5-0.5,1c0,0.4,0.1,0.7,0.4,0.8S525.6,4127.3,526,4127.3z"/>
		<path class="st1" d="M537.7,4129.2c-0.6,0-1.1-0.1-1.7-0.2c-0.5-0.1-1-0.3-1.4-0.5s-0.8-0.5-1-0.9s-0.4-0.8-0.5-1.2l2.3-0.6
			c0.2,0.5,0.4,0.9,0.8,1.2s0.9,0.3,1.4,0.3c0.4,0,0.8-0.1,1.1-0.2s0.4-0.4,0.4-0.8c0-0.2-0.1-0.4-0.2-0.5c-0.1-0.1-0.3-0.3-0.5-0.4
			c-0.2-0.1-0.4-0.2-0.7-0.2c-0.3-0.1-0.5-0.1-0.8-0.2c-0.5-0.1-1-0.2-1.5-0.4c-0.4-0.1-0.8-0.3-1.1-0.5c-0.3-0.2-0.6-0.5-0.7-0.8
			c-0.2-0.3-0.3-0.7-0.3-1.2c0-1,0.4-1.8,1.1-2.3c0.7-0.5,1.7-0.8,3-0.8c0.5,0,0.9,0,1.4,0.2c0.5,0.1,0.9,0.3,1.2,0.5
			c0.4,0.2,0.7,0.5,1,0.8c0.3,0.3,0.5,0.7,0.6,1.2l-2.4,0.5c-0.2-0.4-0.4-0.7-0.7-0.9c-0.3-0.2-0.7-0.3-1.2-0.3
			c-0.4,0-0.8,0.1-1,0.2c-0.3,0.2-0.4,0.4-0.4,0.7c0,0.2,0.1,0.3,0.2,0.4c0.1,0.1,0.3,0.2,0.5,0.3c0.2,0.1,0.4,0.2,0.7,0.2
			c0.3,0.1,0.5,0.1,0.8,0.2c0.6,0.1,1.1,0.3,1.6,0.4s0.9,0.3,1.2,0.6s0.6,0.5,0.7,0.9c0.2,0.3,0.3,0.8,0.3,1.3
			c0,0.6-0.1,1.1-0.3,1.5c-0.2,0.4-0.5,0.8-0.9,1c-0.4,0.3-0.8,0.5-1.3,0.6C538.7,4129.2,538.2,4129.2,537.7,4129.2z"/>
	</g>
	<g class="st0">
		<path class="st1" d="M681.4,3896.1l-3.4-5.2h-1.3v5.2h-2.9V3882h4.7c1,0,1.8,0.1,2.5,0.3c0.6,0.2,1.2,0.4,1.6,0.8
			c0.4,0.3,0.8,0.8,1,1.3c0.2,0.6,0.4,1.2,0.4,2c0,0.9-0.2,1.7-0.5,2.5c-0.3,0.8-0.9,1.3-1.6,1.7c-0.1,0.1-0.2,0.1-0.3,0.1
			c-0.1,0-0.2,0.1-0.3,0.1l3.7,5.3H681.4z M676.7,3884.4v4.3h1.4c0.4,0,0.8,0,1.2-0.1s0.8-0.2,1-0.4c0.5-0.3,0.8-0.9,0.8-1.7
			c0-0.8-0.2-1.4-0.7-1.7c-0.3-0.2-0.6-0.3-1-0.4c-0.4-0.1-0.8-0.1-1.2-0.1H676.7z"/>
		<path class="st1" d="M695.9,3891.6h-7.7c0.1,0.8,0.3,1.4,0.8,1.9s1.1,0.6,1.8,0.6c0.5,0,1-0.1,1.4-0.3c0.4-0.2,0.7-0.6,0.9-1
			l2.6,0.3c-0.3,1-0.9,1.8-1.8,2.4c-0.9,0.6-1.9,0.8-3,0.8c-0.8,0-1.6-0.1-2.2-0.4c-0.7-0.2-1.2-0.6-1.7-1c-0.5-0.5-0.8-1-1.1-1.6
			c-0.3-0.6-0.4-1.4-0.4-2.2s0.1-1.5,0.4-2.2c0.3-0.6,0.6-1.2,1.1-1.6c0.5-0.5,1-0.8,1.7-1s1.4-0.4,2.2-0.4c0.7,0,1.4,0.1,2,0.3
			c0.6,0.2,1.2,0.5,1.6,1c0.5,0.4,0.8,1,1.1,1.6c0.3,0.6,0.4,1.4,0.4,2.3L695.9,3891.6z M690.8,3887.9c-0.7,0-1.3,0.2-1.7,0.5
			c-0.4,0.3-0.7,0.9-0.9,1.5h4.9c-0.1-0.7-0.3-1.2-0.7-1.5C692,3888.1,691.5,3887.9,690.8,3887.9z"/>
		<path class="st1" d="M705.2,3886h2.8v9.8c0,0.9-0.1,1.7-0.4,2.4c-0.2,0.7-0.6,1.2-1.1,1.6s-1,0.7-1.6,0.9
			c-0.6,0.2-1.4,0.3-2.2,0.3c-1.5,0-2.6-0.3-3.4-0.9c-0.8-0.6-1.4-1.3-1.8-2.3l2.3-1c0.3,0.7,0.7,1.1,1.1,1.5c0.4,0.3,1,0.5,1.7,0.5
			c0.9,0,1.6-0.3,2-0.8c0.4-0.5,0.6-1.2,0.6-2.1v-1.7c-0.3,0.4-0.7,0.8-1.3,1s-1.2,0.4-1.9,0.4c-0.6,0-1.2-0.1-1.8-0.4
			s-1.1-0.6-1.5-1c-0.4-0.4-0.8-1-1-1.6c-0.2-0.6-0.4-1.3-0.4-2.1s0.1-1.4,0.4-2.1c0.2-0.6,0.6-1.1,1-1.6s0.9-0.8,1.5-1
			s1.2-0.4,1.8-0.4c0.7,0,1.4,0.1,1.9,0.4s0.9,0.6,1.2,1.1V3886z M702.7,3893.6c0.4,0,0.7-0.1,1.1-0.2c0.3-0.1,0.6-0.3,0.8-0.6
			c0.2-0.3,0.4-0.5,0.5-0.9c0.1-0.3,0.2-0.7,0.2-1.1c0-0.4-0.1-0.8-0.2-1.1c-0.1-0.3-0.3-0.6-0.5-0.9c-0.2-0.2-0.5-0.4-0.8-0.6
			c-0.3-0.1-0.7-0.2-1.1-0.2s-0.7,0.1-1.1,0.2c-0.3,0.1-0.6,0.3-0.8,0.6c-0.2,0.2-0.4,0.5-0.5,0.9c-0.1,0.3-0.2,0.7-0.2,1.1
			c0,0.4,0.1,0.8,0.2,1.1c0.1,0.3,0.3,0.6,0.5,0.9c0.2,0.3,0.5,0.5,0.8,0.6C702,3893.6,702.3,3893.6,702.7,3893.6z"/>
		<path class="st1" d="M710.4,3896.1v-15h2.8v15H710.4z"/>
		<path class="st1" d="M724.5,3894.3c0,0.3,0,0.6,0,0.9c0,0.3,0.1,0.5,0.2,0.7v0.3h-2.7l-0.1-1.4c-0.3,0.5-0.8,0.9-1.5,1.2
			c-0.6,0.3-1.3,0.4-1.9,0.4c-0.4,0-0.8,0-1.2-0.1c-0.4-0.1-0.7-0.2-1.1-0.5c-0.3-0.2-0.6-0.5-0.8-0.8c-0.2-0.3-0.3-0.8-0.3-1.3
			c0-0.6,0.1-1,0.3-1.4s0.5-0.7,0.9-1c0.4-0.3,0.8-0.5,1.2-0.6c0.5-0.1,0.9-0.3,1.4-0.4l1.8-0.4c0.3-0.1,0.5-0.1,0.7-0.2
			c0.2-0.1,0.3-0.3,0.3-0.5c0-0.5-0.2-0.8-0.5-1c-0.4-0.2-0.8-0.3-1.2-0.3c-0.6,0-1,0.1-1.4,0.4c-0.4,0.3-0.6,0.6-0.7,1.1l-2.7-0.4
			c0.2-1.1,0.8-1.9,1.6-2.4s1.9-0.7,3.2-0.7c1.5,0,2.6,0.3,3.4,0.9c0.8,0.6,1.1,1.5,1.1,2.8V3894.3z M719.2,3894.4
			c0.3,0,0.7-0.1,1-0.2c0.3-0.1,0.6-0.3,0.8-0.6c0.2-0.3,0.4-0.6,0.6-1c0.1-0.4,0.2-0.8,0.2-1.4l-2.5,0.6c-0.4,0.1-0.7,0.2-1,0.4
			c-0.3,0.2-0.5,0.5-0.5,1c0,0.4,0.1,0.7,0.4,0.8C718.5,3894.3,718.8,3894.4,719.2,3894.4z"/>
		<path class="st1" d="M730.9,3896.3c-0.6,0-1.1-0.1-1.7-0.2c-0.5-0.1-1-0.3-1.4-0.5s-0.8-0.5-1-0.9s-0.4-0.8-0.5-1.2l2.3-0.6
			c0.2,0.5,0.4,0.9,0.8,1.2c0.4,0.2,0.9,0.3,1.4,0.3c0.4,0,0.8-0.1,1.1-0.2c0.3-0.2,0.4-0.4,0.4-0.8c0-0.2-0.1-0.4-0.2-0.5
			c-0.1-0.1-0.3-0.3-0.5-0.4c-0.2-0.1-0.4-0.2-0.7-0.2c-0.3-0.1-0.5-0.1-0.8-0.2c-0.5-0.1-1-0.2-1.5-0.4c-0.4-0.1-0.8-0.3-1.1-0.5
			c-0.3-0.2-0.6-0.5-0.7-0.8c-0.2-0.3-0.3-0.7-0.3-1.2c0-1,0.4-1.8,1.1-2.3c0.7-0.5,1.7-0.8,3-0.8c0.5,0,0.9,0,1.4,0.2
			c0.5,0.1,0.9,0.3,1.2,0.5c0.4,0.2,0.7,0.5,1,0.8c0.3,0.3,0.5,0.7,0.6,1.2l-2.4,0.5c-0.2-0.4-0.4-0.7-0.7-0.9
			c-0.3-0.2-0.7-0.3-1.2-0.3c-0.4,0-0.8,0.1-1,0.2c-0.3,0.2-0.4,0.4-0.4,0.7c0,0.2,0.1,0.3,0.2,0.4c0.1,0.1,0.3,0.2,0.5,0.3
			c0.2,0.1,0.4,0.2,0.7,0.2c0.3,0.1,0.5,0.1,0.8,0.2c0.6,0.1,1.1,0.3,1.6,0.4s0.9,0.3,1.2,0.6c0.3,0.2,0.6,0.5,0.7,0.9
			c0.2,0.3,0.3,0.8,0.3,1.3c0,0.6-0.1,1.1-0.3,1.5c-0.2,0.4-0.5,0.8-0.9,1s-0.8,0.5-1.3,0.6C732,3896.3,731.5,3896.3,730.9,3896.3z"
			/>
	</g>
	<g class="st0">
		<path class="st1" d="M660.6,4116c0.4,0.3,0.8,0.8,1,1.3c0.2,0.6,0.4,1.2,0.4,2c0,0.9-0.2,1.7-0.5,2.4c-0.3,0.7-0.9,1.3-1.6,1.7
			c-0.5,0.3-1.1,0.5-1.7,0.5c-0.6,0.1-1.2,0.1-1.6,0.1h-1.8v5h-2.9v-14.1h4.7c1,0,1.8,0.1,2.5,0.3
			C659.6,4115.3,660.2,4115.6,660.6,4116z M658.3,4121.2c0.5-0.3,0.8-0.9,0.8-1.7c0-0.8-0.2-1.4-0.7-1.7c-0.3-0.2-0.6-0.3-1-0.4
			c-0.4-0.1-0.8-0.1-1.2-0.1h-1.4v4.3h1.4c0.4,0,0.8,0,1.2-0.1S658,4121.4,658.3,4121.2z"/>
		<path class="st1" d="M672.4,4127.2c0,0.3,0,0.6,0,0.9c0,0.3,0.1,0.5,0.2,0.7v0.3h-2.7l-0.1-1.4c-0.3,0.5-0.8,0.9-1.4,1.2
			c-0.6,0.3-1.3,0.4-1.9,0.4c-0.4,0-0.8,0-1.2-0.1c-0.4-0.1-0.7-0.2-1.1-0.5c-0.3-0.2-0.6-0.5-0.8-0.8c-0.2-0.3-0.3-0.8-0.3-1.3
			c0-0.6,0.1-1,0.3-1.4c0.2-0.4,0.5-0.7,0.9-1c0.4-0.3,0.8-0.5,1.2-0.6c0.5-0.1,0.9-0.3,1.4-0.4l1.8-0.4c0.3-0.1,0.5-0.1,0.7-0.2
			c0.2-0.1,0.3-0.3,0.3-0.5c0-0.5-0.2-0.8-0.5-1c-0.4-0.2-0.8-0.3-1.2-0.3c-0.6,0-1,0.1-1.4,0.4c-0.4,0.3-0.6,0.6-0.7,1.1l-2.7-0.4
			c0.2-1.1,0.8-1.9,1.6-2.4c0.8-0.5,1.9-0.7,3.2-0.7c1.5,0,2.6,0.3,3.4,0.9c0.8,0.6,1.1,1.5,1.1,2.8V4127.2z M667.2,4127.3
			c0.3,0,0.7-0.1,1-0.2c0.3-0.1,0.6-0.3,0.8-0.6s0.4-0.6,0.6-1c0.1-0.4,0.2-0.8,0.2-1.4l-2.5,0.6c-0.4,0.1-0.7,0.2-1,0.4
			c-0.3,0.2-0.5,0.5-0.5,1c0,0.4,0.1,0.7,0.4,0.8S666.8,4127.3,667.2,4127.3z"/>
		<path class="st1" d="M680.7,4118.8c0.7,0,1.3,0.1,1.9,0.4s1.1,0.6,1.6,1c0.4,0.5,0.8,1,1,1.6c0.3,0.6,0.4,1.4,0.4,2.2
			c0,0.8-0.1,1.5-0.4,2.2c-0.3,0.7-0.6,1.2-1,1.7c-0.4,0.5-1,0.8-1.6,1s-1.2,0.4-1.9,0.4c-0.7,0-1.3-0.1-1.9-0.4
			c-0.6-0.2-1-0.6-1.3-1.1v6.1h-2.8V4119h2.8v1.2c0.3-0.5,0.7-0.8,1.3-1C679.4,4118.9,680.1,4118.8,680.7,4118.8z M680.2,4126.9
			c0.8,0,1.4-0.3,1.9-0.8c0.5-0.5,0.8-1.2,0.8-2.2c0-0.9-0.3-1.6-0.8-2.2c-0.5-0.5-1.2-0.8-1.9-0.8c-0.8,0-1.4,0.3-1.9,0.8
			c-0.5,0.5-0.8,1.2-0.8,2.2c0,0.9,0.3,1.6,0.8,2.2C678.7,4126.7,679.4,4126.9,680.2,4126.9z"/>
		<path class="st1" d="M697.5,4124.6h-7.7c0.1,0.8,0.3,1.4,0.8,1.9s1.1,0.6,1.8,0.6c0.5,0,1-0.1,1.4-0.3c0.4-0.2,0.7-0.6,0.9-1
			l2.6,0.3c-0.3,1-0.9,1.8-1.8,2.4c-0.9,0.6-1.9,0.8-3,0.8c-0.8,0-1.6-0.1-2.2-0.4c-0.7-0.2-1.2-0.6-1.7-1c-0.5-0.5-0.8-1-1.1-1.6
			c-0.3-0.6-0.4-1.4-0.4-2.2s0.1-1.5,0.4-2.2c0.3-0.6,0.6-1.2,1.1-1.6c0.5-0.5,1-0.8,1.7-1s1.4-0.4,2.2-0.4c0.7,0,1.4,0.1,2,0.3
			c0.6,0.2,1.2,0.5,1.6,1c0.5,0.4,0.8,1,1.1,1.6c0.3,0.6,0.4,1.4,0.4,2.3L697.5,4124.6z M692.5,4120.8c-0.7,0-1.3,0.2-1.7,0.5
			c-0.4,0.3-0.7,0.9-0.9,1.5h4.9c-0.1-0.7-0.3-1.2-0.7-1.5C693.7,4121,693.1,4120.8,692.5,4120.8z"/>
		<path class="st1" d="M699.5,4129v-15h2.8v15H699.5z"/>
		<path class="st1" d="M714.2,4129c-1,0-1.8-0.3-2.3-0.8c-0.5-0.6-0.8-1.3-0.8-2.3v-4.8h-2v-2.1h0.8c0.5,0,0.8-0.1,1.1-0.4
			c0.3-0.2,0.4-0.7,0.4-1.4v-1.4h2.4v3.2h2.2v2.1h-2.2v4.4c0,0.5,0.1,0.8,0.3,1c0.2,0.2,0.5,0.3,0.9,0.3h0.9v2.2H714.2z"/>
		<path class="st1" d="M720.8,4120.4c0.3-0.5,0.8-0.9,1.3-1.2s1.3-0.5,2.1-0.5v2.6c-1.2,0-2.1,0.2-2.6,0.7c-0.5,0.4-0.8,1.2-0.8,2.4
			v4.6H718V4119h2.8V4120.4z"/>
		<path class="st1" d="M734.6,4127.2c0,0.3,0,0.6,0,0.9c0,0.3,0.1,0.5,0.2,0.7v0.3H732l-0.1-1.4c-0.3,0.5-0.8,0.9-1.4,1.2
			c-0.6,0.3-1.3,0.4-1.9,0.4c-0.4,0-0.8,0-1.2-0.1c-0.4-0.1-0.7-0.2-1.1-0.5s-0.6-0.5-0.8-0.8s-0.3-0.8-0.3-1.3c0-0.6,0.1-1,0.3-1.4
			c0.2-0.4,0.5-0.7,0.9-1c0.4-0.3,0.8-0.5,1.2-0.6s0.9-0.3,1.4-0.4l1.8-0.4c0.3-0.1,0.5-0.1,0.7-0.2c0.2-0.1,0.3-0.3,0.3-0.5
			c0-0.5-0.2-0.8-0.5-1c-0.4-0.2-0.8-0.3-1.2-0.3c-0.6,0-1,0.1-1.4,0.4c-0.4,0.3-0.6,0.6-0.7,1.1l-2.7-0.4c0.2-1.1,0.8-1.9,1.6-2.4
			c0.8-0.5,1.9-0.7,3.2-0.7c1.5,0,2.6,0.3,3.3,0.9s1.2,1.5,1.2,2.8V4127.2z M729.3,4127.3c0.3,0,0.7-0.1,1-0.2
			c0.3-0.1,0.6-0.3,0.8-0.6c0.2-0.3,0.4-0.6,0.6-1c0.1-0.4,0.2-0.8,0.2-1.4l-2.5,0.6c-0.4,0.1-0.7,0.2-1,0.4c-0.3,0.2-0.5,0.5-0.5,1
			c0,0.4,0.1,0.7,0.4,0.8C728.6,4127.2,728.9,4127.3,729.3,4127.3z"/>
		<path class="st1" d="M745,4119l-4.7,8h4.5v2.1h-8.6l4.6-8h-4.2v-2.1H745z"/>
		<path class="st1" d="M751.6,4129.2c-0.8,0-1.6-0.1-2.2-0.4c-0.7-0.2-1.3-0.6-1.7-1s-0.9-1-1.1-1.7c-0.3-0.6-0.4-1.4-0.4-2.2
			c0-0.8,0.1-1.5,0.4-2.2c0.3-0.6,0.7-1.2,1.1-1.6c0.5-0.4,1.1-0.8,1.7-1c0.7-0.2,1.4-0.4,2.2-0.4c0.8,0,1.6,0.1,2.2,0.4
			c0.7,0.2,1.3,0.6,1.8,1c0.5,0.4,0.9,1,1.1,1.6c0.3,0.6,0.4,1.4,0.4,2.2c0,0.8-0.1,1.5-0.4,2.2c-0.3,0.6-0.7,1.2-1.1,1.7
			s-1.1,0.8-1.8,1C753.1,4129.1,752.4,4129.2,751.6,4129.2z M751.6,4127c0.8,0,1.5-0.3,2-0.8c0.5-0.6,0.8-1.3,0.8-2.2
			c0-0.9-0.2-1.6-0.8-2.2c-0.5-0.6-1.2-0.8-2-0.8c-0.8,0-1.5,0.3-2,0.8c-0.5,0.6-0.8,1.3-0.8,2.2c0,0.9,0.2,1.7,0.8,2.2
			C750.1,4126.8,750.7,4127,751.6,4127z"/>
	</g>
	<g class="st0">
		<path class="st1" d="M934.9,3896.1H932l-0.9-11.1l-3.6,11.1h-2l-3.6-11.1l-0.9,11.1H918l1.2-14.1h4.3l3,8.8l3-8.8h4.3
			L934.9,3896.1z"/>
		<path class="st1" d="M946.9,3891.6h-7.7c0.1,0.8,0.3,1.4,0.8,1.9s1.1,0.6,1.8,0.6c0.5,0,1-0.1,1.4-0.3c0.4-0.2,0.7-0.6,0.9-1
			l2.6,0.3c-0.3,1-0.9,1.8-1.8,2.4s-1.9,0.8-3,0.8c-0.8,0-1.6-0.1-2.2-0.4c-0.7-0.2-1.2-0.6-1.7-1c-0.5-0.5-0.8-1-1.1-1.6
			c-0.3-0.6-0.4-1.4-0.4-2.2s0.1-1.5,0.4-2.2c0.3-0.6,0.6-1.2,1.1-1.6s1-0.8,1.7-1s1.4-0.4,2.2-0.4c0.7,0,1.4,0.1,2,0.3
			s1.2,0.5,1.6,1c0.5,0.4,0.8,1,1.1,1.6c0.3,0.6,0.4,1.4,0.4,2.3L946.9,3891.6z M941.9,3887.9c-0.7,0-1.3,0.2-1.7,0.5
			s-0.7,0.9-0.8,1.5h4.9c-0.1-0.7-0.3-1.2-0.7-1.5C943,3888.1,942.5,3887.9,941.9,3887.9z"/>
		<path class="st1" d="M953,3896.1c-1,0-1.8-0.3-2.3-0.8c-0.5-0.6-0.8-1.3-0.8-2.3v-4.8h-2v-2.1h0.8c0.5,0,0.8-0.1,1.1-0.4
			c0.3-0.2,0.4-0.7,0.4-1.4v-1.4h2.4v3.2h2.2v2.1h-2.2v4.4c0,0.5,0.1,0.8,0.4,1c0.2,0.2,0.5,0.3,0.9,0.3h0.9v2.2H953z"/>
		<path class="st1" d="M959.6,3887.5c0.3-0.5,0.8-0.9,1.3-1.2s1.3-0.5,2.1-0.5v2.6c-1.2,0-2.1,0.2-2.6,0.7c-0.5,0.4-0.8,1.2-0.8,2.4
			v4.6h-2.8V3886h2.8V3887.5z"/>
		<path class="st1" d="M969.5,3896.3c-0.8,0-1.6-0.1-2.2-0.4c-0.7-0.2-1.3-0.6-1.7-1s-0.9-1-1.1-1.7c-0.3-0.6-0.4-1.4-0.4-2.2
			c0-0.8,0.1-1.5,0.4-2.2c0.3-0.6,0.7-1.2,1.1-1.6c0.5-0.4,1.1-0.8,1.7-1c0.7-0.2,1.4-0.4,2.2-0.4c0.8,0,1.6,0.1,2.2,0.4
			c0.7,0.2,1.3,0.6,1.8,1c0.5,0.4,0.9,1,1.1,1.6c0.3,0.6,0.4,1.4,0.4,2.2c0,0.8-0.1,1.5-0.4,2.2c-0.3,0.6-0.7,1.2-1.1,1.7
			s-1.1,0.8-1.8,1C971,3896.2,970.3,3896.3,969.5,3896.3z M969.5,3894.1c0.8,0,1.5-0.3,2-0.8c0.5-0.6,0.8-1.3,0.8-2.2
			c0-0.9-0.2-1.6-0.8-2.2c-0.5-0.6-1.2-0.8-2-0.8c-0.8,0-1.5,0.3-2,0.8c-0.5,0.6-0.8,1.3-0.8,2.2c0,0.9,0.2,1.7,0.8,2.2
			C968,3893.8,968.6,3894.1,969.5,3894.1z"/>
	</g>
	<g class="st0">
		<path class="st1" d="M894.6,4129h-2.9l-0.9-11.1l-3.6,11.1h-2l-3.6-11.1l-0.9,11.1h-2.9l1.2-14.1h4.3l3,8.8l3-8.8h4.3L894.6,4129z
			"/>
		<path class="st1" d="M906.6,4124.6H899c0.1,0.8,0.3,1.4,0.8,1.9s1.1,0.6,1.8,0.6c0.5,0,1-0.1,1.4-0.3c0.4-0.2,0.7-0.6,0.9-1
			l2.6,0.3c-0.3,1-0.9,1.8-1.8,2.4c-0.9,0.6-1.9,0.8-3,0.8c-0.8,0-1.6-0.1-2.2-0.4s-1.2-0.6-1.7-1c-0.5-0.5-0.8-1-1.1-1.6
			s-0.4-1.4-0.4-2.2s0.1-1.5,0.4-2.2c0.3-0.6,0.6-1.2,1.1-1.6c0.5-0.5,1-0.8,1.7-1s1.4-0.4,2.2-0.4c0.7,0,1.4,0.1,2,0.3
			c0.6,0.2,1.2,0.5,1.6,1s0.8,1,1.1,1.6c0.3,0.6,0.4,1.4,0.4,2.3L906.6,4124.6z M901.6,4120.8c-0.7,0-1.3,0.2-1.7,0.5
			c-0.4,0.3-0.7,0.9-0.9,1.5h4.9c-0.1-0.7-0.3-1.2-0.7-1.5C902.7,4121,902.2,4120.8,901.6,4120.8z"/>
		<path class="st1" d="M912.7,4129.2c-0.6,0-1.1-0.1-1.7-0.2c-0.5-0.1-1-0.3-1.4-0.5s-0.8-0.5-1-0.9s-0.4-0.8-0.5-1.2l2.3-0.6
			c0.2,0.5,0.4,0.9,0.8,1.2c0.4,0.2,0.9,0.3,1.4,0.3c0.4,0,0.8-0.1,1.1-0.2c0.3-0.2,0.4-0.4,0.4-0.8c0-0.2-0.1-0.4-0.2-0.5
			c-0.1-0.1-0.3-0.3-0.5-0.4c-0.2-0.1-0.4-0.2-0.7-0.2c-0.3-0.1-0.5-0.1-0.8-0.2c-0.5-0.1-1-0.2-1.5-0.4c-0.4-0.1-0.8-0.3-1.1-0.5
			s-0.6-0.5-0.7-0.8c-0.2-0.3-0.3-0.7-0.3-1.2c0-1,0.4-1.8,1.1-2.3s1.7-0.8,3-0.8c0.5,0,0.9,0,1.4,0.2c0.5,0.1,0.9,0.3,1.2,0.5
			s0.7,0.5,1,0.8c0.3,0.3,0.5,0.7,0.6,1.2l-2.4,0.5c-0.2-0.4-0.4-0.7-0.7-0.9c-0.3-0.2-0.7-0.3-1.2-0.3c-0.4,0-0.8,0.1-1,0.2
			c-0.3,0.2-0.4,0.4-0.4,0.7c0,0.2,0.1,0.3,0.2,0.4c0.1,0.1,0.3,0.2,0.5,0.3s0.4,0.2,0.7,0.2c0.3,0.1,0.5,0.1,0.8,0.2
			c0.6,0.1,1.1,0.3,1.6,0.4s0.9,0.3,1.2,0.6c0.3,0.2,0.6,0.5,0.7,0.9c0.2,0.3,0.3,0.8,0.3,1.3c0,0.6-0.1,1.1-0.3,1.5s-0.5,0.8-0.9,1
			c-0.4,0.3-0.8,0.5-1.3,0.6C913.8,4129.2,913.3,4129.2,912.7,4129.2z"/>
		<path class="st1" d="M927.7,4127.2c0,0.3,0,0.6,0,0.9c0,0.3,0.1,0.5,0.2,0.7v0.3h-2.7l-0.1-1.4c-0.3,0.5-0.8,0.9-1.4,1.2
			c-0.6,0.3-1.3,0.4-1.9,0.4c-0.4,0-0.8,0-1.2-0.1c-0.4-0.1-0.7-0.2-1.1-0.5s-0.6-0.5-0.8-0.8s-0.3-0.8-0.3-1.3c0-0.6,0.1-1,0.3-1.4
			c0.2-0.4,0.5-0.7,0.9-1c0.4-0.3,0.8-0.5,1.2-0.6s0.9-0.3,1.4-0.4l1.8-0.4c0.3-0.1,0.5-0.1,0.7-0.2c0.2-0.1,0.3-0.3,0.3-0.5
			c0-0.5-0.2-0.8-0.5-1c-0.4-0.2-0.8-0.3-1.2-0.3c-0.6,0-1,0.1-1.4,0.4c-0.4,0.3-0.6,0.6-0.7,1.1l-2.7-0.4c0.2-1.1,0.8-1.9,1.6-2.4
			c0.8-0.5,1.9-0.7,3.2-0.7c1.5,0,2.6,0.3,3.3,0.9s1.2,1.5,1.2,2.8V4127.2z M922.5,4127.3c0.3,0,0.7-0.1,1-0.2
			c0.3-0.1,0.6-0.3,0.8-0.6c0.2-0.3,0.4-0.6,0.6-1c0.1-0.4,0.2-0.8,0.2-1.4l-2.5,0.6c-0.4,0.1-0.7,0.2-1,0.4c-0.3,0.2-0.5,0.5-0.5,1
			c0,0.4,0.1,0.7,0.4,0.8C921.8,4127.2,922.1,4127.3,922.5,4127.3z"/>
		<path class="st1" d="M942.9,4114h2.8v15h-2.8v-1.2c-0.3,0.5-0.7,0.8-1.3,1.1c-0.6,0.2-1.2,0.4-1.9,0.4c-0.7,0-1.3-0.1-1.9-0.4
			c-0.6-0.2-1.1-0.6-1.5-1c-0.4-0.5-0.8-1-1.1-1.7c-0.3-0.6-0.4-1.4-0.4-2.2c0-0.8,0.1-1.6,0.4-2.2c0.3-0.6,0.6-1.2,1.1-1.6
			c0.4-0.5,1-0.8,1.5-1c0.6-0.2,1.2-0.4,1.9-0.4c0.7,0,1.3,0.1,1.9,0.4c0.6,0.2,1,0.6,1.3,1.1V4114z M940.3,4126.9
			c0.8,0,1.4-0.3,1.9-0.8c0.5-0.5,0.8-1.2,0.8-2.1c0-0.9-0.3-1.6-0.8-2.2c-0.5-0.5-1.2-0.8-1.9-0.8c-0.8,0-1.4,0.3-2,0.8
			s-0.8,1.3-0.8,2.2c0,0.9,0.3,1.6,0.8,2.1C938.9,4126.7,939.5,4126.9,940.3,4126.9z"/>
		<path class="st1" d="M958,4124.6h-7.7c0.1,0.8,0.3,1.4,0.8,1.9s1.1,0.6,1.8,0.6c0.5,0,1-0.1,1.4-0.3c0.4-0.2,0.7-0.6,0.9-1
			l2.6,0.3c-0.3,1-0.9,1.8-1.8,2.4c-0.9,0.6-1.9,0.8-3,0.8c-0.8,0-1.6-0.1-2.2-0.4s-1.2-0.6-1.7-1c-0.5-0.5-0.8-1-1.1-1.6
			s-0.4-1.4-0.4-2.2s0.1-1.5,0.4-2.2c0.3-0.6,0.6-1.2,1.1-1.6c0.5-0.5,1-0.8,1.7-1s1.4-0.4,2.2-0.4c0.7,0,1.4,0.1,2,0.3
			c0.6,0.2,1.2,0.5,1.6,1s0.8,1,1.1,1.6c0.3,0.6,0.4,1.4,0.4,2.3L958,4124.6z M953,4120.8c-0.7,0-1.3,0.2-1.7,0.5
			c-0.4,0.3-0.7,0.9-0.9,1.5h4.9c-0.1-0.7-0.3-1.2-0.7-1.5C954.1,4121,953.6,4120.8,953,4120.8z"/>
		<path class="st1" d="M970.2,4129.2c-0.8,0-1.5-0.1-2.2-0.4c-0.7-0.3-1.2-0.6-1.7-1.1c-0.5-0.5-0.9-1-1.1-1.7
			c-0.3-0.6-0.4-1.4-0.4-2.1s0.1-1.5,0.4-2.1c0.3-0.6,0.6-1.2,1.1-1.7c0.5-0.5,1.1-0.8,1.7-1.1c0.7-0.3,1.4-0.4,2.2-0.4
			c1.3,0,2.4,0.3,3.3,1c0.9,0.6,1.5,1.6,1.7,2.8l-2.6,0.2c-0.1-0.6-0.4-1.1-0.8-1.4s-1-0.5-1.6-0.5c-0.8,0-1.4,0.3-1.9,0.9
			c-0.5,0.6-0.7,1.3-0.7,2.2c0,0.9,0.2,1.7,0.7,2.2c0.5,0.6,1.1,0.8,1.9,0.8c0.6,0,1.2-0.1,1.6-0.4c0.4-0.3,0.7-0.8,0.8-1.4l2.6,0.2
			c-0.1,0.6-0.3,1.1-0.6,1.6c-0.3,0.5-0.7,0.9-1.1,1.2c-0.4,0.3-0.9,0.6-1.5,0.7C971.4,4129.2,970.8,4129.2,970.2,4129.2z"/>
		<path class="st1" d="M982.2,4129.2c-0.8,0-1.6-0.1-2.2-0.4c-0.7-0.2-1.3-0.6-1.7-1s-0.9-1-1.1-1.7c-0.3-0.6-0.4-1.4-0.4-2.2
			c0-0.8,0.1-1.5,0.4-2.2c0.3-0.6,0.7-1.2,1.1-1.6c0.5-0.4,1.1-0.8,1.7-1c0.7-0.2,1.4-0.4,2.2-0.4c0.8,0,1.6,0.1,2.2,0.4
			c0.7,0.2,1.3,0.6,1.8,1c0.5,0.4,0.9,1,1.1,1.6c0.3,0.6,0.4,1.4,0.4,2.2c0,0.8-0.1,1.5-0.4,2.2c-0.3,0.6-0.7,1.2-1.1,1.7
			s-1.1,0.8-1.8,1C983.7,4129.1,983,4129.2,982.2,4129.2z M982.2,4127c0.8,0,1.5-0.3,2-0.8c0.5-0.6,0.8-1.3,0.8-2.2
			c0-0.9-0.2-1.6-0.8-2.2c-0.5-0.6-1.2-0.8-2-0.8c-0.8,0-1.5,0.3-2,0.8c-0.5,0.6-0.8,1.3-0.8,2.2c0,0.9,0.2,1.7,0.8,2.2
			C980.6,4126.8,981.3,4127,982.2,4127z"/>
		<path class="st1" d="M992.4,4120.4c0.3-0.5,0.8-0.9,1.3-1.2s1.3-0.5,2.1-0.5v2.6c-1.2,0-2.1,0.2-2.6,0.7c-0.5,0.4-0.8,1.2-0.8,2.4
			v4.6h-2.8V4119h2.8V4120.4z"/>
		<path class="st1" d="M1001.7,4129c-1,0-1.8-0.3-2.3-0.8c-0.5-0.6-0.8-1.3-0.8-2.3v-4.8h-2v-2.1h0.8c0.5,0,0.8-0.1,1.1-0.4
			c0.3-0.2,0.4-0.7,0.4-1.4v-1.4h2.4v3.2h2.2v2.1h-2.2v4.4c0,0.5,0.1,0.8,0.3,1c0.2,0.2,0.5,0.3,0.9,0.3h0.9v2.2H1001.7z"/>
		<path class="st1" d="M1015.3,4124.6h-7.7c0.1,0.8,0.3,1.4,0.8,1.9s1.1,0.6,1.8,0.6c0.5,0,1-0.1,1.4-0.3c0.4-0.2,0.7-0.6,0.9-1
			l2.6,0.3c-0.3,1-0.9,1.8-1.8,2.4c-0.9,0.6-1.9,0.8-3,0.8c-0.8,0-1.6-0.1-2.2-0.4s-1.2-0.6-1.7-1c-0.5-0.5-0.8-1-1.1-1.6
			s-0.4-1.4-0.4-2.2s0.1-1.5,0.4-2.2c0.3-0.6,0.6-1.2,1.1-1.6c0.5-0.5,1-0.8,1.7-1s1.4-0.4,2.2-0.4c0.7,0,1.4,0.1,2,0.3
			c0.6,0.2,1.2,0.5,1.6,1s0.8,1,1.1,1.6c0.3,0.6,0.4,1.4,0.4,2.3L1015.3,4124.6z M1010.2,4120.8c-0.7,0-1.3,0.2-1.7,0.5
			c-0.4,0.3-0.7,0.9-0.9,1.5h4.9c-0.1-0.7-0.3-1.2-0.7-1.5C1011.4,4121,1010.9,4120.8,1010.2,4120.8z"/>
	</g>
	<g id="Grupo_47338">
		<path id="Trazado_66716" class="st2" d="M338.4,3807.6v48.8l24.4-24.4L338.4,3807.6z"/>
		<path id="Trazado_66717" class="st1" d="M338.5,3927.4c-0.4,0-0.6-0.3-0.6-0.6l0,0V3848c0-0.4,0.3-0.7,0.6-0.7
			c0.4,0,0.7,0.3,0.7,0.6c0,0,0,0,0,0.1v78.7C339.1,3927.1,338.9,3927.4,338.5,3927.4C338.5,3927.4,338.5,3927.4,338.5,3927.4z"/>
		<path id="Trazado_66723" class="st1" d="M352.7,3832.5h-14.8v-84.8c0-0.4,0.3-0.6,0.7-0.6c0.3,0,0.6,0.3,0.6,0.6v83.5h13.5
			c0.4,0,0.6,0.3,0.6,0.6C353.3,3832.2,353,3832.5,352.7,3832.5z"/>
		<path id="Trazado_66724" class="st1" d="M345.7,3840.5c-0.4,0-0.6-0.3-0.6-0.6c0-0.2,0.1-0.3,0.2-0.5l7.5-7.5l-7.5-7.5
			c-0.3-0.3-0.3-0.7,0-0.9c0.3-0.3,0.7-0.3,0.9,0l8.4,8.4l-8.4,8.4C346.1,3840.4,345.9,3840.5,345.7,3840.5z"/>
	</g>
	<g id="Grupo_47343">
		<path id="Trazado_71248" class="st2" d="M338.4,4046.6v48.8l24.4-24.4L338.4,4046.6z"/>
		<path id="Trazado_71251" class="st1" d="M338.5,4166.4c-0.4,0-0.6-0.3-0.6-0.6l0,0V4087c0-0.4,0.3-0.7,0.6-0.7
			c0.4,0,0.7,0.3,0.7,0.6c0,0,0,0,0,0.1v78.7C339.1,4166.1,338.9,4166.4,338.5,4166.4C338.5,4166.4,338.5,4166.4,338.5,4166.4z"/>
		<path id="Trazado_71250" class="st1" d="M352.7,4071.5h-14.8v-84.8c0-0.4,0.3-0.6,0.7-0.6c0.3,0,0.6,0.3,0.6,0.6v83.5h13.5
			c0.4,0,0.6,0.3,0.6,0.6C353.3,4071.2,353,4071.5,352.7,4071.5z"/>
		<path id="Trazado_71249" class="st1" d="M345.7,4079.5c-0.4,0-0.6-0.3-0.6-0.6c0-0.2,0.1-0.3,0.2-0.5l7.5-7.5l-7.5-7.5
			c-0.3-0.3-0.3-0.7,0-0.9c0.3-0.3,0.7-0.3,0.9,0l8.4,8.4l-8.4,8.4C346.1,4079.4,345.9,4079.5,345.7,4079.5z"/>
	</g>
	<g id="Grupo_47339">
		<g id="Grupo_47337">
			<path id="Trazado_66718" class="st2" d="M581.9,3807.6v48.8l24.4-24.4L581.9,3807.6z"/>
			<path id="Trazado_66725" class="st1" d="M596.2,3832.5h-14.8v-84.8c0-0.4,0.3-0.6,0.7-0.6c0.3,0,0.6,0.3,0.6,0.6v83.5h13.5
				c0.4,0,0.6,0.3,0.6,0.6C596.8,3832.2,596.5,3832.5,596.2,3832.5L596.2,3832.5z"/>
			<path id="Trazado_66726" class="st1" d="M582,3927.4c-0.4,0-0.6-0.3-0.6-0.6l0,0V3848c0-0.4,0.3-0.7,0.6-0.7
				c0.4,0,0.7,0.3,0.7,0.6c0,0,0,0,0,0.1v78.7C582.7,3927.1,582.4,3927.4,582,3927.4C582,3927.4,582,3927.4,582,3927.4z"/>
		</g>
		<path id="Trazado_66727" class="st1" d="M589.2,3840.5c-0.4,0-0.6-0.3-0.6-0.6c0-0.2,0.1-0.3,0.2-0.5l7.5-7.5l-7.5-7.5
			c-0.2-0.3-0.2-0.7,0-0.9c0.2-0.2,0.6-0.2,0.9,0l8.4,8.4l-8.4,8.4C589.6,3840.4,589.4,3840.5,589.2,3840.5z"/>
	</g>
	<g id="Grupo_47342">
		<path id="Trazado_71244" class="st2" d="M581.9,4046.6v48.8l24.4-24.4L581.9,4046.6z"/>
		<path id="Trazado_71246" class="st1" d="M596.2,4071.5h-14.8v-84.8c0-0.4,0.3-0.6,0.7-0.6c0.3,0,0.6,0.3,0.6,0.6v83.5h13.5
			c0.4,0,0.6,0.3,0.6,0.6C596.8,4071.2,596.5,4071.5,596.2,4071.5L596.2,4071.5z"/>
		<path id="Trazado_71247" class="st1" d="M582,4166.4c-0.4,0-0.6-0.3-0.6-0.6l0,0V4087c0-0.4,0.3-0.7,0.6-0.7
			c0.4,0,0.7,0.3,0.7,0.6c0,0,0,0,0,0.1v78.7C582.7,4166.1,582.4,4166.4,582,4166.4C582,4166.4,582,4166.4,582,4166.4z"/>
		<path id="Trazado_71245" class="st1" d="M589.2,4079.5c-0.4,0-0.6-0.3-0.6-0.6c0-0.2,0.1-0.3,0.2-0.5l7.5-7.5l-7.5-7.5
			c-0.2-0.3-0.2-0.7,0-0.9c0.2-0.2,0.6-0.2,0.9,0l8.4,8.4l-8.4,8.4C589.6,4079.4,589.4,4079.5,589.2,4079.5z"/>
	</g>
	<g id="Grupo_47340">
		<path id="Trazado_66719" class="st2" d="M825.9,3807.6v48.8l24.4-24.4L825.9,3807.6z"/>
		<path id="Trazado_66728" class="st1" d="M840.1,3832.5h-14.8v-84.8c0-0.4,0.3-0.6,0.6-0.6c0.4,0,0.6,0.3,0.6,0.6v83.5h13.5
			c0.4,0,0.6,0.3,0.6,0.6C840.8,3832.2,840.5,3832.5,840.1,3832.5L840.1,3832.5z"/>
		<path id="Trazado_66729" class="st1" d="M826,3927.4c-0.4,0-0.6-0.3-0.6-0.6c0,0,0,0,0,0V3848c0-0.4,0.3-0.6,0.6-0.6
			c0.4,0,0.6,0.3,0.6,0.6v78.7C826.6,3927.1,826.3,3927.4,826,3927.4C826,3927.4,826,3927.4,826,3927.4z"/>
		<path id="Trazado_66730" class="st1" d="M833.2,3840.5c-0.4,0-0.6-0.3-0.6-0.6c0-0.2,0.1-0.3,0.2-0.5l7.5-7.5l-7.5-7.5
			c-0.3-0.3-0.3-0.7,0-0.9s0.7-0.3,0.9,0l8.4,8.4l-8.4,8.4C833.5,3840.4,833.4,3840.5,833.2,3840.5z"/>
	</g>
	<g id="Grupo_47341">
		<path id="Trazado_71240" class="st2" d="M825.9,4046.6v48.8l24.4-24.4L825.9,4046.6z"/>
		<path id="Trazado_71241" class="st1" d="M840.1,4071.5h-14.8v-84.8c0-0.4,0.3-0.6,0.6-0.6c0.4,0,0.6,0.3,0.6,0.6v83.5h13.5
			c0.4,0,0.6,0.3,0.6,0.6C840.8,4071.2,840.5,4071.5,840.1,4071.5L840.1,4071.5z"/>
		<path id="Trazado_71242" class="st1" d="M826,4166.4c-0.4,0-0.6-0.3-0.6-0.6c0,0,0,0,0,0V4087c0-0.4,0.3-0.6,0.6-0.6
			c0.4,0,0.6,0.3,0.6,0.6v78.7C826.6,4166.1,826.3,4166.4,826,4166.4C826,4166.4,826,4166.4,826,4166.4z"/>
		<path id="Trazado_71243" class="st1" d="M833.2,4079.5c-0.4,0-0.6-0.3-0.6-0.6c0-0.2,0.1-0.3,0.2-0.5l7.5-7.5l-7.5-7.5
			c-0.3-0.3-0.3-0.7,0-0.9s0.7-0.3,0.9,0l8.4,8.4l-8.4,8.4C833.5,4079.4,833.4,4079.5,833.2,4079.5z"/>
	</g>
	<path id="Trazado_66740" class="st3" d="M1069.4,3927.4c-0.4,0-0.6-0.3-0.6-0.6c0,0,0,0,0,0v-178.9c0-0.4,0.3-0.6,0.6-0.6
		c0.4,0,0.6,0.3,0.6,0.6v178.9C1070,3927.1,1069.8,3927.4,1069.4,3927.4C1069.4,3927.4,1069.4,3927.4,1069.4,3927.4z"/>
	<path id="Trazado_71239" class="st3" d="M1069.4,4166.4c-0.4,0-0.6-0.3-0.6-0.6c0,0,0,0,0,0v-178.9c0-0.4,0.3-0.6,0.6-0.6
		c0.4,0,0.6,0.3,0.6,0.6v178.9C1070,4166.1,1069.8,4166.4,1069.4,4166.4C1069.4,4166.4,1069.4,4166.4,1069.4,4166.4z"/>
	<g id="Grupo_47314" transform="translate(418.417 4003.764)">
		<g id="Grupo_26585" transform="translate(75.285 22.478)">
			<path id="Trazado_67426" class="st1" d="M0.4,38.9c-0.1,0-0.1,0-0.2-0.1c-0.2-0.1-0.3-0.3-0.1-0.5c0,0,0,0,0,0
				c0.7-1.3,1.4-2.6,2-3.9c0.1-0.2,0.3-0.3,0.5-0.2c0.2,0.1,0.3,0.3,0.2,0.5c-0.6,1.4-1.3,2.7-2,4C0.7,38.8,0.5,38.9,0.4,38.9z
				 M3.9,30.8c0,0-0.1,0-0.1,0c-0.2-0.1-0.3-0.3-0.3-0.5c0.4-1.4,0.8-2.8,1-4.2c0-0.2,0.2-0.4,0.5-0.3s0.4,0.2,0.3,0.5l0,0
				c-0.3,1.5-0.6,2.9-1.1,4.3C4.2,30.7,4.1,30.8,3.9,30.8L3.9,30.8z M5.5,22.1L5.5,22.1c-0.2,0-0.4-0.2-0.4-0.4c0,0,0,0,0,0
				c0.1-1,0.1-2,0.1-2.9c0-0.5,0-1,0-1.5c0-0.2,0.2-0.4,0.4-0.4c0.2,0,0.4,0.2,0.4,0.4c0,0.5,0,1,0,1.5c0,1,0,2-0.1,3
				C5.9,22,5.7,22.1,5.5,22.1L5.5,22.1z M5.2,13.3c-0.2,0-0.4-0.1-0.4-0.3c-0.2-1.4-0.5-2.9-0.9-4.3c0-0.2,0.1-0.4,0.3-0.5
				c0.2,0,0.4,0.1,0.4,0.3c0.4,1.4,0.7,2.9,0.9,4.4C5.6,13.1,5.5,13.3,5.2,13.3C5.2,13.3,5.2,13.3,5.2,13.3L5.2,13.3z M2.9,4.8
				c-0.2,0-0.3-0.1-0.4-0.2C2,3.2,1.4,1.9,0.7,0.6C0.6,0.4,0.7,0.1,0.9,0C1.1,0,1.3,0,1.4,0.2c0.7,1.3,1.3,2.7,1.9,4.1
				c0.1,0.2,0,0.4-0.2,0.5c0,0,0,0,0,0C3,4.8,2.9,4.8,2.9,4.8L2.9,4.8z"/>
		</g>
		<g id="Grupo_26586" transform="translate(1.398 1.698)">
			<path id="Trazado_67427" class="st1" d="M39.7,79.5c-1.4,0-2.9-0.1-4.3-0.2c-0.2,0-0.4-0.2-0.4-0.4c0-0.2,0.2-0.4,0.4-0.4l0,0
				c1.4,0.1,2.8,0.2,4.2,0.2h0.2c0.2,0,0.4,0.2,0.4,0.4c0,0,0,0,0,0c0,0.2-0.2,0.4-0.4,0.4c0,0,0,0,0,0L39.7,79.5z M44.3,79.2
				c-0.2,0-0.4-0.2-0.4-0.4c0-0.2,0.2-0.4,0.4-0.4c1.5-0.2,2.9-0.4,4.3-0.7c0.2,0,0.4,0.1,0.5,0.3s-0.1,0.4-0.3,0.5
				C47.3,78.8,45.9,79.1,44.3,79.2L44.3,79.2z M31.1,78.6C31.1,78.6,31.1,78.6,31.1,78.6c-1.5-0.3-3-0.7-4.4-1.2
				c-0.2-0.1-0.3-0.3-0.2-0.5c0.1-0.2,0.3-0.3,0.5-0.2c1.4,0.5,2.8,0.9,4.2,1.2c0.2,0,0.3,0.3,0.3,0.5
				C31.5,78.5,31.3,78.6,31.1,78.6L31.1,78.6z M52.9,77.2c-0.2,0-0.4-0.2-0.4-0.4c0-0.2,0.1-0.3,0.2-0.4c1.3-0.5,2.6-1.1,3.8-1.8
				c0.2-0.1,0.4,0,0.5,0.1c0.1,0.2,0.1,0.4-0.1,0.5c-1.2,0.8-2.6,1.4-3.9,1.9C53,77.2,52.9,77.2,52.9,77.2L52.9,77.2z M22.8,75.8
				c-0.1,0-0.1,0-0.2,0c-1.3-0.6-2.6-1.4-3.9-2.2c-0.2-0.1-0.2-0.4-0.1-0.5s0.4-0.2,0.5-0.1c1.2,0.8,2.5,1.5,3.8,2.1
				c0.2,0.1,0.3,0.3,0.2,0.5C23.1,75.7,22.9,75.8,22.8,75.8L22.8,75.8z M15.3,71c-0.1,0-0.2,0-0.2-0.1c-1.2-0.9-2.3-1.9-3.3-3
				c-0.2-0.2-0.2-0.4,0-0.6c0.2-0.2,0.4-0.2,0.6,0l0,0c1,1,2.1,2,3.3,2.9c0.2,0.1,0.2,0.4,0.1,0.6C15.6,71,15.5,71,15.3,71L15.3,71z
				 M9.1,64.8c-0.1,0-0.2-0.1-0.3-0.1C7.9,63.5,7,62.3,6.2,61c-0.1-0.2-0.1-0.4,0.1-0.5c0.2-0.1,0.4-0.1,0.5,0.1
				c0.8,1.2,1.6,2.4,2.5,3.6c0.1,0.2,0.1,0.4-0.1,0.6C9.3,64.8,9.2,64.8,9.1,64.8L9.1,64.8z M4.4,57.3c-0.2,0-0.3-0.1-0.4-0.2
				c-0.7-1.3-1.2-2.7-1.7-4.1c-0.1-0.2,0-0.4,0.2-0.5c0.2-0.1,0.4,0,0.5,0.2c0.5,1.4,1.1,2.7,1.7,4c0.1,0.2,0,0.4-0.2,0.5
				c0,0,0,0,0,0C4.5,57.3,4.4,57.3,4.4,57.3L4.4,57.3z M1.4,49c-0.2,0-0.3-0.1-0.4-0.3c-0.3-1.5-0.6-2.9-0.8-4.4
				c0-0.2,0.1-0.4,0.3-0.4S1,44,1.1,44.2c0.2,1.4,0.4,2.9,0.7,4.3C1.8,48.8,1.7,49,1.4,49C1.5,49,1.5,49,1.4,49
				C1.5,49,1.4,49,1.4,49L1.4,49z M0.4,40.3c-0.2,0-0.4-0.2-0.4-0.4v-0.2c0-1.4,0.1-2.8,0.2-4.2l0-0.1c0-0.2,0.2-0.4,0.4-0.4
				S1,35.3,1,35.5l0,0.1c-0.1,1.4-0.2,2.7-0.2,4.1v0.2C0.8,40.1,0.6,40.3,0.4,40.3C0.4,40.3,0.4,40.3,0.4,40.3L0.4,40.3z M1.3,31.5
				c-0.2,0-0.4-0.2-0.4-0.4c0,0,0-0.1,0-0.1c0.3-1.5,0.7-2.9,1.2-4.3c0.1-0.2,0.3-0.3,0.5-0.2C2.9,26.5,3,26.8,2.9,27
				c-0.5,1.4-0.9,2.8-1.2,4.2C1.7,31.4,1.5,31.5,1.3,31.5L1.3,31.5z M4.2,23.1c-0.2,0-0.4-0.2-0.4-0.4c0-0.1,0-0.1,0-0.2
				c0.6-1.3,1.3-2.7,2.1-3.9c0.1-0.2,0.4-0.2,0.5-0.1c0.2,0.1,0.2,0.3,0.1,0.5c-0.8,1.2-1.5,2.5-2.1,3.8C4.5,23.1,4.3,23.2,4.2,23.1
				L4.2,23.1z M8.8,15.6c-0.1,0-0.2,0-0.2-0.1c-0.2-0.1-0.2-0.4-0.1-0.6c0,0,0,0,0,0c0.9-1.2,1.9-2.3,2.9-3.4c0.2-0.2,0.4-0.2,0.6,0
				c0.2,0.2,0.2,0.4,0,0.6c-1,1-2,2.1-2.9,3.3C9.1,15.6,8.9,15.6,8.8,15.6L8.8,15.6z M15,9.4c-0.2,0-0.4-0.2-0.4-0.4
				c0-0.1,0.1-0.2,0.1-0.3c1.2-0.9,2.4-1.8,3.6-2.6c0.2-0.1,0.4-0.1,0.5,0.1C19,6.3,19,6.6,18.8,6.7c-1.2,0.8-2.4,1.6-3.5,2.6
				C15.2,9.3,15.1,9.4,15,9.4L15,9.4z M22.4,4.6c-0.2,0-0.4-0.2-0.4-0.4c0-0.1,0.1-0.3,0.2-0.4c1.3-0.7,2.7-1.2,4.1-1.8
				c0.2-0.1,0.4,0.1,0.5,0.3c0.1,0.2,0,0.4-0.2,0.5c-1.4,0.5-2.7,1.1-4,1.7C22.5,4.6,22.5,4.6,22.4,4.6L22.4,4.6z M30.7,1.6
				c-0.2,0-0.4-0.2-0.4-0.4c0-0.2,0.1-0.3,0.3-0.4C32.1,0.5,33.5,0.2,35,0c0.2,0,0.4,0.1,0.4,0.3c0,0.2-0.1,0.4-0.3,0.4l0,0
				C33.7,1,32.2,1.2,30.7,1.6C30.8,1.6,30.8,1.6,30.7,1.6L30.7,1.6z"/>
		</g>
		<g id="Grupo_47319" transform="translate(-67.207 34.693)">
			<g id="Grupo_18423" transform="translate(75 -27)">
				<g id="Grupo_18421">
					<g id="Grupo_18420">
						<g id="Grupo_18419">
							<path id="Trazado_40936" class="st4" d="M67,33.5C67,52,52,67,33.5,67S0,52,0,33.5C0,15,15,0,33.5,0c0,0,0,0,0,0
								C52,0,67,15,67,33.5z"/>
						</g>
					</g>
				</g>
				
					<radialGradient id="Trazado_40937_1_" cx="-23.1594" cy="363.2988" r="1.465" gradientTransform="matrix(67.0423 0 0 -67.0425 1557.825 24357.7266)" gradientUnits="userSpaceOnUse">
					<stop  offset="0" style="stop-color:#F6F6F7"/>
					<stop  offset="0.477" style="stop-color:#F9F9FA"/>
					<stop  offset="0.715" style="stop-color:#FFFFFF"/>
				</radialGradient>
				<path id="Trazado_40937" class="st5" d="M67,33.5C67,15,52,0,33.5,0S0,15,0,33.5C0,52,15,67,33.5,67C52,67.1,67,52.2,67,33.8
					C67,33.7,67,33.6,67,33.5z"/>
				<path id="Trazado_40938" class="st6" d="M59.2,33.6C59.2,19.5,47.8,8,33.6,8S8,19.5,8,33.6s11.5,25.6,25.6,25.6c0,0,0,0,0,0
					c14.1,0.1,25.5-11.3,25.6-25.4C59.2,33.8,59.2,33.7,59.2,33.6z"/>
				<g id="Grupo_18422" transform="translate(5.939 18.82)">
					<path id="Trazado_40939" class="st7" d="M57.7,0c7.5,16.9-0.1,36.7-17,44.3C26.3,50.7,9.3,46.1,0,33.4
						c10.3,15.3,31.1,19.3,46.4,9C60.2,33,65,15,57.7,0z"/>
				</g>
				<g id="Grupo_47321" transform="translate(51.794 54.837)">
					<g id="Grupo_26675">
						<g id="Grupo_26674">
							<path id="Trazado_67515" class="st4" d="M20.6,10.5l-1.4-3.3C19,6.6,18.6,6,18.2,5.6l-4.8-4.8c-0.5-0.5-1.3-0.5-1.8,0
								c-0.5,0.4-0.5,1.2-0.1,1.6c0,0,0,0,0.1,0.1L14,4.8l-3.3-3.3C10.1,1,9.2,1,8.7,1.5C8.2,2,8.2,2.9,8.7,3.4l0,0l3.1,3.1L11.3,6
								L8.1,2.9C7.6,2.3,6.7,2.4,6.2,2.9c-0.5,0.5-0.5,1.4,0,1.9l3.7,3.7L2.7,1.3c-0.5-0.5-1.4-0.5-1.9,0c-0.5,0.5-0.5,1.4,0,1.9
								l7.1,7.1l0,0.1L4.5,9.2C3.7,9,3,9.5,2.8,10.3C2.6,11,3,11.7,3.7,12l6.1,3.3l4.6,1.5L20.6,10.5z"/>
							<path id="Trazado_67516" class="st1" d="M14.4,17.2c0,0-0.1,0-0.1,0l-4.6-1.5c0,0,0,0-0.1,0l-6-3.3C2.6,12,2.1,11,2.5,10
								c0.3-0.9,1.2-1.4,2.1-1.2l0,0l1.9,0.6l-6-6C0.2,3.2,0,2.7,0,2.3c0-1,0.8-1.7,1.8-1.8h0C2.2,0.5,2.7,0.7,3,1l2.5,2.5
								c0.2-0.8,0.9-1.4,1.7-1.4h0c0.3,0,0.5,0.1,0.7,0.2c0.1-0.9,0.9-1.5,1.7-1.5h0c0.5,0,0.9,0.2,1.2,0.5c0.1-0.3,0.2-0.5,0.4-0.7
								c0.6-0.6,1.7-0.7,2.3,0l4.8,4.8c0.5,0.5,0.9,1.1,1.2,1.8l1.4,3.3c0.1,0.1,0,0.3-0.1,0.4L14.7,17
								C14.6,17.1,14.5,17.2,14.4,17.2z M10,14.9l4.3,1.4l5.8-5.9l-1.3-3.1c-0.2-0.6-0.6-1.1-1-1.5L13.1,1c-0.3-0.3-0.9-0.3-1.2,0
								c-0.2,0.1-0.3,0.4-0.3,0.6c0,0.2,0.1,0.4,0.2,0.6l2.4,2.4c0.2,0.2,0.2,0.4,0,0.6c-0.2,0.2-0.4,0.2-0.6,0l-3.3-3.3
								c-0.2-0.2-0.4-0.3-0.7-0.3c-0.5,0-1,0.4-1,1C8.7,2.7,8.8,3,9,3.1l3.1,3.1c0.1,0.2,0.1,0.4,0,0.6C12,7,11.7,7,11.6,6.8
								L7.9,3.1C7.7,3,7.4,2.9,7.2,2.9C6.9,2.9,6.7,3,6.5,3.1c-0.4,0.4-0.4,1,0,1.4l3.7,3.7c0.2,0.2,0.2,0.4,0,0.6
								c-0.2,0.2-0.4,0.2-0.6,0l0,0L2.4,1.6C2.3,1.4,2,1.3,1.8,1.3c-0.5,0-1,0.4-1,1c0,0.3,0.1,0.5,0.3,0.7L8.1,10c0,0,0,0,0,0
								l0,0.1c0.1,0.2,0.1,0.4-0.1,0.5c-0.1,0.1-0.2,0.1-0.4,0.1L4.4,9.6c-0.6-0.1-1.1,0.2-1.2,0.8c0,0,0,0,0,0
								c-0.1,0.5,0.2,1,0.7,1.2c0,0,0,0,0.1,0L10,14.9z"/>
						</g>
					</g>
					<g id="Grupo_26676" transform="translate(13.612 9.773)">
						
							<rect id="Rectángulo_25697" x="-0.3" y="3.6" transform="matrix(0.7071 -0.7071 0.7071 0.7071 -1.952 4.7113)" class="st8" width="9.9" height="2.3"/>
						<path id="Trazado_67517" class="st1" d="M2,9.4c-0.1,0-0.2,0-0.3-0.1L0.1,7.7C0,7.5,0,7.3,0.1,7.1l7-7C7.3,0,7.5,0,7.7,0.1
							l1.6,1.6c0.2,0.2,0.2,0.4,0,0.6c0,0,0,0,0,0l-7,7C2.2,9.4,2.1,9.4,2,9.4z M0.9,7.4L2,8.5L8.5,2L7.4,0.9L0.9,7.4z"/>
					</g>
				</g>
				<g id="Grupo_47333" transform="translate(57.534 71.475)">
					<g id="Grupo_47332" transform="translate(-41.21 -53.457)">
						<path id="Trazado_71304" d="M24.7,25.4l-6.4-6.2L4.4,5.8C3.9,5.1,2.9,4.9,2.1,5.4c0,0-0.1,0.1-0.1,0.1C1.1,6,0.6,7,0.7,8.1
							C0.8,8.4,1.1,8.7,1.3,9C7.5,15.3,13.6,21.7,19.7,28c0.2,0.3,0.4,0.6,0.5,0.9c-0.3-0.1-0.6-0.3-0.9-0.5
							C13.1,22.1,7,15.8,0.9,9.4c-1-0.8-1.2-2.3-0.4-3.3C0.6,6,0.7,5.9,0.8,5.8C1.2,5.4,1.6,5.1,2,4.8c0.9-0.6,2.1-0.4,2.7,0.4
							c4.9,4.7,9.8,9.5,14.7,14.2c2.1,2,4.2,4.1,6.3,6.1c0.7,0.6,0.9,1.6,0.5,2.4c-0.5,1.4-1.6,2.5-3,2.9c-0.6,0.3-1.4,0.2-1.9-0.3
							c-0.5-0.5-0.6-1.3-0.3-1.9C21.7,27,23.1,25.8,24.7,25.4z M22.3,30.4c1.6,0,3.5-1.9,3.5-3.4c0.1-0.4-0.3-0.9-0.7-0.9
							c-0.1,0-0.1,0-0.2,0c-1.7,0.3-3,1.6-3.3,3.3C21.6,30,21.8,30.3,22.3,30.4L22.3,30.4z"/>
						<path id="Trazado_71305" d="M29.8,24.9c0.5-1.9,1.9-3.4,3.8-3.9c-0.2-0.2-0.3-0.4-0.5-0.5C26.6,14,19.9,7.6,13.3,1.3
							c-0.5-0.7-1.4-0.8-2.1-0.3c0,0,0,0,0,0C10,1.5,9.4,2.9,9.9,4.1c0,0.1-0.1,0.3-0.1,0.4C9.7,4.4,9.4,4.4,9.4,4.3
							C9.2,3.8,9.1,3.2,9.1,2.6c0.3-1.3,1.4-2.4,2.8-2.6c0.7-0.1,1.4,0.2,1.9,0.7c5.1,5,10.2,9.9,15.4,14.9c1.9,1.8,3.8,3.7,5.7,5.5
							c0.6,0.5,0.9,1.4,0.5,2.2c-0.5,1.5-1.7,2.6-3.1,3.1c-0.7,0.3-1.5,0.1-2-0.5C23.8,19.3,17.4,12.7,11,6.1
							c-0.1-0.1-0.2-0.2-0.3-0.3c0-0.1,0-0.3,0-0.4c0.1-0.1,0.3-0.1,0.4,0c0.2,0.1,0.4,0.3,0.5,0.5c5.9,6.1,11.7,12.1,17.6,18.2
							C29.5,24.3,29.7,24.6,29.8,24.9z M31.3,25.9c1.8-0.2,3.2-1.6,3.5-3.4c0.1-0.5-0.3-0.9-0.7-0.9c-0.1,0-0.2,0-0.3,0
							c-1.7,0.3-2.9,1.6-3.3,3.3C30.5,25.5,30.8,25.8,31.3,25.9L31.3,25.9z"/>
						<path id="Trazado_71306" d="M18.1,21c-0.2,0.1-0.4,0.2-0.5,0.2c-0.1,0-0.2-0.2-0.4-0.3c-2-2-4.1-4-6.1-6
							c-0.1-0.2-0.3-0.4-0.3-0.7c0.3,0.1,0.6,0.1,0.8,0.3c2,2,4.1,4,6.1,6C17.8,20.6,17.9,20.7,18.1,21z"/>
						<path id="Trazado_71307" d="M21.3,10.6c0.2,0.1,0.3,0.2,0.4,0.3c1.8,1.7,3.6,3.3,5.3,5c0.1,0.2,0.2,0.4,0.3,0.6
							c-0.2-0.1-0.5-0.1-0.7-0.2c-1.8-1.7-3.6-3.3-5.3-5c-0.1-0.2-0.2-0.4-0.3-0.6C21.1,10.8,21.2,10.7,21.3,10.6z"/>
						<path id="Trazado_71308" class="st9" d="M22.3,30.4c-0.5,0-0.8-0.4-0.7-1c0.3-1.7,1.7-3,3.3-3.3c0.4,0,0.9,0.3,0.9,0.7
							c0,0.1,0,0.1,0,0.2C25.8,28.4,23.9,30.4,22.3,30.4z"/>
						<path id="Trazado_71309" class="st9" d="M31.3,25.9c-0.5,0-0.8-0.4-0.8-1c0.3-1.7,1.6-2.9,3.3-3.3c0.4-0.1,0.9,0.2,1,0.7
							c0,0.1,0,0.2,0,0.3C34.5,24.3,33.1,25.6,31.3,25.9z"/>
					</g>
				</g>
			</g>
		</g>
	</g>
	<g id="Grupo_47324" transform="translate(662.489 4003.764)">
		<g id="Grupo_26585-2" transform="translate(75.285 22.478)">
			<path id="Trazado_67426-2" class="st1" d="M0.4,38.9c-0.1,0-0.1,0-0.2-0.1c-0.2-0.1-0.3-0.3-0.1-0.5c0,0,0,0,0,0
				c0.7-1.3,1.4-2.6,2-3.9c0.1-0.2,0.3-0.3,0.5-0.2c0.2,0.1,0.3,0.3,0.2,0.5c-0.6,1.4-1.3,2.7-2,4C0.7,38.8,0.5,38.9,0.4,38.9z
				 M3.9,30.8c0,0-0.1,0-0.1,0c-0.2-0.1-0.3-0.3-0.3-0.5c0.4-1.4,0.8-2.8,1-4.2c0-0.2,0.2-0.4,0.5-0.3s0.4,0.2,0.3,0.5l0,0
				c-0.3,1.5-0.6,2.9-1.1,4.3C4.2,30.7,4.1,30.8,3.9,30.8L3.9,30.8z M5.5,22.1L5.5,22.1c-0.2,0-0.4-0.2-0.4-0.4c0,0,0,0,0,0
				c0.1-1,0.1-2,0.1-2.9c0-0.5,0-1,0-1.5c0-0.2,0.2-0.4,0.4-0.4c0.2,0,0.4,0.2,0.4,0.4c0,0.5,0,1,0,1.5c0,1,0,2-0.1,3
				C5.9,22,5.7,22.1,5.5,22.1L5.5,22.1z M5.2,13.3c-0.2,0-0.4-0.1-0.4-0.3c-0.2-1.4-0.5-2.9-0.9-4.3c0-0.2,0.1-0.4,0.3-0.5
				c0.2,0,0.4,0.1,0.4,0.3c0.4,1.4,0.7,2.9,0.9,4.4C5.6,13.1,5.5,13.3,5.2,13.3C5.2,13.3,5.2,13.3,5.2,13.3L5.2,13.3z M2.9,4.8
				c-0.2,0-0.3-0.1-0.4-0.2C2,3.2,1.4,1.9,0.7,0.6C0.6,0.4,0.7,0.1,0.9,0C1.1,0,1.3,0,1.4,0.2c0.7,1.3,1.3,2.7,1.9,4.1
				c0.1,0.2,0,0.4-0.2,0.5c0,0,0,0,0,0C3,4.8,2.9,4.8,2.9,4.8L2.9,4.8z"/>
		</g>
		<g id="Grupo_26586-2" transform="translate(1.398 1.698)">
			<path id="Trazado_67427-2" class="st1" d="M39.7,79.5c-1.4,0-2.9-0.1-4.3-0.2c-0.2,0-0.4-0.2-0.4-0.4c0-0.2,0.2-0.4,0.4-0.4l0,0
				c1.4,0.1,2.8,0.2,4.2,0.2h0.2c0.2,0,0.4,0.2,0.4,0.4c0,0,0,0,0,0c0,0.2-0.2,0.4-0.4,0.4c0,0,0,0,0,0L39.7,79.5z M44.3,79.2
				c-0.2,0-0.4-0.2-0.4-0.4c0-0.2,0.2-0.4,0.4-0.4c1.5-0.2,2.9-0.4,4.3-0.7c0.2,0,0.4,0.1,0.5,0.3s-0.1,0.4-0.3,0.5
				C47.3,78.8,45.9,79.1,44.3,79.2L44.3,79.2z M31.1,78.6C31.1,78.6,31.1,78.6,31.1,78.6c-1.5-0.3-3-0.7-4.4-1.2
				c-0.2-0.1-0.3-0.3-0.2-0.5c0.1-0.2,0.3-0.3,0.5-0.2c1.4,0.5,2.8,0.9,4.2,1.2c0.2,0,0.3,0.3,0.3,0.5
				C31.5,78.5,31.3,78.6,31.1,78.6L31.1,78.6z M52.9,77.2c-0.2,0-0.4-0.2-0.4-0.4c0-0.2,0.1-0.3,0.2-0.4c1.3-0.5,2.6-1.1,3.8-1.8
				c0.2-0.1,0.4,0,0.5,0.1c0.1,0.2,0.1,0.4-0.1,0.5c-1.2,0.8-2.6,1.4-3.9,1.9C53,77.2,52.9,77.2,52.9,77.2L52.9,77.2z M22.8,75.8
				c-0.1,0-0.1,0-0.2,0c-1.3-0.6-2.6-1.4-3.9-2.2c-0.2-0.1-0.2-0.4-0.1-0.5s0.4-0.2,0.5-0.1c1.2,0.8,2.5,1.5,3.8,2.1
				c0.2,0.1,0.3,0.3,0.2,0.5C23.1,75.7,22.9,75.8,22.8,75.8L22.8,75.8z M15.3,71c-0.1,0-0.2,0-0.2-0.1c-1.2-0.9-2.3-1.9-3.3-3
				c-0.2-0.2-0.2-0.4,0-0.6c0.2-0.2,0.4-0.2,0.6,0l0,0c1,1,2.1,2,3.3,2.9c0.2,0.1,0.2,0.4,0.1,0.6C15.6,71,15.5,71,15.3,71L15.3,71z
				 M9.1,64.8c-0.1,0-0.2-0.1-0.3-0.1C7.9,63.5,7,62.3,6.2,61c-0.1-0.2-0.1-0.4,0.1-0.5c0.2-0.1,0.4-0.1,0.5,0.1
				c0.8,1.2,1.6,2.4,2.5,3.6c0.1,0.2,0.1,0.4-0.1,0.6C9.3,64.8,9.2,64.8,9.1,64.8L9.1,64.8z M4.4,57.3c-0.2,0-0.3-0.1-0.4-0.2
				c-0.7-1.3-1.2-2.7-1.7-4.1c-0.1-0.2,0-0.4,0.2-0.5c0.2-0.1,0.4,0,0.5,0.2c0.5,1.4,1.1,2.7,1.7,4c0.1,0.2,0,0.4-0.2,0.5
				c0,0,0,0,0,0C4.5,57.3,4.4,57.3,4.4,57.3L4.4,57.3z M1.4,49c-0.2,0-0.3-0.1-0.4-0.3c-0.3-1.5-0.6-2.9-0.8-4.4
				c0-0.2,0.1-0.4,0.3-0.4S1,44,1.1,44.2c0.2,1.4,0.4,2.9,0.7,4.3C1.8,48.8,1.7,49,1.4,49C1.5,49,1.5,49,1.4,49
				C1.5,49,1.4,49,1.4,49L1.4,49z M0.4,40.3c-0.2,0-0.4-0.2-0.4-0.4v-0.2c0-1.4,0.1-2.8,0.2-4.2l0-0.1c0-0.2,0.2-0.4,0.4-0.4
				S1,35.3,1,35.5l0,0.1c-0.1,1.4-0.2,2.7-0.2,4.1v0.2C0.8,40.1,0.6,40.3,0.4,40.3C0.4,40.3,0.4,40.3,0.4,40.3L0.4,40.3z M1.3,31.5
				c-0.2,0-0.4-0.2-0.4-0.4c0,0,0-0.1,0-0.1c0.3-1.5,0.7-2.9,1.2-4.3c0.1-0.2,0.3-0.3,0.5-0.2C2.9,26.5,3,26.8,2.9,27
				c-0.5,1.4-0.9,2.8-1.2,4.2C1.7,31.4,1.5,31.5,1.3,31.5L1.3,31.5z M4.2,23.1c-0.2,0-0.4-0.2-0.4-0.4c0-0.1,0-0.1,0-0.2
				c0.6-1.3,1.3-2.7,2.1-3.9c0.1-0.2,0.4-0.2,0.5-0.1c0.2,0.1,0.2,0.3,0.1,0.5c-0.8,1.2-1.5,2.5-2.1,3.8C4.5,23.1,4.3,23.2,4.2,23.1
				L4.2,23.1z M8.8,15.6c-0.1,0-0.2,0-0.2-0.1c-0.2-0.1-0.2-0.4-0.1-0.6c0,0,0,0,0,0c0.9-1.2,1.9-2.3,2.9-3.4c0.2-0.2,0.4-0.2,0.6,0
				c0.2,0.2,0.2,0.4,0,0.6c-1,1-2,2.1-2.9,3.3C9.1,15.6,8.9,15.6,8.8,15.6L8.8,15.6z M15,9.4c-0.2,0-0.4-0.2-0.4-0.4
				c0-0.1,0.1-0.2,0.1-0.3c1.2-0.9,2.4-1.8,3.6-2.6c0.2-0.1,0.4-0.1,0.5,0.1C19,6.3,19,6.6,18.8,6.7c-1.2,0.8-2.4,1.6-3.5,2.6
				C15.2,9.3,15.1,9.4,15,9.4L15,9.4z M22.4,4.6c-0.2,0-0.4-0.2-0.4-0.4c0-0.1,0.1-0.3,0.2-0.4c1.3-0.7,2.7-1.2,4.1-1.8
				c0.2-0.1,0.4,0.1,0.5,0.3c0.1,0.2,0,0.4-0.2,0.5c-1.4,0.5-2.7,1.1-4,1.7C22.5,4.6,22.5,4.6,22.4,4.6L22.4,4.6z M30.7,1.6
				c-0.2,0-0.4-0.2-0.4-0.4c0-0.2,0.1-0.3,0.3-0.4C32.1,0.5,33.5,0.2,35,0c0.2,0,0.4,0.1,0.4,0.3c0,0.2-0.1,0.4-0.3,0.4l0,0
				C33.7,1,32.2,1.2,30.7,1.6C30.8,1.6,30.8,1.6,30.7,1.6L30.7,1.6z"/>
		</g>
		<g id="Grupo_47319-2" transform="translate(-67.207 34.693)">
			<g id="Grupo_18423-2" transform="translate(75 -27)">
				<g id="Grupo_18421-2">
					<g id="Grupo_18420-2">
						<g id="Grupo_18419-2">
							<path id="Trazado_40936-2" class="st4" d="M67,33.5C67,52,52,67,33.5,67S0,52,0,33.5C0,15,15,0,33.5,0c0,0,0,0,0,0
								C52,0,67,15,67,33.5z"/>
						</g>
					</g>
				</g>
				
					<radialGradient id="Trazado_40937-2_1_" cx="-267.2314" cy="363.2988" r="1.465" gradientTransform="matrix(67.0423 0 0 -67.0425 17920.9746 24357.7266)" gradientUnits="userSpaceOnUse">
					<stop  offset="0" style="stop-color:#F6F6F7"/>
					<stop  offset="0.477" style="stop-color:#F9F9FA"/>
					<stop  offset="0.715" style="stop-color:#FFFFFF"/>
				</radialGradient>
				<path id="Trazado_40937-2" class="st10" d="M67,33.5C67,15,52,0,33.5,0S0,15,0,33.5C0,52,15,67,33.5,67C52,67.1,67,52.2,67,33.8
					C67,33.7,67,33.6,67,33.5z"/>
				<path id="Trazado_40938-2" class="st6" d="M59.2,33.6C59.2,19.5,47.8,8,33.6,8S8,19.5,8,33.6s11.5,25.6,25.6,25.6c0,0,0,0,0,0
					c14.1,0.1,25.5-11.3,25.6-25.4C59.2,33.8,59.2,33.7,59.2,33.6z"/>
				<g id="Grupo_18422-2" transform="translate(5.939 18.82)">
					<path id="Trazado_40939-2" class="st7" d="M57.7,0c7.5,16.9-0.1,36.7-17,44.3C26.3,50.7,9.3,46.1,0,33.4
						c10.3,15.3,31.1,19.3,46.4,9C60.2,33,65,15,57.7,0z"/>
				</g>
				<g id="Grupo_47321-2" transform="translate(51.794 54.837)">
					<g id="Grupo_26675-2">
						<g id="Grupo_26674-2">
							<path id="Trazado_67515-2" class="st4" d="M20.6,10.5l-1.4-3.3C19,6.6,18.6,6,18.2,5.6l-4.8-4.8c-0.5-0.5-1.3-0.5-1.8,0
								c-0.5,0.4-0.5,1.2-0.1,1.6c0,0,0,0,0.1,0.1L14,4.8l-3.3-3.3C10.1,1,9.2,1,8.7,1.5C8.2,2,8.2,2.9,8.7,3.4l0,0l3.1,3.1L11.3,6
								L8.1,2.9C7.6,2.3,6.7,2.4,6.2,2.9c-0.5,0.5-0.5,1.4,0,1.9l3.7,3.7L2.7,1.3c-0.5-0.5-1.4-0.5-1.9,0c-0.5,0.5-0.5,1.4,0,1.9
								l7.1,7.1l0,0.1L4.5,9.2C3.7,9,3,9.5,2.8,10.3C2.6,11,3,11.7,3.7,12l6.1,3.3l4.6,1.5L20.6,10.5z"/>
							<path id="Trazado_67516-2" class="st1" d="M14.4,17.2c0,0-0.1,0-0.1,0l-4.6-1.5c0,0,0,0-0.1,0l-6-3.3C2.6,12,2.1,11,2.5,10
								c0.3-0.9,1.2-1.4,2.1-1.2l0,0l1.9,0.6l-6-6C0.2,3.2,0,2.7,0,2.3c0-1,0.8-1.7,1.8-1.8h0C2.2,0.5,2.7,0.7,3,1l2.5,2.5
								c0.2-0.8,0.9-1.4,1.7-1.4h0c0.3,0,0.5,0.1,0.7,0.2c0.1-0.9,0.9-1.5,1.7-1.5h0c0.5,0,0.9,0.2,1.2,0.5c0.1-0.3,0.2-0.5,0.4-0.7
								c0.6-0.6,1.7-0.7,2.3,0l4.8,4.8c0.5,0.5,0.9,1.1,1.2,1.8l1.4,3.3c0.1,0.1,0,0.3-0.1,0.4L14.7,17
								C14.6,17.1,14.5,17.2,14.4,17.2z M10,14.9l4.3,1.4l5.8-5.9l-1.3-3.1c-0.2-0.6-0.6-1.1-1-1.5L13.1,1c-0.3-0.3-0.9-0.3-1.2,0
								c-0.2,0.1-0.3,0.4-0.3,0.6c0,0.2,0.1,0.4,0.2,0.6l2.4,2.4c0.2,0.2,0.2,0.4,0,0.6c-0.2,0.2-0.4,0.2-0.6,0l-3.3-3.3
								c-0.2-0.2-0.4-0.3-0.7-0.3c-0.5,0-1,0.4-1,1C8.7,2.7,8.8,3,9,3.1l3.1,3.1c0.1,0.2,0.1,0.4,0,0.6C12,7,11.7,7,11.6,6.8
								L7.9,3.1C7.7,3,7.4,2.9,7.2,2.9C6.9,2.9,6.7,3,6.5,3.1c-0.4,0.4-0.4,1,0,1.4l3.7,3.7c0.2,0.2,0.2,0.4,0,0.6
								c-0.2,0.2-0.4,0.2-0.6,0l0,0L2.4,1.6C2.3,1.4,2,1.3,1.8,1.3c-0.5,0-1,0.4-1,1c0,0.3,0.1,0.5,0.3,0.7L8.1,10c0,0,0,0,0,0
								l0,0.1c0.1,0.2,0.1,0.4-0.1,0.5c-0.1,0.1-0.2,0.1-0.4,0.1L4.4,9.6c-0.6-0.1-1.1,0.2-1.2,0.8c0,0,0,0,0,0
								c-0.1,0.5,0.2,1,0.7,1.2c0,0,0,0,0.1,0L10,14.9z"/>
						</g>
					</g>
					<g id="Grupo_26676-2" transform="translate(13.612 9.773)">
						
							<rect id="Rectángulo_25697-2" x="-0.3" y="3.6" transform="matrix(0.7071 -0.7071 0.7071 0.7071 -1.952 4.7113)" class="st8" width="9.9" height="2.3"/>
						<path id="Trazado_67517-2" class="st1" d="M2,9.4c-0.1,0-0.2,0-0.3-0.1L0.1,7.7C0,7.5,0,7.3,0.1,7.1l7-7C7.3,0,7.5,0,7.7,0.1
							l1.6,1.6c0.2,0.2,0.2,0.4,0,0.6c0,0,0,0,0,0l-7,7C2.2,9.4,2.1,9.4,2,9.4z M0.9,7.4L2,8.5L8.5,2L7.4,0.9L0.9,7.4z"/>
					</g>
				</g>
				<g id="Grupo_47335">
					<g id="Grupo_47334" transform="translate(-433.088 -838.638)">
						<path id="Trazado_71310" d="M454.2,883.2c0.1-0.4,0.2-0.8,0.3-1.2c0.2-0.8,0.7-1.5,1.4-2c0.4-0.3,0.9-0.5,1.4-0.5
							c5.7,0,11.3,0,17,0c0.3,0,0.6,0.2,0.7,0.5c0,0,0,0,0,0c0,0.3-0.2,0.6-0.6,0.6c-0.4,0-0.8,0.3-1.1,0.6c-1,1.5-1,3.4,0,4.8
							c0.5,0.6,1.3,0.8,2,0.6c2-0.4,3.4-2.2,3.4-4.2c0-1.6,0-3.3,0-4.9c0-6.1,0-12.3,0-18.4v-0.4h-19.5v20.1h-1.2v-0.4
							c0-6.7,0-13.4,0-20.1c0-0.3,0.1-0.7,0.4-0.9h21.2c0.3,0.2,0.4,0.5,0.4,0.9c0,8,0,16,0,24c0,0.1,0,0.2,0,0.4
							c-0.1,2.9-2.5,5.3-5.4,5.3c-5.7,0-11.4,0-17.2,0c-0.5,0-1-0.2-1.4-0.4c-0.7-0.5-1.2-1.2-1.4-2.1c-0.1-0.4-0.2-0.9-0.3-1.3
							L454.2,883.2z M472.2,880.7c-0.1,0-0.2,0-0.3,0c-4.8,0-9.6,0-14.5,0c-0.5,0-0.9,0.2-1.2,0.6c-1,1.5-1,3.4,0,4.9
							c0.3,0.4,0.8,0.7,1.3,0.7c4.8,0,9.7,0,14.5,0c0.1,0,0.2,0,0.3,0C471,884.9,471,882.6,472.2,880.7L472.2,880.7z"/>
						<path id="Trazado_71311" class="st9" d="M472.2,880.7c-1.2,1.9-1.2,4.2,0,6.1c-0.1,0-0.2,0-0.3,0c-4.8,0-9.7,0-14.5,0
							c-0.5,0-1-0.2-1.3-0.7c-1-1.5-1-3.4,0-4.9c0.3-0.4,0.7-0.6,1.2-0.6c4.8,0,9.6,0,14.5,0C472,880.7,472.1,880.7,472.2,880.7z"/>
					</g>
				</g>
			</g>
		</g>
	</g>
	<g id="Grupo_47326" transform="translate(904.434 4003.764)">
		<g id="Grupo_26585-3" transform="translate(75.285 22.478)">
			<path id="Trazado_67426-3" class="st1" d="M0.4,38.9c-0.1,0-0.1,0-0.2-0.1c-0.2-0.1-0.3-0.3-0.1-0.5c0,0,0,0,0,0
				c0.7-1.3,1.4-2.6,2-3.9c0.1-0.2,0.3-0.3,0.5-0.2c0.2,0.1,0.3,0.3,0.2,0.5c-0.6,1.4-1.3,2.7-2,4C0.7,38.8,0.5,38.9,0.4,38.9z
				 M3.9,30.8c0,0-0.1,0-0.1,0c-0.2-0.1-0.3-0.3-0.3-0.5c0.4-1.4,0.8-2.8,1-4.2c0-0.2,0.2-0.4,0.5-0.3s0.4,0.2,0.3,0.5l0,0
				c-0.3,1.5-0.6,2.9-1.1,4.3C4.2,30.7,4.1,30.8,3.9,30.8L3.9,30.8z M5.5,22.1L5.5,22.1c-0.2,0-0.4-0.2-0.4-0.4c0,0,0,0,0,0
				c0.1-1,0.1-2,0.1-2.9c0-0.5,0-1,0-1.5c0-0.2,0.2-0.4,0.4-0.4c0.2,0,0.4,0.2,0.4,0.4c0,0.5,0,1,0,1.5c0,1,0,2-0.1,3
				C5.9,22,5.7,22.1,5.5,22.1L5.5,22.1z M5.2,13.3c-0.2,0-0.4-0.1-0.4-0.3c-0.2-1.4-0.5-2.9-0.9-4.3c0-0.2,0.1-0.4,0.3-0.5
				c0.2,0,0.4,0.1,0.4,0.3c0.4,1.4,0.7,2.9,0.9,4.4C5.6,13.1,5.5,13.3,5.2,13.3C5.2,13.3,5.2,13.3,5.2,13.3L5.2,13.3z M2.9,4.8
				c-0.2,0-0.3-0.1-0.4-0.2C2,3.2,1.4,1.9,0.7,0.6C0.6,0.4,0.7,0.1,0.9,0C1.1,0,1.3,0,1.4,0.2c0.7,1.3,1.3,2.7,1.9,4.1
				c0.1,0.2,0,0.4-0.2,0.5c0,0,0,0,0,0C3,4.8,2.9,4.8,2.9,4.8L2.9,4.8z"/>
		</g>
		<g id="Grupo_26586-3" transform="translate(1.398 1.698)">
			<path id="Trazado_67427-3" class="st1" d="M39.7,79.5c-1.4,0-2.9-0.1-4.3-0.2c-0.2,0-0.4-0.2-0.4-0.4c0-0.2,0.2-0.4,0.4-0.4l0,0
				c1.4,0.1,2.8,0.2,4.2,0.2h0.2c0.2,0,0.4,0.2,0.4,0.4c0,0,0,0,0,0c0,0.2-0.2,0.4-0.4,0.4c0,0,0,0,0,0L39.7,79.5z M44.3,79.2
				c-0.2,0-0.4-0.2-0.4-0.4c0-0.2,0.2-0.4,0.4-0.4c1.5-0.2,2.9-0.4,4.3-0.7c0.2,0,0.4,0.1,0.5,0.3s-0.1,0.4-0.3,0.5
				C47.3,78.8,45.9,79.1,44.3,79.2L44.3,79.2z M31.1,78.6C31.1,78.6,31.1,78.6,31.1,78.6c-1.5-0.3-3-0.7-4.4-1.2
				c-0.2-0.1-0.3-0.3-0.2-0.5c0.1-0.2,0.3-0.3,0.5-0.2c1.4,0.5,2.8,0.9,4.2,1.2c0.2,0,0.3,0.3,0.3,0.5
				C31.5,78.5,31.3,78.6,31.1,78.6L31.1,78.6z M52.9,77.2c-0.2,0-0.4-0.2-0.4-0.4c0-0.2,0.1-0.3,0.2-0.4c1.3-0.5,2.6-1.1,3.8-1.8
				c0.2-0.1,0.4,0,0.5,0.1c0.1,0.2,0.1,0.4-0.1,0.5c-1.2,0.8-2.6,1.4-3.9,1.9C53,77.2,52.9,77.2,52.9,77.2L52.9,77.2z M22.8,75.8
				c-0.1,0-0.1,0-0.2,0c-1.3-0.6-2.6-1.4-3.9-2.2c-0.2-0.1-0.2-0.4-0.1-0.5s0.4-0.2,0.5-0.1c1.2,0.8,2.5,1.5,3.8,2.1
				c0.2,0.1,0.3,0.3,0.2,0.5C23.1,75.7,22.9,75.8,22.8,75.8L22.8,75.8z M15.3,71c-0.1,0-0.2,0-0.2-0.1c-1.2-0.9-2.3-1.9-3.3-3
				c-0.2-0.2-0.2-0.4,0-0.6c0.2-0.2,0.4-0.2,0.6,0l0,0c1,1,2.1,2,3.3,2.9c0.2,0.1,0.2,0.4,0.1,0.6C15.6,71,15.5,71,15.3,71L15.3,71z
				 M9.1,64.8c-0.1,0-0.2-0.1-0.3-0.1C7.9,63.5,7,62.3,6.2,61c-0.1-0.2-0.1-0.4,0.1-0.5c0.2-0.1,0.4-0.1,0.5,0.1
				c0.8,1.2,1.6,2.4,2.5,3.6c0.1,0.2,0.1,0.4-0.1,0.6C9.3,64.8,9.2,64.8,9.1,64.8L9.1,64.8z M4.4,57.3c-0.2,0-0.3-0.1-0.4-0.2
				c-0.7-1.3-1.2-2.7-1.7-4.1c-0.1-0.2,0-0.4,0.2-0.5c0.2-0.1,0.4,0,0.5,0.2c0.5,1.4,1.1,2.7,1.7,4c0.1,0.2,0,0.4-0.2,0.5
				c0,0,0,0,0,0C4.5,57.3,4.4,57.3,4.4,57.3L4.4,57.3z M1.4,49c-0.2,0-0.3-0.1-0.4-0.3c-0.3-1.5-0.6-2.9-0.8-4.4
				c0-0.2,0.1-0.4,0.3-0.4S1,44,1.1,44.2c0.2,1.4,0.4,2.9,0.7,4.3C1.8,48.8,1.7,49,1.4,49C1.5,49,1.5,49,1.4,49
				C1.5,49,1.4,49,1.4,49L1.4,49z M0.4,40.3c-0.2,0-0.4-0.2-0.4-0.4v-0.2c0-1.4,0.1-2.8,0.2-4.2l0-0.1c0-0.2,0.2-0.4,0.4-0.4
				S1,35.3,1,35.5l0,0.1c-0.1,1.4-0.2,2.7-0.2,4.1v0.2C0.8,40.1,0.6,40.3,0.4,40.3C0.4,40.3,0.4,40.3,0.4,40.3L0.4,40.3z M1.3,31.5
				c-0.2,0-0.4-0.2-0.4-0.4c0,0,0-0.1,0-0.1c0.3-1.5,0.7-2.9,1.2-4.3c0.1-0.2,0.3-0.3,0.5-0.2C2.9,26.5,3,26.8,2.9,27
				c-0.5,1.4-0.9,2.8-1.2,4.2C1.7,31.4,1.5,31.5,1.3,31.5L1.3,31.5z M4.2,23.1c-0.2,0-0.4-0.2-0.4-0.4c0-0.1,0-0.1,0-0.2
				c0.6-1.3,1.3-2.7,2.1-3.9c0.1-0.2,0.4-0.2,0.5-0.1c0.2,0.1,0.2,0.3,0.1,0.5c-0.8,1.2-1.5,2.5-2.1,3.8C4.5,23.1,4.3,23.2,4.2,23.1
				L4.2,23.1z M8.8,15.6c-0.1,0-0.2,0-0.2-0.1c-0.2-0.1-0.2-0.4-0.1-0.6c0,0,0,0,0,0c0.9-1.2,1.9-2.3,2.9-3.4c0.2-0.2,0.4-0.2,0.6,0
				c0.2,0.2,0.2,0.4,0,0.6c-1,1-2,2.1-2.9,3.3C9.1,15.6,8.9,15.6,8.8,15.6L8.8,15.6z M15,9.4c-0.2,0-0.4-0.2-0.4-0.4
				c0-0.1,0.1-0.2,0.1-0.3c1.2-0.9,2.4-1.8,3.6-2.6c0.2-0.1,0.4-0.1,0.5,0.1C19,6.3,19,6.6,18.8,6.7c-1.2,0.8-2.4,1.6-3.5,2.6
				C15.2,9.3,15.1,9.4,15,9.4L15,9.4z M22.4,4.6c-0.2,0-0.4-0.2-0.4-0.4c0-0.1,0.1-0.3,0.2-0.4c1.3-0.7,2.7-1.2,4.1-1.8
				c0.2-0.1,0.4,0.1,0.5,0.3c0.1,0.2,0,0.4-0.2,0.5c-1.4,0.5-2.7,1.1-4,1.7C22.5,4.6,22.5,4.6,22.4,4.6L22.4,4.6z M30.7,1.6
				c-0.2,0-0.4-0.2-0.4-0.4c0-0.2,0.1-0.3,0.3-0.4C32.1,0.5,33.5,0.2,35,0c0.2,0,0.4,0.1,0.4,0.3c0,0.2-0.1,0.4-0.3,0.4l0,0
				C33.7,1,32.2,1.2,30.7,1.6C30.8,1.6,30.8,1.6,30.7,1.6L30.7,1.6z"/>
		</g>
		<g id="Grupo_47319-3" transform="translate(-67.207 34.693)">
			<g id="Grupo_18423-3" transform="translate(75 -27)">
				<g id="Grupo_18421-3">
					<g id="Grupo_18420-3">
						<g id="Grupo_18419-3">
							<path id="Trazado_40936-3" class="st4" d="M67,33.5C67,52,52,67,33.5,67S0,52,0,33.5C0,15,15,0,33.5,0c0,0,0,0,0,0
								C52,0,67,15,67,33.5z"/>
						</g>
					</g>
				</g>
				
					<radialGradient id="Trazado_40937-3_1_" cx="-509.1765" cy="363.2988" r="1.465" gradientTransform="matrix(67.0423 0 0 -67.0425 34141.5234 24357.7266)" gradientUnits="userSpaceOnUse">
					<stop  offset="0" style="stop-color:#F6F6F7"/>
					<stop  offset="0.477" style="stop-color:#F9F9FA"/>
					<stop  offset="0.715" style="stop-color:#FFFFFF"/>
				</radialGradient>
				<path id="Trazado_40937-3" class="st11" d="M67,33.5C67,15,52,0,33.5,0S0,15,0,33.5C0,52,15,67,33.5,67C52,67.1,67,52.2,67,33.8
					C67,33.7,67,33.6,67,33.5z"/>
				<path id="Trazado_40938-3" class="st6" d="M59.2,33.6C59.2,19.5,47.8,8,33.6,8S8,19.5,8,33.6s11.5,25.6,25.6,25.6c0,0,0,0,0,0
					c14.1,0.1,25.5-11.3,25.6-25.4C59.2,33.8,59.2,33.7,59.2,33.6z"/>
				<g id="Grupo_18422-3" transform="translate(5.939 18.82)">
					<path id="Trazado_40939-3" class="st7" d="M57.7,0c7.5,16.9-0.1,36.7-17,44.3C26.3,50.7,9.3,46.1,0,33.4
						c10.3,15.3,31.1,19.3,46.4,9C60.2,33,65,15,57.7,0z"/>
				</g>
				<g id="Grupo_47321-3" transform="translate(51.794 54.837)">
					<g id="Grupo_26675-3">
						<g id="Grupo_26674-3">
							<path id="Trazado_67515-3" class="st4" d="M20.6,10.5l-1.4-3.3C19,6.6,18.6,6,18.2,5.6l-4.8-4.8c-0.5-0.5-1.3-0.5-1.8,0
								c-0.5,0.4-0.5,1.2-0.1,1.6c0,0,0,0,0.1,0.1L14,4.8l-3.3-3.3C10.1,1,9.2,1,8.7,1.5C8.2,2,8.2,2.9,8.7,3.4l0,0l3.1,3.1L11.3,6
								L8.1,2.9C7.6,2.3,6.7,2.4,6.2,2.9c-0.5,0.5-0.5,1.4,0,1.9l3.7,3.7L2.7,1.3c-0.5-0.5-1.4-0.5-1.9,0c-0.5,0.5-0.5,1.4,0,1.9
								l7.1,7.1l0,0.1L4.5,9.2C3.7,9,3,9.5,2.8,10.3C2.6,11,3,11.7,3.7,12l6.1,3.3l4.6,1.5L20.6,10.5z"/>
							<path id="Trazado_67516-3" class="st1" d="M14.4,17.2c0,0-0.1,0-0.1,0l-4.6-1.5c0,0,0,0-0.1,0l-6-3.3C2.6,12,2.1,11,2.5,10
								c0.3-0.9,1.2-1.4,2.1-1.2l0,0l1.9,0.6l-6-6C0.2,3.2,0,2.7,0,2.3c0-1,0.8-1.7,1.8-1.8h0C2.2,0.5,2.7,0.7,3,1l2.5,2.5
								c0.2-0.8,0.9-1.4,1.7-1.4h0c0.3,0,0.5,0.1,0.7,0.2c0.1-0.9,0.9-1.5,1.7-1.5h0c0.5,0,0.9,0.2,1.2,0.5c0.1-0.3,0.2-0.5,0.4-0.7
								c0.6-0.6,1.7-0.7,2.3,0l4.8,4.8c0.5,0.5,0.9,1.1,1.2,1.8l1.4,3.3c0.1,0.1,0,0.3-0.1,0.4L14.7,17
								C14.6,17.1,14.5,17.2,14.4,17.2z M10,14.9l4.3,1.4l5.8-5.9l-1.3-3.1c-0.2-0.6-0.6-1.1-1-1.5L13.1,1c-0.3-0.3-0.9-0.3-1.2,0
								c-0.2,0.1-0.3,0.4-0.3,0.6c0,0.2,0.1,0.4,0.2,0.6l2.4,2.4c0.2,0.2,0.2,0.4,0,0.6c-0.2,0.2-0.4,0.2-0.6,0l-3.3-3.3
								c-0.2-0.2-0.4-0.3-0.7-0.3c-0.5,0-1,0.4-1,1C8.7,2.7,8.8,3,9,3.1l3.1,3.1c0.1,0.2,0.1,0.4,0,0.6C12,7,11.7,7,11.6,6.8
								L7.9,3.1C7.7,3,7.4,2.9,7.2,2.9C6.9,2.9,6.7,3,6.5,3.1c-0.4,0.4-0.4,1,0,1.4l3.7,3.7c0.2,0.2,0.2,0.4,0,0.6
								c-0.2,0.2-0.4,0.2-0.6,0l0,0L2.4,1.6C2.3,1.4,2,1.3,1.8,1.3c-0.5,0-1,0.4-1,1c0,0.3,0.1,0.5,0.3,0.7L8.1,10c0,0,0,0,0,0
								l0,0.1c0.1,0.2,0.1,0.4-0.1,0.5c-0.1,0.1-0.2,0.1-0.4,0.1L4.4,9.6c-0.6-0.1-1.1,0.2-1.2,0.8c0,0,0,0,0,0
								c-0.1,0.5,0.2,1,0.7,1.2c0,0,0,0,0.1,0L10,14.9z"/>
						</g>
					</g>
					<g id="Grupo_26676-3" transform="translate(13.612 9.773)">
						
							<rect id="Rectángulo_25697-3" x="-0.3" y="3.6" transform="matrix(0.7071 -0.7071 0.7071 0.7071 -1.952 4.7113)" class="st8" width="9.9" height="2.3"/>
						<path id="Trazado_67517-3" class="st1" d="M2,9.4c-0.1,0-0.2,0-0.3-0.1L0.1,7.7C0,7.5,0,7.3,0.1,7.1l7-7C7.3,0,7.5,0,7.7,0.1
							l1.6,1.6c0.2,0.2,0.2,0.4,0,0.6c0,0,0,0,0,0l-7,7C2.2,9.4,2.1,9.4,2,9.4z M0.9,7.4L2,8.5L8.5,2L7.4,0.9L0.9,7.4z"/>
					</g>
				</g>
			</g>
		</g>
		<path id="Trazado_71263" class="st1" d="M24.4,51.1c0.3-1.5,0.7-2.9,1-4.4c0.7-3.5,1.4-6.9,2.2-10.4c0-0.1,0-0.3,0.1-0.5
			c-0.6,0-1.1,0-1.6,0c-0.7,0-1.2-0.4-1.2-1s0.5-1,1.2-1c10.2,0,20.4,0,30.6,0c0.8,0,1.2,0.4,1.2,1c0,0.6-0.5,1-1.3,1
			c-0.6,0-1.1,0-1.6,0c-0.1,0-0.1,0-0.2,0.1c0.3,1.3,0.6,2.6,0.9,3.9c0.8,3.6,1.6,7.2,2.4,10.7c0.1,0.2,0.1,0.4,0.2,0.6v0.8
			c-0.3,0.4-0.6,0.8-1.2,0.7c-0.6-0.1-0.8-0.6-0.9-1.2c-1.1-4.8-2.2-9.6-3.3-14.5c0-0.1-0.1-0.2-0.1-0.4c-0.4,0.2-0.8,0.4-1.2,0.5
			l-18.9,8.5c-1,0.5-1.2,0.4-1.6-0.7c-0.6-1.6-1.2-3.2-1.7-4.8c-0.1-0.2-0.2-0.4-0.4-0.6c-0.3,1.3-0.6,2.6-0.8,3.9
			c-0.5,2.6-1.1,5.3-1.6,7.9c-0.1,0.5-0.3,1-0.9,1.1s-0.9-0.2-1.2-0.7L24.4,51.1z"/>
		<path id="Rectángulo_26902" class="st9" d="M26.1,34.2h30c0.3,0,0.5,0.2,0.5,0.5l0,0c0,0.3-0.2,0.5-0.5,0.5h-30
			c-0.3,0-0.5-0.2-0.5-0.5l0,0C25.6,34.5,25.8,34.2,26.1,34.2z"/>
	</g>
	<path id="Trazado_71252" class="st12" d="M326.1,3958.5h751.6"/>
	<g id="Grupo_47322" transform="translate(418.417 3765.663)">
		<g id="Grupo_26585-4" transform="translate(75.285 22.478)">
			<path id="Trazado_67426-4" class="st1" d="M0.4,38.9c-0.1,0-0.1,0-0.2-0.1c-0.2-0.1-0.3-0.3-0.1-0.5c0,0,0,0,0,0
				c0.7-1.3,1.4-2.6,2-3.9c0.1-0.2,0.3-0.3,0.5-0.2c0.2,0.1,0.3,0.3,0.2,0.5c-0.6,1.4-1.3,2.7-2,4C0.7,38.8,0.5,38.9,0.4,38.9z
				 M3.9,30.8c0,0-0.1,0-0.1,0c-0.2-0.1-0.3-0.3-0.3-0.5c0.4-1.4,0.8-2.8,1-4.2c0-0.2,0.2-0.4,0.5-0.3s0.4,0.2,0.3,0.5l0,0
				c-0.3,1.5-0.6,2.9-1.1,4.3C4.2,30.7,4.1,30.8,3.9,30.8L3.9,30.8z M5.5,22.1L5.5,22.1c-0.2,0-0.4-0.2-0.4-0.4c0,0,0,0,0,0
				c0.1-1,0.1-2,0.1-2.9c0-0.5,0-1,0-1.5c0-0.2,0.2-0.4,0.4-0.4c0.2,0,0.4,0.2,0.4,0.4c0,0.5,0,1,0,1.5c0,1,0,2-0.1,3
				C5.9,22,5.7,22.1,5.5,22.1L5.5,22.1z M5.2,13.3c-0.2,0-0.4-0.1-0.4-0.3c-0.2-1.4-0.5-2.9-0.9-4.3c0-0.2,0.1-0.4,0.3-0.5
				c0.2,0,0.4,0.1,0.4,0.3c0.4,1.4,0.7,2.9,0.9,4.4C5.6,13.1,5.5,13.3,5.2,13.3C5.2,13.3,5.2,13.3,5.2,13.3L5.2,13.3z M2.9,4.8
				c-0.2,0-0.3-0.1-0.4-0.2C2,3.2,1.4,1.9,0.7,0.6C0.6,0.4,0.7,0.1,0.9,0C1.1,0,1.3,0,1.4,0.2c0.7,1.3,1.3,2.7,1.9,4.1
				c0.1,0.2,0,0.4-0.2,0.5c0,0,0,0,0,0C3,4.8,2.9,4.8,2.9,4.8L2.9,4.8z"/>
		</g>
		<g id="Grupo_26586-4" transform="translate(1.398 1.698)">
			<path id="Trazado_67427-4" class="st1" d="M39.7,79.5c-1.4,0-2.9-0.1-4.3-0.2c-0.2,0-0.4-0.2-0.4-0.4c0-0.2,0.2-0.4,0.4-0.4l0,0
				c1.4,0.1,2.8,0.2,4.2,0.2h0.2c0.2,0,0.4,0.2,0.4,0.4c0,0,0,0,0,0c0,0.2-0.2,0.4-0.4,0.4c0,0,0,0,0,0L39.7,79.5z M44.3,79.2
				c-0.2,0-0.4-0.2-0.4-0.4c0-0.2,0.2-0.4,0.4-0.4c1.5-0.2,2.9-0.4,4.3-0.7c0.2,0,0.4,0.1,0.5,0.3s-0.1,0.4-0.3,0.5
				C47.3,78.8,45.9,79.1,44.3,79.2L44.3,79.2z M31.1,78.6C31.1,78.6,31.1,78.6,31.1,78.6c-1.5-0.3-3-0.7-4.4-1.2
				c-0.2-0.1-0.3-0.3-0.2-0.5c0.1-0.2,0.3-0.3,0.5-0.2c1.4,0.5,2.8,0.9,4.2,1.2c0.2,0,0.3,0.3,0.3,0.5
				C31.5,78.5,31.3,78.6,31.1,78.6L31.1,78.6z M52.9,77.2c-0.2,0-0.4-0.2-0.4-0.4c0-0.2,0.1-0.3,0.2-0.4c1.3-0.5,2.6-1.1,3.8-1.8
				c0.2-0.1,0.4,0,0.5,0.1c0.1,0.2,0.1,0.4-0.1,0.5c-1.2,0.8-2.6,1.4-3.9,1.9C53,77.2,52.9,77.2,52.9,77.2L52.9,77.2z M22.8,75.8
				c-0.1,0-0.1,0-0.2,0c-1.3-0.6-2.6-1.4-3.9-2.2c-0.2-0.1-0.2-0.4-0.1-0.5s0.4-0.2,0.5-0.1c1.2,0.8,2.5,1.5,3.8,2.1
				c0.2,0.1,0.3,0.3,0.2,0.5C23.1,75.7,22.9,75.8,22.8,75.8L22.8,75.8z M15.3,71c-0.1,0-0.2,0-0.2-0.1c-1.2-0.9-2.3-1.9-3.3-3
				c-0.2-0.2-0.2-0.4,0-0.6c0.2-0.2,0.4-0.2,0.6,0l0,0c1,1,2.1,2,3.3,2.9c0.2,0.1,0.2,0.4,0.1,0.6C15.6,71,15.5,71,15.3,71L15.3,71z
				 M9.1,64.8c-0.1,0-0.2-0.1-0.3-0.1C7.9,63.5,7,62.3,6.2,61c-0.1-0.2-0.1-0.4,0.1-0.5c0.2-0.1,0.4-0.1,0.5,0.1
				c0.8,1.2,1.6,2.4,2.5,3.6c0.1,0.2,0.1,0.4-0.1,0.6C9.3,64.8,9.2,64.8,9.1,64.8L9.1,64.8z M4.4,57.3c-0.2,0-0.3-0.1-0.4-0.2
				c-0.7-1.3-1.2-2.7-1.7-4.1c-0.1-0.2,0-0.4,0.2-0.5c0.2-0.1,0.4,0,0.5,0.2c0.5,1.4,1.1,2.7,1.7,4c0.1,0.2,0,0.4-0.2,0.5
				c0,0,0,0,0,0C4.5,57.3,4.4,57.3,4.4,57.3L4.4,57.3z M1.4,49c-0.2,0-0.3-0.1-0.4-0.3c-0.3-1.5-0.6-2.9-0.8-4.4
				c0-0.2,0.1-0.4,0.3-0.4S1,44,1.1,44.2c0.2,1.4,0.4,2.9,0.7,4.3C1.8,48.8,1.7,49,1.4,49C1.5,49,1.5,49,1.4,49
				C1.5,49,1.4,49,1.4,49L1.4,49z M0.4,40.3c-0.2,0-0.4-0.2-0.4-0.4v-0.2c0-1.4,0.1-2.8,0.2-4.2l0-0.1c0-0.2,0.2-0.4,0.4-0.4
				S1,35.3,1,35.5l0,0.1c-0.1,1.4-0.2,2.7-0.2,4.1v0.2C0.8,40.1,0.6,40.3,0.4,40.3C0.4,40.3,0.4,40.3,0.4,40.3L0.4,40.3z M1.3,31.5
				c-0.2,0-0.4-0.2-0.4-0.4c0,0,0-0.1,0-0.1c0.3-1.5,0.7-2.9,1.2-4.3c0.1-0.2,0.3-0.3,0.5-0.2C2.9,26.5,3,26.8,2.9,27
				c-0.5,1.4-0.9,2.8-1.2,4.2C1.7,31.4,1.5,31.5,1.3,31.5L1.3,31.5z M4.2,23.1c-0.2,0-0.4-0.2-0.4-0.4c0-0.1,0-0.1,0-0.2
				c0.6-1.3,1.3-2.7,2.1-3.9c0.1-0.2,0.4-0.2,0.5-0.1c0.2,0.1,0.2,0.3,0.1,0.5c-0.8,1.2-1.5,2.5-2.1,3.8C4.5,23.1,4.3,23.2,4.2,23.1
				L4.2,23.1z M8.8,15.6c-0.1,0-0.2,0-0.2-0.1c-0.2-0.1-0.2-0.4-0.1-0.6c0,0,0,0,0,0c0.9-1.2,1.9-2.3,2.9-3.4c0.2-0.2,0.4-0.2,0.6,0
				c0.2,0.2,0.2,0.4,0,0.6c-1,1-2,2.1-2.9,3.3C9.1,15.6,8.9,15.6,8.8,15.6L8.8,15.6z M15,9.4c-0.2,0-0.4-0.2-0.4-0.4
				c0-0.1,0.1-0.2,0.1-0.3c1.2-0.9,2.4-1.8,3.6-2.6c0.2-0.1,0.4-0.1,0.5,0.1C19,6.3,19,6.6,18.8,6.7c-1.2,0.8-2.4,1.6-3.5,2.6
				C15.2,9.3,15.1,9.4,15,9.4L15,9.4z M22.4,4.6c-0.2,0-0.4-0.2-0.4-0.4c0-0.1,0.1-0.3,0.2-0.4c1.3-0.7,2.7-1.2,4.1-1.8
				c0.2-0.1,0.4,0.1,0.5,0.3c0.1,0.2,0,0.4-0.2,0.5c-1.4,0.5-2.7,1.1-4,1.7C22.5,4.6,22.5,4.6,22.4,4.6L22.4,4.6z M30.7,1.6
				c-0.2,0-0.4-0.2-0.4-0.4c0-0.2,0.1-0.3,0.3-0.4C32.1,0.5,33.5,0.2,35,0c0.2,0,0.4,0.1,0.4,0.3c0,0.2-0.1,0.4-0.3,0.4l0,0
				C33.7,1,32.2,1.2,30.7,1.6C30.8,1.6,30.8,1.6,30.7,1.6L30.7,1.6z"/>
		</g>
		<g id="Grupo_47319-4" transform="translate(-67.207 34.693)">
			<g id="Grupo_18423-4" transform="translate(75 -27)">
				<g id="Grupo_18421-4">
					<g id="Grupo_18420-4">
						<g id="Grupo_18419-4">
							<path id="Trazado_40936-4" class="st4" d="M67,33.5C67,52,52,67,33.5,67S0,52,0,33.5C0,15,15,0,33.5,0c0,0,0,0,0,0
								C52,0,67,15,67,33.5z"/>
						</g>
					</g>
				</g>
				
					<radialGradient id="Trazado_40937-4_1_" cx="-23.1594" cy="601.3997" r="1.465" gradientTransform="matrix(67.0423 0 0 -67.0425 1557.825 40320.5977)" gradientUnits="userSpaceOnUse">
					<stop  offset="0" style="stop-color:#F6F6F7"/>
					<stop  offset="0.477" style="stop-color:#F9F9FA"/>
					<stop  offset="0.715" style="stop-color:#FFFFFF"/>
				</radialGradient>
				<path id="Trazado_40937-4" class="st13" d="M67,33.5C67,15,52,0,33.5,0S0,15,0,33.5C0,52,15,67,33.5,67C52,67.1,67,52.2,67,33.8
					C67,33.7,67,33.6,67,33.5z"/>
				<path id="Trazado_40938-4" class="st6" d="M59.2,33.6C59.2,19.5,47.8,8,33.6,8S8,19.5,8,33.6s11.5,25.6,25.6,25.6c0,0,0,0,0,0
					c14.1,0.1,25.5-11.3,25.6-25.4C59.2,33.8,59.2,33.7,59.2,33.6z"/>
				<g id="Grupo_18422-4" transform="translate(5.939 18.82)">
					<path id="Trazado_40939-4" class="st7" d="M57.7,0c7.5,16.9-0.1,36.7-17,44.3C26.3,50.7,9.3,46.1,0,33.4
						c10.3,15.3,31.1,19.3,46.4,9C60.2,33,65,15,57.7,0z"/>
				</g>
				<g id="Grupo_47321-4" transform="translate(51.794 54.837)">
					<g id="Grupo_26675-4">
						<g id="Grupo_26674-4">
							<path id="Trazado_67515-4" class="st4" d="M20.6,10.5l-1.4-3.3C19,6.6,18.6,6,18.2,5.6l-4.8-4.8c-0.5-0.5-1.3-0.5-1.8,0
								c-0.5,0.4-0.5,1.2-0.1,1.6c0,0,0,0,0.1,0.1L14,4.8l-3.3-3.3C10.1,1,9.2,1,8.7,1.5C8.2,2,8.2,2.9,8.7,3.4l0,0l3.1,3.1L11.3,6
								L8.1,2.9C7.6,2.3,6.7,2.4,6.2,2.9c-0.5,0.5-0.5,1.4,0,1.9l3.7,3.7L2.7,1.3c-0.5-0.5-1.4-0.5-1.9,0c-0.5,0.5-0.5,1.4,0,1.9
								l7.1,7.1l0,0.1L4.5,9.2C3.7,9,3,9.5,2.8,10.3C2.6,11,3,11.7,3.7,12l6.1,3.3l4.6,1.5L20.6,10.5z"/>
							<path id="Trazado_67516-4" class="st1" d="M14.4,17.2c0,0-0.1,0-0.1,0l-4.6-1.5c0,0,0,0-0.1,0l-6-3.3C2.6,12,2.1,11,2.5,10
								c0.3-0.9,1.2-1.4,2.1-1.2l0,0l1.9,0.6l-6-6C0.2,3.2,0,2.7,0,2.3c0-1,0.8-1.7,1.8-1.8h0C2.2,0.5,2.7,0.7,3,1l2.5,2.5
								c0.2-0.8,0.9-1.4,1.7-1.4h0c0.3,0,0.5,0.1,0.7,0.2c0.1-0.9,0.9-1.5,1.7-1.5h0c0.5,0,0.9,0.2,1.2,0.5c0.1-0.3,0.2-0.5,0.4-0.7
								c0.6-0.6,1.7-0.7,2.3,0l4.8,4.8c0.5,0.5,0.9,1.1,1.2,1.8l1.4,3.3c0.1,0.1,0,0.3-0.1,0.4L14.7,17
								C14.6,17.1,14.5,17.2,14.4,17.2z M10,14.9l4.3,1.4l5.8-5.9l-1.3-3.1c-0.2-0.6-0.6-1.1-1-1.5L13.1,1c-0.3-0.3-0.9-0.3-1.2,0
								c-0.2,0.1-0.3,0.4-0.3,0.6c0,0.2,0.1,0.4,0.2,0.6l2.4,2.4c0.2,0.2,0.2,0.4,0,0.6c-0.2,0.2-0.4,0.2-0.6,0l-3.3-3.3
								c-0.2-0.2-0.4-0.3-0.7-0.3c-0.5,0-1,0.4-1,1C8.7,2.7,8.8,3,9,3.1l3.1,3.1c0.1,0.2,0.1,0.4,0,0.6C12,7,11.7,7,11.6,6.8
								L7.9,3.1C7.7,3,7.4,2.9,7.2,2.9C6.9,2.9,6.7,3,6.5,3.1c-0.4,0.4-0.4,1,0,1.4l3.7,3.7c0.2,0.2,0.2,0.4,0,0.6
								c-0.2,0.2-0.4,0.2-0.6,0l0,0L2.4,1.6C2.3,1.4,2,1.3,1.8,1.3c-0.5,0-1,0.4-1,1c0,0.3,0.1,0.5,0.3,0.7L8.1,10c0,0,0,0,0,0
								l0,0.1c0.1,0.2,0.1,0.4-0.1,0.5c-0.1,0.1-0.2,0.1-0.4,0.1L4.4,9.6c-0.6-0.1-1.1,0.2-1.2,0.8c0,0,0,0,0,0
								c-0.1,0.5,0.2,1,0.7,1.2c0,0,0,0,0.1,0L10,14.9z"/>
						</g>
					</g>
					<g id="Grupo_26676-4" transform="translate(13.612 9.773)">
						
							<rect id="Rectángulo_25697-4" x="-0.3" y="3.6" transform="matrix(0.7071 -0.7071 0.7071 0.7071 -1.952 4.7113)" class="st8" width="9.9" height="2.3"/>
						<path id="Trazado_67517-4" class="st1" d="M2,9.4c-0.1,0-0.2,0-0.3-0.1L0.1,7.7C0,7.5,0,7.3,0.1,7.1l7-7C7.3,0,7.5,0,7.7,0.1
							l1.6,1.6c0.2,0.2,0.2,0.4,0,0.6c0,0,0,0,0,0l-7,7C2.2,9.4,2.1,9.4,2,9.4z M0.9,7.4L2,8.5L8.5,2L7.4,0.9L0.9,7.4z"/>
					</g>
				</g>
				<g id="Grupo_47331" transform="translate(246.133 -284.171)">
					<g id="Grupo_47330" transform="translate(-226.21 300.275)">
						<path id="Trazado_71273" class="st1" d="M15.3,12.8c-0.4,2.6-1.1,5.1-1,7.8c0.1-0.1,0.1-0.2,0.2-0.3c0.7-0.8,1.4-1.5,2.2-2.2
							c1.2-0.9,2.7-1.3,4.2-1.1c1.4,0.1,2.8,0.8,3.8,1.8c0.7,0.7,1.4,1.5,2.2,2.3c0.5,0.5,1.1,0.9,1.9,1.1c0.7,0.2,1.5,0.4,2.2,0.6
							v6.6H0V5h0.3C2,5,3.7,5,5.4,5c0.1,0,0.3-0.1,0.3-0.2c0.5-1.5,1.1-3.1,1.6-4.6c0,0,0-0.1,0.1-0.1c0.4,0.2,0.7,0.3,1.1,0.5
							c1.3,0.5,2.5,1,3.8,1.6c0.4,0.2,0.7,0.3,1.1,0.5c0.2,0.1,0.2,0.1,0.1,0.3c-0.4,1-0.7,2-1,3.1c-0.4,1.3-0.5,2.7-0.1,4
							c0.4,1.2,1.3,2.3,2.5,2.8C15.1,12.7,15.2,12.7,15.3,12.8z M0.5,5.5v23.2h13.9c0-0.2-0.1-0.4-0.1-0.6c-0.3-1.5-0.5-3.1-0.6-4.6
							c-0.2-1.8-0.1-3.6,0.1-5.5c0.2-1.6,0.5-3.2,0.8-4.8c0.1-0.1,0-0.3-0.2-0.4c0,0,0,0,0,0c-0.8-0.4-1.4-1-1.9-1.7
							c-1-1.7-1.2-3.7-0.5-5.6c0.3-0.9,0.6-1.7,0.9-2.6c0.1-0.2,0-0.3-0.2-0.4c-0.6-0.2-1.1-0.5-1.7-0.7L7.8,0.7
							c0,0.1-0.1,0.1-0.1,0.2C7.5,1.5,7.3,2.1,7.1,2.8C6.8,3.6,6.5,4.5,6.2,5.3c0,0.1-0.1,0.2-0.2,0.2c-0.2,0-0.5,0-0.7,0L0.5,5.5
							L0.5,5.5z M30.3,28.8c0-0.1,0-0.1,0-0.1c0-1.8,0-3.5,0-5.3c0-0.2-0.1-0.2-0.2-0.2c-0.4-0.1-0.8-0.2-1.2-0.3
							c-1.1-0.2-2-0.7-2.7-1.5c-0.6-0.6-1.1-1.2-1.7-1.8c-0.8-0.9-1.8-1.5-3-1.8c-1.8-0.5-3.8,0.1-5.1,1.4c-0.8,0.7-1.5,1.5-2.2,2.3
							c0,0-0.1,0.1-0.1,0.2c0,0.5,0,1,0,1.6l0.6-0.4l0.4,0.4c-0.3,0.2-0.5,0.4-0.7,0.6c-0.1,0.1-0.1,0.2-0.1,0.3
							c0.1,0.9,0.2,1.9,0.3,2.8c0,0.2,0.1,0.2,0.2,0.2c0.3,0,0.5,0,0.8,0v0.5h-0.9c0.1,0.4,0.2,0.7,0.2,1.1c0,0.2,0.1,0.2,0.3,0.2
							c1.7,0,3.4,0,5.2,0L30.3,28.8L30.3,28.8z"/>
						<path id="Trazado_71276" class="st9" d="M2.4,16.3H1.9v-2.4h0.5V16.3z"/>
						<path id="Trazado_71277" class="st9" d="M1.9,20.4V18h0.5v2.4H1.9z"/>
						<path id="Trazado_71278" class="st9" d="M2.4,12.3H1.9V9.9h0.5V12.3z"/>
						<path id="Trazado_71279" class="st9" d="M2.4,24.4H1.9V22h0.5V24.4z"/>
						<path id="Trazado_71280" class="st9" d="M7.8,6.2C7.7,6.6,7.6,6.9,7.4,7.2c0,0.1-0.1,0.1-0.2,0.2c-0.4,0-0.8,0-1.2,0
							c0-0.1,0-0.2,0-0.3c0-0.2,0.1-0.2,0.2-0.2c0.2,0,0.5,0.1,0.7,0c0.2-0.1,0.2-0.4,0.3-0.6c0,0,0-0.1,0.1-0.2L7.8,6.2z"/>
						<path id="Trazado_71281" class="st9" d="M2.4,8.2H1.9V6.9h1.4v0.5H2.4V8.2z"/>
						<path id="Trazado_71282" class="st9" d="M12.2,13c0.3,0.2,0.6,0.4,0.9,0.7c0,0.1,0.1,0.1,0.1,0.2C13.1,14.3,13,14.6,13,15
							l-0.5-0.1c0-0.3,0.1-0.5,0.1-0.8c0-0.1,0-0.2-0.1-0.2c-0.2-0.2-0.4-0.4-0.6-0.5L12.2,13z"/>
						<path id="Trazado_71283" class="st9" d="M11.3,3.6l-0.4,1.3l-0.5-0.2l0.3-0.8L9.9,3.6l0.2-0.5L11.3,3.6z"/>
						<path id="Trazado_71284" class="st9" d="M11.3,11.9l-0.4,0.2c-0.4-0.6-0.7-1.4-0.9-2.1l0.5-0.1L11.3,11.9z"/>
						<path id="Trazado_71285" class="st9" d="M11.4,27.4v-0.5h0.8l-0.1-0.8l0.5-0.1l0.2,1.4H11.4z"/>
						<path id="Trazado_71286" class="st9" d="M9.9,6.2l0.5,0.1l-0.2,2.1l-0.5,0C9.8,7.7,9.8,7,9.9,6.2z"/>
						<path id="Trazado_71287" class="st9" d="M9.8,3L9.6,3.5L8.9,3.2C8.8,3.3,8.8,3.5,8.7,3.6C8.6,3.9,8.6,3.9,8.3,3.8
							c-0.1,0-0.1,0-0.2-0.1l0.5-1.3L9.8,3z"/>
						<path id="Trazado_71288" class="st9" d="M2.4,26.1v0.8h0.8v0.5H1.9v-1.3H2.4z"/>
						<path id="Trazado_71289" class="st9" d="M10,26.9v0.5H8c0-0.1,0-0.3,0-0.4c0,0,0.1-0.1,0.1-0.1C8.7,26.9,9.4,26.9,10,26.9z"/>
						<path id="Trazado_71290" class="st9" d="M4.6,26.9h2v0.5h-2V26.9z"/>
						<path id="Trazado_71291" class="st9" d="M12.4,18.2l-0.5-0.1c0.1-0.5,0.2-1,0.2-1.5c0.1-0.5,0.1-0.5,0.6-0.4L12.4,18.2z"/>
						<path id="Trazado_71292" class="st9" d="M11.9,24.8l-0.1-1.9c0,0,0.1,0,0.1,0c0.5-0.1,0.5-0.1,0.5,0.4c0,0.4,0.1,0.8,0.1,1.2
							c0,0.3,0,0.3-0.3,0.4C12,24.8,12,24.8,11.9,24.8z"/>
						<path id="Trazado_71293" class="st9" d="M11.8,19.5l0.5,0v1.9h-0.5V19.5z"/>
						<path id="Trazado_71294" class="st9" d="M4.1,7.4V6.9c0.3,0,0.7,0,1,0C5.2,6.9,5.2,7,5.2,7c0,0.1,0,0.2,0,0.4L4.1,7.4z"/>
						<path id="Trazado_71295" class="st1" d="M29,26.1v1.3h-1.4v-0.5h0.8v-0.8L29,26.1z"/>
						<path id="Trazado_71296" class="st1" d="M29,25.5h-0.5c0-0.2,0-0.5,0-0.7c0-0.2-0.1-0.2-0.2-0.3c-0.2-0.1-0.4-0.1-0.7-0.2
							l0.2-0.5l1.2,0.3L29,25.5z"/>
						<path id="Trazado_71297" class="st1" d="M24,20.8l-0.4,0.4L22,19.8l0.2-0.4C22.9,19.7,23.5,20.2,24,20.8z"/>
						<path id="Trazado_71298" class="st1" d="M17.2,20l0.4,0.4L16.1,22l-0.4-0.3L17.2,20z"/>
						<path id="Trazado_71299" class="st1" d="M24.9,21.9l1.6,1.4l-0.3,0.4c-0.6-0.4-1.2-0.9-1.7-1.5L24.9,21.9z"/>
						<path id="Trazado_71300" class="st1" d="M20.8,18.9l-0.1,0.5c-0.7-0.1-1.3,0-2,0.3l-0.2-0.5C19.2,18.9,20,18.8,20.8,18.9z"/>
						<path id="Trazado_71301" class="st1" d="M19.1,27.4h-2.1v-0.5h2.1V27.4z"/>
						<path id="Trazado_71302" class="st1" d="M26.2,26.9v0.5h-2.1v-0.5H26.2z"/>
						<path id="Trazado_71303" class="st1" d="M20.6,27.4c-0.1-0.5-0.1-0.5,0.4-0.5h1.4c0.3,0,0.3,0,0.3,0.4c0,0.3-0.2,0.2-0.3,0.2
							C21.8,27.4,21.2,27.4,20.6,27.4z"/>
					</g>
				</g>
			</g>
		</g>
	</g>
	<g id="Grupo_47323" transform="translate(662.49 3765.663)">
		<g id="Grupo_26585-5" transform="translate(75.285 22.478)">
			<path id="Trazado_67426-5" class="st1" d="M0.4,38.9c-0.1,0-0.1,0-0.2-0.1c-0.2-0.1-0.3-0.3-0.1-0.5c0,0,0,0,0,0
				c0.7-1.3,1.4-2.6,2-3.9c0.1-0.2,0.3-0.3,0.5-0.2c0.2,0.1,0.3,0.3,0.2,0.5c-0.6,1.4-1.3,2.7-2,4C0.7,38.8,0.5,38.9,0.4,38.9z
				 M3.9,30.8c0,0-0.1,0-0.1,0c-0.2-0.1-0.3-0.3-0.3-0.5c0.4-1.4,0.8-2.8,1-4.2c0-0.2,0.2-0.4,0.5-0.3s0.4,0.2,0.3,0.5l0,0
				c-0.3,1.5-0.6,2.9-1.1,4.3C4.2,30.7,4.1,30.8,3.9,30.8L3.9,30.8z M5.5,22.1L5.5,22.1c-0.2,0-0.4-0.2-0.4-0.4c0,0,0,0,0,0
				c0.1-1,0.1-2,0.1-2.9c0-0.5,0-1,0-1.5c0-0.2,0.2-0.4,0.4-0.4c0.2,0,0.4,0.2,0.4,0.4c0,0.5,0,1,0,1.5c0,1,0,2-0.1,3
				C5.9,22,5.7,22.1,5.5,22.1L5.5,22.1z M5.2,13.3c-0.2,0-0.4-0.1-0.4-0.3c-0.2-1.4-0.5-2.9-0.9-4.3c0-0.2,0.1-0.4,0.3-0.5
				c0.2,0,0.4,0.1,0.4,0.3c0.4,1.4,0.7,2.9,0.9,4.4C5.6,13.1,5.5,13.3,5.2,13.3C5.2,13.3,5.2,13.3,5.2,13.3L5.2,13.3z M2.9,4.8
				c-0.2,0-0.3-0.1-0.4-0.2C2,3.2,1.4,1.9,0.7,0.6C0.6,0.4,0.7,0.1,0.9,0C1.1,0,1.3,0,1.4,0.2c0.7,1.3,1.3,2.7,1.9,4.1
				c0.1,0.2,0,0.4-0.2,0.5c0,0,0,0,0,0C3,4.8,2.9,4.8,2.9,4.8L2.9,4.8z"/>
		</g>
		<g id="Grupo_26586-5" transform="translate(1.398 1.698)">
			<path id="Trazado_67427-5" class="st1" d="M39.7,79.5c-1.4,0-2.9-0.1-4.3-0.2c-0.2,0-0.4-0.2-0.4-0.4c0-0.2,0.2-0.4,0.4-0.4l0,0
				c1.4,0.1,2.8,0.2,4.2,0.2h0.2c0.2,0,0.4,0.2,0.4,0.4c0,0,0,0,0,0c0,0.2-0.2,0.4-0.4,0.4c0,0,0,0,0,0L39.7,79.5z M44.3,79.2
				c-0.2,0-0.4-0.2-0.4-0.4c0-0.2,0.2-0.4,0.4-0.4c1.5-0.2,2.9-0.4,4.3-0.7c0.2,0,0.4,0.1,0.5,0.3s-0.1,0.4-0.3,0.5
				C47.3,78.8,45.9,79.1,44.3,79.2L44.3,79.2z M31.1,78.6C31.1,78.6,31.1,78.6,31.1,78.6c-1.5-0.3-3-0.7-4.4-1.2
				c-0.2-0.1-0.3-0.3-0.2-0.5c0.1-0.2,0.3-0.3,0.5-0.2c1.4,0.5,2.8,0.9,4.2,1.2c0.2,0,0.3,0.3,0.3,0.5
				C31.5,78.5,31.3,78.6,31.1,78.6L31.1,78.6z M52.9,77.2c-0.2,0-0.4-0.2-0.4-0.4c0-0.2,0.1-0.3,0.2-0.4c1.3-0.5,2.6-1.1,3.8-1.8
				c0.2-0.1,0.4,0,0.5,0.1c0.1,0.2,0.1,0.4-0.1,0.5c-1.2,0.8-2.6,1.4-3.9,1.9C53,77.2,52.9,77.2,52.9,77.2L52.9,77.2z M22.8,75.8
				c-0.1,0-0.1,0-0.2,0c-1.3-0.6-2.6-1.4-3.9-2.2c-0.2-0.1-0.2-0.4-0.1-0.5s0.4-0.2,0.5-0.1c1.2,0.8,2.5,1.5,3.8,2.1
				c0.2,0.1,0.3,0.3,0.2,0.5C23.1,75.7,22.9,75.8,22.8,75.8L22.8,75.8z M15.3,71c-0.1,0-0.2,0-0.2-0.1c-1.2-0.9-2.3-1.9-3.3-3
				c-0.2-0.2-0.2-0.4,0-0.6c0.2-0.2,0.4-0.2,0.6,0l0,0c1,1,2.1,2,3.3,2.9c0.2,0.1,0.2,0.4,0.1,0.6C15.6,71,15.5,71,15.3,71L15.3,71z
				 M9.1,64.8c-0.1,0-0.2-0.1-0.3-0.1C7.9,63.5,7,62.3,6.2,61c-0.1-0.2-0.1-0.4,0.1-0.5c0.2-0.1,0.4-0.1,0.5,0.1
				c0.8,1.2,1.6,2.4,2.5,3.6c0.1,0.2,0.1,0.4-0.1,0.6C9.3,64.8,9.2,64.8,9.1,64.8L9.1,64.8z M4.4,57.3c-0.2,0-0.3-0.1-0.4-0.2
				c-0.7-1.3-1.2-2.7-1.7-4.1c-0.1-0.2,0-0.4,0.2-0.5c0.2-0.1,0.4,0,0.5,0.2c0.5,1.4,1.1,2.7,1.7,4c0.1,0.2,0,0.4-0.2,0.5
				c0,0,0,0,0,0C4.5,57.3,4.4,57.3,4.4,57.3L4.4,57.3z M1.4,49c-0.2,0-0.3-0.1-0.4-0.3c-0.3-1.5-0.6-2.9-0.8-4.4
				c0-0.2,0.1-0.4,0.3-0.4S1,44,1.1,44.2c0.2,1.4,0.4,2.9,0.7,4.3C1.8,48.8,1.7,49,1.4,49C1.5,49,1.5,49,1.4,49
				C1.5,49,1.4,49,1.4,49L1.4,49z M0.4,40.3c-0.2,0-0.4-0.2-0.4-0.4v-0.2c0-1.4,0.1-2.8,0.2-4.2l0-0.1c0-0.2,0.2-0.4,0.4-0.4
				S1,35.3,1,35.5l0,0.1c-0.1,1.4-0.2,2.7-0.2,4.1v0.2C0.8,40.1,0.6,40.3,0.4,40.3C0.4,40.3,0.4,40.3,0.4,40.3L0.4,40.3z M1.3,31.5
				c-0.2,0-0.4-0.2-0.4-0.4c0,0,0-0.1,0-0.1c0.3-1.5,0.7-2.9,1.2-4.3c0.1-0.2,0.3-0.3,0.5-0.2C2.9,26.5,3,26.8,2.9,27
				c-0.5,1.4-0.9,2.8-1.2,4.2C1.7,31.4,1.5,31.5,1.3,31.5L1.3,31.5z M4.2,23.1c-0.2,0-0.4-0.2-0.4-0.4c0-0.1,0-0.1,0-0.2
				c0.6-1.3,1.3-2.7,2.1-3.9c0.1-0.2,0.4-0.2,0.5-0.1c0.2,0.1,0.2,0.3,0.1,0.5c-0.8,1.2-1.5,2.5-2.1,3.8C4.5,23.1,4.3,23.2,4.2,23.1
				L4.2,23.1z M8.8,15.6c-0.1,0-0.2,0-0.2-0.1c-0.2-0.1-0.2-0.4-0.1-0.6c0,0,0,0,0,0c0.9-1.2,1.9-2.3,2.9-3.4c0.2-0.2,0.4-0.2,0.6,0
				c0.2,0.2,0.2,0.4,0,0.6c-1,1-2,2.1-2.9,3.3C9.1,15.6,8.9,15.6,8.8,15.6L8.8,15.6z M15,9.4c-0.2,0-0.4-0.2-0.4-0.4
				c0-0.1,0.1-0.2,0.1-0.3c1.2-0.9,2.4-1.8,3.6-2.6c0.2-0.1,0.4-0.1,0.5,0.1C19,6.3,19,6.6,18.8,6.7c-1.2,0.8-2.4,1.6-3.5,2.6
				C15.2,9.3,15.1,9.4,15,9.4L15,9.4z M22.4,4.6c-0.2,0-0.4-0.2-0.4-0.4c0-0.1,0.1-0.3,0.2-0.4c1.3-0.7,2.7-1.2,4.1-1.8
				c0.2-0.1,0.4,0.1,0.5,0.3c0.1,0.2,0,0.4-0.2,0.5c-1.4,0.5-2.7,1.1-4,1.7C22.5,4.6,22.5,4.6,22.4,4.6L22.4,4.6z M30.7,1.6
				c-0.2,0-0.4-0.2-0.4-0.4c0-0.2,0.1-0.3,0.3-0.4C32.1,0.5,33.5,0.2,35,0c0.2,0,0.4,0.1,0.4,0.3c0,0.2-0.1,0.4-0.3,0.4l0,0
				C33.7,1,32.2,1.2,30.7,1.6C30.8,1.6,30.8,1.6,30.7,1.6L30.7,1.6z"/>
		</g>
		<g id="Grupo_47319-5" transform="translate(-67.207 34.693)">
			<g id="Grupo_18423-5" transform="translate(75 -27)">
				<g id="Grupo_18421-5">
					<g id="Grupo_18420-5">
						<g id="Grupo_18419-5">
							<path id="Trazado_40936-5" class="st4" d="M67,33.5C67,52,52,67,33.5,67S0,52,0,33.5C0,15,15,0,33.5,0c0,0,0,0,0,0
								C52,0,67,15,67,33.5z"/>
						</g>
					</g>
				</g>
				
					<radialGradient id="Trazado_40937-5_1_" cx="-267.2324" cy="601.3997" r="1.465" gradientTransform="matrix(67.0423 0 0 -67.0425 17921.0391 40320.5977)" gradientUnits="userSpaceOnUse">
					<stop  offset="0" style="stop-color:#F6F6F7"/>
					<stop  offset="0.477" style="stop-color:#F9F9FA"/>
					<stop  offset="0.715" style="stop-color:#FFFFFF"/>
				</radialGradient>
				<path id="Trazado_40937-5" class="st14" d="M67,33.5C67,15,52,0,33.5,0S0,15,0,33.5C0,52,15,67,33.5,67C52,67.1,67,52.2,67,33.8
					C67,33.7,67,33.6,67,33.5z"/>
				<path id="Trazado_40938-5" class="st6" d="M59.2,33.6C59.2,19.5,47.8,8,33.6,8S8,19.5,8,33.6s11.5,25.6,25.6,25.6c0,0,0,0,0,0
					c14.1,0.1,25.5-11.3,25.6-25.4C59.2,33.8,59.2,33.7,59.2,33.6z"/>
				<g id="Grupo_18422-5" transform="translate(5.939 18.82)">
					<path id="Trazado_40939-5" class="st7" d="M57.7,0c7.5,16.9-0.1,36.7-17,44.3C26.3,50.7,9.3,46.1,0,33.4
						c10.3,15.3,31.1,19.3,46.4,9C60.2,33,65,15,57.7,0z"/>
				</g>
				<g id="Grupo_47321-5" transform="translate(51.794 54.837)">
					<g id="Grupo_26675-5">
						<g id="Grupo_26674-5">
							<path id="Trazado_67515-5" class="st4" d="M20.6,10.5l-1.4-3.3C19,6.6,18.6,6,18.2,5.6l-4.8-4.8c-0.5-0.5-1.3-0.5-1.8,0
								c-0.5,0.4-0.5,1.2-0.1,1.6c0,0,0,0,0.1,0.1L14,4.8l-3.3-3.3C10.1,1,9.2,1,8.7,1.5C8.2,2,8.2,2.9,8.7,3.4l0,0l3.1,3.1L11.3,6
								L8.1,2.9C7.6,2.3,6.7,2.4,6.2,2.9c-0.5,0.5-0.5,1.4,0,1.9l3.7,3.7L2.7,1.3c-0.5-0.5-1.4-0.5-1.9,0c-0.5,0.5-0.5,1.4,0,1.9
								l7.1,7.1l0,0.1L4.5,9.2C3.7,9,3,9.5,2.8,10.3C2.6,11,3,11.7,3.7,12l6.1,3.3l4.6,1.5L20.6,10.5z"/>
							<path id="Trazado_67516-5" class="st1" d="M14.4,17.2c0,0-0.1,0-0.1,0l-4.6-1.5c0,0,0,0-0.1,0l-6-3.3C2.6,12,2.1,11,2.5,10
								c0.3-0.9,1.2-1.4,2.1-1.2l0,0l1.9,0.6l-6-6C0.2,3.2,0,2.7,0,2.3c0-1,0.8-1.7,1.8-1.8h0C2.2,0.5,2.7,0.7,3,1l2.5,2.5
								c0.2-0.8,0.9-1.4,1.7-1.4h0c0.3,0,0.5,0.1,0.7,0.2c0.1-0.9,0.9-1.5,1.7-1.5h0c0.5,0,0.9,0.2,1.2,0.5c0.1-0.3,0.2-0.5,0.4-0.7
								c0.6-0.6,1.7-0.7,2.3,0l4.8,4.8c0.5,0.5,0.9,1.1,1.2,1.8l1.4,3.3c0.1,0.1,0,0.3-0.1,0.4L14.7,17
								C14.6,17.1,14.5,17.2,14.4,17.2z M10,14.9l4.3,1.4l5.8-5.9l-1.3-3.1c-0.2-0.6-0.6-1.1-1-1.5L13.1,1c-0.3-0.3-0.9-0.3-1.2,0
								c-0.2,0.1-0.3,0.4-0.3,0.6c0,0.2,0.1,0.4,0.2,0.6l2.4,2.4c0.2,0.2,0.2,0.4,0,0.6c-0.2,0.2-0.4,0.2-0.6,0l-3.3-3.3
								c-0.2-0.2-0.4-0.3-0.7-0.3c-0.5,0-1,0.4-1,1C8.7,2.7,8.8,3,9,3.1l3.1,3.1c0.1,0.2,0.1,0.4,0,0.6C12,7,11.7,7,11.6,6.8
								L7.9,3.1C7.7,3,7.4,2.9,7.2,2.9C6.9,2.9,6.7,3,6.5,3.1c-0.4,0.4-0.4,1,0,1.4l3.7,3.7c0.2,0.2,0.2,0.4,0,0.6
								c-0.2,0.2-0.4,0.2-0.6,0l0,0L2.4,1.6C2.3,1.4,2,1.3,1.8,1.3c-0.5,0-1,0.4-1,1c0,0.3,0.1,0.5,0.3,0.7L8.1,10c0,0,0,0,0,0
								l0,0.1c0.1,0.2,0.1,0.4-0.1,0.5c-0.1,0.1-0.2,0.1-0.4,0.1L4.4,9.6c-0.6-0.1-1.1,0.2-1.2,0.8c0,0,0,0,0,0
								c-0.1,0.5,0.2,1,0.7,1.2c0,0,0,0,0.1,0L10,14.9z"/>
						</g>
					</g>
					<g id="Grupo_26676-5" transform="translate(13.612 9.773)">
						
							<rect id="Rectángulo_25697-5" x="-0.3" y="3.6" transform="matrix(0.7071 -0.7071 0.7071 0.7071 -1.952 4.7113)" class="st8" width="9.9" height="2.3"/>
						<path id="Trazado_67517-5" class="st1" d="M2,9.4c-0.1,0-0.2,0-0.3-0.1L0.1,7.7C0,7.5,0,7.3,0.1,7.1l7-7C7.3,0,7.5,0,7.7,0.1
							l1.6,1.6c0.2,0.2,0.2,0.4,0,0.6c0,0,0,0,0,0l-7,7C2.2,9.4,2.1,9.4,2,9.4z M0.9,7.4L2,8.5L8.5,2L7.4,0.9L0.9,7.4z"/>
					</g>
				</g>
				<g id="Grupo_47329" transform="translate(120.479 103.011)">
					<g id="Grupo_47328" transform="translate(-100.283 -85.356)">
						<path id="Trazado_71270" class="st1" d="M5.4,29.6c-0.1-0.2-0.1-0.5-0.2-0.7c-0.1-0.3,0-0.6,0.3-0.7c0.3-0.1,0.6,0,0.7,0.3
							c0,0,0,0.1,0,0.1c0.1,0.2,0.1,0.4,0.2,0.7l1.7-0.5C8,28.5,8,28.2,7.9,28c-0.1-0.3,0-0.6,0.3-0.7c0.3-0.1,0.6,0,0.7,0.3
							c0,0,0,0,0,0.1c0.1,0.2,0.1,0.5,0.2,0.7l1.7-0.5c-0.1-0.3-0.2-0.5-0.2-0.7c-0.1-0.3,0-0.6,0.3-0.7c0.3-0.1,0.6,0,0.7,0.3
							c0,0,0,0,0,0.1c0.1,0.2,0.2,0.5,0.2,0.7l1.7-0.5c-0.1-0.3-0.2-0.5-0.2-0.7c-0.1-0.2,0-0.5,0.2-0.6c0.2-0.2,0.6-0.1,0.7,0.2
							c0,0,0,0.1,0.1,0.1c0.1,0.2,0.2,0.5,0.2,0.7l1.7-0.5c-0.1-0.3-0.2-0.5-0.2-0.7c-0.1-0.3,0.1-0.6,0.3-0.7c0.1,0,0.2,0,0.3,0
							c0.2,0,0.4,0.2,0.5,0.4c0.1,0.2,0.2,0.5,0.2,0.7l0.8-0.3l0.9-0.3C19,25,19,24.7,18.9,24.5c-0.1-0.3,0-0.6,0.3-0.7
							c0.1,0,0.2,0,0.3,0c0.2,0,0.4,0.2,0.4,0.4c0.1,0.2,0.2,0.5,0.2,0.7l1.7-0.5c-0.1-0.2-0.2-0.5-0.2-0.7c-0.1-0.3,0-0.6,0.3-0.7
							c0.1,0,0.2,0,0.3,0c0.2,0,0.3,0.2,0.4,0.4c0.1,0.2,0.1,0.5,0.2,0.7l1-0.3l1-0.3c-0.1-0.2-0.2-0.4-0.2-0.5
							c-0.1-0.3,0-0.6,0.2-0.8c0,0,0,0,0,0c0.3-0.1,0.6,0,0.7,0.3c0,0,0,0,0,0.1c0.1,0.2,0.2,0.4,0.3,0.6l0.7-0.2
							c0.9-0.3,1.7-0.5,2.6-0.8c0.3-0.1,0.4-0.2,0.3-0.5c-0.4-1.3-0.8-2.6-1.2-3.9c-0.1-0.3-0.2-0.4-0.6-0.3l-3.9,1.2
							c-0.2,0.1-0.5,0-0.7-0.2c-0.1-0.2-0.2-0.4,0-0.6c0.1-0.1,0.2-0.2,0.3-0.2c1.3-0.4,2.7-0.9,4-1.3c0.7-0.2,1.5,0.2,1.7,0.9
							c0.5,1.4,0.9,2.8,1.3,4.2c0.2,0.7-0.2,1.5-0.9,1.7c0,0,0,0,0,0c-1.2,0.4-2.4,0.7-3.6,1.1c-1.2,0.4-2.4,0.8-3.7,1.2
							c-3.4,1.1-6.9,2.2-10.3,3.3c-2.9,0.9-5.8,1.9-8.8,2.8c-0.7,0.3-1.5-0.1-1.8-0.8c0-0.1,0-0.1-0.1-0.2c-0.4-1.3-0.9-2.7-1.3-4
							c-0.3-0.7,0.1-1.5,0.9-1.8c0,0,0.1,0,0.1,0c3.6-1.1,7.1-2.3,10.7-3.4l8-2.5c0.2-0.1,0.5,0,0.7,0.2c0.2,0.2,0.1,0.6-0.1,0.8
							c-0.1,0.1-0.1,0.1-0.2,0.1l-2.5,0.8l-5.9,1.9l-9.4,3c-0.3,0.1-0.5,0.2-0.7,0.2c-0.2,0-0.3,0.2-0.3,0.4c0,0,0,0.1,0,0.1
							c0.4,1.3,0.8,2.5,1.2,3.8c0,0.1,0,0.2,0.1,0.2c0,0.2,0.2,0.3,0.4,0.3c0,0,0.1,0,0.1,0L5.4,29.6z"/>
						<path id="Trazado_71271" class="st1" d="M3.9,11.5C3.9,8.8,4,6,4,3.3c0-0.7,0-1.5,0-2.2C4,0.5,4.4,0,4.9,0
							c0.2,0,0.4,0,0.5,0.1c3,1.1,6.1,2.2,9.1,3.3c3,1.1,6,2.2,9,3.3c0.5,0.2,1,0.4,1.5,0.5c0.4,0.1,0.7,0.4,0.7,0.8
							c0.1,0.4-0.1,0.8-0.5,1c-4.3,2.9-8.5,5.9-12.8,8.8c-1.1,0.8-2.2,1.6-3.3,2.4c-0.8,0.6-1.6,1.1-2.4,1.6c-0.5,0.3-1,0.7-1.5,1
							c-0.3,0.2-0.7,0.3-1.1,0.1C4,22.7,3.8,22.4,3.8,22c0-2.7,0.1-5.4,0.1-8.1C3.9,13.1,3.9,12.3,3.9,11.5L3.9,11.5z M5.1,1.1
							C5,8,5,14.9,4.9,21.9l3.2-2.1c-0.1-0.1-0.1-0.2-0.2-0.3c-0.2-0.2-0.1-0.6,0.1-0.8c0.2-0.2,0.6-0.1,0.8,0.1
							C8.8,18.9,8.9,19,9,19.1l2.1-1.5c-0.3-0.4-0.3-0.7,0-0.9c0.3-0.2,0.5-0.1,0.9,0.3l1.6-1.1c-0.3-0.5-0.3-0.8,0-0.9
							c0.1-0.1,0.2-0.1,0.4-0.1c0.2,0.1,0.4,0.2,0.6,0.4l1.5-1.1c-0.3-0.4-0.3-0.7,0-0.9c0.3-0.2,0.5-0.2,1,0.3l1.6-1.1
							c-0.3-0.5-0.3-0.8,0-1c0.3-0.2,0.5-0.1,0.9,0.3l1.6-1.1c-0.3-0.5-0.3-0.8,0-0.9c0.1-0.1,0.2-0.1,0.4-0.1
							c0.3,0,0.4,0.2,0.6,0.4l2.7-1.9L5.1,1.1z"/>
						<path id="Trazado_71272" class="st9" d="M7.1,10.8c0-1.8,0-3.7,0.1-5.5c0-0.4,0.3-0.8,0.7-0.8c0.1,0,0.2,0,0.3,0.1
							c3.1,1.1,6.2,2.3,9.3,3.4l1.1,0.4c0.4,0.1,0.6,0.6,0.5,1c-0.1,0.2-0.2,0.3-0.3,0.4c-2.9,2-5.9,4.1-8.8,6.1
							c-0.6,0.4-1.1,0.8-1.7,1.2c-0.2,0.2-0.6,0.2-0.9,0.1C7.2,16.9,7,16.6,7,16.3c0-1.7,0-3.5,0.1-5.2C7.1,11,7.1,10.9,7.1,10.8
							L7.1,10.8z M17.7,9.1L8.3,5.7c0,3.4-0.1,6.7-0.1,10.1L17.7,9.1z"/>
					</g>
				</g>
			</g>
		</g>
	</g>
	<g id="Grupo_47325" transform="translate(904.434 3765.663)">
		<g id="Grupo_26585-6" transform="translate(75.285 22.478)">
			<path id="Trazado_67426-6" class="st1" d="M0.4,38.9c-0.1,0-0.1,0-0.2-0.1c-0.2-0.1-0.3-0.3-0.1-0.5c0,0,0,0,0,0
				c0.7-1.3,1.4-2.6,2-3.9c0.1-0.2,0.3-0.3,0.5-0.2c0.2,0.1,0.3,0.3,0.2,0.5c-0.6,1.4-1.3,2.7-2,4C0.7,38.8,0.5,38.9,0.4,38.9z
				 M3.9,30.8c0,0-0.1,0-0.1,0c-0.2-0.1-0.3-0.3-0.3-0.5c0.4-1.4,0.8-2.8,1-4.2c0-0.2,0.2-0.4,0.5-0.3s0.4,0.2,0.3,0.5l0,0
				c-0.3,1.5-0.6,2.9-1.1,4.3C4.2,30.7,4.1,30.8,3.9,30.8L3.9,30.8z M5.5,22.1L5.5,22.1c-0.2,0-0.4-0.2-0.4-0.4c0,0,0,0,0,0
				c0.1-1,0.1-2,0.1-2.9c0-0.5,0-1,0-1.5c0-0.2,0.2-0.4,0.4-0.4c0.2,0,0.4,0.2,0.4,0.4c0,0.5,0,1,0,1.5c0,1,0,2-0.1,3
				C5.9,22,5.7,22.1,5.5,22.1L5.5,22.1z M5.2,13.3c-0.2,0-0.4-0.1-0.4-0.3c-0.2-1.4-0.5-2.9-0.9-4.3c0-0.2,0.1-0.4,0.3-0.5
				c0.2,0,0.4,0.1,0.4,0.3c0.4,1.4,0.7,2.9,0.9,4.4C5.6,13.1,5.5,13.3,5.2,13.3C5.2,13.3,5.2,13.3,5.2,13.3L5.2,13.3z M2.9,4.8
				c-0.2,0-0.3-0.1-0.4-0.2C2,3.2,1.4,1.9,0.7,0.6C0.6,0.4,0.7,0.1,0.9,0C1.1,0,1.3,0,1.4,0.2c0.7,1.3,1.3,2.7,1.9,4.1
				c0.1,0.2,0,0.4-0.2,0.5c0,0,0,0,0,0C3,4.8,2.9,4.8,2.9,4.8L2.9,4.8z"/>
		</g>
		<g id="Grupo_26586-6" transform="translate(1.398 1.698)">
			<path id="Trazado_67427-6" class="st1" d="M39.7,79.5c-1.4,0-2.9-0.1-4.3-0.2c-0.2,0-0.4-0.2-0.4-0.4c0-0.2,0.2-0.4,0.4-0.4l0,0
				c1.4,0.1,2.8,0.2,4.2,0.2h0.2c0.2,0,0.4,0.2,0.4,0.4c0,0,0,0,0,0c0,0.2-0.2,0.4-0.4,0.4c0,0,0,0,0,0L39.7,79.5z M44.3,79.2
				c-0.2,0-0.4-0.2-0.4-0.4c0-0.2,0.2-0.4,0.4-0.4c1.5-0.2,2.9-0.4,4.3-0.7c0.2,0,0.4,0.1,0.5,0.3s-0.1,0.4-0.3,0.5
				C47.3,78.8,45.9,79.1,44.3,79.2L44.3,79.2z M31.1,78.6C31.1,78.6,31.1,78.6,31.1,78.6c-1.5-0.3-3-0.7-4.4-1.2
				c-0.2-0.1-0.3-0.3-0.2-0.5c0.1-0.2,0.3-0.3,0.5-0.2c1.4,0.5,2.8,0.9,4.2,1.2c0.2,0,0.3,0.3,0.3,0.5
				C31.5,78.5,31.3,78.6,31.1,78.6L31.1,78.6z M52.9,77.2c-0.2,0-0.4-0.2-0.4-0.4c0-0.2,0.1-0.3,0.2-0.4c1.3-0.5,2.6-1.1,3.8-1.8
				c0.2-0.1,0.4,0,0.5,0.1c0.1,0.2,0.1,0.4-0.1,0.5c-1.2,0.8-2.6,1.4-3.9,1.9C53,77.2,52.9,77.2,52.9,77.2L52.9,77.2z M22.8,75.8
				c-0.1,0-0.1,0-0.2,0c-1.3-0.6-2.6-1.4-3.9-2.2c-0.2-0.1-0.2-0.4-0.1-0.5s0.4-0.2,0.5-0.1c1.2,0.8,2.5,1.5,3.8,2.1
				c0.2,0.1,0.3,0.3,0.2,0.5C23.1,75.7,22.9,75.8,22.8,75.8L22.8,75.8z M15.3,71c-0.1,0-0.2,0-0.2-0.1c-1.2-0.9-2.3-1.9-3.3-3
				c-0.2-0.2-0.2-0.4,0-0.6c0.2-0.2,0.4-0.2,0.6,0l0,0c1,1,2.1,2,3.3,2.9c0.2,0.1,0.2,0.4,0.1,0.6C15.6,71,15.5,71,15.3,71L15.3,71z
				 M9.1,64.8c-0.1,0-0.2-0.1-0.3-0.1C7.9,63.5,7,62.3,6.2,61c-0.1-0.2-0.1-0.4,0.1-0.5c0.2-0.1,0.4-0.1,0.5,0.1
				c0.8,1.2,1.6,2.4,2.5,3.6c0.1,0.2,0.1,0.4-0.1,0.6C9.3,64.8,9.2,64.8,9.1,64.8L9.1,64.8z M4.4,57.3c-0.2,0-0.3-0.1-0.4-0.2
				c-0.7-1.3-1.2-2.7-1.7-4.1c-0.1-0.2,0-0.4,0.2-0.5c0.2-0.1,0.4,0,0.5,0.2c0.5,1.4,1.1,2.7,1.7,4c0.1,0.2,0,0.4-0.2,0.5
				c0,0,0,0,0,0C4.5,57.3,4.4,57.3,4.4,57.3L4.4,57.3z M1.4,49c-0.2,0-0.3-0.1-0.4-0.3c-0.3-1.5-0.6-2.9-0.8-4.4
				c0-0.2,0.1-0.4,0.3-0.4S1,44,1.1,44.2c0.2,1.4,0.4,2.9,0.7,4.3C1.8,48.8,1.7,49,1.4,49C1.5,49,1.5,49,1.4,49
				C1.5,49,1.4,49,1.4,49L1.4,49z M0.4,40.3c-0.2,0-0.4-0.2-0.4-0.4v-0.2c0-1.4,0.1-2.8,0.2-4.2l0-0.1c0-0.2,0.2-0.4,0.4-0.4
				S1,35.3,1,35.5l0,0.1c-0.1,1.4-0.2,2.7-0.2,4.1v0.2C0.8,40.1,0.6,40.3,0.4,40.3C0.4,40.3,0.4,40.3,0.4,40.3L0.4,40.3z M1.3,31.5
				c-0.2,0-0.4-0.2-0.4-0.4c0,0,0-0.1,0-0.1c0.3-1.5,0.7-2.9,1.2-4.3c0.1-0.2,0.3-0.3,0.5-0.2C2.9,26.5,3,26.8,2.9,27
				c-0.5,1.4-0.9,2.8-1.2,4.2C1.7,31.4,1.5,31.5,1.3,31.5L1.3,31.5z M4.2,23.1c-0.2,0-0.4-0.2-0.4-0.4c0-0.1,0-0.1,0-0.2
				c0.6-1.3,1.3-2.7,2.1-3.9c0.1-0.2,0.4-0.2,0.5-0.1c0.2,0.1,0.2,0.3,0.1,0.5c-0.8,1.2-1.5,2.5-2.1,3.8C4.5,23.1,4.3,23.2,4.2,23.1
				L4.2,23.1z M8.8,15.6c-0.1,0-0.2,0-0.2-0.1c-0.2-0.1-0.2-0.4-0.1-0.6c0,0,0,0,0,0c0.9-1.2,1.9-2.3,2.9-3.4c0.2-0.2,0.4-0.2,0.6,0
				c0.2,0.2,0.2,0.4,0,0.6c-1,1-2,2.1-2.9,3.3C9.1,15.6,8.9,15.6,8.8,15.6L8.8,15.6z M15,9.4c-0.2,0-0.4-0.2-0.4-0.4
				c0-0.1,0.1-0.2,0.1-0.3c1.2-0.9,2.4-1.8,3.6-2.6c0.2-0.1,0.4-0.1,0.5,0.1C19,6.3,19,6.6,18.8,6.7c-1.2,0.8-2.4,1.6-3.5,2.6
				C15.2,9.3,15.1,9.4,15,9.4L15,9.4z M22.4,4.6c-0.2,0-0.4-0.2-0.4-0.4c0-0.1,0.1-0.3,0.2-0.4c1.3-0.7,2.7-1.2,4.1-1.8
				c0.2-0.1,0.4,0.1,0.5,0.3c0.1,0.2,0,0.4-0.2,0.5c-1.4,0.5-2.7,1.1-4,1.7C22.5,4.6,22.5,4.6,22.4,4.6L22.4,4.6z M30.7,1.6
				c-0.2,0-0.4-0.2-0.4-0.4c0-0.2,0.1-0.3,0.3-0.4C32.1,0.5,33.5,0.2,35,0c0.2,0,0.4,0.1,0.4,0.3c0,0.2-0.1,0.4-0.3,0.4l0,0
				C33.7,1,32.2,1.2,30.7,1.6C30.8,1.6,30.8,1.6,30.7,1.6L30.7,1.6z"/>
		</g>
		<g id="Grupo_47319-6" transform="translate(-67.207 34.693)">
			<g id="Grupo_18423-6" transform="translate(75 -27)">
				<g id="Grupo_18421-6">
					<g id="Grupo_18420-6">
						<g id="Grupo_18419-6">
							<path id="Trazado_40936-6" class="st4" d="M67,33.5C67,52,52,67,33.5,67S0,52,0,33.5C0,15,15,0,33.5,0c0,0,0,0,0,0
								C52,0,67,15,67,33.5z"/>
						</g>
					</g>
				</g>
				
					<radialGradient id="Trazado_40937-6_1_" cx="-509.1765" cy="601.3997" r="1.465" gradientTransform="matrix(67.0423 0 0 -67.0425 34141.5234 40320.5977)" gradientUnits="userSpaceOnUse">
					<stop  offset="0" style="stop-color:#F6F6F7"/>
					<stop  offset="0.477" style="stop-color:#F9F9FA"/>
					<stop  offset="0.715" style="stop-color:#FFFFFF"/>
				</radialGradient>
				<path id="Trazado_40937-6" class="st15" d="M67,33.5C67,15,52,0,33.5,0S0,15,0,33.5C0,52,15,67,33.5,67C52,67.1,67,52.2,67,33.8
					C67,33.7,67,33.6,67,33.5z"/>
				<path id="Trazado_40938-6" class="st6" d="M59.2,33.6C59.2,19.5,47.8,8,33.6,8S8,19.5,8,33.6s11.5,25.6,25.6,25.6c0,0,0,0,0,0
					c14.1,0.1,25.5-11.3,25.6-25.4C59.2,33.8,59.2,33.7,59.2,33.6z"/>
				<g id="Grupo_18422-6" transform="translate(5.939 18.82)">
					<path id="Trazado_40939-6" class="st7" d="M57.7,0c7.5,16.9-0.1,36.7-17,44.3C26.3,50.7,9.3,46.1,0,33.4
						c10.3,15.3,31.1,19.3,46.4,9C60.2,33,65,15,57.7,0z"/>
				</g>
				<g id="Grupo_47321-6" transform="translate(51.794 54.837)">
					<g id="Grupo_26675-6">
						<g id="Grupo_26674-6">
							<path id="Trazado_67515-6" class="st4" d="M20.6,10.5l-1.4-3.3C19,6.6,18.6,6,18.2,5.6l-4.8-4.8c-0.5-0.5-1.3-0.5-1.8,0
								c-0.5,0.4-0.5,1.2-0.1,1.6c0,0,0,0,0.1,0.1L14,4.8l-3.3-3.3C10.1,1,9.2,1,8.7,1.5C8.2,2,8.2,2.9,8.7,3.4l0,0l3.1,3.1L11.3,6
								L8.1,2.9C7.6,2.3,6.7,2.4,6.2,2.9c-0.5,0.5-0.5,1.4,0,1.9l3.7,3.7L2.7,1.3c-0.5-0.5-1.4-0.5-1.9,0c-0.5,0.5-0.5,1.4,0,1.9
								l7.1,7.1l0,0.1L4.5,9.2C3.7,9,3,9.5,2.8,10.3C2.6,11,3,11.7,3.7,12l6.1,3.3l4.6,1.5L20.6,10.5z"/>
							<path id="Trazado_67516-6" class="st1" d="M14.4,17.2c0,0-0.1,0-0.1,0l-4.6-1.5c0,0,0,0-0.1,0l-6-3.3C2.6,12,2.1,11,2.5,10
								c0.3-0.9,1.2-1.4,2.1-1.2l0,0l1.9,0.6l-6-6C0.2,3.2,0,2.7,0,2.3c0-1,0.8-1.7,1.8-1.8h0C2.2,0.5,2.7,0.7,3,1l2.5,2.5
								c0.2-0.8,0.9-1.4,1.7-1.4h0c0.3,0,0.5,0.1,0.7,0.2c0.1-0.9,0.9-1.5,1.7-1.5h0c0.5,0,0.9,0.2,1.2,0.5c0.1-0.3,0.2-0.5,0.4-0.7
								c0.6-0.6,1.7-0.7,2.3,0l4.8,4.8c0.5,0.5,0.9,1.1,1.2,1.8l1.4,3.3c0.1,0.1,0,0.3-0.1,0.4L14.7,17
								C14.6,17.1,14.5,17.2,14.4,17.2z M10,14.9l4.3,1.4l5.8-5.9l-1.3-3.1c-0.2-0.6-0.6-1.1-1-1.5L13.1,1c-0.3-0.3-0.9-0.3-1.2,0
								c-0.2,0.1-0.3,0.4-0.3,0.6c0,0.2,0.1,0.4,0.2,0.6l2.4,2.4c0.2,0.2,0.2,0.4,0,0.6c-0.2,0.2-0.4,0.2-0.6,0l-3.3-3.3
								c-0.2-0.2-0.4-0.3-0.7-0.3c-0.5,0-1,0.4-1,1C8.7,2.7,8.8,3,9,3.1l3.1,3.1c0.1,0.2,0.1,0.4,0,0.6C12,7,11.7,7,11.6,6.8
								L7.9,3.1C7.7,3,7.4,2.9,7.2,2.9C6.9,2.9,6.7,3,6.5,3.1c-0.4,0.4-0.4,1,0,1.4l3.7,3.7c0.2,0.2,0.2,0.4,0,0.6
								c-0.2,0.2-0.4,0.2-0.6,0l0,0L2.4,1.6C2.3,1.4,2,1.3,1.8,1.3c-0.5,0-1,0.4-1,1c0,0.3,0.1,0.5,0.3,0.7L8.1,10c0,0,0,0,0,0
								l0,0.1c0.1,0.2,0.1,0.4-0.1,0.5c-0.1,0.1-0.2,0.1-0.4,0.1L4.4,9.6c-0.6-0.1-1.1,0.2-1.2,0.8c0,0,0,0,0,0
								c-0.1,0.5,0.2,1,0.7,1.2c0,0,0,0,0.1,0L10,14.9z"/>
						</g>
					</g>
					<g id="Grupo_26676-6" transform="translate(13.612 9.773)">
						
							<rect id="Rectángulo_25697-6" x="-0.3" y="3.6" transform="matrix(0.7071 -0.7071 0.7071 0.7071 -1.952 4.7113)" class="st8" width="9.9" height="2.3"/>
						<path id="Trazado_67517-6" class="st1" d="M2,9.4c-0.1,0-0.2,0-0.3-0.1L0.1,7.7C0,7.5,0,7.3,0.1,7.1l7-7C7.3,0,7.5,0,7.7,0.1
							l1.6,1.6c0.2,0.2,0.2,0.4,0,0.6c0,0,0,0,0,0l-7,7C2.2,9.4,2.1,9.4,2,9.4z M0.9,7.4L2,8.5L8.5,2L7.4,0.9L0.9,7.4z"/>
					</g>
				</g>
				<g id="Grupo_47327" transform="translate(-68.713 -507.074)">
					<path id="Trazado_71265" class="st1" d="M99.5,542.2l3.2-0.5c0,0.3,0,0.7,0,1c0,0.9,0,1.8,0,2.7c0,0.4,0.3,0.8,0.7,0.9
						c0.4,0.1,0.8-0.1,0.9-0.5c0.1-0.2,0.1-0.4,0.1-0.5c0-1.3,0-2.6,0-3.9c0-0.2,0.1-0.4,0.3-0.4c1-0.4,1.9-0.9,2.7-1.5
						c0,0.1,0,0.2,0,0.3c0,2.7,0,5.4,0,8.1c0,0.7-0.3,1.3-0.9,1.7c-1,0.9-2.2,1.5-3.5,1.8c-2.2,0.6-4.5,0.9-6.8,0.8
						c-1.9-0.1-3.8-0.4-5.6-1.1c-1-0.3-1.8-0.8-2.6-1.5c-0.6-0.5-0.9-1.2-0.9-1.9c0-2.6,0-5.2,0-7.7v-0.4c0.4,0.3,0.8,0.5,1.3,0.8
						c0.2,0.1,0.5,0.3,0.7,0.4c0.2,0.1,0.3,0.2,0.2,0.4c0,1.9,0,3.7,0,5.6c0,0.3,0.1,0.5,0.2,0.7c0.2,0.3,0.5,0.4,0.8,0.3
						c0.3,0,0.6-0.3,0.6-0.6c0-0.2,0.1-0.3,0.1-0.5c0-1.6,0-3.2,0-4.8v-0.4l2.5,0.6c0,1.1,0,2.2,0,3.4c-0.1,0.4,0.2,0.9,0.6,1
						c0.4,0.1,0.9-0.1,1.1-0.5c0-0.1,0-0.2,0-0.3c0-0.7,0-1.3,0-2c0-0.5,0-0.9,0-1.3h2.6v0.4c0,1.8,0,3.7,0,5.5
						c0,0.3,0.1,0.6,0.3,0.8c0.3,0.3,0.9,0.3,1.2-0.1c0.1-0.1,0.1-0.2,0.2-0.4c0-0.2,0-0.4,0-0.5c0-1.7,0-3.5,0-5.2
						C99.5,542.6,99.5,542.4,99.5,542.2z"/>
					<path id="Trazado_71266" class="st1" d="M97.3,540.6c-2.2,0-4.3-0.3-6.4-1c-1.1-0.3-2.1-0.9-3-1.7c-0.8-0.6-1-1.8-0.3-2.7
						c0.1-0.1,0.2-0.3,0.4-0.4c0.9-0.8,2-1.4,3.1-1.8c1.4-0.5,2.9-0.8,4.4-0.8c1.3-0.1,2.7-0.1,4,0c2.2,0.1,4.3,0.7,6.2,1.8
						c0.5,0.3,0.9,0.6,1.3,1c0.7,0.7,0.7,1.8,0.1,2.5c0,0,0,0-0.1,0.1c-0.6,0.6-1.3,1.2-2.2,1.5c-1.5,0.7-3.2,1.1-4.8,1.2
						C99,540.5,98.1,540.6,97.3,540.6z M96.9,538.2c0.8-0.1,1.5-0.1,2.3-0.2c1-0.1,2-0.4,2.8-1c0.3-0.2,0.5-0.6,0.3-0.9
						c-0.1-0.1-0.2-0.3-0.3-0.3c-0.5-0.4-1.2-0.7-1.8-0.8c-1.8-0.4-3.7-0.4-5.5-0.1c-0.7,0.1-1.4,0.4-2.1,0.8
						c-0.3,0.2-0.5,0.6-0.3,0.9c0.1,0.1,0.2,0.3,0.3,0.3c0.2,0.1,0.4,0.2,0.6,0.3C94.4,537.8,95.6,538.1,96.9,538.2L96.9,538.2z"/>
					<path id="Trazado_71267" class="st1" d="M120.2,530.9v12c0,0-0.1,0-0.1,0c-1.3,0-2.6,0-3.9,0c-1.1-0.1-2.1-0.9-2.3-2
						c0-0.3-0.1-0.6-0.1-0.9c0-2.2,0-4.4,0-6.5c0-0.6,0.2-1.3,0.6-1.8c0.5-0.6,1.2-0.9,1.9-0.9C117.6,530.9,118.9,530.9,120.2,530.9
						z"/>
					<path id="Trazado_71268" class="st9" d="M109.1,541.7c0-1.6,0-3.2,0-4.9c0.1-1.6-0.7-3-2-3.8c-0.4-0.3-0.8-0.5-1.3-0.8h6.3v9.5
						L109.1,541.7z"/>
				</g>
			</g>
		</g>
	</g>
</g>
</svg>
