<svg xmlns="http://www.w3.org/2000/svg" xmlns:xlink="http://www.w3.org/1999/xlink" width="448.974" height="461.035" viewBox="0 0 448.974 461.035">
  <defs>
    <linearGradient id="linear-gradient" x1="0.5" x2="0.5" y2="1" gradientUnits="objectBoundingBox">
      <stop offset="0" stop-color="#673ab7"/>
      <stop offset="0.872" stop-color="#8369ba"/>
      <stop offset="1" stop-color="#8263c4"/>
    </linearGradient>
  </defs>
  <g id="Grupo_40079" data-name="Grupo 40079" transform="translate(-18.31 -19.556)">
    <g id="BACKGROUND" transform="translate(18.31 19.556)">
      <path id="Trazado_69892" data-name="Trazado 69892" d="M54.432,479.036c-37.017-49.892-46.519-121.845-24.157-180.3,5.366-14.029,12.482-27.627,14.44-42.575,4.9-37.442-23.364-72.629-20.635-110.307,2.286-31.549,29.33-59.165,59.9-61.166,15.5-1.014,31.637,3.713,46.275-1.633,14.59-5.328,24.163-19.322,34.959-30.773,15.479-16.419,35.595-28.81,57.576-31.927,34.6-4.909,68.857,13.566,94.188,38.4s44.009,55.859,65.961,83.911c9.265,11.84,19.408,23.4,32.337,30.708,25.353,14.332,46.4,39.786,50.887,69.274s-4.818,60.295-22.372,84.009c-7.42,10.025-16.379,19.135-21.184,30.737-8.245,19.9-2.719,42.6.56,63.977s2.868,43.626-13.077,57.675Z" transform="translate(-18.31 -19.556)" fill="#d1bcff" opacity="0.2"/>
    </g>
    <g id="OBJECTS" transform="translate(36.388 25.61)">
      <g id="Grupo_40051" data-name="Grupo 40051" transform="translate(2.951 221.187)">
        <g id="Grupo_40050" data-name="Grupo 40050">
          <path id="Trazado_69893" data-name="Trazado 69893" d="M142.341,435.445c-4.934-4.719-11.255-7.693-17.591-10.235-17.022-6.83-35.36-11.309-50.184-22.109C55.791,389.422,45,365.754,46.177,342.64c-.258-1.04-.484-2.092-.669-3.159-5.035,16.319-7.182,33.952-2.966,50.5s15.516,31.827,31.441,37.993c12.969,5.022,27.605,3.741,40.862,7.948a51.333,51.333,0,0,1,17.433,9.59c3.3,2.774,6.28,5.984,9.967,8.223,4.285,2.6,9.255,3.723,14.274,4.272-1.457-3.051-2.98-6.07-4.6-9.039C149.268,444.1,146.351,439.278,142.341,435.445Z" transform="translate(-40.299 -260.757)" fill="#7986cb"/>
          <path id="Trazado_69894" data-name="Trazado 69894" d="M148.146,387.978c-10.808-21.476-35.354-31.734-52.526-48.561-20.513-20.1-29.681-50.868-24.326-78.994-9.559,18.671-18.668,39.061-14.34,59.41a64.509,64.509,0,0,0,8.891,20.7,98.241,98.241,0,0,0,31.377,31.123c11.606,7.172,24.769,11.959,35.173,20.785,15.988,13.562,23.381,35.353,23.127,56.316-2.788-17.924-16.2-32.484-31.156-42.754s-31.876-17.388-46.89-27.566c-14.119-9.571-26.96-22.838-31.036-39.245-1.18,23.114,9.614,46.783,28.389,60.46,14.825,10.8,33.162,15.279,50.184,22.109,6.336,2.542,12.657,5.516,17.591,10.235,4.01,3.833,6.927,8.653,9.58,13.525,1.617,2.969,3.141,5.988,4.6,9.039,1.276.14,2.554.244,3.825.324,1.757.11,3.54.173,5.319.142a272.867,272.867,0,0,1-9.375-35.645C154.505,408.7,153.035,397.693,148.146,387.978Z" transform="translate(-40.563 -257.307)" fill="#9fa8da"/>
          <path id="Trazado_69895" data-name="Trazado 69895" d="M216.651,305.981c2.49,16.863-1.5,34.355-7.642,50.391-6.86,17.9-16.339,34.714-22.961,52.7-5.529,15.014-8.981,31.354-6.919,47.067a20.862,20.862,0,0,0,5.547-2.192c3.585-2.086,6.345-5.313,8.945-8.544,16.919-21.027,30.4-45.483,34.82-72.105C232.256,350.346,228.723,325.671,216.651,305.981Z" transform="translate(-46.33 -259.295)" fill="#7678b8"/>
          <path id="Trazado_69896" data-name="Trazado 69896" d="M181.35,406.941c6.623-17.985,16.1-34.8,22.961-52.7,6.147-16.035,10.133-33.528,7.642-50.391a78.44,78.44,0,0,0-6.446-9.044l6.658,10.721c-19.38,16-31.674,39.307-38.373,63.527s-8.23,49.54-9.213,74.651a252.719,252.719,0,0,0-3.171-47.848c-2.428-14.251-6.433-28.388-13.571-40.959-10.2-17.962-26.171-31.768-40.8-46.356S78.4,277.34,73.967,257.165q-.8,1.549-1.6,3.116c-5.355,28.126,3.813,58.894,24.326,78.994,17.172,16.827,41.719,27.085,52.526,48.561,4.889,9.715,6.36,20.721,8.406,31.4A272.867,272.867,0,0,0,167,454.882a33.657,33.657,0,0,0,7.434-.874C172.369,438.3,175.821,421.955,181.35,406.941Z" transform="translate(-41.632 -257.165)" fill="#7986cb"/>
        </g>
        <path id="Trazado_69897" data-name="Trazado 69897" d="M197.736,497.225H111.363l-19.127-60.81h105.5Z" transform="translate(-42.565 -264.987)" fill="#ababab"/>
      </g>
      <g id="Grupo_40053" data-name="Grupo 40053" transform="translate(44.709 24.251)">
        <rect id="Rectángulo_26631" data-name="Rectángulo 26631" width="11.036" height="169.122" transform="translate(63.705 260.054)" fill="#604075"/>
        <g id="Grupo_40052" data-name="Grupo 40052">
          <path id="Trazado_69898" data-name="Trazado 69898" d="M121.189,132.712c2.07-10.681-.134-21.969-5.219-31.586-2.641-5-5.861-9.9-11.492-10.385-7.185,6.54-12.242,15.659-12.242,34.189,0,16.208,5.99,26.035,12.154,34.434C112.661,153.408,119.321,142.356,121.189,132.712Z" transform="translate(-84.322 -52.966)" fill="#673ab7"/>
          <path id="Trazado_69899" data-name="Trazado 69899" d="M223.182,243.939c-5.665-27.289-21.314-38.6-23.338-55.888s9.128-102.939,9.128-102.939-16.444-6.89-22.881-13.634-8.608-20.235-8.608-20.235H140.126s-1.038,11.934-16.6,23.866c-6.839,5.243-13.775,8.784-19.407,13.908,5.631.486,8.85,5.389,11.492,10.385,5.085,9.617,7.288,20.905,5.219,31.586-1.868,9.644-8.528,20.7-16.8,26.652,6.407,8.727,13,15.911,13.269,27.093.518,21.941-14.009,21.122-26.98,55.356s-2.075,75.717-2.075,75.717,26.461,12.025,67.881,12.025,60.2-12.025,60.2-12.025S228.846,271.228,223.182,243.939Z" transform="translate(-83.961 -51.243)" fill="#d1bcff"/>
        </g>
        <path id="Trazado_69900" data-name="Trazado 69900" d="M118.572,196.583a123.25,123.25,0,0,0,47.2,8.387c26.6-.591,35.586-10.678,35.586-10.678" transform="translate(-85.472 -57.485)" fill="none" stroke="#613f75" stroke-miterlimit="10" stroke-width="1" stroke-dasharray="2.983"/>
        <path id="Trazado_69901" data-name="Trazado 69901" d="M180.046,51.243H142.689a22.619,22.619,0,0,0,37.357,0Z" transform="translate(-86.524 -51.243)" fill="#673ab7"/>
      </g>
      <g id="Grupo_40055" data-name="Grupo 40055" transform="translate(302.954 302.324)">
        <path id="Trazado_69902" data-name="Trazado 69902" d="M480.371,342l-19.29,21.843H353.989V342Z" transform="translate(-353.989 -342.004)" fill="#613f75"/>
        <path id="Trazado_69903" data-name="Trazado 69903" d="M353.989,344.846H477.861L480.371,342H353.989Z" transform="translate(-353.989 -342.004)" fill="#7d82b8" opacity="0.26" style="mix-blend-mode: multiply;isolation: isolate"/>
        <g id="Grupo_40054" data-name="Grupo 40054" transform="translate(0 21.843)">
          <path id="Trazado_69904" data-name="Trazado 69904" d="M353.989,410.144a839.862,839.862,0,0,0,107.093-31.127V415.75q-53.041,10.924-107.093,17.171Z" transform="translate(-353.989 -365.461)" fill="#d1bcff"/>
          <path id="Trazado_69905" data-name="Trazado 69905" d="M353.989,364.843H461.082V378.4a839.862,839.862,0,0,1-107.093,31.127Z" transform="translate(-353.989 -364.843)" fill="#673ab7"/>
          <path id="Trazado_69906" data-name="Trazado 69906" d="M461.082,417.426V479.2c-11.177-2.237-22.259-4.941-33.309-7.644l-73.784-18.051V434.6Q407.957,428.361,461.082,417.426Z" transform="translate(-353.989 -367.137)" fill="#673ab7"/>
          <path id="Trazado_69907" data-name="Trazado 69907" d="M461.082,480.848v17.2H353.989V455.152L427.773,473.2C438.822,475.907,449.9,478.611,461.082,480.848Z" transform="translate(-353.989 -368.784)" fill="#d1bcff"/>
        </g>
        <path id="Trazado_69908" data-name="Trazado 69908" d="M461.082,371.11,353.989,401.948l107.093-9.385-107.093,24.8,107.093,25.251L353.989,477.18" transform="translate(-353.989 -343.274)" fill="none" stroke="#fff" stroke-linecap="round" stroke-linejoin="round" stroke-width="0.837"/>
        <path id="Trazado_69909" data-name="Trazado 69909" d="M353.989,379.017,461.082,424.49,353.989,461.273l107.093,27.533" transform="translate(-353.989 -343.619)" fill="none" stroke="#fff" stroke-linecap="round" stroke-linejoin="round" stroke-width="0.837"/>
      </g>
      <g id="Grupo_40057" data-name="Grupo 40057" transform="translate(181.029 17.317)">
        <rect id="Rectángulo_26632" data-name="Rectángulo 26632" width="170.747" height="223.594" transform="matrix(0.989, -0.146, 0.146, 0.989, 17.586, 42.807)" fill="#ababab"/>
        <g id="Grupo_40056" data-name="Grupo 40056">
          <rect id="Rectángulo_26633" data-name="Rectángulo 26633" width="177.768" height="232.788" transform="translate(63.285) rotate(15.775)" fill="#efefef"/>
          <path id="Trazado_69910" data-name="Trazado 69910" d="M376.632,175.879l-23.374-6.6-23.375-6.6s-48.528,71.078-49.334,71.662,50.314,14.213,50.314,14.213,50.7,15.133,50.313,14.213S376.632,175.879,376.632,175.879Z" transform="translate(-228.859 -49.172)" fill="#ffd54f"/>
          <path id="Trazado_69911" data-name="Trazado 69911" d="M404.281,99.515l-13.074-3.693-26.121,36.436-3.2-44.718-13.074-3.693-14.605,68.359,23.374,6.6,23.374,6.6Z" transform="translate(-231.201 -45.732)" fill="#ffd54f"/>
          <rect id="Rectángulo_26634" data-name="Rectángulo 26634" width="152.301" height="3.726" transform="translate(23.445 192.651) rotate(15.775)" fill="#9fa8da"/>
          <rect id="Rectángulo_26635" data-name="Rectángulo 26635" width="152.301" height="3.726" transform="translate(21.411 199.851) rotate(15.775)" fill="#9fa8da"/>
          <rect id="Rectángulo_26636" data-name="Rectángulo 26636" width="152.301" height="3.726" transform="translate(19.377 207.051) rotate(15.775)" fill="#9fa8da"/>
          <path id="Trazado_69912" data-name="Trazado 69912" d="M359.43,86.657l3.274,55.034,33.039-44.776-3.435-.971-26.121,36.436-3.2-44.718Z" transform="translate(-232.302 -45.855)" fill="#c6a334"/>
          <path id="Trazado_69913" data-name="Trazado 69913" d="M378.745,175.88,332,162.673l-3.04,4.451,50.051,14.139Z" transform="translate(-230.972 -49.172)" fill="#c6a334"/>
          <path id="Trazado_69914" data-name="Trazado 69914" d="M332.089,184.021l-36.018,55.8,4.434,1.234Z" transform="translate(-229.537 -50.104)" fill="#c6a334" style="mix-blend-mode: multiply;isolation: isolate"/>
          <path id="Trazado_69915" data-name="Trazado 69915" d="M347.142,188.2,317.08,245.68l3.028.836Z" transform="translate(-230.454 -50.286)" fill="#c6a334" style="mix-blend-mode: multiply;isolation: isolate"/>
          <path id="Trazado_69916" data-name="Trazado 69916" d="M357.473,190.824l-4.459,64.716L350,254.668Z" transform="translate(-231.89 -50.4)" fill="#c6a334" style="mix-blend-mode: multiply;isolation: isolate"/>
          <path id="Trazado_69917" data-name="Trazado 69917" d="M369.962,194.293l1.5,66.4-4.424-1.269Z" transform="translate(-232.633 -50.552)" fill="#c6a334" style="mix-blend-mode: multiply;isolation: isolate"/>
          <path id="Trazado_69918" data-name="Trazado 69918" d="M343.577,81.909l-10.2,44.581-40.912,53.153s-2.622-9.184-2.29-10.248S343.577,81.909,343.577,81.909Z" transform="translate(-229.278 -45.648)" fill="#ffd54f"/>
          <path id="Trazado_69919" data-name="Trazado 69919" d="M410.094,100.669l-14.52,43.367L402.8,210.72s7.024-6.472,7.294-7.553S410.094,100.669,410.094,100.669Z" transform="translate(-233.879 -46.466)" fill="#ffd54f"/>
        </g>
      </g>
      <g id="Grupo_40059" data-name="Grupo 40059" transform="translate(207.019 263.176)">
        <path id="Trazado_69920" data-name="Trazado 69920" d="M412.8,301.069l-24.287,27.5H253.677v-27.5Z" transform="translate(-253.677 -301.069)" fill="#7d82b8"/>
        <path id="Trazado_69921" data-name="Trazado 69921" d="M253.677,304.649H409.642l3.161-3.579H253.677Z" transform="translate(-253.677 -301.069)" fill="#7d82b8" opacity="0.26" style="mix-blend-mode: multiply;isolation: isolate"/>
        <g id="Grupo_40058" data-name="Grupo 40058" transform="translate(0 27.502)">
          <path id="Trazado_69922" data-name="Trazado 69922" d="M388.516,386.864a1057.418,1057.418,0,0,1-134.839-39.192v46.251q66.783,13.754,134.839,21.618Z" transform="translate(-253.677 -330.605)" fill="#7986cb"/>
          <path id="Trazado_69923" data-name="Trazado 69923" d="M388.516,329.826H253.677v17.067a1057.418,1057.418,0,0,0,134.839,39.192Z" transform="translate(-253.677 -329.826)" fill="#9fa8da"/>
          <path id="Trazado_69924" data-name="Trazado 69924" d="M253.677,396.033v77.779c14.072-2.816,28.025-6.22,41.939-9.624l92.9-22.728v-23.81Q320.566,409.8,253.677,396.033Z" transform="translate(-253.677 -332.715)" fill="#9fa8da"/>
          <path id="Trazado_69925" data-name="Trazado 69925" d="M253.677,475.885v21.651H388.516v-54l-92.9,22.728C281.7,469.665,267.749,473.069,253.677,475.885Z" transform="translate(-253.677 -334.788)" fill="#7986cb"/>
        </g>
        <path id="Trazado_69926" data-name="Trazado 69926" d="M253.677,337.717l134.839,38.827L253.677,364.727l134.839,31.231L253.677,427.752l134.839,43.516" transform="translate(-253.677 -302.668)" fill="none" stroke="#fff" stroke-linecap="round" stroke-linejoin="round" stroke-width="1.053"/>
        <path id="Trazado_69927" data-name="Trazado 69927" d="M388.516,347.672,253.677,404.927,388.516,451.24,253.677,485.906" transform="translate(-253.677 -303.103)" fill="none" stroke="#fff" stroke-linecap="round" stroke-linejoin="round" stroke-width="1.053"/>
      </g>
      <g id="Grupo_40072" data-name="Grupo 40072" transform="translate(116.441 30.613)">
        <g id="Grupo_40068" data-name="Grupo 40068" transform="translate(22.555)">
          <g id="Grupo_40060" data-name="Grupo 40060" transform="translate(11.431 97.226)">
            <path id="Trazado_69928" data-name="Trazado 69928" d="M212.916,173.8a3.319,3.319,0,0,1,.958.632c.027.031.045.067.069.1a8.754,8.754,0,1,1-8.9-13.44,32.012,32.012,0,0,0,5.268,10.247A8.852,8.852,0,0,0,212.916,173.8Z" transform="translate(-194.651 -159.625)" fill="none"/>
            <path id="Trazado_69929" data-name="Trazado 69929" d="M204.489,159.558q.186.74.408,1.47a8.753,8.753,0,1,0,8.9,13.44,3,3,0,0,1,.287.511l.749,1.618a11.059,11.059,0,1,1-10.342-17.039Z" transform="translate(-194.503 -159.558)" fill="#7d82b8"/>
          </g>
          <g id="Grupo_40061" data-name="Grupo 40061" transform="translate(51.68 115.245)">
            <path id="Trazado_69930" data-name="Trazado 69930" d="M268.543,200.48a37.965,37.965,0,0,1-9.56,9.246,25.558,25.558,0,0,1-12.077,4.569,16.927,16.927,0,0,1-7.542-1.132,11.452,11.452,0,0,1-2.776,4.7s6.614,12.9,17.874,13.888,22.468-8.6,17.839-15.211C270.439,213.876,269.273,207.341,268.543,200.48Z" transform="translate(-236.588 -179.363)" fill="#f7a9a8"/>
            <path id="Trazado_69931" data-name="Trazado 69931" d="M247.033,213.331a25.558,25.558,0,0,0,12.077-4.569,37.965,37.965,0,0,0,9.56-9.246c-1.084-10.2-1.2-21.117-1.2-21.117l-27.138,12.373s.617,11.546,0,17.525a17.608,17.608,0,0,1-.838,3.9A16.927,16.927,0,0,0,247.033,213.331Z" transform="translate(-236.715 -178.399)" fill="#f78783"/>
          </g>
          <path id="Trazado_69932" data-name="Trazado 69932" d="M242.082,92.8c22.8.229,48.933,15.75,45.37,44.056s-19.478,61.86-42.994,62.317-49.172-42.229-43.945-76.469S242.082,92.8,242.082,92.8Z" transform="translate(-183.304 -59.411)" fill="#f7a9a8"/>
          <g id="Grupo_40062" data-name="Grupo 40062" transform="translate(96.484 73.829)">
            <path id="Trazado_69933" data-name="Trazado 69933" d="M287.645,138.579a18.028,18.028,0,0,0-3.155,6.5,19.41,19.41,0,0,0-.559,10.469c.932,3.415,3.528,6.529,6.98,7.31,3.3.745,6.806-.749,9.186-3.148a22,22,0,0,0,4.85-8.8,16.679,16.679,0,0,0,1.066-6C305.552,135.812,293.4,131.6,287.645,138.579Z" transform="translate(-283.437 -135.093)" fill="#f7a9a8"/>
            <path id="Trazado_69934" data-name="Trazado 69934" d="M288.613,155.953c1.877.561,3.9-.739,4.858-2.445a2.969,2.969,0,0,0,.466-1.724,2.48,2.48,0,0,0-2.143-2,5.5,5.5,0,0,0-3.05.593,24.408,24.408,0,0,1,1.173-5.605,8.19,8.19,0,0,1,3.524-4.377,4.988,4.988,0,0,1,5.405.271,6.874,6.874,0,0,1,2.06,4.785s.636,1.872-.883,5.725-3.561,7.939-6.926,7.839A5.035,5.035,0,0,1,288.613,155.953Z" transform="translate(-283.662 -135.296)" fill="#f7a9a8" opacity="0.5" style="mix-blend-mode: multiply;isolation: isolate"/>
            <path id="Trazado_69935" data-name="Trazado 69935" d="M300.906,145.45a6.874,6.874,0,0,0-2.06-4.785,4.988,4.988,0,0,0-5.405-.271,8.19,8.19,0,0,0-3.524,4.377,24.408,24.408,0,0,0-1.173,5.605,5.5,5.5,0,0,1,3.05-.593,2.48,2.48,0,0,1,2.143,2,2.969,2.969,0,0,1-.466,1.724c-.963,1.706-2.981,3.007-4.858,2.445" transform="translate(-283.662 -135.296)" fill="none" stroke="#613f75" stroke-miterlimit="10" stroke-width="1.127"/>
          </g>
          <path id="Trazado_69936" data-name="Trazado 69936" d="M239.267,142.893a63.269,63.269,0,0,1-6.691,22.826,1.174,1.174,0,0,0-.191.851,1.161,1.161,0,0,0,.649.6q2.739,1.422,5.587,2.619" transform="translate(-184.723 -61.605)" fill="none" stroke="#613f75" stroke-miterlimit="10" stroke-width="1"/>
          <g id="Grupo_40063" data-name="Grupo 40063" transform="translate(42.736 111.681)">
            <path id="Trazado_69937" data-name="Trazado 69937" d="M239.794,177.344c-.425.036-.846.066-1.262.085a21.594,21.594,0,0,1-11.3-2.756s3.838,5.309,8.944,6.754A14.744,14.744,0,0,1,238.972,178C239.234,177.764,239.511,177.55,239.794,177.344Z" transform="translate(-227.236 -174.673)" fill="#613f75"/>
            <path id="Trazado_69938" data-name="Trazado 69938" d="M253.152,174.673a71.348,71.348,0,0,1-12.95,2.671c-.283.206-.56.42-.822.651a14.744,14.744,0,0,0-2.792,3.431,8.982,8.982,0,0,0,2.863.365C245.92,181.5,253.152,174.673,253.152,174.673Z" transform="translate(-227.644 -174.673)" fill="#ef555e"/>
          </g>
          <g id="Grupo_40064" data-name="Grupo 40064" transform="translate(7.843 70.578)">
            <path id="Trazado_69939" data-name="Trazado 69939" d="M212.417,131.694c-12.614,0-21.534,5.479-21.662,8.665a10.309,10.309,0,0,0,.065,1.347c3.307-2.83,7.642-4.365,11.939-5.291,6.787-1.462,14.111-1.6,20.435,1.262a33.325,33.325,0,0,1,9.193,6.6c.144-.932.24-1.823.29-2.645C232.83,139.1,225.031,131.694,212.417,131.694Z" transform="translate(-190.751 -131.694)" fill="#613f75"/>
            <path id="Trazado_69940" data-name="Trazado 69940" d="M202.762,136.583c-4.3.926-8.632,2.461-11.939,5.291.546,5.479,4.623,21.78,20,21.78,15.237,0,20.322-11.2,21.562-19.208a33.325,33.325,0,0,0-9.193-6.6C216.873,134.98,209.55,135.121,202.762,136.583Z" transform="translate(-190.754 -131.863)" fill="#fff" opacity="0.3" style="mix-blend-mode: overlay;isolation: isolate"/>
          </g>
          <g id="Grupo_40065" data-name="Grupo 40065" transform="translate(58.378 70.578)">
            <path id="Trazado_69941" data-name="Trazado 69941" d="M263.854,131.694c12.614,0,21.534,5.479,21.662,8.665a10.308,10.308,0,0,1-.065,1.347c-3.307-2.83-7.642-4.365-11.939-5.291-6.787-1.462-14.111-1.6-20.435,1.262a33.325,33.325,0,0,0-9.193,6.6c-.144-.932-.24-1.823-.29-2.645C243.44,139.1,251.239,131.694,263.854,131.694Z" transform="translate(-243.592 -131.694)" fill="#613f75"/>
            <path id="Trazado_69942" data-name="Trazado 69942" d="M273.524,136.583c4.3.926,8.632,2.461,11.939,5.291-.546,5.479-4.623,21.78-20,21.78-15.237,0-20.322-11.2-21.562-19.208a33.325,33.325,0,0,1,9.193-6.6C259.413,134.98,266.737,135.121,273.524,136.583Z" transform="translate(-243.605 -131.863)" fill="#fff" opacity="0.3" style="mix-blend-mode: overlay;isolation: isolate"/>
          </g>
          <path id="Trazado_69943" data-name="Trazado 69943" d="M233.644,147.494a15.24,15.24,0,0,1,10.541.557" transform="translate(-184.779 -61.776)" fill="none" stroke="#5c3a75" stroke-miterlimit="10" stroke-width="1"/>
          <path id="Trazado_69944" data-name="Trazado 69944" d="M263.148,170.862c0,1.843-2.509,3.337-5.605,3.337s-5.6-1.494-5.6-3.337,2.509-3.337,5.6-3.337S263.148,169.019,263.148,170.862Z" transform="translate(-185.578 -62.68)" fill="#f38d8b"/>
          <path id="Trazado_69945" data-name="Trazado 69945" d="M229.023,170.862c0,1.843-2.509,3.337-5.605,3.337s-5.6-1.494-5.6-3.337,2.51-3.337,5.6-3.337S229.023,169.019,229.023,170.862Z" transform="translate(-184.089 -62.68)" fill="#f38d8b"/>
          <path id="Trazado_69946" data-name="Trazado 69946" d="M266.249,140.051a18.906,18.906,0,0,0-7.966-7.715,11.843,11.843,0,0,0-10.822.155" transform="translate(-185.382 -61.09)" fill="none" stroke="#604075" stroke-miterlimit="10" stroke-width="3"/>
          <path id="Trazado_69947" data-name="Trazado 69947" d="M211.711,140.051a18.906,18.906,0,0,1,7.966-7.715,11.843,11.843,0,0,1,10.822.155" transform="translate(-183.822 -61.09)" fill="none" stroke="#604075" stroke-miterlimit="10" stroke-width="3"/>
          <g id="Grupo_40066" data-name="Grupo 40066" transform="translate(92.259 97.226)">
            <path id="Trazado_69948" data-name="Trazado 69948" d="M279.018,169.691a8.709,8.709,0,0,0,1.46,4.836c.024-.033.041-.069.068-.1a3.324,3.324,0,0,1,.959-.632,8.863,8.863,0,0,0,2.6-2.462,31.991,31.991,0,0,0,5.267-10.247,8.73,8.73,0,0,0-10.357,8.6Z" transform="translate(-279.018 -159.618)" fill="none"/>
            <path id="Trazado_69949" data-name="Trazado 69949" d="M281.572,173.8a3.323,3.323,0,0,0-.959.632c-.027.031-.044.067-.068.1a8.754,8.754,0,1,0,8.9-13.44,31.991,31.991,0,0,1-5.267,10.247A8.864,8.864,0,0,1,281.572,173.8Z" transform="translate(-279.085 -159.625)" fill="none"/>
            <path id="Trazado_69950" data-name="Trazado 69950" d="M289.8,159.558q-.186.74-.409,1.47a8.753,8.753,0,1,1-8.9,13.44,2.935,2.935,0,0,0-.287.511l-.749,1.618A11.059,11.059,0,1,0,289.8,159.558Z" transform="translate(-279.037 -159.558)" fill="#7d82b8"/>
          </g>
          <g id="Grupo_40067" data-name="Grupo 40067">
            <path id="Trazado_69951" data-name="Trazado 69951" d="M253.541,74.359a5.243,5.243,0,0,0,.769.481A8.887,8.887,0,0,0,253.541,74.359Z" transform="translate(-185.648 -58.614)" fill="#613f75"/>
            <path id="Trazado_69952" data-name="Trazado 69952" d="M301.625,112.509c-.549-11.08-8.464-13.257-8.464-13.257s6.332-13.06-1.979-19.589-27.109-2.771-35.617-8.509S247.057,57.9,247.057,57.9s-2.771,5.343-.792,10.092a12.994,12.994,0,0,0,4.178,5.653,8.887,8.887,0,0,1,.769.481,5.243,5.243,0,0,1-.769-.481c-2.047-1.168-8.275-3.993-19.216-2.882-13.654,1.385-19.194,8.113-19.194,8.113S196.4,81.048,190.465,89.358a52.955,52.955,0,0,0-7.915,17.017l7.123-6.134s-4.481,8.794-.976,15.442a11.091,11.091,0,0,1,3.538-3.034c3.354-1.8,7.39-1.787,10.919-3.21,5.962-2.4,9.651-8.479,15.224-11.68,7.354-4.224,16.516-2.772,24.848-1.2,3.721.7,7.5,1.428,10.873,3.152a26.7,26.7,0,0,0-8.734-9.636,53.612,53.612,0,0,1,18.713,7.007c1.831,1.114,3.713,2.488,4.359,4.533a48.469,48.469,0,0,0-1.742-10.851,16.263,16.263,0,0,0-6.228-8.823c5.83,1.793,11.8,4.535,15.054,9.695a28.324,28.324,0,0,1,2.8,6.668,179.279,179.279,0,0,1,5.66,23.207c2.159-6.186,2.328-13.409-1.137-18.969,5.764,3.414,8.858,10.2,9.495,16.872.528,5.525-.383,13.67-1.537,20.023l5.051.268S302.174,123.591,301.625,112.509Z" transform="translate(-182.55 -57.896)" fill="#593270"/>
            <path id="Trazado_69953" data-name="Trazado 69953" d="M292.623,120.516c-.637-6.669-3.731-13.458-9.495-16.872,3.465,5.56,3.3,12.784,1.137,18.969a179.279,179.279,0,0,0-5.66-23.207,28.324,28.324,0,0,0-2.8-6.668c-3.254-5.16-9.224-7.9-15.054-9.695a16.263,16.263,0,0,1,6.228,8.823,48.469,48.469,0,0,1,1.742,10.851c-.647-2.045-2.528-3.419-4.359-4.533a53.612,53.612,0,0,0-18.713-7.007,26.7,26.7,0,0,1,8.734,9.636c-3.372-1.724-7.152-2.448-10.873-3.152-8.332-1.577-17.495-3.029-24.848,1.2-5.574,3.2-9.262,9.278-15.224,11.68-3.529,1.422-7.565,1.414-10.919,3.21a11.091,11.091,0,0,0-3.538,3.034,10.269,10.269,0,0,0,.581.981c4.551,6.728,10.009,19.215,9.969,18.622s.513-14.1.513-14.1a57.5,57.5,0,0,0,23.948-.562c12.07-3.166,24.536-11.872,24.536-11.872l-8.509,10.883s12.07-.99,21.173-3.562a70.931,70.931,0,0,0,17.017-7.718,47.983,47.983,0,0,0-.2,16.82,101.448,101.448,0,0,0,3.337,13.753l9.742.515C292.24,134.187,293.151,126.041,292.623,120.516Z" transform="translate(-182.83 -58.993)" fill="#613f75"/>
          </g>
        </g>
        <path id="Trazado_69954" data-name="Trazado 69954" d="M204.215,392.143c1.7,1.448,3.942,2.891,6.005,2.043a5.607,5.607,0,0,0,2.481-2.535c4.664-7.968,3.627-17.985,1.5-26.969-2.7-11.365-11.222-29.077-26.029-22.988-12.463,5.126-3.689,23.349.649,31.347A67.37,67.37,0,0,0,204.215,392.143Z" transform="translate(-159.96 -70.225)" fill="#f7a9a8"/>
        <path id="Trazado_69955" data-name="Trazado 69955" d="M269.392,217.268a234.058,234.058,0,0,0,29.334,20c15.81,8.918,23.106,23.106,18.242,49.859S303.59,360.9,303.59,360.9L340,487.663l-170.064,1.555,30.4-122.14s-26.49-76.534-8.35-105.939c13.618-22.076,41.694-42.548,41.694-42.548Z" transform="translate(-159.445 -64.85)" fill="url(#linear-gradient)"/>
        <path id="Trazado_69956" data-name="Trazado 69956" d="M201.655,373.631s19.908,3.856,47.872,3.518,55.382-9.7,55.382-9.7l3.882,8.859s-29.616,7.914-57.917,7.577a346.9,346.9,0,0,1-50.7-4.307Z" transform="translate(-160.764 -71.404)" fill="#fff"/>
        <g id="Grupo_40069" data-name="Grupo 40069" transform="translate(68.988 134.342)">
          <path id="Trazado_69957" data-name="Trazado 69957" d="M270.081,211.932s-5.27,2.963-14.339,2.912a129.9,129.9,0,0,1-16.611-1.182l-7.895,9.02a23.439,23.439,0,0,0,22.484,8.494c14.813-2.391,19.987-12.834,19.987-12.834l-1.64-1.307Z" transform="translate(-231.108 -198.959)" fill="#7d82b8"/>
          <path id="Trazado_69958" data-name="Trazado 69958" d="M284.409,200.976c1.4-.926,2.972-1.6,4.314-2.609a8.633,8.633,0,0,1-.662,8.807,10.819,10.819,0,0,1-4.167,3.319c-1.038.5-3.778,1.827-4.943,1.329-1.41-.6-.552-2.148-.12-3.456A14.179,14.179,0,0,1,284.409,200.976Z" transform="translate(-233.156 -198.367)" fill="#7d82b8"/>
          <path id="Trazado_69959" data-name="Trazado 69959" d="M289.938,214.325c1.64.372,3.209,1.041,4.869,1.306a8.632,8.632,0,0,1-6.813,5.62,10.822,10.822,0,0,1-5.28-.709c-1.075-.406-3.933-1.462-4.38-2.647-.543-1.434,1.168-1.885,2.411-2.48A14.175,14.175,0,0,1,289.938,214.325Z" transform="translate(-233.158 -199.049)" fill="#7d82b8"/>
          <path id="Trazado_69960" data-name="Trazado 69960" d="M277.249,214.033a2.989,2.989,0,1,1-3.686-2.069A2.989,2.989,0,0,1,277.249,214.033Z" transform="translate(-232.86 -198.955)" fill="#613f75"/>
          <path id="Trazado_69961" data-name="Trazado 69961" d="M277.789,214.033a2.989,2.989,0,1,1-3.686-2.069A2.989,2.989,0,0,1,277.789,214.033Z" transform="translate(-232.883 -198.955)" fill="#7d82b8"/>
          <path id="Trazado_69962" data-name="Trazado 69962" d="M270.157,214.927a10.956,10.956,0,0,1-3.223,1.674,58.384,58.384,0,0,1-14.229,3.19,40.981,40.981,0,0,1-9.07.089c-3.009-.357-4.9-.614-7.5-2.175" transform="translate(-231.322 -199.09)" fill="none" stroke="#613f75" stroke-miterlimit="10" stroke-width="1"/>
          <path id="Trazado_69963" data-name="Trazado 69963" d="M270.62,216.475a30.1,30.1,0,0,1-3.755,4.15,36.381,36.381,0,0,1-18.146,7.765c-6.166.729-15.813-3.4-17.617-5.286" transform="translate(-231.102 -199.157)" fill="none" stroke="#613f75" stroke-miterlimit="10" stroke-width="1"/>
        </g>
        <g id="Grupo_40070" data-name="Grupo 40070" transform="translate(97.631 180.544)">
          <path id="Trazado_69964" data-name="Trazado 69964" d="M329.093,319.825c2.464-8.868,4.47-16.889,5.518-22.741,4.526-25.27-9.8-42.179-19.485-50.405l-10.3,60.6A43.353,43.353,0,0,1,329.093,319.825Z" transform="translate(-262.962 -246.678)" fill="url(#linear-gradient)"/>
          <path id="Trazado_69965" data-name="Trazado 69965" d="M302.919,310.042l-6.372,37.5s-27.824-34.331-28.48-34.769-7.015,16.014-7.015,16.014,4.644,13.7,17.074,32.093c14.481,21.429,27.669,29.923,27.669,29.923s13.214-38.783,21.388-68.212A43.353,43.353,0,0,0,302.919,310.042Z" transform="translate(-261.052 -249.443)" fill="#f7a9a8"/>
          <path id="Trazado_69966" data-name="Trazado 69966" d="M298.047,349.033a63.352,63.352,0,0,1,12.226,15.339" transform="translate(-262.666 -251.144)" fill="none" stroke="#604075" stroke-miterlimit="10" stroke-width="1"/>
        </g>
        <g id="Grupo_40071" data-name="Grupo 40071" transform="translate(0.43 178.634)">
          <path id="Trazado_69967" data-name="Trazado 69967" d="M181.437,354.013h77.255L239.367,252.731H162.113Z" transform="translate(-159.533 -245.031)" fill="#e5c3d1"/>
          <path id="Trazado_69968" data-name="Trazado 69968" d="M178.74,354.013h77.255L236.67,252.731H159.416Z" transform="translate(-159.416 -245.031)" fill="#7d82b8"/>
          <path id="Trazado_69969" data-name="Trazado 69969" d="M218.38,252.38H179.372l-.807-4.234a2.933,2.933,0,0,1,3.159-3.466H213.09a4.624,4.624,0,0,1,4.482,3.466Z" transform="translate(-160.249 -244.68)" fill="#ffd54f"/>
        </g>
        <path id="Trazado_69970" data-name="Trazado 69970" d="M258.838,328.087a4.4,4.4,0,0,0-3.164-2.176,14.075,14.075,0,0,0-3.964-.009c-7.119.613-14.509.506-21.113-2.224a3.044,3.044,0,0,1-1.332-.869,1.127,1.127,0,0,1,.019-1.467,1.666,1.666,0,0,1,.974-.314l18.381-1.864c-8.984-.1-18.24-1.16-26.092-5.527-.774-.429-1.636-1.349-1.093-2.048a1.45,1.45,0,0,1,1.011-.435,17.834,17.834,0,0,1,5.194.461,70,70,0,0,0,20.6.534c-3.606-.294-7.215-.587-10.81-1a46.49,46.49,0,0,1-9.96-2.008,54.384,54.384,0,0,1-10.15-5.216c-.686-.415-1.453-1.3-.894-1.876a1.328,1.328,0,0,1,1.051-.251,45.644,45.644,0,0,1,6.033.89l19.746,3.822a7.109,7.109,0,0,0,4.014,0,57.665,57.665,0,0,1-26.425-8.907c-1.458-.936-3.039-2.258-2.923-3.987,4.234.015,8.292,1.534,12.367,2.684,7.512,2.119,12.144,3.1,19.941,2.731l-1.725-9.041s10.729-.508,13.688,6.349a63.151,63.151,0,0,1,3.9,15.563Z" transform="translate(-161.466 -68.023)" fill="#f7a9a8"/>
        <path id="Trazado_69971" data-name="Trazado 69971" d="M168.168,325.927c5.5.648,11.206.506,16.306-2.224a2.4,2.4,0,0,0,1.029-.869,1.389,1.389,0,0,0-.015-1.467,1.1,1.1,0,0,0-.752-.314l-14.2-1.864c6.938-.1,14.087-1.16,20.151-5.527.6-.429,1.264-1.349.844-2.048a1.019,1.019,0,0,0-.78-.435,10.756,10.756,0,0,0-4.011.461,41.938,41.938,0,0,1-15.913.534c2.786-.294,5.573-.587,8.349-1a28.893,28.893,0,0,0,7.692-2.008,39.571,39.571,0,0,0,7.838-5.216c.53-.416,1.122-1.3.69-1.876a.856.856,0,0,0-.811-.251,27.845,27.845,0,0,0-4.66.89L174.68,306.53a4.3,4.3,0,0,1-3.1,0,38.258,38.258,0,0,0,20.408-8.907c1.127-.936,2.347-2.258,2.257-3.987-3.27.015-6.4,1.534-9.55,2.684-5.8,2.119-10.7,3.374-16.724,3.008l-1.668-8.743s-3.962-1.082-6.247,5.775S158.463,324.781,168.168,325.927Z" transform="translate(-158.966 -68.047)" fill="#f7a9a8"/>
        <line id="Línea_270" data-name="Línea 270" x1="6.786" y2="39.935" transform="translate(139.498 201.209)" fill="none" stroke="#fff" stroke-miterlimit="10" stroke-width="1"/>
        <ellipse id="Elipse_3371" data-name="Elipse 3371" cx="3.316" cy="4.677" rx="3.316" ry="4.677" transform="translate(58.218 81.814)" fill="#613f75"/>
        <ellipse id="Elipse_3372" data-name="Elipse 3372" cx="3.316" cy="4.677" rx="3.316" ry="4.677" transform="translate(93.027 81.814)" fill="#613f75"/>
      </g>
      <g id="Grupo_40078" data-name="Grupo 40078" transform="translate(0)" style="mix-blend-mode: multiply;isolation: isolate">
        <g id="Grupo_40073" data-name="Grupo 40073" transform="translate(19.635 138.795)">
          <line id="Línea_271" data-name="Línea 271" y2="38.916" transform="translate(19.458)" fill="none" stroke="#efefef" stroke-miterlimit="10" stroke-width="2.877"/>
          <line id="Línea_272" data-name="Línea 272" x2="38.916" transform="translate(0 19.458)" fill="none" stroke="#efefef" stroke-miterlimit="10" stroke-width="2.877"/>
          <line id="Línea_273" data-name="Línea 273" x1="27.518" y2="27.518" transform="translate(5.699 5.699)" fill="none" stroke="#efefef" stroke-miterlimit="10" stroke-width="2.877"/>
          <line id="Línea_274" data-name="Línea 274" x2="27.518" y2="27.518" transform="translate(5.699 5.699)" fill="none" stroke="#efefef" stroke-miterlimit="10" stroke-width="2.877"/>
        </g>
        <g id="Grupo_40075" data-name="Grupo 40075" transform="translate(384.434 202.998)">
          <line id="Línea_279" data-name="Línea 279" y2="38.916" transform="translate(19.458)" fill="none" stroke="#efefef" stroke-miterlimit="10" stroke-width="2.877"/>
          <line id="Línea_280" data-name="Línea 280" x2="38.916" transform="translate(0 19.458)" fill="none" stroke="#efefef" stroke-miterlimit="10" stroke-width="2.877"/>
          <line id="Línea_281" data-name="Línea 281" x1="27.518" y2="27.518" transform="translate(5.699 5.699)" fill="none" stroke="#efefef" stroke-miterlimit="10" stroke-width="2.877"/>
          <line id="Línea_282" data-name="Línea 282" x2="27.518" y2="27.518" transform="translate(5.699 5.699)" fill="none" stroke="#efefef" stroke-miterlimit="10" stroke-width="2.877"/>
        </g>
        <g id="Grupo_40076" data-name="Grupo 40076" transform="translate(0 181.536)">
          <line id="Línea_283" data-name="Línea 283" y2="25.444" transform="translate(12.722)" fill="none" stroke="#efefef" stroke-miterlimit="10" stroke-width="1.881"/>
          <line id="Línea_284" data-name="Línea 284" x2="25.444" transform="translate(0 12.722)" fill="none" stroke="#efefef" stroke-miterlimit="10" stroke-width="1.881"/>
          <line id="Línea_285" data-name="Línea 285" x1="17.992" y2="17.992" transform="translate(3.726 3.726)" fill="none" stroke="#efefef" stroke-miterlimit="10" stroke-width="1.881"/>
          <line id="Línea_286" data-name="Línea 286" x2="17.992" y2="17.992" transform="translate(3.726 3.726)" fill="none" stroke="#efefef" stroke-miterlimit="10" stroke-width="1.881"/>
        </g>
        <g id="Grupo_40077" data-name="Grupo 40077" transform="translate(403.892 136.326)">
          <line id="Línea_287" data-name="Línea 287" y2="25.444" transform="translate(12.722)" fill="none" stroke="#efefef" stroke-miterlimit="10" stroke-width="1.881"/>
          <line id="Línea_288" data-name="Línea 288" x2="25.444" transform="translate(0 12.722)" fill="none" stroke="#efefef" stroke-miterlimit="10" stroke-width="1.881"/>
          <line id="Línea_289" data-name="Línea 289" x1="17.992" y2="17.992" transform="translate(3.726 3.726)" fill="none" stroke="#efefef" stroke-miterlimit="10" stroke-width="1.881"/>
          <line id="Línea_290" data-name="Línea 290" x2="17.992" y2="17.992" transform="translate(3.726 3.726)" fill="none" stroke="#efefef" stroke-miterlimit="10" stroke-width="1.881"/>
        </g>
      </g>
    </g>
  </g>
</svg>
