<svg xmlns="http://www.w3.org/2000/svg" width="561.817" height="345.956" viewBox="0 0 561.817 345.956">
  <g id="Grupo_26980" data-name="Grupo 26980" transform="translate(-3628.421 -1302.999)">
    <path id="Trazado_67577" data-name="Trazado 67577" d="M3643.813,1605.745c22.875,8.8,505.922,8.959,516.319-4.242s54.066-85.807,12.478-114.409S4078,1468.871,4078,1468.871s75.891-93.986-15.606-148.99-134.575,42.009-134.575,42.009-48.418-42.009-121.2-4.606-20.062,113.161-20.062,113.161-30.366-29.572-59.478-25.172-48.779,17.329-55.018,39.331,29.739,45.625,29.739,45.625-15.508-2.827-55.017,1.573S3643.813,1605.745,3643.813,1605.745Z" fill="#d1bcff"/>
    <path id="Trazado_67578" data-name="Trazado 67578" d="M3697.271,1544.543c7.52,10.935,18.913,6.888,20.89,14.576s-17.283-2.977-20.164-1.188-9.293,17.611-3.59,21.655,28.3-6.923,32.86-4.3,7.065,13.311-11.791,15.3-21.284.438-22.446,4.353-5.832,22.115,4.79,24.437,44.24-18.546,46.28-15.688-2.318,13.414-19.928,23.415-29.879,9.1-29.507,13.127,2.406,20.595,11.746,22.781,49.681-22.856,54.924-21.054,8.99,14.911,3.889,17.411-21.886,13.187-35.595,13.18-19.522.276-13.4,6.059,24.518,23.634,42.959,19.9,35.4-20.778,35.747-19.795-5.319,11.152-3.92,12.546,8.286,1.775,16-13.66,26.593-19.967,27.648-36.057-2.324-47.257-8.706-44.892-4.368,21.473-19.418,28.952-27.268,9.875-19.773.3,25.429-35.345,20.49-50.376-15.333-17.626-17.227-13.39-8.021,28.663-22.021,33.761-.967-4.988,6.16-15.8,7.2-23.765,4.748-28.362-3.8.1-7.191-3.653-5.571-8.118-8.634-5.551-.092,18.286-8.462,23.881-12.486,7.751-12.951,2.717,11.02-9.9,9.929-21.732-1.292-8.512-5.552-10.658-7.695-3.606-8.241-1.271,1.121,17.667-3.705,20.4-8.49,1.544-4.86-5.9,4.312-11.059.6-12.748-6.777-1.914-6.316.328.652,9.841-1.136,6.959-3.471-12.881-12.262-14.61S3693.167,1538.575,3697.271,1544.543Z" transform="translate(-34.204 -86.738)" fill="#9fa8da"/>
    <path id="Trazado_67579" data-name="Trazado 67579" d="M4347.51,1541.775c-7.808,11.712-5.309,37.16-12.134,34.885s3.034-31.472,1.517-32.61-15.925-2.275-20.1,3.792,1.9,39.435-1.9,41.71-12.135-26.163-13.651-29.956-21.234,4.55-25.026,9.1-2.654,25.784,7.584,47.4,9.1,30.334-5.687,15.925-11-51.948-14.409-53.844-24.268,2.654-30.713,17.442-.379,28.059,4.929,35.643,17.443,15.546,15.546,17.442-18.2,4.55-26.542-2.275-11.375,4.55-1.9,14.409,31.093,15.546,53.464,15.167,12.513,12.892,26.543,19.718,50.811,5.877,44.364-4.55c-.423-.684-1.706-.758-21.613-6.067-20.547-5.479-17.442-15.167-13.65-15.546s43.984,12.513,54.6,4.171,22.751-36.022,15.168-38.677-35.265,7.2-48.156,1.517-11.755-8.343,0-9.859,46.639-3.792,49.672-14.03-1.138-16.3-7.2-15.546-31.472,5.688-29.576-2.275,20.855.379,25.026-14.408-4.551-6.446-11.755-6.067-13.271-1.137-5.687-7.584,13.271-10.238,7.583-21.992S4348.269,1540.638,4347.51,1541.775Z" transform="translate(-226.017 -90.032)" fill="#9fa8da"/>
    <g id="Grupo_26952" data-name="Grupo 26952" transform="translate(4018.06 1402.802)">
      <g id="Grupo_26951" data-name="Grupo 26951">
        <g id="Grupo_26941" data-name="Grupo 26941" transform="translate(30.293 17.469)">
          <path id="Trazado_67580" data-name="Trazado 67580" d="M4315.333,1641.41a.756.756,0,0,1-.628-.336c-.128-.193-12.737-19.6-1.422-45.334,4-9.1,8.379-17.838,12.611-26.285,7.654-15.276,14.264-28.469,15.814-38.229,1.209-7.6.367-15.184-.375-21.879-.731-6.608-1.364-12.313.333-15.969a.754.754,0,0,1,1.369.635c-1.52,3.273-.91,8.786-.2,15.169.753,6.788,1.606,14.482.366,22.281-1.587,9.99-8.247,23.279-15.955,38.667-4.225,8.431-8.592,17.149-12.579,26.218-10.971,24.95,1.172,43.705,1.3,43.892a.754.754,0,0,1-.627,1.172Z" transform="translate(-4308.573 -1492.941)" fill="#895cd8"/>
        </g>
        <g id="Grupo_26942" data-name="Grupo 26942" transform="translate(53.85)">
          <path id="Trazado_67581" data-name="Trazado 67581" d="M4355.836,1492.4s-11.942-5.909-8.478-17.677,10.3-10.362,11.226-9.556c2.831,2.479.905,7.246.905,7.246s4.7-7.219,7.831-3.1,1.582,8.382-2.832,12.4A62.725,62.725,0,0,0,4355.836,1492.4Z" transform="translate(-4346.728 -1464.647)" fill="#895cd8"/>
        </g>
        <g id="Grupo_26943" data-name="Grupo 26943" transform="translate(40.969 35.903)">
          <path id="Trazado_67582" data-name="Trazado 67582" d="M4349.474,1536.583c-2.962-4.347-5.319-13.359-11.5-13.763s-3.976,4.815-3.976,4.815-7.977,1.062-8.13,6.485,11.271,1.711,14.108,1.478S4349.474,1536.583,4349.474,1536.583Z" transform="translate(-4325.865 -1522.798)" fill="#895cd8"/>
        </g>
        <g id="Grupo_26944" data-name="Grupo 26944" transform="translate(64.469 34.629)">
          <path id="Trazado_67583" data-name="Trazado 67583" d="M4363.927,1537.185s12.058-18.942,17.038-16.174,1.028,6.095,1.028,6.095,6.317-1.984,5.993,2.681-4.455,4.564-10.865,3.008S4363.927,1537.185,4363.927,1537.185Z" transform="translate(-4363.927 -1520.735)" fill="#895cd8"/>
        </g>
        <g id="Grupo_26945" data-name="Grupo 26945" transform="translate(32.258 64.197)">
          <path id="Trazado_67584" data-name="Trazado 67584" d="M4338.184,1577.621c-2.064-4.658-5.023-7.881-12.583-8.788s-11.375,1.3-11.593,3.656,3.774,3.3,3.774,3.3-6.122,1.253-6.024,6.057,11.6-2.954,16.171-4.484S4338.184,1577.621,4338.184,1577.621Z" transform="translate(-4311.756 -1568.625)" fill="#895cd8"/>
        </g>
        <g id="Grupo_26946" data-name="Grupo 26946" transform="translate(58.686 61.516)">
          <path id="Trazado_67585" data-name="Trazado 67585" d="M4354.561,1575.96a42.938,42.938,0,0,1,16.237-10.637c10.217-3.737,7.822,3.8,7.822,3.8s6.83,1.134,5.132,6.982-10.48-.14-15.653-1.334S4354.561,1575.96,4354.561,1575.96Z" transform="translate(-4354.561 -1564.283)" fill="#895cd8"/>
        </g>
        <g id="Grupo_26947" data-name="Grupo 26947" transform="translate(19.911 87.223)">
          <path id="Trazado_67586" data-name="Trazado 67586" d="M4319.886,1612.654s1.277-5.847-9.037-6.634-15.472,3.218-16.869,6.312,4.03,4.653,4.03,4.653-7.131,1.9-6.162,7.041,8.625-.333,14.848-5.436A28.378,28.378,0,0,1,4319.886,1612.654Z" transform="translate(-4291.759 -1605.92)" fill="#895cd8"/>
        </g>
        <g id="Grupo_26948" data-name="Grupo 26948" transform="translate(48.685 86.945)">
          <path id="Trazado_67587" data-name="Trazado 67587" d="M4338.363,1612.649s7.2-7.212,15.237-7.178,17.2,3.156,18.118,9.025-7.1,3.363-7.1,3.363,5.611,7.234-.674,10.257-2.133-9.125-10.544-13.26S4338.363,1612.649,4338.363,1612.649Z" transform="translate(-4338.363 -1605.471)" fill="#895cd8"/>
        </g>
        <g id="Grupo_26949" data-name="Grupo 26949" transform="translate(0 122.739)">
          <path id="Trazado_67588" data-name="Trazado 67588" d="M4291.633,1671.372c-4.313-5.354-7.866.162-12.341-2.579s-6.875-6.949-10.6-4.719-.238,5.255-.238,5.255-12.913,4.109-7.7,9.152,14.495-1.248,20.3-4.242A24.022,24.022,0,0,1,4291.633,1671.372Z" transform="translate(-4259.508 -1663.445)" fill="#895cd8"/>
        </g>
        <g id="Grupo_26950" data-name="Grupo 26950" transform="translate(32.547 117.667)">
          <path id="Trazado_67589" data-name="Trazado 67589" d="M4312.224,1668.509s1.425-3.038,10.25-1.995,13.987-11.895,18.316-11.261,2.434,6.652,2.434,6.652,10.845-.114,5.194,8.639-24.617-1.674-28.13-2.226A30.686,30.686,0,0,0,4312.224,1668.509Z" transform="translate(-4312.224 -1655.23)" fill="#895cd8"/>
        </g>
      </g>
    </g>
    <g id="Grupo_26964" data-name="Grupo 26964" transform="translate(3727.135 1377.04)">
      <g id="Grupo_26963" data-name="Grupo 26963">
        <g id="Grupo_26953" data-name="Grupo 26953" transform="translate(13.069 16.406)">
          <path id="Trazado_67590" data-name="Trazado 67590" d="M3810.228,1594.329a.753.753,0,0,1-.372-1.409c.195-.111,19.5-11.361,20.973-38.578.536-9.892.575-19.643.613-29.072.068-17.21.127-32.074,3.22-41.7,2.416-7.518,6.65-14,10.386-19.716,3.513-5.376,6.547-10.019,6.669-13.626a.766.766,0,0,1,.779-.728.753.753,0,0,1,.728.779c-.136,4.028-3.277,8.834-6.914,14.4-3.684,5.638-7.86,12.027-10.213,19.351-3.021,9.409-3.081,24.165-3.148,41.25-.038,9.448-.077,19.218-.616,29.148-1.522,28.072-21.534,39.694-21.736,39.809A.747.747,0,0,1,3810.228,1594.329Z" transform="translate(-3809.473 -1449.493)" fill="#ffd54f"/>
        </g>
        <g id="Grupo_26954" data-name="Grupo 26954" transform="translate(48.669)">
          <path id="Trazado_67591" data-name="Trazado 67591" d="M3871.222,1449.085s13.324.119,15.545-11.946-4.516-13.9-5.7-13.595c-3.645.934-4.078,6.057-4.078,6.057s-.935-8.564-5.588-6.3-5.2,6.765-3.071,12.341A62.711,62.711,0,0,1,3871.222,1449.085Z" transform="translate(-3867.135 -1422.921)" fill="#ffd54f"/>
        </g>
        <g id="Grupo_26955" data-name="Grupo 26955" transform="translate(41.406 37.413)">
          <path id="Trazado_67592" data-name="Trazado 67592" d="M3855.37,1491.113c4.606-2.541,10.777-9.519,16.476-7.089s1.375,6.092,1.375,6.092,6.638,4.548,4.326,9.457-10.829-3.563-13.256-5.051S3855.37,1491.113,3855.37,1491.113Z" transform="translate(-3855.37 -1483.519)" fill="#ffd54f"/>
        </g>
        <g id="Grupo_26956" data-name="Grupo 26956" transform="translate(22.289 24.172)">
          <path id="Trazado_67593" data-name="Trazado 67593" d="M3842.993,1484.2s-2.207-22.345-7.9-22.124-3.669,4.973-3.669,4.973-4.74-4.622-6.557-.313,1.914,6.083,8.336,7.589S3842.993,1484.2,3842.993,1484.2Z" transform="translate(-3824.408 -1462.072)" fill="#ffd54f"/>
        </g>
        <g id="Grupo_26957" data-name="Grupo 26957" transform="translate(36.051 65.163)">
          <path id="Trazado_67594" data-name="Trazado 67594" d="M3846.7,1531.941c3.944-3.225,8.04-4.765,15.195-2.16s9.565,6.292,8.695,8.5-4.86,1.245-4.86,1.245,4.9,3.882,2.64,8.125-9.012-7.871-12.4-11.3S3846.7,1531.941,3846.7,1531.941Z" transform="translate(-3846.697 -1528.464)" fill="#ffd54f"/>
        </g>
        <g id="Grupo_26958" data-name="Grupo 26958" transform="translate(9.855 48.249)">
          <path id="Trazado_67595" data-name="Trazado 67595" d="M3830.464,1521.46a42.95,42.95,0,0,0-9.687-16.823c-7.429-7.947-8.694-.141-8.694-.141s-6.606-2.073-7.732,3.913,9.415,4.607,14.569,5.877S3830.464,1521.46,3830.464,1521.46Z" transform="translate(-3804.268 -1501.069)" fill="#ffd54f"/>
        </g>
        <g id="Grupo_26959" data-name="Grupo 26959" transform="translate(36.177 88.755)">
          <path id="Trazado_67596" data-name="Trazado 67596" d="M3846.9,1569.9s1.5-5.794,11.058-1.839,12.353,9.856,12.2,13.248-5.7,2.332-5.7,2.332,5.5,4.917,2.319,9.064-7.545-4.191-10.794-11.554A28.375,28.375,0,0,0,3846.9,1569.9Z" transform="translate(-3846.901 -1566.675)" fill="#ffd54f"/>
        </g>
        <g id="Grupo_26960" data-name="Grupo 26960" transform="translate(4.081 75.302)">
          <path id="Trazado_67597" data-name="Trazado 67597" d="M3826.359,1561.416s-3.169-9.686-10.354-13.284-16.775-4.951-20.241-.127,4.816,6.205,4.816,6.205-8.272,3.921-4.029,9.456,6.023-7.179,15.4-7.071S3826.359,1561.416,3826.359,1561.416Z" transform="translate(-3794.916 -1544.886)" fill="#ffd54f"/>
        </g>
        <g id="Grupo_26961" data-name="Grupo 26961" transform="translate(33.803 131.201)">
          <path id="Trazado_67598" data-name="Trazado 67598" d="M3843.056,1636.137c6.266-2.83,6.945,3.7,12.176,3.27s9.271-3.1,11.594.577-2.16,4.8-2.16,4.8,9.666,9.5,2.739,11.643-12.37-7.657-16.2-12.951A24.024,24.024,0,0,0,3843.056,1636.137Z" transform="translate(-3843.056 -1635.423)" fill="#ffd54f"/>
        </g>
        <g id="Grupo_26962" data-name="Grupo 26962" transform="translate(0 107.047)">
          <path id="Trazado_67599" data-name="Trazado 67599" d="M3821.606,1621.229s.1-3.354-8.245-6.407-7.11-16.929-11.258-18.317-5.176,4.836-5.176,4.836-9.625-5-8.534,5.364,22.72,9.62,26.1,10.714A30.679,30.679,0,0,1,3821.606,1621.229Z" transform="translate(-3788.307 -1596.303)" fill="#ffd54f"/>
        </g>
      </g>
    </g>
    <path id="Trazado_67600" data-name="Trazado 67600" d="M4321.506,1550.262c15.42,31.093,11.628,135.241,4.044,141.56S4321.506,1550.262,4321.506,1550.262Z" transform="translate(-264.854 -94.601)" fill="#e6e6e6" style="mix-blend-mode: multiply;isolation: isolate"/>
    <path id="Trazado_67601" data-name="Trazado 67601" d="M3824.63,1502.358c-14.409,12.892-5.562,37.918-20.223,40.7s-32.1-.506-34.379,11.123.253,144.594,9.859,149.4,49.293-154.453,49.293-169.62S3824.63,1502.358,3824.63,1502.358Z" transform="translate(-53.879 -76.273)" fill="#e6e6e6" style="mix-blend-mode: multiply;isolation: isolate"/>
    <rect id="Rectángulo_25731" data-name="Rectángulo 25731" width="297.783" height="186.051" rx="21.29" transform="translate(3764.174 1422.079)" fill="#dedede"/>
    <rect id="Rectángulo_25732" data-name="Rectángulo 25732" width="268.652" height="157.739" transform="translate(3778.739 1436.235)" fill="#fff3eb"/>
    <path id="Rectángulo_25733" data-name="Rectángulo 25733" d="M4.519,0H409.547a4.519,4.519,0,0,1,4.519,4.519v0a15.2,15.2,0,0,1-15.2,15.2H15.2A15.2,15.2,0,0,1,0,4.519v0A4.519,4.519,0,0,1,4.519,0Z" transform="translate(3706.033 1601.937)" fill="#dedede"/>
    <rect id="Rectángulo_25734" data-name="Rectángulo 25734" width="269.092" height="157.701" transform="translate(3778.503 1436.254)" fill="#fff"/>
    <rect id="Rectángulo_25735" data-name="Rectángulo 25735" width="269.123" height="16.646" transform="translate(3778.503 1436.254)" fill="#895cd8"/>
    <path id="Trazado_67602" data-name="Trazado 67602" d="M3889.446,1530.429a3.034,3.034,0,1,1-3.033-3.034A3.034,3.034,0,0,1,3889.446,1530.429Z" transform="translate(-97.544 -85.852)" fill="#ebefff"/>
    <rect id="Rectángulo_25736" data-name="Rectángulo 25736" width="37.823" height="6.104" rx="3.052" transform="translate(3841.163 1441.525)" fill="#fff"/>
    <rect id="Rectángulo_25737" data-name="Rectángulo 25737" width="37.823" height="6.104" rx="3.052" transform="translate(3893.996 1441.525)" fill="#fff"/>
    <rect id="Rectángulo_25738" data-name="Rectángulo 25738" width="37.823" height="6.104" rx="3.052" transform="translate(3946.828 1441.525)" fill="#fff"/>
    <rect id="Rectángulo_25739" data-name="Rectángulo 25739" width="37.823" height="6.104" rx="3.052" transform="translate(3999.661 1441.525)" fill="#fff"/>
    <rect id="Rectángulo_25740" data-name="Rectángulo 25740" width="69.769" height="8.089" rx="4.045" transform="translate(3877.596 1465.539)" fill="#895cd8"/>
    <rect id="Rectángulo_25741" data-name="Rectángulo 25741" width="69.769" height="42.468" rx="5.937" transform="translate(3877.596 1520.141)" fill="#ffd54f"/>
    <rect id="Rectángulo_25742" data-name="Rectángulo 25742" width="69.769" height="42.468" rx="5.937" transform="translate(3795.693 1520.141)" fill="#ffd54f"/>
    <rect id="Rectángulo_25743" data-name="Rectángulo 25743" width="69.769" height="42.468" rx="5.937" transform="translate(3958.993 1520.141)" fill="#ffd54f"/>
    <path id="Trazado_67603" data-name="Trazado 67603" d="M4090.517,1627.576h-23.762a4.044,4.044,0,0,1-4.044-4.045h0a4.044,4.044,0,0,1,4.044-4.045h23.762a4.044,4.044,0,0,1,4.044,4.045h0A4.044,4.044,0,0,1,4090.517,1627.576Z" transform="translate(-166.155 -121.086)" fill="#895cd8"/>
    <path id="Trazado_67604" data-name="Trazado 67604" d="M4097.347,1737.354H4044.26a2.022,2.022,0,0,1-2.022-2.023h0a2.022,2.022,0,0,1,2.022-2.022h53.086a2.022,2.022,0,0,1,2.022,2.022h0A2.023,2.023,0,0,1,4097.347,1737.354Z" transform="translate(-158.323 -164.633)" fill="#c7d6ff"/>
    <path id="Trazado_67605" data-name="Trazado 67605" d="M4097.756,1750.25h-53.085a2.022,2.022,0,0,1-2.022-2.022h0a2.023,2.023,0,0,1,2.022-2.023h53.085a2.022,2.022,0,0,1,2.022,2.023h0A2.022,2.022,0,0,1,4097.756,1750.25Z" transform="translate(-158.48 -169.567)" fill="#e6eeff"/>
    <path id="Trazado_67606" data-name="Trazado 67606" d="M4081.578,1763.148h-36.907a2.022,2.022,0,0,1-2.022-2.022h0a2.023,2.023,0,0,1,2.022-2.023h36.907a2.022,2.022,0,0,1,2.022,2.023h0A2.022,2.022,0,0,1,4081.578,1763.148Z" transform="translate(-158.48 -174.502)" fill="#ebf1ff"/>
    <path id="Trazado_67607" data-name="Trazado 67607" d="M3948.615,1763.148h-36.907a2.022,2.022,0,0,1-2.022-2.022h0a2.023,2.023,0,0,1,2.022-2.023h36.907a2.022,2.022,0,0,1,2.022,2.023h0A2.021,2.021,0,0,1,3948.615,1763.148Z" transform="translate(-107.609 -174.502)" fill="#ffe1ba"/>
    <path id="Trazado_67608" data-name="Trazado 67608" d="M3964.691,1737.354H3911.6a2.022,2.022,0,0,1-2.022-2.023h0a2.022,2.022,0,0,1,2.022-2.022h53.086a2.022,2.022,0,0,1,2.022,2.022h0A2.022,2.022,0,0,1,3964.691,1737.354Z" transform="translate(-107.57 -164.633)" fill="#ffcf8c"/>
    <path id="Trazado_67609" data-name="Trazado 67609" d="M3964.64,1750.25h-53.085a2.022,2.022,0,0,1-2.022-2.022h0a2.023,2.023,0,0,1,2.022-2.023h53.085a2.022,2.022,0,0,1,2.022,2.023h0A2.022,2.022,0,0,1,3964.64,1750.25Z" transform="translate(-107.55 -169.567)" fill="#ffe1ba"/>
    <path id="Trazado_67610" data-name="Trazado 67610" d="M4229.594,1737.354h-53.085a2.023,2.023,0,0,1-2.022-2.023h0a2.022,2.022,0,0,1,2.022-2.022h53.085a2.022,2.022,0,0,1,2.022,2.022h0A2.022,2.022,0,0,1,4229.594,1737.354Z" transform="translate(-208.92 -164.633)" fill="#c7d6ff"/>
    <path id="Trazado_67611" data-name="Trazado 67611" d="M4230,1750.149h-53.085a2.023,2.023,0,0,1-2.022-2.023h0a2.022,2.022,0,0,1,2.022-2.022H4230a2.022,2.022,0,0,1,2.023,2.022h0A2.023,2.023,0,0,1,4230,1750.149Z" transform="translate(-209.076 -169.528)" fill="#e6eeff"/>
    <path id="Trazado_67612" data-name="Trazado 67612" d="M4245.824,1762.943H4218.27a2.021,2.021,0,0,1-2.022-2.022h0a2.022,2.022,0,0,1,2.022-2.022h27.554a2.022,2.022,0,0,1,2.022,2.022h0A2.022,2.022,0,0,1,4245.824,1762.943Z" transform="translate(-224.898 -174.424)" fill="#ebf1ff"/>
    <path id="Trazado_67613" data-name="Trazado 67613" d="M4110.493,1591.515H3986.627a2.529,2.529,0,0,1-2.528-2.528h0a2.528,2.528,0,0,1,2.528-2.528h123.865a2.528,2.528,0,0,1,2.528,2.528h0A2.528,2.528,0,0,1,4110.493,1591.515Z" transform="translate(-136.079 -108.449)" fill="#d1bcff"/>
    <path id="Trazado_67614" data-name="Trazado 67614" d="M4079.147,1609.257h-92.52a2.528,2.528,0,0,1-2.528-2.528h0a2.529,2.529,0,0,1,2.528-2.528h92.52a2.528,2.528,0,0,1,2.528,2.528h0A2.528,2.528,0,0,1,4079.147,1609.257Z" transform="translate(-136.079 -115.237)" fill="#d1bcff"/>
    <path id="Trazado_67615" data-name="Trazado 67615" d="M4333.639,1663.278c-.223,2.4-3.134,5.773-5.748,7.755a.713.713,0,0,1-.112.087,54.393,54.393,0,0,1-2.564-6.23,9.891,9.891,0,0,1-.483-2.094c-.074-.743.063-1.226.545-1.239h.024c1.8,0,5.487-1.214,7.3-.359a1.623,1.623,0,0,1,.9.9A2.341,2.341,0,0,1,4333.639,1663.278Z" transform="translate(-266.396 -136.927)" fill="#440c01"/>
    <path id="Trazado_67616" data-name="Trazado 67616" d="M4334.967,1664.756c-.223,2.4-3.134,5.773-5.748,7.755a.1.1,0,0,1-.038.012c-.9-1.6-2.143-5,1.165-5.661C4333.01,1666.342,4334.446,1665.45,4334.967,1664.756Z" transform="translate(-267.723 -138.405)" style="mix-blend-mode: multiply;isolation: isolate"/>
    <path id="Trazado_67617" data-name="Trazado 67617" d="M4331.256,1680.046c.049.359-4.423,2.292-4.522,2.081-.024-.05-.125-.26-.272-.583a30.527,30.527,0,0,1-1.759-4.137,11.387,11.387,0,0,1,1.994-1.325c.013-.012.026-.012.038-.025.347-.211.594-.347.594-.347.038.037.088.062.137.111a2.386,2.386,0,0,1,.3.26A23.821,23.821,0,0,1,4331.256,1680.046Z" transform="translate(-266.39 -142.597)" fill="#ffe2d7"/>
    <path id="Trazado_67618" data-name="Trazado 67618" d="M4326.262,1681.128c.05-.507-.162-1.412-.162-1.982,0-.669,1.388-1.8,1.66-3.072a1.311,1.311,0,0,0,.05-.384,3.219,3.219,0,0,0-.347.123c-.186.05-.446.136-.73.236-.012.012-.024.012-.038.025a11.411,11.411,0,0,0-1.994,1.325c-.012.025,0,.062.012.112Z" transform="translate(-266.389 -142.589)" fill="#e6e6e6" style="mix-blend-mode: multiply;isolation: isolate"/>
    <path id="Trazado_67619" data-name="Trazado 67619" d="M4325.347,1667.2c0,.236-.62,4.571-.693,4.881s-5.19,4.881-6.665,3.555c-1.288-1.165-2.229-5.091-.521-9.03a11.446,11.446,0,0,1,.83-1.573s1.995.545,3.864,1.09A20.242,20.242,0,0,1,4325.347,1667.2Z" transform="translate(-263.269 -138.513)" fill="#ffe2d7"/>
    <path id="Trazado_67620" data-name="Trazado 67620" d="M4329.131,1672.186c.581-.813,1.742-.58,1.82.155s-1.277,2.632-2.09,2.013S4329.131,1672.186,4329.131,1672.186Z" transform="translate(-267.867 -141.052)" fill="#ffe2d7"/>
    <path id="Trazado_67621" data-name="Trazado 67621" d="M4324.732,1666.9c-1.4-.4-5.352.136-6.689-.285a11.345,11.345,0,0,1,.831-1.573s1.994.545,3.865,1.09Z" transform="translate(-263.844 -138.513)" fill="#e6e6e6" style="mix-blend-mode: multiply;isolation: isolate"/>
    <path id="Trazado_67622" data-name="Trazado 67622" d="M4324.6,1667.009s.187-1.065-1.213-2.068a4.051,4.051,0,0,0-1.784-.656,38.616,38.616,0,0,1-3.865-.508c-1.821-.5-2.788-3.828-2.366-4.373.161-.2.583-.049,1.213.223a12.849,12.849,0,0,0,5.079,1.326h.025s1.438.557,2.688,1.139a8.511,8.511,0,0,1,1.647.942C4326.845,1663.739,4324.6,1667.009,4324.6,1667.009Z" transform="translate(-262.785 -136.323)" fill="#440c01"/>
    <path id="Trazado_67623" data-name="Trazado 67623" d="M4353.428,1783.035c-.483.161-7.952.31-12.536.31a26.234,26.234,0,0,1-3.53-.112c-.111-.074.037-.334.433-.681a9.9,9.9,0,0,1,4.472-1.92c.4-.074.817-.136,1.251-.186,4.261-.421,4.3-3.753,5.735-3.679a5.864,5.864,0,0,1,2.737,1.041,13.676,13.676,0,0,1,1.313,2.5C4353.911,1781.834,4353.9,1782.875,4353.428,1783.035Z" transform="translate(-271.222 -181.259)" fill="#460000"/>
    <path id="Trazado_67624" data-name="Trazado 67624" d="M4401.285,1774.086s-.049.1-.16.285c-.731,1.337-3.853,6.937-4.745,6.986-.644.037-3.888.235-6.317.186-1.411-.013-2.564-.112-2.762-.384-.086-.112,0-.273.211-.483.892-.867,4.051-2.428,5.722-3.258.558-.285.941-.483,1.029-.545.408-.309-.211-4.644.878-5.115a5.588,5.588,0,0,1,2.688-.149C4399.217,1772.117,4401.285,1773.355,4401.285,1774.086Z" transform="translate(-290.329 -179.247)" fill="#460000"/>
    <path id="Trazado_67625" data-name="Trazado 67625" d="M4376.1,1750.451c0,.124-.335.21-.88.248a20.564,20.564,0,0,1-5.476-.484c-1.932-.533-14.393-9.2-17.416-12.226s-8.361-12.548-8.361-12.548l-.024.025c-.62.582-10.518,9.835-10.89,10.591s2.788,2.478,5.426,4.794c2.614,2.3,11.062,13.675,11.062,14.084-.075.322-4.1-.458-6.032-1.313s-15.88-11.458-16.5-15.483c-.285-1.834,1.126-4.819,3.208-8.089a135.043,135.043,0,0,1,8.485-11.421,5.982,5.982,0,0,1,1.512-2.168c1.3-1.177,3.555-1.994,7.16.075,6.59,3.8,6.664,6.9,8.671,12.548s4.41,6.739,6.194,8.212S4376.1,1749.98,4376.1,1750.451Z" transform="translate(-267.261 -157.73)" fill="#604a49"/>
    <path id="Trazado_67626" data-name="Trazado 67626" d="M4344.306,1717.6a164.275,164.275,0,0,1-12.078,13.192,135.065,135.065,0,0,1,8.485-11.421,5.982,5.982,0,0,1,1.512-2.168C4343.377,1717.387,4344.306,1717.6,4344.306,1717.6Z" transform="translate(-269.271 -158.47)" fill="#5c3231"/>
    <path id="Trazado_67627" data-name="Trazado 67627" d="M4348.293,1704.939c-.248.4-2.366-.408-4.607-.644a7.637,7.637,0,0,0-2.874.136c-2.887.818-4.237,2.366-4.6,1.6-.347-.743-5.8-4.843-10.331-9.675-.21-.21-.409-.433-.607-.644a8.186,8.186,0,0,1-2.439-5.673c.062-3.208,2.477-6.3,6.516-8.832,1.25-.78,3.22,1.3,5.14,4.051a85.477,85.477,0,0,1,5.079,8.7C4341.282,1697.2,4348.665,1704.382,4348.293,1704.939Z" transform="translate(-265.678 -144.635)" fill="#ffd54f"/>
    <path id="Trazado_67628" data-name="Trazado 67628" d="M4310.666,1690.428a10.643,10.643,0,0,1-2.924,1.623c-.384.161-.768.334-1.164.5-.359.148-.73.3-1.09.433v.012a24.507,24.507,0,0,1-3.964,1.263c-2.206.359-16.76-4.682-17.453-5.537s-.657-10.132-.657-10.405.421-.421,1.895,2.354c1.463,2.8.805,4.806.843,6.008s1.089.8,5.933,1.585,8.473,1.437,9.167,1.437c.532,0,.941-.4,2.824-1.561a.255.255,0,0,1,.062-.037c.012-.012.024-.012.037-.025.521-.322,1.165-.706,1.958-1.165C4306.132,1686.91,4310.926,1689.809,4310.666,1690.428Z" transform="translate(-250.595 -143.539)" fill="#ffe2d7"/>
    <path id="Trazado_67629" data-name="Trazado 67629" d="M4320.664,1698.283a5.08,5.08,0,0,1-1.238.384l-.013-.012c-.359.148-.73.3-1.09.433.173-.867-.607-2.849-1.053-4.076-.012-.025-.025-.037-.025-.049-.124-.322-.21-.582-.272-.756a.093.093,0,0,0-.012-.062s0-.012.012,0,.013.025.037.037c.348.359,2.676,2.775,3.568,3.976A.621.621,0,0,1,4320.664,1698.283Z" transform="translate(-263.429 -149.648)" fill="#e6e6e6" style="mix-blend-mode: multiply;isolation: isolate"/>
    <path id="Trazado_67630" data-name="Trazado 67630" d="M4326.864,1696.255a2.538,2.538,0,0,0-.979,3.357c-.21-.21-.409-.433-.607-.644a8.186,8.186,0,0,1-2.439-5.673,33.482,33.482,0,0,1,7.976-3.741C4331.669,1692.106,4330.084,1694.236,4326.864,1696.255Z" transform="translate(-265.678 -147.893)" fill="#d3a820"/>
    <path id="Trazado_67631" data-name="Trazado 67631" d="M4327.953,1691.251c-1.1,1.338-5.227,3.146-7.32,3.914a5.075,5.075,0,0,1-1.238.384l-.013-.012a35.219,35.219,0,0,1-2.143-3.642c-.012-.025-.025-.037-.025-.049a5.229,5.229,0,0,1-.333-.719v-.037c0-.012.024-.025.049-.062,0,0,0-.012.012,0,.607-.719,6.776-7.11,10.814-4.348A3.411,3.411,0,0,1,4327.953,1691.251Z" transform="translate(-263.399 -146.53)" fill="#ffd54f"/>
    <path id="Trazado_67632" data-name="Trazado 67632" d="M4355.517,1707.552c-.248.4-2.366-.409-4.607-.644.73-.335,2.936-.073,2.65-.964-.421-1.288-3.937-3.075-6.155-5.652-1.982-2.3-3.8-6.143-5.687-12.423a85.449,85.449,0,0,1,5.078,8.7C4348.505,1699.81,4355.888,1706.994,4355.517,1707.552Z" transform="translate(-272.901 -147.248)" fill="#d3a820"/>
    <path id="Trazado_67633" data-name="Trazado 67633" d="M4385.736,1755.974a20.562,20.562,0,0,1-5.476-.484c-1.932-.533-14.394-9.2-17.416-12.226s-8.361-12.548-8.361-12.548l-.025.025c.8-1.106,1.123-1.723,1.383-1.686.31.049,6.623,11.039,9.51,13.355C4368.162,1744.664,4384.187,1753.472,4385.736,1755.974Z" transform="translate(-277.776 -163.005)" fill="#5c3231"/>
    <path id="Trazado_67634" data-name="Trazado 67634" d="M4402.858,1776.147c-.731,1.337-3.853,6.937-4.745,6.986-.644.037-3.889.235-6.318.186a15,15,0,0,1,4.36-1.115C4398.063,1782.08,4399.983,1778.091,4402.858,1776.147Z" transform="translate(-292.061 -181.023)" fill="#ccc" style="mix-blend-mode: multiply;isolation: isolate"/>
    <path id="Trazado_67635" data-name="Trazado 67635" d="M4355.638,1785.231c-.483.161-7.953.31-12.536.31,1.151-.681,10.517-1.945,12.412-3.035C4356.121,1784.03,4356.108,1785.071,4355.638,1785.231Z" transform="translate(-273.431 -183.455)" fill="#ccc" style="mix-blend-mode: multiply;isolation: isolate"/>
    <path id="Trazado_67636" data-name="Trazado 67636" d="M4329.8,1660.787c-1.227.322-2.9,1.1-4.608,1.5a7.287,7.287,0,0,1-2.515.236,5.281,5.281,0,0,1-.743-.136,11.6,11.6,0,0,1-4.534-2.564,12.847,12.847,0,0,0,5.079,1.326h.025C4324.3,1661.147,4327.993,1659.932,4329.8,1660.787Z" transform="translate(-263.598 -136.517)" fill="#ff4747" style="mix-blend-mode: soft-light;isolation: isolate"/>
    <path id="Trazado_67637" data-name="Trazado 67637" d="M4342.558,1783.028c-1.152.458-2.738,2.192-3.431,2.081-.261-.05-.657-.087-1.041-.161A9.892,9.892,0,0,1,4342.558,1783.028Z" transform="translate(-271.512 -183.655)" fill="#fff" opacity="0.4"/>
    <path id="Trazado_67638" data-name="Trazado 67638" d="M4393.386,1781.082a6.56,6.56,0,0,1-5.724,3.258C4388.555,1783.473,4391.713,1781.912,4393.386,1781.082Z" transform="translate(-290.479 -182.911)" fill="#fff" opacity="0.4"/>
    <g id="Grupo_26967" data-name="Grupo 26967" transform="translate(3963.398 1500.936)">
      <g id="Grupo_26966" data-name="Grupo 26966" transform="translate(0 0)">
        <path id="Trazado_67639" data-name="Trazado 67639" d="M4242.225,1661.639v71.981a5.615,5.615,0,0,1-5.612,5.612h-62.9Z" transform="translate(-4172.021 -1638.149)" fill="#895cd8"/>
        <g id="Grupo_26965" data-name="Grupo 26965">
          <path id="Trazado_67640" data-name="Trazado 67640" d="M4241.177,1647.083l-44.42,50.3v.012l-4.063,4.583-20.03,22.693s-3.344-25.951-.322-30.088a5.794,5.794,0,0,1,2.787-2.242c2.379-.78,5.017.817,7.718,3.518,3.814,3.816,13.216,2.229,13.526-8.113a18,18,0,0,0-.223-3.555c-1.264-7.668-7.469-10.417-11.235-7.9-4.3,2.862-10.5,7.16-11.929,1.425s-3.592-29.754-.21-30.633c1.809-.471,10.245.817,17.665,1.189,6.4.309,12.052-.062,11.978-2.862-.123-4.657-5.908-8.559-7.469-12.214a3.633,3.633,0,0,1,0-3.22c2.378-4.621,10.343-9.389,19.732-3.976s-.483,11.767,1.276,17.181S4240.458,1645.089,4241.177,1647.083Z" transform="translate(-4170.974 -1623.592)" fill="#895cd8"/>
        </g>
      </g>
    </g>
    <path id="Trazado_67641" data-name="Trazado 67641" d="M4258.5,1702.728v46.612a5.615,5.615,0,0,1-5.612,5.612h-36.64c15.6-.682,29.841-3.753,32.887-9.191C4252.576,1739.592,4253.1,1705.874,4258.5,1702.728Z" transform="translate(-224.897 -152.933)" fill="#d1bcff"/>
    <path id="Trazado_67642" data-name="Trazado 67642" d="M4217.094,1654.855c-3.989,3.63-10.69,1.313-14.592-.632,6.4.309,12.052-.062,11.978-2.862-.124-4.657-5.908-8.559-7.469-12.214C4211.322,1643.038,4222,1650.4,4217.094,1654.855Z" transform="translate(-219.639 -128.608)" fill="#d1bcff"/>
    <path id="Trazado_67643" data-name="Trazado 67643" d="M4199.332,1734.94v.012a8.789,8.789,0,0,1-1.783,2.911,8.407,8.407,0,0,1-2.28,1.672c-3.617,1.809-7.555.112-9.649-1.982-2.378-2.378-4.708-7.556-7.916-7.655,2.378-.78,5.017.817,7.717,3.518,3.815,3.816,13.217,2.23,13.527-8.113a18.04,18.04,0,0,0-.223-3.555C4200.781,1724.2,4201.028,1730.592,4199.332,1734.94Z" transform="translate(-210.151 -160.21)" fill="#d1bcff"/>
    <path id="Trazado_67644" data-name="Trazado 67644" d="M3968.939,1732.271l-.874,1.283s8.516,2.929,10.923,2.078,7.858-21.2,8.142-21.995c.011-.034.023-.1.045-.17a5.41,5.41,0,0,0,.046-.556v-.011c.023-.352.023-.817.023-1.329.011-1.26-.035-2.873-.069-4.19-.034-1.056-.068-1.931-.079-2.305-.012-.125-.012-.193-.012-.193v-.17a2.709,2.709,0,0,0-.022-.318,1.89,1.89,0,0,0-.614-1.169c-.011-.012-.011,0-.011,0a2.459,2.459,0,0,0-3.565.329c-1.352,1.964-4.69,8.709-8.471,14.625-.794,1.237-1.692,2.532-2.6,3.815-3.282,4.621-6.847,8.97-7.12,9.311a22.045,22.045,0,0,0,5.462-4.383c2.294-2.6,5.11-6.154,5.382-6.495a58.343,58.343,0,0,1-3.441,6.972c-.863,1.431-1.805,2.873-2.555,4C3969.314,1731.715,3969.121,1732.01,3968.939,1732.271Z" transform="translate(-128.65 -152.889)" fill="#440c01"/>
    <path id="Trazado_67645" data-name="Trazado 67645" d="M3970.163,1734.945s8.515,2.929,10.923,2.078,7.858-21.2,8.142-21.995c.011-.034.022-.1.045-.17.2-1.408-.091-8.584-.091-8.584-1.464-.307-4.5,1.964-3.622,6.4s-2.418,4.894-6.041,12.978c-2.271,5.076-5.632,6.586-7.892,7.131-.215.318-.408.613-.59.874Z" transform="translate(-130.748 -154.279)" style="mix-blend-mode: multiply;isolation: isolate"/>
    <path id="Trazado_67646" data-name="Trazado 67646" d="M3998.047,1715.75s.409-.636.988-1.579v-.011c.375-.6.806-1.329,1.249-2.089a23.952,23.952,0,0,0,2.248-4.621c.091-.33.091-.557-.023-.648a5.086,5.086,0,0,0-3.611-.828,3.276,3.276,0,0,0-1.124.409,3.8,3.8,0,0,0-1.339,1.294C3994.561,1710.561,3995.981,1713.638,3998.047,1715.75Z" transform="translate(-140.464 -154.149)" fill="#440c01"/>
    <path id="Trazado_67647" data-name="Trazado 67647" d="M3995.829,1723.527a7.211,7.211,0,0,0,3.111,1.794,4.66,4.66,0,0,0,.307-.84,19.193,19.193,0,0,1,.919-2.578,1.718,1.718,0,0,1,.431-.6c.716-.477-.466-1.7-.795-1.839s-1.192.42-1.192.42C3997.056,1721.347,3995.682,1723.05,3995.829,1723.527Z" transform="translate(-140.563 -159.326)" fill="#ffe2d7"/>
    <path id="Trazado_67648" data-name="Trazado 67648" d="M4000.931,1724.869a19.263,19.263,0,0,1,.92-2.578c-.125-.624-1.431-1.839-1.431-1.839-.636,1.113.443,1.964.5,3.157C4000.942,1724.222,4000.9,1724.619,4000.931,1724.869Z" transform="translate(-142.247 -159.714)" fill="#e6e6e6" style="mix-blend-mode: multiply;isolation: isolate"/>
    <path id="Trazado_67649" data-name="Trazado 67649" d="M4000.32,1718.254c.193.568,3.122,4.815,4.78,3.872,1.533-.875,2.5-4.485,1.783-7.778a6.816,6.816,0,0,0-.216-.829s-1.328-.125-2.691-.182c-1.4-.057-2.839-.034-2.986.272A16.227,16.227,0,0,0,4000.32,1718.254Z" transform="translate(-142.272 -156.983)" fill="#ffe2d7"/>
    <path id="Trazado_67650" data-name="Trazado 67650" d="M4000.007,1717.737c-.757-.9-1.631-.875-1.773-.189s.97,2.2,1.49,1.514A1.462,1.462,0,0,0,4000.007,1717.737Z" transform="translate(-141.482 -158.411)" fill="#ffe2d7"/>
    <path id="Trazado_67651" data-name="Trazado 67651" d="M4041.9,1686.606a1.528,1.528,0,0,0-.125.363v54.923a6.115,6.115,0,0,0,6.12,6.12h45.9a2.139,2.139,0,0,0,2.135-2.373c-.614-5.53-1.885-19,.022-21.609,2.407-3.293,5.337-2.033,8.38,1.011s10.526,1.782,10.776-6.461-5.712-11.423-9.13-9.14c-.442.3-.9.6-1.373.908h-.012c-3.247,2.123-7.142,4.213-8.13.238a82.687,82.687,0,0,1-1.431-11.854v-.012c-.261-4.417-.261-8.8.318-11.048a1.623,1.623,0,0,0-1.317-2c-5.156-.9-15.727-1.771-18.509.045-3.292,2.158-.635,5.2,2.158,9.89,1.987,3.327-.954,9.856-5.949,10.8h-.012c-2.054.364-4.428-.193-6.971-2.294-8.028-6.631-.6-12.195-.874-15.125a1.335,1.335,0,0,0-.272-.738C4061.566,1685.595,4043.046,1684.959,4041.9,1686.606Z" transform="translate(-158.145 -146.019)" fill="#d1bcff"/>
    <path id="Trazado_67652" data-name="Trazado 67652" d="M4041.774,1715.326v38.3a6.115,6.115,0,0,0,6.12,6.12h34.133c-14.081-2.668-31.7-4.235-34.667-8.788C4044.443,1746.461,4043.5,1722.434,4041.774,1715.326Z" transform="translate(-158.145 -157.753)" fill="#895cd8"/>
    <path id="Trazado_67653" data-name="Trazado 67653" d="M4069.4,1700.392c1.249,9.584,9.038,10.288,12.808,8.63-2.054.364-4.428-.193-6.971-2.293-8.028-6.631-.6-12.2-.874-15.125C4071.956,1691.093,4068.3,1691.99,4069.4,1700.392Z" transform="translate(-168.638 -148.633)" fill="#895cd8"/>
    <path id="Trazado_67654" data-name="Trazado 67654" d="M4127.013,1707.455c-1.2,3.724-3,14.659.023,16.646,3.328,2.18,7.778-.954,9.539-5.03-3.248,2.123-7.142,4.213-8.13.238A82.711,82.711,0,0,1,4127.013,1707.455Z" transform="translate(-190.131 -154.741)" fill="#895cd8"/>
    <path id="Trazado_67655" data-name="Trazado 67655" d="M4035.148,1733.552c.193-.035.408-.069.648-.114.169-.034.329-.068.5-.114,4.019-1.045,9.038-4.951,7.278-5.462-1.851-.534-5.189,1.85-4.655.919s.181-1.873.033-1.839-2.338,3.577-4.326,4.894C4034.625,1731.838,4032.047,1733.983,4035.148,1733.552Z" transform="translate(-155.026 -162.197)" fill="#ffe2d7"/>
    <path id="Trazado_67656" data-name="Trazado 67656" d="M3973.925,1784.455c.069.193,2.578.42,6.291.273l.011-.012c.943-.034,1.953-.091,3.032-.182,0,0,.148-.182.352-.454a14.087,14.087,0,0,0,1.635-2.282,4.989,4.989,0,0,1-1.124.068c-.125-.011-.25-.023-.386-.046a5.021,5.021,0,0,1-1.544-.556C3980.522,1780.345,3973.607,1783.672,3973.925,1784.455Z" transform="translate(-132.183 -182.919)" fill="#ffe2d7"/>
    <path id="Trazado_67657" data-name="Trazado 67657" d="M4002.328,1715.09c1.794-.432,2.691-1.09,5.337-.727a6.829,6.829,0,0,0-.216-.829s-1.328-.125-2.691-.181C4003.657,1714.125,4002.328,1715.09,4002.328,1715.09Z" transform="translate(-143.054 -156.998)" fill="#e6e6e6" style="mix-blend-mode: multiply;isolation: isolate"/>
    <path id="Trazado_67658" data-name="Trazado 67658" d="M3999.822,1713.1c.068.125.4.613.4.613a1.738,1.738,0,0,1,.386-.329,10.038,10.038,0,0,1,1.226-.761q.408-.239.954-.511c.114-.057.227-.114.34-.159,0-.012.011-.012.023-.012a5.388,5.388,0,0,1,3.4-.329c.261-.114-.546-2.93-2.488-4.258l-.544.261c-.761.375-2.135,1.068-2.976,1.579-.114.068-.216.136-.306.193C3999.163,1710.1,3999.776,1713.023,3999.822,1713.1Z" transform="translate(-142.012 -154.704)" fill="#440c01"/>
    <path id="Trazado_67659" data-name="Trazado 67659" d="M3997.589,1758.069c13.863-4.069,23.7-4.495,26.589-1.75s-9.178,13.153-10.077,13.531-3.264-1.135-3.075-1.94a15.579,15.579,0,0,1,2.887-4.779,22.274,22.274,0,0,1,3.643-3.217s-8.374,5.488-13.39,4.873S3997.589,1758.069,3997.589,1758.069Z" transform="translate(-141.241 -172.769)" fill="#785354"/>
    <path id="Trazado_67660" data-name="Trazado 67660" d="M3984.139,1785.1c.943-.034,1.953-.091,3.032-.182,0,0,.148-.182.352-.454a13.437,13.437,0,0,0,.51-2.214c.012-.091.023-.136.023-.136a1.56,1.56,0,0,0-.409.091c-1.124.432-1.283,2.033-2.112,2.43A9.361,9.361,0,0,1,3984.139,1785.1Z" transform="translate(-136.095 -183.307)" fill="#e6e6e6" style="mix-blend-mode: multiply;isolation: isolate"/>
    <path id="Trazado_67661" data-name="Trazado 67661" d="M3984.461,1768.1a9.817,9.817,0,0,0,3.565,2.589,40.414,40.414,0,0,0,8.7,1.965,68.539,68.539,0,0,0-9.118,1.068c-1.135.283-1.76,2.691-1.613,2.884s27.3,3.781,28.387.477-9.8-13.206-22.29-16.85c0,0-.375.125-.977.341-2.2.772-7.4,2.725-7.777,3.872A4.048,4.048,0,0,0,3984.461,1768.1Z" transform="translate(-135.746 -174.934)" fill="#916c6d"/>
    <path id="Trazado_67662" data-name="Trazado 67662" d="M3963.292,1783.719a5.844,5.844,0,0,0,.784.113,34.255,34.255,0,0,0,4.212.046c.284-.011.545-.034.783-.046a6.88,6.88,0,0,0,1.466-.181,7.046,7.046,0,0,1,3.429-2.691,15.572,15.572,0,0,1,3.951-.7,4.937,4.937,0,0,0-1.771-1.59,2.084,2.084,0,0,0-1.215-.17c-.284.045-6.041,1.919-9.538,3.361a7.547,7.547,0,0,0-2.634,1.442C3962.679,1783.48,3962.895,1783.617,3963.292,1783.719Z" transform="translate(-127.909 -181.911)" fill="#540000"/>
    <path id="Trazado_67663" data-name="Trazado 67663" d="M3984.461,1768.228c-.784-3,3.441-4.917,7.79-7.665,0,0-.466.046-1.136.137-2.2.772-7.4,2.724-7.777,3.872A4.048,4.048,0,0,0,3984.461,1768.228Z" transform="translate(-135.746 -175.06)" fill="#823c3d"/>
    <path id="Trazado_67664" data-name="Trazado 67664" d="M3983.431,1750.862c.829-1.124,9.731-4.213,9.833-4.542s-1.476-2.419-.863-5.155a10.7,10.7,0,0,1,1.783-3.372,22.847,22.847,0,0,0,2.01-3.237,4.453,4.453,0,0,0,.477-2.055c-.148-2.838-2.59-6.279-5.542-7.755-.375-.193-2.7,1.465-3.542,4.735a19.978,19.978,0,0,0-.386,4.167c-.08,3.475-.011,7.71-1.42,10.447-.658,1.283-1.215,2.543-1.646,3.622C3983.227,1750.033,3982.91,1751.566,3983.431,1750.862Z" transform="translate(-135.728 -161.351)" fill="#f3a6b0"/>
    <path id="Trazado_67665" data-name="Trazado 67665" d="M4036.088,1736.487c.193-.035.409-.069.648-.114.17-.034.329-.068.5-.113-.534-.375-.625-1.6-1.113-1.647C4036.123,1734.613,4036.054,1735.873,4036.088,1736.487Z" transform="translate(-155.966 -165.132)" fill="#e6e6e6" style="mix-blend-mode: multiply;isolation: isolate"/>
    <path id="Trazado_67666" data-name="Trazado 67666" d="M3997.3,1738.181a4.823,4.823,0,0,1,.455,2.26,22.894,22.894,0,0,0,2.01-3.237,69.1,69.1,0,0,0-6.835-5.552C3990.963,1735.058,3996.47,1736.694,3997.3,1738.181Z" transform="translate(-139.296 -163.999)" fill="#ed7885"/>
    <path id="Trazado_67667" data-name="Trazado 67667" d="M3992.982,1730.966c1.989-2.39,14.336,5.323,14.868,5.429s11.178-3.619,11.5-3.477.709,1.561.709,1.881-9.474,5.393-11.39,5.535S3989.292,1735.4,3992.982,1730.966Z" transform="translate(-139.283 -163.561)" fill="#ffb5be"/>
    <path id="Trazado_67668" data-name="Trazado 67668" d="M3967.035,1782.01c2.976.1,8.551-1.737,10.754-3.191a2.087,2.087,0,0,0-1.215-.171C3976.289,1778.694,3970.533,1780.568,3967.035,1782.01Z" transform="translate(-129.551 -181.97)" fill="#ccc" style="mix-blend-mode: multiply;isolation: isolate"/>
    <path id="Trazado_67669" data-name="Trazado 67669" d="M3984.728,1753.243c1.056-1.408,2.191-2.237,3.2-3.917,1.317-2.192,1.408-6.052-.136-10.152-.079,3.475-.011,7.71-1.419,10.447C3985.716,1750.9,3985.16,1752.164,3984.728,1753.243Z" transform="translate(-136.32 -166.877)" fill="#ed7885"/>
    <path id="Trazado_67670" data-name="Trazado 67670" d="M4014.743,1779.21c-2.271-1.029-9.912.26-9.912.26s5.441-1.443,8.185-1.419S4014.743,1779.21,4014.743,1779.21Z" transform="translate(-144.011 -181.751)" fill="#823c3d"/>
    <path id="Trazado_67671" data-name="Trazado 67671" d="M3964.9,1786.633a34.237,34.237,0,0,0,4.213.046c.284-.011.545-.034.783-.046a1.053,1.053,0,0,0,.023-.329C3969.864,1785.179,3965.209,1786.179,3964.9,1786.633Z" transform="translate(-128.735 -184.711)" fill="#fff" opacity="0.4"/>
    <path id="Trazado_67672" data-name="Trazado 67672" d="M4004.937,1708.858c.67,1.748-1.135,1.771-1.964,2.532a5.387,5.387,0,0,1,3.4-.329c.261-.114-.545-2.93-2.487-4.258a5.085,5.085,0,0,0-3.61-.828,3.278,3.278,0,0,0-1.125.409,7.494,7.494,0,0,1,1.136-.046,6.658,6.658,0,0,1,3.054.727,3.859,3.859,0,0,1,.567.387A3.324,3.324,0,0,1,4004.937,1708.858Z" transform="translate(-141.836 -154.149)" fill="#ff4747" style="mix-blend-mode: soft-light;isolation: isolate"/>
    <path id="Trazado_67673" data-name="Trazado 67673" d="M3976.213,1722c1.681-1.5,4.826-5.121,7.892-11.457,3.826-7.914,5.166-7.948,6.744-7.312a2.459,2.459,0,0,0-3.565.329c-1.352,1.964-4.69,8.709-8.471,14.625C3978.019,1719.417,3977.121,1720.712,3976.213,1722Z" transform="translate(-133.062 -152.889)" fill="#ff4747" style="mix-blend-mode: soft-light;isolation: isolate"/>
    <path id="Trazado_67674" data-name="Trazado 67674" d="M3872.657,1586.591v144.583a10.791,10.791,0,0,1-10.76,10.76h-75.5a5.686,5.686,0,0,1-5.668-5.668V1586.591a10.791,10.791,0,0,1,10.76-10.76H3861.9A10.791,10.791,0,0,1,3872.657,1586.591Z" transform="translate(-58.27 -104.383)" fill="#ababab"/>
    <path id="Trazado_67675" data-name="Trazado 67675" d="M3789.321,1740.137a.9.9,0,0,1-.527-.169.962.962,0,0,1-.417-.776V1589.517a6.043,6.043,0,0,1,6.036-6.036h70.411a6.043,6.043,0,0,1,6.037,6.036V1734.1a6.043,6.043,0,0,1-6.037,6.036Z" transform="translate(-61.197 -107.31)" fill="#fff"/>
    <rect id="Rectángulo_25744" data-name="Rectángulo 25744" width="33.09" height="20.343" rx="1.626" transform="translate(3732.827 1487.487)" fill="#ffd54f"/>
    <rect id="Rectángulo_25745" data-name="Rectángulo 25745" width="33.09" height="20.343" rx="1.626" transform="translate(3770.925 1487.487)" fill="#ffd54f"/>
    <rect id="Rectángulo_25746" data-name="Rectángulo 25746" width="63.743" height="37.044" rx="2.977" transform="translate(3736.549 1555.908)" fill="#ffd54f"/>
    <path id="Trazado_67676" data-name="Trazado 67676" d="M3859.589,1662.656H3828.91a2.012,2.012,0,0,1-2.012-2.012h0a2.012,2.012,0,0,1,2.012-2.011h30.679a2.012,2.012,0,0,1,2.012,2.011h0A2.012,2.012,0,0,1,3859.589,1662.656Z" transform="translate(-75.936 -136.062)" fill="#895cd8"/>
    <path id="Trazado_67677" data-name="Trazado 67677" d="M3856,1689.131h-11.82a2.012,2.012,0,0,1-2.011-2.012h0a2.012,2.012,0,0,1,2.011-2.011H3856a2.012,2.012,0,0,1,2.011,2.011h0A2.012,2.012,0,0,1,3856,1689.131Z" transform="translate(-81.779 -146.192)" fill="#895cd8"/>
    <path id="Trazado_67678" data-name="Trazado 67678" d="M3865.939,1671.194h-61.611a1.258,1.258,0,0,1-1.257-1.257h0a1.258,1.258,0,0,1,1.257-1.257h61.611a1.258,1.258,0,0,1,1.257,1.257h0A1.257,1.257,0,0,1,3865.939,1671.194Z" transform="translate(-66.82 -139.906)" fill="#d1bcff"/>
    <path id="Trazado_67679" data-name="Trazado 67679" d="M3862.974,1680.019h-45.307a1.258,1.258,0,0,1-1.257-1.258h0a1.257,1.257,0,0,1,1.257-1.257h45.307a1.257,1.257,0,0,1,1.258,1.257h0A1.258,1.258,0,0,1,3862.974,1680.019Z" transform="translate(-71.923 -143.283)" fill="#d1bcff"/>
    <path id="Trazado_67680" data-name="Trazado 67680" d="M3863.834,1790.907H3814a1.257,1.257,0,0,1-1.257-1.258h0a1.257,1.257,0,0,1,1.257-1.257h49.833a1.258,1.258,0,0,1,1.258,1.257h0A1.258,1.258,0,0,1,3863.834,1790.907Z" transform="translate(-70.521 -185.707)" fill="#ffe1ba"/>
    <rect id="Rectángulo_25747" data-name="Rectángulo 25747" width="52.348" height="2.515" rx="1.257" transform="translate(3742.224 1607.337)" fill="#ffe1ba"/>
    <path id="Trazado_67681" data-name="Trazado 67681" d="M3863.834,1805.977H3814a1.257,1.257,0,0,1-1.257-1.257h0a1.258,1.258,0,0,1,1.257-1.258h49.833a1.258,1.258,0,0,1,1.258,1.258h0A1.258,1.258,0,0,1,3863.834,1805.977Z" transform="translate(-70.521 -191.473)" fill="#ffe1ba"/>
    <path id="Trazado_67682" data-name="Trazado 67682" d="M3863.834,1813.512H3814a1.257,1.257,0,0,1-1.257-1.257h0A1.258,1.258,0,0,1,3814,1811h49.833a1.258,1.258,0,0,1,1.258,1.258h0A1.257,1.257,0,0,1,3863.834,1813.512Z" transform="translate(-70.521 -194.356)" fill="#ffe1ba"/>
    <path id="Trazado_67683" data-name="Trazado 67683" d="M3920.549,1507.729a4.931,4.931,0,0,0-.91-3.207,6.179,6.179,0,0,1-.195-6.218c1.387-2.3,2.6-1.56,2.6-1.56s-.412-2.08.8-2.9,3.7-1.668,4.767.758-4.832,11.331-5.243,11.852A8.355,8.355,0,0,1,3920.549,1507.729Z" transform="translate(-111.054 -72.693)" fill="#281a00"/>
    <path id="Trazado_67684" data-name="Trazado 67684" d="M3922.63,1516.925a9.927,9.927,0,0,0-.756,1.362c-.61,1.219-1.355,2.817-1.411,2.928a24.878,24.878,0,0,1-4.1-2.9,43.331,43.331,0,0,1,4.035-3.192c.262-.192.459-.336.558-.406C3920.961,1514.715,3922.932,1516.622,3922.63,1516.925Z" transform="translate(-110.166 -81.001)" fill="#ffe2d7"/>
    <path id="Trazado_67685" data-name="Trazado 67685" d="M3925.131,1516.925a9.872,9.872,0,0,0-.756,1.362,11.42,11.42,0,0,1-1.472-3.167c.262-.192.459-.336.558-.406C3923.461,1514.715,3925.432,1516.622,3925.131,1516.925Z" transform="translate(-112.666 -81.001)" fill="#e6e6e6" style="mix-blend-mode: multiply;isolation: isolate"/>
    <path id="Trazado_67686" data-name="Trazado 67686" d="M3932.052,1506.261c-.42,2.44-2.4,7.164-4.94,7.424a3.469,3.469,0,0,1-3.784-3.062c-.115-1.126-.144-5.286.838-6.326S3932.2,1505.424,3932.052,1506.261Z" transform="translate(-112.807 -76.909)" fill="#ffe2d7"/>
    <path id="Trazado_67687" data-name="Trazado 67687" d="M3923.442,1506.905a1.148,1.148,0,1,1-1.115-1.419A1.295,1.295,0,0,1,3923.442,1506.905Z" transform="translate(-112.019 -77.47)" fill="#ffe2d7"/>
    <path id="Trazado_67688" data-name="Trazado 67688" d="M3923.821,1501.856c1.191-1.725,5.972,1.459,7.489,2s4.42.8,4.636-.889-2.3-1.495-2.3-1.495a1.653,1.653,0,0,0,1.56-1.885c-.13-1.8-2.1-1.6-2.1-1.6a1.985,1.985,0,0,0-.693-2.189,3.315,3.315,0,0,0-2.968-.086c-.195.152-5.373,3.618-5.763,4.225S3923.821,1501.856,3923.821,1501.856Z" transform="translate(-112.91 -73.609)" fill="#281a00"/>
    <path id="Trazado_67689" data-name="Trazado 67689" d="M3949.841,1532.036c.087.174-1.344,1.474-3.749,1.994a11.715,11.715,0,0,1-3.663.128,4.152,4.152,0,0,0-1.074.92c-.434.453-.841.91-.94.966-.194.107-2.383-1.82-1.733-2.274.287-.2.537-.382.76-.541,1.492-1.056,1.886-1.215,5.371-1.215C3948.823,1532.013,3949.755,1531.863,3949.841,1532.036Z" transform="translate(-118.658 -87.596)" fill="#ffe2d7"/>
    <path id="Trazado_67690" data-name="Trazado 67690" d="M3949.76,1536.434h0a.3.3,0,0,1-.015-.429l10.611-11.371a.3.3,0,0,1,.428-.015h0a.3.3,0,0,1,.014.428l-10.61,11.372A.3.3,0,0,1,3949.76,1536.434Z" transform="translate(-122.905 -84.759)" fill="#3b1400"/>
    <path id="Trazado_67691" data-name="Trazado 67691" d="M3952.606,1536.964c-1.106,1.3-.846,1.192-2.34,1.56-.929.229-3.575,1.212-5.5,1.924-.847.312-1.554.572-1.917.692a1.645,1.645,0,0,1-.251.071c-.065,0-.028-.249.061-.616.239-.979.849-2.785.849-2.785a5.724,5.724,0,0,0,.93-.113,14.312,14.312,0,0,0,2.949-1.014,20.245,20.245,0,0,1,4.007-1.344c.846-.086,1.366-1.256,1.581-1A2.034,2.034,0,0,1,3952.606,1536.964Z" transform="translate(-120.189 -88.496)" fill="#ffe2d7"/>
    <path id="Trazado_67692" data-name="Trazado 67692" d="M3926.3,1603.88a3.746,3.746,0,0,1-1.482-.161,10.373,10.373,0,0,1-2.3-.822c-1.445-.75-4.969-4.563-5.719-5.546a.834.834,0,0,1-.168-.324c-.13-.549.72-.825,1.538-1.464a4.116,4.116,0,0,0,.492-.448,2.825,2.825,0,0,0,.189-.22s1.589-2.31,2.11.059a2.769,2.769,0,0,0,.082.3,9.241,9.241,0,0,0,.689,1.506C3923.285,1599.614,3926.531,1603.763,3926.3,1603.88Z" transform="translate(-110.26 -111.291)" fill="#ababab"/>
    <path id="Trazado_67693" data-name="Trazado 67693" d="M3952.523,1615.006a12.353,12.353,0,0,1-1.916,2.333,32.495,32.495,0,0,1-7.176,2.744h-.017c-.737,0-.926-1.822-1.115-3.385-.036-.3-.073-.595-.112-.861-.006-.03-.01-.059-.014-.087a.574.574,0,0,1,.094-.082,3.55,3.55,0,0,1,2.621-.352,3.751,3.751,0,0,0,.675.023c2.495-.1,7.566-1.792,7.644-1.583A4.016,4.016,0,0,1,3952.523,1615.006Z" transform="translate(-120.039 -118.887)" fill="#ababab"/>
    <path id="Trazado_67694" data-name="Trazado 67694" d="M3945.572,1616.275a10.8,10.8,0,0,1-3.264,1.359c-.036-.3-.073-.595-.113-.861.024-.056.05-.111.08-.168a3.547,3.547,0,0,1,2.621-.352A3.745,3.745,0,0,0,3945.572,1616.275Z" transform="translate(-120.047 -119.822)" fill="#e6e6e6" style="mix-blend-mode: multiply;isolation: isolate"/>
    <path id="Trazado_67695" data-name="Trazado 67695" d="M3891.815,1572.113c6.934,2.658,16.235,1.56,16.64,1.906s12.479,24.266,13,24.266a21.637,21.637,0,0,0,3.871-1.444c.23-.174-7.107-23.168-8.031-24.324s-3.582-5.546-14.1-6.067-14.213,1.156-13.693,2.427A15.713,15.713,0,0,0,3891.815,1572.113Z" transform="translate(-99.87 -100.757)" fill="#d3a820"/>
    <path id="Trazado_67696" data-name="Trazado 67696" d="M3922.687,1597.451a6.136,6.136,0,0,1-3.562-1.192,4.14,4.14,0,0,0,.492-.448,6.1,6.1,0,0,1,1.77-.061,3.486,3.486,0,0,1,.61.194A9.308,9.308,0,0,0,3922.687,1597.451Z" transform="translate(-111.221 -111.987)" fill="#e6e6e6" style="mix-blend-mode: multiply;isolation: isolate"/>
    <path id="Trazado_67697" data-name="Trazado 67697" d="M3915.175,1569.127c-1.907,2.833-5.834,11.556-6.067,11.613a12.883,12.883,0,0,1-3.7-1.328c-.174-.346.4-1.792,1.79-8.725a20.85,20.85,0,0,1,5.258-10.341c0-.232-4.8,1.04-7.916,3s-11.613,6.124-15.427,5.317a5.757,5.757,0,0,1-4.9-5.642,8.347,8.347,0,0,1,.333-2.5s.05,1.775,8.857-2.948q.884-.473,1.889-1.038c10.688-6.009,22.647-2.486,24.034.693S3917.082,1566.3,3915.175,1569.127Z" transform="translate(-97.866 -95.75)" fill="#ffd54f"/>
    <path id="Trazado_67698" data-name="Trazado 67698" d="M3941.355,1535.868c-.434.453-.841.91-.94.966-.194.107-2.383-1.82-1.733-2.274.287-.2.537-.381.76-.541A9.108,9.108,0,0,1,3941.355,1535.868Z" transform="translate(-118.658 -88.386)" fill="#e6e6e6" style="mix-blend-mode: multiply;isolation: isolate"/>
    <path id="Trazado_67699" data-name="Trazado 67699" d="M3933.959,1533.554c.04.144-.333.69-.9,1.392-.619.766-1.469,1.718-2.27,2.532l0,0a8.7,8.7,0,0,1-2.1,1.764c-1,.3-5.762,1.213-6.37.65a4.96,4.96,0,0,1-.655-1.317,28.884,28.884,0,0,1-1.283-4.321c-.275-1.355-.359-2.531-.012-2.941a15.144,15.144,0,0,0,1.776-4.246,10.158,10.158,0,0,1,.664,1.714c.057.191.114.386.168.588.842,3.1,1.3,7.29,1.465,7.491.217.261,7.5-5.633,7.67-5.329S3933.83,1533.077,3933.959,1533.554Z" transform="translate(-111.609 -85.727)" fill="#a16769"/>
    <path id="Trazado_67700" data-name="Trazado 67700" d="M3893.412,1560.24a2.19,2.19,0,0,1-.884.868c-1.821,1.1-5.113,4.361-6.039,4.68a3.283,3.283,0,0,1-2.267-.095,8.346,8.346,0,0,1,.333-2.5S3884.6,1564.963,3893.412,1560.24Z" transform="translate(-97.866 -98.418)" fill="#e6e6e6" style="mix-blend-mode: multiply;isolation: isolate"/>
    <path id="Trazado_67701" data-name="Trazado 67701" d="M3933.156,1536.008c-.619.766-1.469,1.718-2.271,2.533l0,0c-2.557,1.3-5.85,2.547-6.844,2.22a5.953,5.953,0,0,1-2.279-1.123,4.8,4.8,0,0,1-1.274-2.539,4.557,4.557,0,0,1-.009-1.782,13.839,13.839,0,0,1,2.429-5.474c.057.191.114.386.168.588-.4,2.014-.918,3.281-.918,3.461,0,.2,1.149,4.443,1.8,4.443C3924.561,1538.336,3930.31,1536.129,3933.156,1536.008Z" transform="translate(-111.706 -86.789)" fill="#e6e6e6" style="mix-blend-mode: multiply;isolation: isolate"/>
    <path id="Trazado_67702" data-name="Trazado 67702" d="M3905.4,1534.365c-.124.1-.312.258-.549.466-.35.312-.808.732-1.328,1.215-2.418,2.252-6.185,5.891-6.789,6.465-.823.78-7.323,4.636-7.974,5.07s-3.77,1.473-4.55.867,2.081-8.84,4.724-15.687,9.793-13.346,12.74-13.736,4.347,1,6.543,2.773C3911.122,1524.139,3906.573,1533.455,3905.4,1534.365Z" transform="translate(-97.814 -82.625)" fill="#a67b7c"/>
    <path id="Trazado_67703" data-name="Trazado 67703" d="M3944.823,1542.55c-.848.312-1.554.572-1.917.692,0-.013-.008-.025-.014-.036q-.091-.253-.176-.508c.239-.979.849-2.785.849-2.785a5.717,5.717,0,0,0,.93-.113A7.5,7.5,0,0,1,3944.823,1542.55Z" transform="translate(-120.246 -90.598)" fill="#e6e6e6" style="mix-blend-mode: multiply;isolation: isolate"/>
    <path id="Trazado_67704" data-name="Trazado 67704" d="M3913.568,1536.9c-.35.312-.807.732-1.328,1.215a54.761,54.761,0,0,1-4.406-7.372c-.809-1.819-1.5-5.113-.4-6.385,0,0,1.068,1.763,2.974,5.259C3912.248,1532.988,3913.388,1535.261,3913.568,1536.9Z" transform="translate(-106.529 -84.688)" fill="#e6e6e6" style="mix-blend-mode: multiply;isolation: isolate"/>
    <path id="Trazado_67705" data-name="Trazado 67705" d="M3911.876,1521.993a4.982,4.982,0,0,1,4.247,1.863,18.131,18.131,0,0,1,2.34,7.237C3918.441,1533.129,3911.876,1521.993,3911.876,1521.993Z" transform="translate(-108.447 -83.772)" fill="#e6e6e6" style="mix-blend-mode: multiply;isolation: isolate"/>
    <path id="Trazado_67706" data-name="Trazado 67706" d="M3907.1,1525.5c.3,5.275,8.71,15.253,10.833,15.817s12.652-5.113,12.74-5.417.188-2.831-.115-2.961a75.958,75.958,0,0,0-10.068,2.268c-1.863.693-1.776.866-2.73-1.3s-2.036-8.276-4.246-10.616S3906.882,1521.639,3907.1,1525.5Z" transform="translate(-106.617 -83.765)" fill="#b58788"/>
    <path id="Trazado_67707" data-name="Trazado 67707" d="M3953.188,1615.787a12.346,12.346,0,0,1-1.916,2.333,32.5,32.5,0,0,1-7.176,2.744.3.3,0,0,1-.159-.141c-.275-.563,1.662-2.082,4.332-3.388A12.282,12.282,0,0,1,3953.188,1615.787Z" transform="translate(-120.704 -119.667)" fill="#e6e6e6" style="mix-blend-mode: multiply;isolation: isolate"/>
    <path id="Trazado_67708" data-name="Trazado 67708" d="M3924.894,1605.6a.256.256,0,0,1-.07.062,10.365,10.365,0,0,1-2.3-.822c-1.445-.75-4.969-4.563-5.72-5.546a.845.845,0,0,1-.168-.324c.773-.03,2.667.957,4.662,2.471C3923.665,1603.24,3925.275,1605.1,3924.894,1605.6Z" transform="translate(-110.268 -113.237)" fill="#e6e6e6" style="mix-blend-mode: multiply;isolation: isolate"/>
    <path id="Trazado_67709" data-name="Trazado 67709" d="M3758.663,1711.069c-2.332.777-3.7.612-4.993-.871a4.733,4.733,0,0,1-.047-5.651c1.2-1.342,4.451-1.272,4.851.424A34.211,34.211,0,0,1,3758.663,1711.069Z" transform="translate(-47.552 -153.271)" fill="#440c01"/>
    <path id="Trazado_67710" data-name="Trazado 67710" d="M3764.624,1722.616c-.127.409-3.706-.91-3.924-1.255-.2-.309.207-3.117.654-4.99.051-.217.1-.42.154-.6,0-.009.006-.017.007-.026l.068.03c.388.178,2.332,1.085,2.443,1.509a4.305,4.305,0,0,1-.049,1.149,4.7,4.7,0,0,0,.019,1.676A8.139,8.139,0,0,1,3764.624,1722.616Z" transform="translate(-50.589 -157.911)" fill="#ffe2d7"/>
    <path id="Trazado_67711" data-name="Trazado 67711" d="M3761.79,1716.387a5.316,5.316,0,0,0,2.624,2.057,4.311,4.311,0,0,0,.049-1.149c-.111-.424-2.054-1.331-2.443-1.509-.027,0-.051,0-.076,0Z" transform="translate(-51.026 -157.927)" fill="#e6e6e6" style="mix-blend-mode: multiply;isolation: isolate"/>
    <path id="Trazado_67712" data-name="Trazado 67712" d="M3764.392,1704.055c2.111,3.166,2.4,5.275,1.837,6.923s-.754,3.2-3.579,2.073-4.191-5.746-4.286-6.17S3763.451,1702.642,3764.392,1704.055Z" transform="translate(-49.715 -153.321)" fill="#ffe2d7"/>
    <path id="Trazado_67713" data-name="Trazado 67713" d="M3759.829,1711.627a1.168,1.168,0,1,1-1.711-.692A1.326,1.326,0,0,1,3759.829,1711.627Z" transform="translate(-49.433 -156.026)" fill="#ffe2d7"/>
    <path id="Trazado_67714" data-name="Trazado 67714" d="M3756.733,1706.46c1.177-2.794,3.287-2.111,5.312-2.127s2.449-.33,2.229-1a4.962,4.962,0,0,0-2.449-3.2c-1.632-.691-3.469-1.177-5.337.062s-3.249,2.9-3.438,4.255,3.038,1.422,3.265,1.6A3,3,0,0,1,3756.733,1706.46Z" transform="translate(-47.679 -151.669)" fill="#440c01"/>
    <path id="Trazado_67715" data-name="Trazado 67715" d="M3753.439,1702.371c-.071-1.319-1.06-1.531-2.614-1.272s-2.4,2.731-1.837,3.7.919,1.907,2.449,1.366S3753.439,1702.371,3753.439,1702.371Z" transform="translate(-46.061 -152.273)" fill="#440c01"/>
    <path id="Trazado_67716" data-name="Trazado 67716" d="M3759.021,1707.859c.882-1.137,1.087-1.53,3.378-1.4s4.348.25,4.945-.707a3.442,3.442,0,0,0,.33-2.637c-.172-.283-1.287,1.444-2.213,1.679s-2.323-.44-4.1-.047S3759.021,1707.859,3759.021,1707.859Z" transform="translate(-49.966 -153.067)" fill="#8a0c01"/>
    <path id="Trazado_67717" data-name="Trazado 67717" d="M3762.779,1784.457c-.006.06-.011.125-.019.192a25.831,25.831,0,0,1-.488,2.56c-1.281,5.58-4.5,16.045-5.021,18.535a134.857,134.857,0,0,0-1.507,17.4,16.37,16.37,0,0,0,.771,4.427c-.188.141-2.025-1.837-2.59-4.05s-2.684-9.749-1.978-15.4c.643-5.143,1.754-13.447,1.711-16.934a8.654,8.654,0,0,0-.048-.885,10.009,10.009,0,0,1,.407-3.455v0a12.4,12.4,0,0,1,1.291-3.114c.057-.09.115-.181.175-.267.78-1.163,1.756-1.865,2.837-1.513A12.009,12.009,0,0,1,3762.779,1784.457Z" transform="translate(-47.205 -183.206)" fill="#f5d1c4"/>
    <path id="Trazado_67718" data-name="Trazado 67718" d="M3740.3,1784.526c-7.786,11.428-10.487,13.752-13.438,15.2s-14.945,3.014-17.52,3.7-4.9,4.333-4.9,4.333c-.251-.314,1.507-5.212,5.777-7.535s11.039-4.274,13.061-4.96c1.759-.6,2.826-.691,3.7-2.638s3.077-9.859,3.956-10.487S3740.3,1784.526,3740.3,1784.526Z" transform="translate(-29.078 -183.282)" fill="#ffe2d7"/>
    <path id="Trazado_67719" data-name="Trazado 67719" d="M3760.8,1858.091a3.744,3.744,0,0,1-1.144.208,8.4,8.4,0,0,1-3.221-.113c-.627-.409-1.13-2.01-2.01-2.512a2.458,2.458,0,0,1-.953-.976,1.364,1.364,0,0,1-.019-1.349,9.057,9.057,0,0,0,1.036-1.819c.094-.441.063-1.383.283-1.068s2.166,2.952,2.307,3.328a5.748,5.748,0,0,0,1.4,2.323C3759.075,1856.552,3760.959,1857.9,3760.8,1858.091Z" transform="translate(-47.772 -209.431)" fill="#424242"/>
    <path id="Trazado_67720" data-name="Trazado 67720" d="M3704.106,1817.02c-.16.348-1.46,3.359-1.715,3.669a5.753,5.753,0,0,0-1.3,2.378c-.081.737-.3,3.044-.54,3a7.109,7.109,0,0,1-1.209-1.547,6.043,6.043,0,0,1-1.069-2.177c.036-.748,1.168-1.987,1.159-3a2,2,0,0,1,1.142-1.955,1.19,1.19,0,0,1,.376-.057,9.026,9.026,0,0,0,2.095-.021C3703.47,1817.174,3704.266,1816.672,3704.106,1817.02Z" transform="translate(-26.723 -196.614)" fill="#424242"/>
    <path id="Trazado_67721" data-name="Trazado 67721" d="M3745.567,1785.468a22.051,22.051,0,0,0,6.063,2.483v0c.792.209,1.6.388,2.4.524a11.753,11.753,0,0,0,5.857-.156,25.825,25.825,0,0,0,.488-2.56c-1.59-.386-4.244-.4-5.441-.689a6.2,6.2,0,0,0-.668-.119c-.382-.049-.84-.086-1.344-.115-2.273-.131-5.486-.065-7.106-.018Z" transform="translate(-44.819 -184.318)" fill="#e6e6e6" style="mix-blend-mode: multiply;isolation: isolate"/>
    <path id="Trazado_67722" data-name="Trazado 67722" d="M3766.349,1723.42c1.837.235,6.891,4.082,8.352,6.813s-4.192,2.638-4.851,2.5S3766.349,1723.42,3766.349,1723.42Z" transform="translate(-52.77 -160.85)" fill="#826061"/>
    <path id="Trazado_67723" data-name="Trazado 67723" d="M3754.728,1722.953c1.172.82,2.449,1.947,3.2,1.617s-.016-1.3.22-1.35,4.349,6.107,4.3,8.226-2.12,5.589-2.245,8.226,1.947,10.3,1.7,14.066-.565,9.356-2.01,9.859a21.39,21.39,0,0,1-10.3-.566c-3.517-1.256-4.458-1.57-4.647-2.26s.565-5.463,3.265-10.047,5.651-9.105,5.024-11.178-3.894-6.279-4.02-7.221-.329-7,.189-7.755S3754.258,1722.624,3754.728,1722.953Z" transform="translate(-44.572 -160.65)" fill="#916c6d"/>
    <rect id="Rectángulo_25748" data-name="Rectángulo 25748" width="9.98" height="6.883" rx="1.621" transform="matrix(0.814, -0.581, 0.581, 0.814, 3723.413, 1559.178)" fill="#d1bcff"/>
    <rect id="Rectángulo_25749" data-name="Rectángulo 25749" width="9.98" height="6.883" rx="1.621" transform="translate(3739.947 1551.721) rotate(10.736)" fill="#d1bcff"/>
    <rect id="Rectángulo_25750" data-name="Rectángulo 25750" width="9.98" height="6.883" rx="1.621" transform="matrix(0.982, 0.186, -0.186, 0.982, 3732.757, 1589.981)" fill="#d1bcff"/>
    <rect id="Rectángulo_25751" data-name="Rectángulo 25751" width="9.98" height="6.883" rx="1.621" transform="translate(3745.511 1591.187) rotate(-35.491)" fill="#d1bcff"/>
    <rect id="Rectángulo_25752" data-name="Rectángulo 25752" width="9.98" height="6.883" rx="1.621" transform="matrix(0.573, 0.82, -0.82, 0.573, 3756.509, 1557.946)" fill="#d1bcff"/>
    <rect id="Rectángulo_25753" data-name="Rectángulo 25753" width="9.98" height="6.883" rx="1.621" transform="matrix(0.573, 0.82, -0.82, 0.573, 3724.331, 1579.877)" fill="#d1bcff"/>
    <rect id="Rectángulo_25754" data-name="Rectángulo 25754" width="9.98" height="6.883" rx="1.621" transform="translate(3725.617 1567.238) rotate(99.952)" fill="#d1bcff"/>
    <rect id="Rectángulo_25755" data-name="Rectángulo 25755" width="9.98" height="6.883" rx="1.621" transform="translate(3763.986 1574.167) rotate(99.952)" fill="#d1bcff"/>
    <path id="Trazado_67724" data-name="Trazado 67724" d="M3799.276,1752.915c1.131.251,1.507.314,1.821.722s.879.408,1,.816.377,1.319-.5,1.1S3799.276,1752.915,3799.276,1752.915Z" transform="translate(-65.368 -172.134)" fill="#f4caab"/>
    <path id="Trazado_67725" data-name="Trazado 67725" d="M3817.2,1726.968a19.945,19.945,0,1,0-15.191,23.767A19.946,19.946,0,0,0,3817.2,1726.968Zm-17.721,12.637a8.455,8.455,0,1,1,6.439-10.073A8.454,8.454,0,0,1,3799.478,1739.605Z" transform="translate(-57.14 -156.215)" fill="#d1bcff"/>
    <circle id="Elipse_1791" data-name="Elipse 1791" cx="11.274" cy="11.274" r="11.274" transform="translate(3725.024 1578.536) rotate(-57.662)" fill="none" stroke="#fff" stroke-miterlimit="10" stroke-width="0.18"/>
    <path id="Trazado_67726" data-name="Trazado 67726" d="M3745.911,1737.88c-.659,2.449-1.067,8.069.313,9.042s9.639.408,12.81-.816,8.352-3.831,8.666-4.27a48.279,48.279,0,0,0,3.14-5.557c-.063-.346-2.1.251-3.266,1.978s-1.476,2.418-2.763,2.826a19.031,19.031,0,0,1-7.378,1.13c-3.265-.251-5.1-.236-6.766.392a8.6,8.6,0,0,0-1.9,1.115,6.789,6.789,0,0,1,.691-2.512,24.354,24.354,0,0,0,1.915-4.647C3751.374,1736,3745.911,1737.88,3745.911,1737.88Z" transform="translate(-44.718 -165.733)" fill="#ffe2d7"/>
    <path id="Trazado_67727" data-name="Trazado 67727" d="M3745.942,1739.714c1.381-.361,3.977-.936,4.948-.439.047.025.092.048.133.072l-.627,1.453,0,0a13.8,13.8,0,0,1-4.565-.477Z" transform="translate(-44.919 -166.842)" fill="#e6e6e6" style="mix-blend-mode: multiply;isolation: isolate"/>
    <path id="Trazado_67728" data-name="Trazado 67728" d="M3750.365,1725.011c-1.189.156-2.825,1.915-3.8,5.494s-.973,4.082-.722,4.051,4.427.25,4.866,0,2.543-4.239,1.978-7.1S3751.088,1724.917,3750.365,1725.011Z" transform="translate(-44.871 -161.436)" fill="#916c6d"/>
    <path id="Trazado_67729" data-name="Trazado 67729" d="M3799.925,1753.067c.423.695.267,1.189.737,1.566a2.051,2.051,0,0,0,1.271.53c.338-.016.55-.094.518-.22S3799.925,1753.067,3799.925,1753.067Z" transform="translate(-65.616 -172.192)" fill="#f4caab"/>
    <path id="Trazado_67730" data-name="Trazado 67730" d="M3700.344,1820.976a15.517,15.517,0,0,1-1.006,3.85,6.042,6.042,0,0,1-1.069-2.178c.036-.748,1.168-1.987,1.159-3a2,2,0,0,1,1.142-1.955A18.345,18.345,0,0,1,3700.344,1820.976Z" transform="translate(-26.723 -196.918)" fill="#e6e6e6" style="mix-blend-mode: multiply;isolation: isolate"/>
    <path id="Trazado_67731" data-name="Trazado 67731" d="M3759.775,1860.963a8.394,8.394,0,0,1-3.221-.113c-.627-.409-1.13-2.01-2.01-2.511a2.461,2.461,0,0,1-.953-.976,16.738,16.738,0,0,1,3.355,1.575A17.441,17.441,0,0,1,3759.775,1860.963Z" transform="translate(-47.889 -212.095)" fill="#e6e6e6" style="mix-blend-mode: multiply;isolation: isolate"/>
    <path id="Trazado_67732" data-name="Trazado 67732" d="M3927.589,1704.42a13.426,13.426,0,0,0,3.88,2.4c.1-.253.19-.493.278-.733a9.1,9.1,0,0,0,.278-.948c.013-.025.013-.051.025-.076,1.062-4.41-.935-7.722-1.719-8.152a.25.25,0,0,0-.076-.05s-.012.025-.051.088a56.643,56.643,0,0,0-2.907,5.877.038.038,0,0,0-.013.025c-.012.038-.024.063-.038.1-.038.126-.076.252-.1.354A1.273,1.273,0,0,0,3927.589,1704.42Z" transform="translate(-114.282 -150.689)" fill="#440c01"/>
    <path id="Trazado_67733" data-name="Trazado 67733" d="M3927.283,1702.858a.738.738,0,0,1,.025.127c.063.24.19.821.341,1.466a13.431,13.431,0,0,0,3.88,2.4c.1-.253.19-.493.278-.734a8.863,8.863,0,0,0,.278-.948c.013-.025.013-.051.025-.076,1.062-4.411-.935-7.723-1.719-8.152l.013.013c.013.012.013.025.025.038a7.507,7.507,0,0,1,.86,3.931c-.19,1.213-.847,3.223-1.87,3.387-.607.1-1.568-1.428-2.061-1.454Z" transform="translate(-114.342 -150.72)"/>
    <path id="Trazado_67734" data-name="Trazado 67734" d="M3929.445,1712.583a.658.658,0,0,1,.038.114,32.032,32.032,0,0,1,.847,3.147,1.054,1.054,0,0,0,.049.19v.012a8.412,8.412,0,0,0,.418,1.453c.253.4,4.664-1.188,4.74-1.63s-2.97-4.02-4.1-5.41c-.013-.025-.038-.051-.051-.076s-.025-.012-.038-.025a3.177,3.177,0,0,0-.607-.227.046.046,0,0,0-.025-.013.8.8,0,0,0-.67.051.571.571,0,0,0-.088.088l-.026.025A2.679,2.679,0,0,0,3929.445,1712.583Z" transform="translate(-115.126 -155.743)" fill="#ffe2d7"/>
    <path id="Trazado_67735" data-name="Trazado 67735" d="M3929.445,1712.609a.663.663,0,0,1,.038.114,32.026,32.026,0,0,1,.847,3.147,1.059,1.059,0,0,0,.049.19,7.627,7.627,0,0,1,.316-2.073c.392-.771.152-2.175.329-2.44s.506-.366.417-1.061v-.025a.157.157,0,0,0-.051-.051c-.013-.012-.025-.012-.038-.025a.979.979,0,0,0-.607-.227.046.046,0,0,0-.025-.013,1.563,1.563,0,0,0-.607.076.56.56,0,0,0-.151.063l-.026.025A2.679,2.679,0,0,0,3929.445,1712.609Z" transform="translate(-115.126 -155.769)" fill="#e6e6e6" style="mix-blend-mode: multiply;isolation: isolate"/>
    <path id="Trazado_67736" data-name="Trazado 67736" d="M3917.846,1703.414c.012.342.051.683.088,1.05.418,3.678,2.073,8.43,4.449,8.973,2.616.594,3.8-2.414,3.7-5.031s-3.754-6.079-4.4-5.977c-.34.051-1.453.341-2.4.594C3918.5,1703.224,3917.846,1703.414,3917.846,1703.414Z" transform="translate(-110.731 -152.818)" fill="#ffe2d7"/>
    <path id="Trazado_67737" data-name="Trazado 67737" d="M3929.659,1707.755c.346-1.432,1.295-1.44,1.827-.815.463.543.543,2.667-.988,2.815S3929.659,1707.755,3929.659,1707.755Z" transform="translate(-115.192 -154.393)" fill="#ffe2d7"/>
    <path id="Trazado_67738" data-name="Trazado 67738" d="M3917.846,1703.783c.012.341.051.683.088,1.05,1.34.834,4.652.29,5.7.3a41.527,41.527,0,0,0-4.347-1.744C3918.5,1703.594,3917.846,1703.783,3917.846,1703.783Z" transform="translate(-110.731 -153.187)" fill="#e6e6e6" style="mix-blend-mode: multiply;isolation: isolate"/>
    <path id="Trazado_67739" data-name="Trazado 67739" d="M3914.935,1700.863c3.059,1.239,4.424.683,5.9,1.252.025.012.038.012.063.025,1.29.506,1.517,1.024,1.517,1.024l.227-1.113,1.2-5.776.025-.126a.288.288,0,0,0-.1-.025,7.292,7.292,0,0,0-1.77-.367c-3.2-.342-7.381.569-8.278.341-1.011-.253-2.4-1.112-3.046-1.1a.448.448,0,0,0-.139.012C3909.968,1695.188,3911.864,1699.637,3914.935,1700.863Z" transform="translate(-107.897 -149.976)" fill="#440c01"/>
    <path id="Trazado_67740" data-name="Trazado 67740" d="M3936.059,1843.157c.013.076.013.164.025.24.126,1.251.24,2.288.253,2.528.038.733,5.182,2.174,4.184-1.011a16.3,16.3,0,0,1-.633-4.563v-.025c-.038-1.567.051-3.147.114-4.639.013-.379.025-.771.038-1.137,0,0-4.184,3.147-4.335,3.666A46.616,46.616,0,0,0,3936.059,1843.157Z" transform="translate(-117.557 -203.367)" fill="#ffdbc6"/>
    <path id="Trazado_67741" data-name="Trazado 67741" d="M3899.066,1846.325a13.031,13.031,0,0,1,1.075-4.537,20.461,20.461,0,0,1,1.668-3.438,11.758,11.758,0,0,1,1.062-1.466s-4.4.19-5.371.745c-.632.367-1.39,3.072-2.186,5.056a1.076,1.076,0,0,1-.09.215,3.859,3.859,0,0,1-1.162,1.908C3893.581,1845.036,3899.243,1847.438,3899.066,1846.325Z" transform="translate(-101.621 -204.26)" fill="#ffdbc6"/>
    <path id="Trazado_67742" data-name="Trazado 67742" d="M3919.8,1856.162a7.457,7.457,0,0,0,2.97.91,17.4,17.4,0,0,0,6.029-.1c4.335-.885,6.231-.177,6.711-.594.291-.253.316-1.719-.025-3.211a6.334,6.334,0,0,0-1.125-2.565c-.19-.215-4.108.746-4.512.9s-1.264.885-2.68,1.808a3.247,3.247,0,0,1-.632.315c-1.162.519-3.235,1.125-4.778,1.631C3920.562,1855.656,3919.677,1855.984,3919.8,1856.162Z" transform="translate(-111.476 -209.496)" fill="#8f5252"/>
    <path id="Trazado_67743" data-name="Trazado 67743" d="M3876.556,1852.082c-.025.328.935.9,2.262,1.453,2.1.872,5.119,1.719,6.724,1.5,2.616-.341,6.471.3,7.217.051.455-.151.4-1.744.177-3.02a3.61,3.61,0,0,0-.53-1.618s-4.1-.745-5.031-.733-1.39.48-3.059,1.074a3.884,3.884,0,0,1-.733.177c-1.693.3-4.79.354-6.244.682h-.012C3876.859,1851.754,3876.568,1851.893,3876.556,1852.082Z" transform="translate(-94.934 -209.171)" fill="#8f5252"/>
    <path id="Trazado_67744" data-name="Trazado 67744" d="M3895.778,1843.525a.432.432,0,0,0,.114.037c1.29.455,4.34-1.935,4.846-2.023.328-.05.072.683.072.911a20.5,20.5,0,0,1,1.668-3.438.526.526,0,0,0-.025-.366c-.3-.43-5.4,3.8-6.471,4.7C3895.854,1843.461,3895.778,1843.525,3895.778,1843.525Z" transform="translate(-102.288 -204.923)" fill="#e6e6e6" style="mix-blend-mode: multiply;isolation: isolate"/>
    <path id="Trazado_67745" data-name="Trazado 67745" d="M3895.161,1817.583c.215.291,5.031-1.491,8.519-6.307.139-.2.291-.4.43-.594a39.391,39.391,0,0,0,7.495-17.707c1.276-7.04,3.741-8.278,5.321-10.6a7.366,7.366,0,0,0,1.049-2.288c1.189-4.361-.518-9.252-1.479-9.77s-5.713,2.287-5.713,2.287c-2.363,6.964-5.548,16.823-6.584,21.638S3894.934,1817.28,3895.161,1817.583Z" transform="translate(-102.051 -178.766)" fill="#c27b7a"/>
    <path id="Trazado_67746" data-name="Trazado 67746" d="M3909.658,1813.283a39.4,39.4,0,0,0,7.494-17.707c1.276-7.04,3.74-8.278,5.321-10.6-.506-3.311-1.53-7.924-1.53-7.924-2.01,9.643-4.941,15.811-6.117,20.627A97.207,97.207,0,0,1,3909.658,1813.283Z" transform="translate(-107.599 -181.367)" fill="#c25453"/>
    <path id="Trazado_67747" data-name="Trazado 67747" d="M3936.065,1844.153a.833.833,0,0,0,.164-.051c1.53-.443,3.248-3.767,3.514-3.767.152,0,.228.367.291.7-.037-1.567.051-3.147.114-4.639-.505.4-3.286,6.1-3.944,7.47C3936.115,1844.052,3936.065,1844.153,3936.065,1844.153Z" transform="translate(-117.702 -204.072)" fill="#e6e6e6" style="mix-blend-mode: multiply;isolation: isolate"/>
    <path id="Trazado_67748" data-name="Trazado 67748" d="M3927.342,1785.213c.9,5.182,4.664,30,5.044,30.3s3.854-4.588,4.3-7.027a59.036,59.036,0,0,0-.518-16.9c-1.263-6.66-3.337-6.522-2.149-12.525.152-.758.329-1.516.519-2.262,1.062-4.171,2.527-8.076,2-11.944a10.855,10.855,0,0,0-.67-2.6c-2.149-5.41-8.734,4.221-8.734,4.221-.012.721-.025,1.416-.051,2.06,0,.253-.012.493-.012.733C3926.824,1777.92,3926.534,1780.5,3927.342,1785.213Z" transform="translate(-114.161 -175.074)" fill="#d69a99"/>
    <path id="Trazado_67749" data-name="Trazado 67749" d="M3925.3,1771.8a7.4,7.4,0,0,0,1.188.1c3,.076,6.13-1.087,6.876.189.758,1.3.025,6.13.594,7.344,1.062-4.171,2.527-8.076,2-11.944-2.528.3-7.242,2.565-9.454,3.678Z" transform="translate(-113.582 -177.709)" fill="#d1706f"/>
    <path id="Trazado_67750" data-name="Trazado 67750" d="M3917.1,1754.848c.189.252,12.26-3.033,16.241-4.689.734-.316,1.189-.556,1.251-.721.367-1.036-1.631-3.261-.746-7.33.518-2.414,2.022-7.229,2.565-12.032.367-3.3.291-6.585-.859-9.088-2.592-5.625-9.556-.961-10.074-.582-3.134,2.224-2.818,6.446-4.524,17.847-.039.24-.076.48-.1.708-.557,3.551-1.176,6.446-1.744,8.746C3917.935,1752.459,3916.962,1754.659,3917.1,1754.848Z" transform="translate(-110.441 -158.865)" fill="#f3a6b0"/>
    <rect id="Rectángulo_25756" data-name="Rectángulo 25756" width="6.528" height="4.502" rx="1.06" transform="matrix(-0.88, -0.475, 0.475, -0.88, 3806.517, 1562.181)" fill="#7817aa"/>
    <rect id="Rectángulo_25757" data-name="Rectángulo 25757" width="6.528" height="4.502" rx="1.06" transform="matrix(-0.952, 0.307, -0.307, -0.952, 3798.698, 1559.011)" fill="#7817aa"/>
    <rect id="Rectángulo_25758" data-name="Rectángulo 25758" width="6.528" height="4.502" rx="1.06" transform="translate(3806.484 1583.255) rotate(162.105)" fill="#f8bbd0"/>
    <rect id="Rectángulo_25759" data-name="Rectángulo 25759" width="6.528" height="4.502" rx="1.06" transform="translate(3794.785 1584.756) rotate(-151.669)" fill="#7817aa"/>
    <rect id="Rectángulo_25760" data-name="Rectángulo 25760" width="6.528" height="4.502" rx="1.06" transform="translate(3791.056 1562.216) rotate(117.799)" fill="#7817aa"/>
    <rect id="Rectángulo_25761" data-name="Rectángulo 25761" width="6.528" height="4.502" rx="1.06" transform="translate(3813.728 1573.826) rotate(117.8)" fill="#7817aa"/>
    <rect id="Rectángulo_25762" data-name="Rectángulo 25762" width="6.528" height="4.502" rx="1.06" transform="translate(3812.183 1562.304) rotate(72.888)" fill="#7817aa"/>
    <path id="Trazado_67751" data-name="Trazado 67751" d="M3879.964,1737.392l1.242,4.04.293.945a.65.65,0,0,0,.7.456.431.431,0,0,0,.119-.02l1.633-.5,1.417-.436a.653.653,0,0,0,.431-.819l-.436-1.417-.325-1.051-.774-2.521a.654.654,0,0,0-.819-.432l-1.446.444-1.6.5A.65.65,0,0,0,3879.964,1737.392Z" transform="translate(-96.226 -165.511)" fill="#7817aa"/>
    <path id="Trazado_67752" data-name="Trazado 67752" d="M3883.272,1727.879a12.887,12.887,0,0,0,.961,4.3,12.032,12.032,0,0,0,.521,1.116c.147.281.3.554.469.819a13.047,13.047,0,1,0-1.91-8.08A13.46,13.46,0,0,0,3883.272,1727.879Zm7.571-1.1a5.531,5.531,0,1,1,5,6.011A5.531,5.531,0,0,1,3890.843,1726.775Z" transform="translate(-97.498 -157.313)" fill="#7817aa"/>
    <path id="Trazado_67753" data-name="Trazado 67753" d="M3907.161,1731.417a7.374,7.374,0,1,0-8.018,6.668A7.375,7.375,0,0,0,3907.161,1731.417Z" transform="translate(-101.013 -160.829)" fill="none" stroke="#fff" stroke-miterlimit="10" stroke-width="0.118"/>
    <path id="Trazado_67754" data-name="Trazado 67754" d="M3913.381,1746.017c-3.423,0-11.322,5.635-13.955,5.161s-6.793-2.054-7.847-1.264,5.214,4.319,9.427,3.582S3913.381,1746.017,3913.381,1746.017Z" transform="translate(-100.637 -169.495)" fill="#d1bcff"/>
    <path id="Trazado_67755" data-name="Trazado 67755" d="M3896.6,1757.115a7.214,7.214,0,0,0,3.627.038,9.412,9.412,0,0,0,2.111-.733c.177-.088.265-.139.265-.139l-.784-2.629c-1.023.379-1.68.746-2.211.922h-.012v.013a1.67,1.67,0,0,1-1.441-.114c-1.113-.594-7.356-3.552-8-2.566S3893.587,1756.23,3896.6,1757.115Z" transform="translate(-100.11 -171.672)" fill="#ffe2d7"/>
    <path id="Trazado_67756" data-name="Trazado 67756" d="M3920.364,1749.8a15.745,15.745,0,0,1,2.11-3.742c2.414-3.2,4.79-2.022,8.7-6s5.409-13.436,3.551-16.355c0,0-8.228,14.75-12.613,17.354C3921.552,1744.6,3920.933,1747.5,3920.364,1749.8Z" transform="translate(-111.695 -160.956)" fill="#ed7885"/>
    <path id="Trazado_67757" data-name="Trazado 67757" d="M3906.1,1758.929a9.42,9.42,0,0,0,2.111-.733c0-.1-.063-.189-.19-.3a24.4,24.4,0,0,0-2.541-1.542h-.012v.013c-.216.43,1.264,1.643,1.213,1.959C3906.643,1758.525,3906.315,1758.765,3906.1,1758.929Z" transform="translate(-105.988 -173.448)" fill="#e6e6e6" style="mix-blend-mode: multiply;isolation: isolate"/>
    <path id="Trazado_67758" data-name="Trazado 67758" d="M3928,1721.747c-6.8-2.037-7.174,12.892-8.15,14.67a9.636,9.636,0,0,0-2.914.741c-3.148,1.333-10.952,5.495-11.483,5.878-.323.233,1.6,2.025,2.05,2.173s13.534-3.457,15.9-5.285S3932.507,1723.1,3928,1721.747Z" transform="translate(-105.977 -160.136)" fill="#ffb5be"/>
    <path id="Trazado_67759" data-name="Trazado 67759" d="M3924.622,1858.681a17.4,17.4,0,0,0,6.029-.1c4.335-.885,6.231-.177,6.711-.594.291-.252.316-1.719-.026-3.21-.581,1.719-2.25,2.465-4.019,2.6C3931.864,1857.505,3926.973,1858.2,3924.622,1858.681Z" transform="translate(-113.324 -211.105)" fill="#ccc" style="mix-blend-mode: multiply;isolation: isolate"/>
    <path id="Trazado_67760" data-name="Trazado 67760" d="M3880.22,1854.993c2.1.872,5.119,1.719,6.724,1.5,2.616-.341,6.471.3,7.217.05.455-.151.4-1.744.177-3.02-.822,1.516-4.677,2.25-6.61,2.225C3885.983,1855.726,3882,1854.967,3880.22,1854.993Z" transform="translate(-96.336 -210.627)" fill="#ccc" style="mix-blend-mode: multiply;isolation: isolate"/>
    <path id="Trazado_67761" data-name="Trazado 67761" d="M3910.825,1695a6.548,6.548,0,0,0,2.945,3.64c2.035,1.264,5.586-2.01,8.379-2.881-3.2-.342-7.381.569-8.278.341C3912.859,1695.845,3911.469,1694.986,3910.825,1695Z" transform="translate(-108.045 -149.976)" fill="#ff4747" style="mix-blend-mode: soft-light;isolation: isolate"/>
    <path id="Trazado_67762" data-name="Trazado 67762" d="M3932.2,1696.862" transform="translate(-116.222 -150.689)" fill="#440c01"/>
    <path id="Trazado_67763" data-name="Trazado 67763" d="M3922.983,1857.109c.949.493,3.666.215,4.993-.556s1.4-1.3-.215-1.074C3926.6,1856,3924.526,1856.6,3922.983,1857.109Z" transform="translate(-112.697 -211.354)" fill="#fff" opacity="0.4"/>
    <path id="Trazado_67764" data-name="Trazado 67764" d="M3877.825,1852.428a2.141,2.141,0,0,0,1.239.48,8.01,8.01,0,0,0,5.005-1.162C3882.375,1852.049,3879.278,1852.1,3877.825,1852.428Z" transform="translate(-95.42 -209.946)" fill="#fff" opacity="0.4"/>
    <path id="Trazado_67765" data-name="Trazado 67765" d="M3941.542,1751.383c.392,1.642,2.071,4.169,1.135,6.116.733-.316,1.189-.556,1.252-.721.367-1.036-1.631-3.26-.746-7.33.518-2.414,2.023-7.229,2.566-12.032C3943.438,1746.09,3941.108,1749.566,3941.542,1751.383Z" transform="translate(-119.777 -166.204)" fill="#ed7885"/>
    <g id="Group_26950" data-name="Group 26950" transform="translate(3809.594 1358.979)">
      <circle id="Ellipse_1793" data-name="Ellipse 1793" cx="38.346" cy="38.346" r="38.346" transform="translate(1.444 1.362)" fill="#895cd8"/>
      <path id="Path_67591" data-name="Path 67591" d="M-318.477,745.313a1.784,1.784,0,0,1-1.786-1.783,1.786,1.786,0,0,1,.78-1.478A233.583,233.583,0,0,1-296.013,728.5c18.255-9.2,34.228-14.337,47.477-15.257a1.785,1.785,0,0,1,1.9,1.657,1.784,1.784,0,0,1-1.657,1.9h0c-30.539,2.121-68.8,27.94-69.187,28.2A1.766,1.766,0,0,1-318.477,745.313Z" transform="translate(320.263 -698.196)" fill="#d1bcff" opacity="0.9" style="isolation: isolate"/>
      <path id="Path_67592" data-name="Path 67592" d="M-314.335,756.994a1.784,1.784,0,0,1-1.785-1.786,1.786,1.786,0,0,1,.828-1.508,269.14,269.14,0,0,1,24.35-13.285c18.711-9.005,34.572-13.979,47.14-14.777a1.785,1.785,0,0,1,1.9,1.657,1.785,1.785,0,0,1-1.656,1.9h-.022c-28.964,1.845-69.4,27.264-69.806,27.517A1.773,1.773,0,0,1-314.335,756.994Z" transform="translate(320.431 -697.692)" fill="#d1bcff" opacity="0.9" style="isolation: isolate"/>
      <path id="Path_67593" data-name="Path 67593" d="M-307.14,765.844a1.783,1.783,0,0,1-1.787-1.782,1.785,1.785,0,0,1,.9-1.555c.1-.059,10.479-5.945,23.612-11.749,17.748-7.843,31.843-11.819,41.889-11.819a1.786,1.786,0,0,1,1.789,1.782,1.784,1.784,0,0,1-1.782,1.788h-.007c-22.878,0-63.329,22.87-63.735,23.1A1.759,1.759,0,0,1-307.14,765.844Z" transform="translate(320.723 -697.152)" fill="#d1bcff" opacity="0.9" style="isolation: isolate"/>
      <path id="Path_67594" data-name="Path 67594" d="M-290.155,727.252a1.785,1.785,0,0,1-1.657-1.122c-2.568-6.42-9.067-20.586-9.133-20.728a1.785,1.785,0,0,1,.878-2.366,1.784,1.784,0,0,1,2.366.877h0c.066.144,6.6,14.39,9.2,20.891a1.785,1.785,0,0,1-.994,2.321A1.788,1.788,0,0,1-290.155,727.252Z" transform="translate(321.041 -698.617)" fill="#d1bcff" opacity="0.9" style="isolation: isolate"/>
      <path id="Path_67595" data-name="Path 67595" d="M-279.3,723.06a1.785,1.785,0,0,1-1.762-1.513c-.68-4.415-6.222-16.058-8.3-20.17a1.785,1.785,0,0,1,.789-2.4,1.785,1.785,0,0,1,2.4.788h0c.312.624,7.737,15.359,8.637,21.237a1.785,1.785,0,0,1-1.492,2.035A1.776,1.776,0,0,1-279.3,723.06Z" transform="translate(321.51 -698.783)" fill="#d1bcff" opacity="0.9" style="isolation: isolate"/>
      <path id="Path_67596" data-name="Path 67596" d="M-266.917,719.844a1.785,1.785,0,0,1-1.733-1.366c-1.736-7.18-7.626-16.883-7.685-16.981a1.785,1.785,0,0,1,.6-2.453,1.785,1.785,0,0,1,2.453.6c.254.416,6.244,10.286,8.105,18A1.788,1.788,0,0,1-266.5,719.8a1.8,1.8,0,0,1-.415.049Z" transform="translate(322.037 -698.783)" fill="#d1bcff" opacity="0.9" style="isolation: isolate"/>
      <path id="Path_67597" data-name="Path 67597" d="M-293.885,730.111a1.784,1.784,0,0,1-1.095-.376c-3-2.336-15.713-6.516-20.365-7.93a1.785,1.785,0,0,1-1.187-2.228,1.786,1.786,0,0,1,2.228-1.187c1.774.54,17.452,5.365,21.518,8.527a1.785,1.785,0,0,1,.314,2.5,1.788,1.788,0,0,1-1.412.689Z" transform="translate(320.411 -697.99)" fill="#d1bcff" opacity="0.9" style="isolation: isolate"/>
      <path id="Path_67598" data-name="Path 67598" d="M-292.383,721.3a1.773,1.773,0,0,1-1.145-.416c-4.9-4.082-15.742-7.466-15.852-7.5a1.784,1.784,0,0,1-1.177-2.232,1.785,1.785,0,0,1,2.232-1.178h0c.474.146,11.641,3.634,17.081,8.168a1.786,1.786,0,0,1,.23,2.514,1.782,1.782,0,0,1-1.375.642Z" transform="translate(320.654 -698.332)" fill="#d1bcff" opacity="0.9" style="isolation: isolate"/>
      <path id="Path_67599" data-name="Path 67599" d="M-275.863,776.169a1.784,1.784,0,0,1-1.783-1.787,1.79,1.79,0,0,1,.318-1.016c6.7-9.651,5.052-26.688,5.036-26.858a1.786,1.786,0,0,1,1.609-1.945,1.785,1.785,0,0,1,1.942,1.581c.077.751,1.8,18.514-5.654,29.258A1.78,1.78,0,0,1-275.863,776.169Z" transform="translate(321.994 -696.924)" fill="#d1bcff" opacity="0.9" style="isolation: isolate"/>
      <path id="Path_67600" data-name="Path 67600" d="M-290.685,775.431a1.783,1.783,0,0,1-1.784-1.783,1.8,1.8,0,0,1,.14-.7c.05-.119,5.019-11.951,6.295-20.667a1.785,1.785,0,0,1,2.026-1.506,1.785,1.785,0,0,1,1.506,2.026h0c-1.342,9.172-6.328,21.037-6.539,21.541A1.785,1.785,0,0,1-290.685,775.431Z" transform="translate(321.392 -696.672)" fill="#d1bcff"/>
      <path id="Path_67601" data-name="Path 67601" d="M-307.249,736.24a1.783,1.783,0,0,1-1.161-.43c-2.215-1.9-8.207-3.509-10.329-3.968a1.785,1.785,0,0,1-1.367-2.122,1.785,1.785,0,0,1,2.122-1.367h0c.87.188,8.6,1.92,11.9,4.747a1.786,1.786,0,0,1,.194,2.517,1.786,1.786,0,0,1-1.356.622Z" transform="translate(320.268 -697.584)" fill="#d1bcff" opacity="0.9" style="isolation: isolate"/>
      <path id="Path_67602" data-name="Path 67602" d="M-261.505,770.177a1.785,1.785,0,0,1-1.781-1.789,1.78,1.78,0,0,1,.2-.813c5.253-10.162,3.635-22.873,3.617-23a1.785,1.785,0,0,1,1.532-2.006,1.784,1.784,0,0,1,2.006,1.531c.076.564,1.8,13.934-3.984,25.115A1.781,1.781,0,0,1-261.505,770.177Z" transform="translate(322.577 -697.005)" fill="#d1bcff" opacity="0.9" style="isolation: isolate"/>
    </g>
    <g id="Group_26951" data-name="Group 26951" transform="translate(3888.746 1363.312)">
      <path id="Path_67603" data-name="Path 67603" d="M-163.457,702.947v49.489h-20.812V721.693l15.186-18.746Z" transform="translate(246.635 -702.947)" fill="#7986cb"/>
      <path id="Path_67604" data-name="Path 67604" d="M-163.457,770.164V720.675h-20.812v30.747l15.186,18.746Z" transform="translate(246.635 -702.227)" fill="#7986cb"/>
      <path id="Path_67605" data-name="Path 67605" d="M-244.2,770.164V720.675h20.812v30.747l-15.186,18.746Z" transform="translate(244.201 -702.227)" fill="#7986cb"/>
      <path id="Path_67606" data-name="Path 67606" d="M-244.2,702.947v49.489h20.812V721.693l-15.186-18.746Z" transform="translate(244.201 -702.947)" fill="#7986cb"/>
      <rect id="Rectangle_25734" data-name="Rectangle 25734" width="41.557" height="30.446" transform="translate(20.812 18.746)" fill="#895cd8" opacity="0.9" style="isolation: isolate"/>
      <path id="Path_67607" data-name="Path 67607" d="M-220.785,753.107a1.417,1.417,0,0,1-.15-.008,1.339,1.339,0,0,1-1.182-1.479l3.458-31.042a1.339,1.339,0,0,1,1.478-1.183,1.338,1.338,0,0,1,1.162,1.056l4.765,22.707,2.767-22.595a1.339,1.339,0,0,1,1.494-1.163,1.338,1.338,0,0,1,1.153,1.093l4.282,24.2,4.891-23.414a1.341,1.341,0,0,1,1.3-1.065h.006a1.34,1.34,0,0,1,1.308,1.053l4.588,20.989,1.719-21.346a1.339,1.339,0,0,1,1.442-1.226,1.338,1.338,0,0,1,1.226,1.441h0l-2.44,30.308a1.339,1.339,0,0,1-1.249,1.228,1.352,1.352,0,0,1-1.4-1.05l-5.171-23.653-5.025,24.077a1.381,1.381,0,0,1-1.332,1.066,1.341,1.341,0,0,1-1.3-1.106l-3.933-22.231-2.66,21.724a1.339,1.339,0,0,1-1.494,1.163,1.339,1.339,0,0,1-1.145-1.051l-4.708-22.43-2.532,22.74A1.34,1.34,0,0,1-220.785,753.107Z" transform="translate(245.098 -702.279)" fill="#d1bcff"/>
    </g>
    <g id="Group_26952" data-name="Group 26952" transform="translate(4001.051 1347.196)">
      <path id="Path_67608" data-name="Path 67608" d="M-69.06,768.2h-49.487V747.392H-87.8l18.746,15.186Z" transform="translate(136.999 -685.026)" fill="#ffd54f" opacity="0.9" style="isolation: isolate"/>
      <path id="Path_67609" data-name="Path 67609" d="M-136.278,768.2h49.489V747.392h-30.744l-18.746,15.186Z" transform="translate(136.279 -685.026)" fill="#ffd54f" opacity="0.9" style="isolation: isolate"/>
      <path id="Path_67610" data-name="Path 67610" d="M-136.278,687.46h49.489v20.812h-30.744l-18.746-15.186Z" transform="translate(136.279 -687.46)" fill="#ffd54f" opacity="0.9" style="isolation: isolate"/>
      <path id="Path_67611" data-name="Path 67611" d="M-69.06,687.46h-49.487v20.812H-87.8l18.746-15.186Z" transform="translate(136.999 -687.46)" fill="#ffd54f" opacity="0.9" style="isolation: isolate"/>
      <rect id="Rectangle_25735" data-name="Rectangle 25735" width="30.446" height="41.557" transform="translate(18.747 20.812)" fill="#d1bcff"/>
      <path id="Path_67612" data-name="Path 67612" d="M-87.752,746.59a.664.664,0,0,1-.1-.005l-30.308-2.44a1.338,1.338,0,0,1-1.23-1.438,1.339,1.339,0,0,1,1.051-1.2l23.654-5.171-24.078-5.026a1.338,1.338,0,0,1-1.039-1.582,1.339,1.339,0,0,1,1.079-1.047l22.231-3.932-21.725-2.661a1.339,1.339,0,0,1-1.162-1.5,1.34,1.34,0,0,1,1.051-1.144l22.431-4.706-22.74-2.534a1.338,1.338,0,0,1-1.2-1.465,1.338,1.338,0,0,1,1.465-1.2l.029,0L-87.3,713a1.338,1.338,0,0,1,1.182,1.478,1.336,1.336,0,0,1-1.056,1.162l-22.706,4.765,22.595,2.767a1.338,1.338,0,0,1,1.167,1.49,1.336,1.336,0,0,1-1.1,1.156l-24.206,4.282,23.414,4.891a1.338,1.338,0,0,1,1.04,1.582A1.339,1.339,0,0,1-88,737.613l-20.99,4.589,21.346,1.719a1.34,1.34,0,0,1,1.218,1.452,1.339,1.339,0,0,1-1.322,1.222Z" transform="translate(136.947 -686.563)" fill="#7986cb"/>
    </g>
    <g id="Group_26959" data-name="Group 26959" transform="translate(3926.175 1335.843)">
      <path id="Path_67655" data-name="Path 67655" d="M-183.737,756.078s-6.176,12.375-6.941,12.312-3.636-1.977-3.636-1.977l1.081-3.764s-2.422,2.3-3.7,1.977-10.077-3.755-11.227-5.6,11.1,2.351,16.7-6.644Z" transform="translate(208.233 -673.47)" fill="#41294a"/>
      <path id="Path_67656" data-name="Path 67656" d="M-131.213,736.293s-18.684-28.638-35.363-25.377-35.394,38.615-32.952,40.8,18.966,15.891,22.373,11.937c5.723-6.644,17.087-20.123,16.808-18.967s18.949,20.284,25.48,21.125,18.925-11.216,19.237-14.136S-131.213,736.293-131.213,736.293Z" transform="translate(208.578 -675.165)" fill="#fff"/>
      <path id="Path_67657" data-name="Path 67657" d="M-116.746,700.99s-4.967,6.278-7.478,5.64c-3.665-.937-3.33-4-4.414-3.86s-9.284,2.615-12.175,5.515-3.859,6.488-4.4,13.014,5.639,11.708,6.935,15.387-7.307,22.9-6.23,24.573c0,0,35.961,12.312,46.786-1.911,1.833-2.407.429-18.868,1.753-26.46s.7-14.555.171-23.548C-96.289,700.99-116.746,700.99-116.746,700.99Z" transform="translate(210.791 -675.558)" fill="#f19680"/>
      <path id="Path_67658" data-name="Path 67658" d="M-136.916,795.81s3.244,13.445,2.617,13.889-4.058.833-4.058.833l-1.6-3.575s-.374,3.317-1.554,3.9-10.128,3.616-12.2,2.943,10-5.348,8.5-15.838Z" transform="translate(210.438 -671.706)" fill="#41294a"/>
      <path id="Path_67659" data-name="Path 67659" d="M-115.3,701.555s-6.471.15-8.863-11.08c-.89-4.179-4.535-3.862-5.241-2.461s4.985,17.066-3.772,18.032C-134.255,706.167-125.054,720.411-115.3,701.555Z" transform="translate(211.278 -676.123)" fill="#f19680"/>
      <path id="Path_67660" data-name="Path 67660" d="M-131.922,689.052s.338,9.053,4.141,7.076c9.512-4.93,2.431-12.888.473-12.718A5.515,5.515,0,0,0-131.922,689.052Z" transform="translate(211.332 -676.272)" fill="#f19680"/>
      <path id="Path_67661" data-name="Path 67661" d="M-129.776,684.654s.048,4.763,4.171,5.736c1.811.427,1.064-2.276,2.1-1.249,1.716,1.7-.337,1.587-.364,3.018-.069,3.642,4.553,1.727,4.811-3.606a7.129,7.129,0,0,0-3.7-6.259,7.332,7.332,0,0,0-9.04,1.275c-1.627,2.028-2.854,7.961-1.457,7.326S-129.228,687.438-129.776,684.654Z" transform="translate(211.253 -676.358)" fill="#41294a"/>
      <path id="Path_67662" data-name="Path 67662" d="M-124.642,692.857a5.234,5.234,0,0,1-2.8,2.793,22.252,22.252,0,0,1-.168,4.787C-127.736,700.96-122.029,697.688-124.642,692.857Z" transform="translate(211.508 -675.888)" fill="#e75b5d" opacity="0.5" style="isolation: isolate"/>
      <circle id="Ellipse_1798" data-name="Ellipse 1798" cx="4.692" cy="4.692" r="4.692" transform="translate(86.593)" fill="#41294a"/>
      <circle id="Ellipse_1799" data-name="Ellipse 1799" cx="4.692" cy="4.692" r="4.692" transform="translate(71.644 1.817)" fill="#41294a"/>
      <path id="Path_67663" data-name="Path 67663" d="M-95.214,742.311s-58.532-2.217-67.21,8.089,7.1,50.782,6.556,54.036,23.367-3.191,26.079-4.818-6.5-30.608-6.5-30.608,31.523,1.353,36.734-1.286C-88.232,762.007-95.214,742.311-95.214,742.311Z" transform="translate(209.987 -673.887)" fill="#fff"/>
      <path id="Path_67664" data-name="Path 67664" d="M-133.522,736.027s.537,4.424,8.556,4.216c2.612-.068,37.305,8.819,25.139-9.873a39.119,39.119,0,0,0-5.827-6.676s-24.608,2.8-26.876,4.058S-133.522,736.027-133.522,736.027Z" transform="translate(211.253 -674.635)" fill="#e75b5d" opacity="0.5" style="isolation: isolate"/>
      <path id="Path_67665" data-name="Path 67665" d="M-145.247,717.723s.393.507,7.492-3.844,18.592-2.8,25.807-2.256,8.1,7.463,6.746,12.592-26.526,3.376-32.558,5.156S-145.247,717.723-145.247,717.723Z" transform="translate(210.791 -675.155)" fill="#995288"/>
      <path id="Path_67666" data-name="Path 67666" d="M-162.526,718.95l30.169-8.648,9.429,33.6L-153.3,752.58Z" transform="translate(210.089 -675.179)" fill="#41294a"/>
      <path id="Path_67667" data-name="Path 67667" d="M-96.754,707.161s11.993,23.868,1.145,30.92-31.483-1.457-34.589,0c-7.987,3.746-3.9-4.9,2.872-4.734,5,.12,19-1.481,19-6.363s-4.048-17.9-4.048-17.9Z" transform="translate(211.224 -675.307)" fill="#f19680"/>
      <path id="Path_67668" data-name="Path 67668" d="M-160.97,724.2s.611-1.457,4.475,0-.833,2.652-2.1,6.354S-163.251,727.226-160.97,724.2Z" transform="translate(210.121 -674.641)" fill="#f19680"/>
    </g>
    <g id="Group_26955" data-name="Group 26955" transform="translate(4087.315 1440.365)">
      <path id="Path_67621" data-name="Path 67621" d="M-283.55,757.667c-7.989-2.935-7.17-11.82-7.17-11.82h-.124c0-1.061-1.51-1.984-3.746-2.467a15.892,15.892,0,0,1-1.516-4.516A3.736,3.736,0,0,0-295,733.7a3.737,3.737,0,0,0-5.166-1.11,3.737,3.737,0,0,0-1.109,5.166,3.733,3.733,0,0,0,1.109,1.109,15.847,15.847,0,0,1-1.516,4.516c-2.233.483-3.746,1.406-3.746,2.467h-.128s.815,8.886-7.17,11.82-12.717,9.133-4.728,17.934,9.545,17.609,9.545,17.609h17.835A60.732,60.732,0,0,1-278.819,775.6C-270.833,766.8-275.561,760.6-283.55,757.667Z" transform="translate(332.725 -731.99)" fill="#41294a"/>
      <path id="Path_67622" data-name="Path 67622" d="M-281.533,780.16c-6.676-6.6-15.577,2.2-15.577,2.2s-8.9-8.8-15.576-2.2-1.59,12.839,2.861,15.775c0,0-.953,12.472-3.5,15.406a71.956,71.956,0,0,0,16.574,4.483,60.392,60.392,0,0,0,15.85-4.483c-2.543-2.935-3.5-15.406-3.5-15.406C-279.944,793-274.857,786.763-281.533,780.16Z" transform="translate(331.334 -743.2)" fill="#895cd8"/>
      <path id="Path_67623" data-name="Path 67623" d="M-308.965,778.052a8.24,8.24,0,0,0-3.721,2.193c-6.676,6.6-1.59,12.839,2.861,15.775,0,0-.953,12.472-3.5,15.406a71.971,71.971,0,0,0,16.574,4.483,60.393,60.393,0,0,0,15.85-4.483,10.756,10.756,0,0,1-1.692-3.915C-302.822,804.119-307.768,785.934-308.965,778.052Z" transform="translate(331.334 -743.285)" fill="#d1bcff"/>
      <rect id="Rectangle_25741" data-name="Rectangle 25741" width="5.623" height="19.82" transform="translate(31.775 148.069)" fill="#41294a"/>
      <path id="Path_67624" data-name="Path 67624" d="M-295.767,951.994a16.14,16.14,0,0,0-16.141,16.139h32.281A16.14,16.14,0,0,0-295.767,951.994Z" transform="translate(330.354 -785.941)" fill="#41294a"/>
      <path id="Path_67625" data-name="Path 67625" d="M-298.776,848.082c-10.211,0-25.4-1.51-25.4-5.661s15.191-5.661,25.4-5.661,25.4,1.51,25.4,5.661S-288.566,848.082-298.776,848.082Zm0-10.026c-14.936,0-24.107,2.543-24.107,4.366s9.171,4.366,24.107,4.366,24.107-2.543,24.107-4.366S-283.841,838.055-298.776,838.055Z" transform="translate(333.363 -757.682)" fill="#41294a"/>
      <path id="Path_67626" data-name="Path 67626" d="M-300.309,868.45c-12.1,0-30.115-1.51-30.115-5.661s18.009-5.661,30.115-5.661,30.115,1.51,30.115,5.661S-288.2,868.45-300.309,868.45Zm0-10.026c-17.592,0-28.819,2.586-28.819,4.366s11.227,4.366,28.819,4.366,28.819-2.586,28.819-4.366S-282.716,858.423-300.309,858.423Z" transform="translate(334.895 -762.677)" fill="#41294a"/>
      <path id="Path_67627" data-name="Path 67627" d="M-301.39,893.164a162.392,162.392,0,0,1-23.29-1.476c-10.155-1.552-10.155-3.534-10.155-4.184s0-2.633,10.155-4.185a184.581,184.581,0,0,1,46.579,0c10.155,1.553,10.155,3.534,10.155,4.185s0,2.632-10.155,4.184A162.375,162.375,0,0,1-301.39,893.164Zm0-10.027c-21.109,0-32.153,2.842-32.153,4.366s11.042,4.366,32.153,4.366,32.153-2.842,32.153-4.366S-280.282,883.137-301.39,883.137Z" transform="translate(335.976 -768.738)" fill="#41294a"/>
      <path id="Path_67628" data-name="Path 67628" d="M-301.76,915.255a173.663,173.663,0,0,1-24.1-1.476c-9.406-1.389-10.491-3.054-10.491-4.185s1.088-2.793,10.491-4.185a197.5,197.5,0,0,1,48.19,0c9.406,1.389,10.491,3.054,10.491,4.185s-1.088,2.8-10.491,4.185A173.646,173.646,0,0,1-301.76,915.255Zm0-10.027c-21.86,0-33.3,2.842-33.3,4.366s11.436,4.366,33.3,4.366,33.294-2.842,33.294-4.366S-279.9,905.228-301.76,905.228Z" transform="translate(336.347 -774.155)" fill="#41294a"/>
      <path id="Path_67629" data-name="Path 67629" d="M-336.347,889.318c0-.422,0-42.525,18.5-68.081l1.049.759c-18.252,25.216-18.255,66.9-18.253,67.315Z" transform="translate(336.347 -753.876)" fill="#41294a"/>
      <path id="Path_67630" data-name="Path 67630" d="M-251.047,889.318l-1.294-.006c0-.419-.007-42.106-18.253-67.315l1.049-.759C-251.049,846.792-251.045,888.9-251.047,889.318Z" transform="translate(320.223 -753.876)" fill="#41294a"/>
      <path id="Path_67631" data-name="Path 67631" d="M-269.747,894.757l-1.294-.011c0-.3.135-30.735-10.474-68.35l1.246-.352C-269.607,863.848-269.744,894.453-269.747,894.757Z" transform="translate(322.901 -755.054)" fill="#41294a"/>
      <path id="Path_67632" data-name="Path 67632" d="M-316.061,894.757c0-.3-.14-30.909,10.523-68.713l1.245.352c-10.609,37.615-10.476,68.047-10.474,68.35Z" transform="translate(331.372 -755.054)" fill="#41294a"/>
      <path id="Path_67633" data-name="Path 67633" d="M-295.087,827.026a32.2,32.2,0,0,1-16.64-4.964.647.647,0,0,1-.16-.9.647.647,0,0,1,.9-.16c.151.108,15.539,10.585,30.386,0a.649.649,0,0,1,.9.153.648.648,0,0,1-.153.9h0A25.778,25.778,0,0,1-295.087,827.026Z" transform="translate(330.378 -753.789)" fill="#41294a"/>
      <rect id="Rectangle_25742" data-name="Rectangle 25742" width="1.294" height="104.226" transform="translate(33.939 72.622)" fill="#41294a"/>
    </g>
    <g id="Grupo_26981" data-name="Grupo 26981" transform="translate(4074.093 1309.989)">
      <g id="Grupo_26991" data-name="Grupo 26991" transform="translate(43.518 0)">
        <g id="Grupo_26981-2" data-name="Grupo 26981">
          <path id="Trazado_67766" data-name="Trazado 67766" d="M1380.115,1595.8a28.684,28.684,0,1,1,28.685-28.683A28.716,28.716,0,0,1,1380.115,1595.8Zm0-56.18a27.5,27.5,0,1,0,27.5,27.5A27.528,27.528,0,0,0,1380.115,1539.616Z" transform="translate(-1351.43 -1538.429)" fill="#ffd54f"/>
        </g>
      </g>
      <g id="Grupo_26992" data-name="Grupo 26992" transform="translate(60.775 0.6)">
        <g id="Grupo_26983" data-name="Grupo 26983" transform="translate(0)">
          <path id="Trazado_67767" data-name="Trazado 67767" d="M1380.782,1595.947c-6.422,0-11.453-12.5-11.453-28.448s5.032-28.448,11.453-28.448,11.454,12.5,11.454,28.448S1387.205,1595.947,1380.782,1595.947Zm0-55.7c-5.56,0-10.257,12.479-10.257,27.25s4.7,27.25,10.257,27.25,10.257-12.479,10.257-27.25S1386.342,1540.248,1380.782,1540.248Z" transform="translate(-1369.329 -1539.051)" fill="#ffd54f"/>
        </g>
      </g>
      <g id="Grupo_26993" data-name="Grupo 26993" transform="translate(44.954 19.703)">
        <g id="Grupo_26987" data-name="Grupo 26987" transform="translate(0)">
          <g id="Grupo_26985" data-name="Grupo 26985">
            <rect id="Rectángulo_25763" data-name="Rectángulo 25763" width="54.004" height="1.198" fill="#ffd54f"/>
          </g>
          <g id="Grupo_26986" data-name="Grupo 26986" transform="translate(0 16.765)">
            <rect id="Rectángulo_25764" data-name="Rectángulo 25764" width="54.004" height="1.198" fill="#ffd54f"/>
          </g>
        </g>
      </g>
      <rect id="Rectángulo_25769" data-name="Rectángulo 25769" width="70.225" height="47.674" rx="4.206" transform="translate(0 28.684)" fill="#fad260"/>
      <rect id="Rectángulo_25770" data-name="Rectángulo 25770" width="62.763" height="41.393" transform="translate(4.028 32.442)" fill="#fff"/>
      <path id="Trazado_67774" data-name="Trazado 67774" d="M1341.461,1582.949l23.936-4.129a.461.461,0,0,1,.512.612l-7.437,20.382a.461.461,0,0,1-.757.171l-16.5-16.253A.461.461,0,0,1,1341.461,1582.949Z" transform="translate(-1307.54 -1539.878)" fill="#895cd8"/>
      <path id="Trazado_67775" data-name="Trazado 67775" d="M1334.558,1606.72l-18.062-3.393a.45.45,0,0,1-.131-.838l32.8-17.784a.451.451,0,0,1,.6.167l4.936,8.371a.45.45,0,0,1-.142.605l-19.679,12.805A.451.451,0,0,1,1334.558,1606.72Z" transform="translate(-1306.645 -1540.088)" fill="#895cd8"/>
    </g>
  </g>
</svg>
