<svg xmlns="http://www.w3.org/2000/svg" width="36" height="36" viewBox="0 0 36 36">
  <g id="Grupo_888" data-name="Grupo 888" transform="translate(-1724.874 -4101.521)">
    <circle id="Elipse_58" data-name="Elipse 58" cx="18" cy="18" r="18" transform="translate(1724.874 4101.521)" fill="red" opacity="0.8"/>
    <g id="Grupo_887" data-name="Grupo 887">
      <path id="Trazado_511" data-name="Trazado 511" d="M1730.462,4115.2a13.14,13.14,0,0,0,0,8.649,1,1,0,0,0,.041.118,13.144,13.144,0,0,0,24.742,0,.851.851,0,0,0,.042-.118,13.14,13.14,0,0,0,0-8.649.928.928,0,0,0-.042-.119,13.145,13.145,0,0,0-24.742,0,.925.925,0,0,0-.041.119Zm12.412-6.936c.5,0,1.308.906,1.983,2.93a20.69,20.69,0,0,1,.776,3.321h-5.517a20.611,20.611,0,0,1,.776-3.321c.675-2.024,1.482-2.93,1.982-2.93Zm2.987,8.135c.091,1,.139,2.053.139,3.126s-.048,2.12-.139,3.125h-5.974c-.09-1-.138-2.053-.138-3.125s.048-2.121.138-3.126Zm8.274,3.126a11.207,11.207,0,0,1-.442,3.125h-5.942c.089-1.026.133-2.077.133-3.125s-.044-2.1-.133-3.126h5.942a11.2,11.2,0,0,1,.442,3.126Zm-11.261,11.26c-.5,0-1.307-.906-1.982-2.93a20.636,20.636,0,0,1-.776-3.321h5.517a20.715,20.715,0,0,1-.776,3.321c-.675,2.024-1.482,2.93-1.983,2.93Zm-4.877-8.135h-5.941a11.271,11.271,0,0,1,0-6.251H1738c-.088,1.025-.132,2.076-.132,3.126s.044,2.1.132,3.125Zm-5.2,1.884h5.421a18.117,18.117,0,0,0,1.717,5.859,11.306,11.306,0,0,1-7.138-5.859Zm13.027,5.859a18.1,18.1,0,0,0,1.716-5.859h5.422a11.311,11.311,0,0,1-7.138,5.859Zm7.138-15.878h-5.422a18.1,18.1,0,0,0-1.716-5.86,11.316,11.316,0,0,1,7.138,5.86Zm-13.027-5.86a18.116,18.116,0,0,0-1.717,5.86h-5.421a11.311,11.311,0,0,1,7.138-5.86Zm0,0" fill="#fff"/>
    </g>
  </g>
</svg>
