<?xml version="1.0" encoding="utf-8"?>
<!-- Generator: Adobe Illustrator 25.2.0, SVG Export Plug-In . SVG Version: 6.00 Build 0)  -->
<svg version="1.1" id="Capa_1" xmlns="http://www.w3.org/2000/svg" xmlns:xlink="http://www.w3.org/1999/xlink" x="0px" y="0px"
	 viewBox="0 0 1389 490" style="enable-background:new 0 0 1389 490;" xml:space="preserve">
<style type="text/css">
	.st0{opacity:0.3;fill:none;stroke:#BFBFBF;stroke-width:3.2266;stroke-miterlimit:9.9988;enable-background:new    ;}
	.st1{opacity:0.3;}
	.st2{fill:none;stroke:#BFBFBF;stroke-width:3.227;stroke-linecap:round;stroke-linejoin:round;}
	.st3{opacity:0.3;fill:none;stroke:#BFBFBF;stroke-width:3.227;stroke-miterlimit:10;enable-background:new    ;}
	.st4{opacity:0.5;}
	.st5{fill:#FFFFFF;stroke:#BFBFBF;stroke-width:0.75;stroke-miterlimit:10;}
	.st6{opacity:0.3;fill:none;stroke:#BFBFBF;stroke-width:3.227;stroke-linecap:round;stroke-linejoin:round;}
</style>
<circle id="Elipse_1789" class="st0" cx="489.3" cy="463" r="9"/>
<g id="Grupo_26920" transform="translate(37.075 25.005)" class="st1">
	<line id="Línea_209" class="st2" x1="452.3" y1="8.1" x2="452.3" y2="28.3"/>
	<line id="Línea_210" class="st2" x1="462.4" y1="18.2" x2="442.2" y2="18.2"/>
</g>
<g id="Grupo_26921" transform="translate(78.46 25.005)" class="st1">
	<line id="Línea_211" class="st2" x1="452.3" y1="8.1" x2="452.3" y2="28.3"/>
	<line id="Línea_212" class="st2" x1="462.4" y1="18.2" x2="442.2" y2="18.2"/>
</g>
<g id="Grupo_26922" transform="translate(119.844 25.005)" class="st1">
	<line id="Línea_213" class="st2" x1="452.3" y1="8.1" x2="452.3" y2="28.3"/>
	<line id="Línea_214" class="st2" x1="462.4" y1="18.2" x2="442.2" y2="18.2"/>
</g>
<circle id="Elipse_1790" class="st3" cx="1148.3" cy="353" r="9"/>
<g id="Grupo_26925" transform="translate(861.344 324.601)" class="st1">
	<g id="Grupo_26923" transform="translate(0 37.431)" class="st4">
		<line id="Línea_215" class="st2" x1="443.8" y1="-39.9" x2="429.5" y2="-25.6"/>
		<line id="Línea_216" class="st2" x1="443.8" y1="-25.6" x2="429.5" y2="-39.9"/>
	</g>
	<g id="Grupo_26924" transform="translate(37.431)" class="st4">
		<line id="Línea_217" class="st2" x1="443.8" y1="-39.9" x2="429.5" y2="-25.6"/>
		<line id="Línea_218" class="st2" x1="443.8" y1="-25.6" x2="429.5" y2="-39.9"/>
	</g>
</g>
<g id="Grupo_26929" transform="translate(823.913 399.942)" class="st1">
	<g id="Grupo_26926" class="st4">
		<line id="Línea_219" class="st2" x1="443.8" y1="-25.6" x2="429.5" y2="-39.9"/>
		<line id="Línea_220" class="st2" x1="429.5" y1="-25.6" x2="443.8" y2="-39.9"/>
	</g>
	<g id="Grupo_26927" transform="translate(37.431 37.431)" class="st4">
		<line id="Línea_221" class="st2" x1="443.8" y1="-25.6" x2="429.5" y2="-39.9"/>
		<line id="Línea_222" class="st2" x1="429.5" y1="-25.6" x2="443.8" y2="-39.9"/>
	</g>
	<g id="Grupo_26928" transform="translate(74.862 74.862)" class="st4">
		<line id="Línea_223" class="st2" x1="443.8" y1="-25.6" x2="429.5" y2="-39.9"/>
		<line id="Línea_224" class="st2" x1="429.5" y1="-25.6" x2="443.8" y2="-39.9"/>
	</g>
</g>
<g id="Grupo_26931" transform="translate(0)" class="st1">
	<g id="Grupo_26930" transform="translate(-2.374 -115.917)" class="st4">
		<line id="Línea_225" class="st2" x1="1220.5" y1="113" x2="1106.4" y2="-1.1"/>
		<line id="Línea_226" class="st2" x1="1213" y1="120.5" x2="1098.9" y2="6.4"/>
		<line id="Línea_227" class="st2" x1="1205.5" y1="128" x2="1091.4" y2="13.9"/>
		<line id="Línea_228" class="st2" x1="1198" y1="135.5" x2="1083.9" y2="21.4"/>
		<line id="Línea_229" class="st2" x1="1190.5" y1="143" x2="1076.4" y2="28.9"/>
		<line id="Línea_230" class="st2" x1="1183" y1="150.5" x2="1068.9" y2="36.4"/>
		<line id="Línea_231" class="st2" x1="1175.5" y1="158" x2="1061.4" y2="43.9"/>
		<line id="Línea_232" class="st2" x1="1168" y1="165.5" x2="1053.9" y2="51.4"/>
		<line id="Línea_233" class="st2" x1="1160.5" y1="173" x2="1046.4" y2="58.9"/>
		<line id="Línea_234" class="st2" x1="1153" y1="180.5" x2="1038.9" y2="66.4"/>
		<line id="Línea_235" class="st2" x1="1145.5" y1="188" x2="1031.4" y2="73.9"/>
		<line id="Línea_236" class="st2" x1="1138" y1="195.5" x2="1023.9" y2="81.4"/>
		<line id="Línea_237" class="st2" x1="1130.5" y1="203" x2="1016.4" y2="88.9"/>
		<line id="Línea_238" class="st2" x1="1123" y1="210.5" x2="1008.9" y2="96.4"/>
		<line id="Línea_239" class="st2" x1="1115.4" y1="218" x2="1001.4" y2="103.9"/>
	</g>
</g>
<g id="Grupo_26939" transform="translate(694.369 158.548)" class="st1">
	<g id="Grupo_26936">
		<path id="Trazado_67567" class="st5" d="M479.8,13.6c1.5,0,2.7-1.2,2.7-2.7s-1.2-2.8-2.7-2.8s-2.7,1.2-2.7,2.7
			C477.1,12.4,478.3,13.6,479.8,13.6z"/>
		<path id="Trazado_67568" class="st5" d="M456,13.6c1.5,0,2.7-1.2,2.7-2.7s-1.2-2.8-2.7-2.8s-2.7,1.2-2.7,2.7
			C453.3,12.4,454.5,13.6,456,13.6L456,13.6z"/>
		<path id="Trazado_67569" class="st5" d="M432.2,13.6c1.5,0,2.7-1.2,2.7-2.7s-1.1-2.8-2.7-2.8c-1.5,0-2.7,1.2-2.7,2.7
			C429.5,12.4,430.7,13.6,432.2,13.6L432.2,13.6z"/>
	</g>
	<g id="Grupo_26937" transform="translate(0 23.784)">
		<path id="Trazado_67570" class="st5" d="M479.8,13.6c1.5,0,2.7-1.2,2.7-2.7s-1.2-2.8-2.7-2.8s-2.7,1.2-2.7,2.7
			C477.1,12.4,478.3,13.6,479.8,13.6z"/>
		<path id="Trazado_67571" class="st5" d="M456,13.6c1.5,0,2.7-1.2,2.7-2.7s-1.2-2.8-2.7-2.8s-2.7,1.2-2.7,2.7S454.5,13.6,456,13.6
			L456,13.6z"/>
		<path id="Trazado_67572" class="st5" d="M432.2,13.6c1.5,0,2.7-1.2,2.7-2.7s-1.1-2.8-2.7-2.8c-1.5,0-2.7,1.2-2.7,2.7
			S430.7,13.6,432.2,13.6L432.2,13.6z"/>
	</g>
	<g id="Grupo_26938" transform="translate(0 47.568)">
		<path id="Trazado_67573" class="st5" d="M479.8,13.6c1.5,0,2.7-1.2,2.7-2.7s-1.2-2.7-2.7-2.7s-2.7,1.2-2.7,2.7l0,0
			C477.1,12.4,478.3,13.6,479.8,13.6z"/>
		<path id="Trazado_67574" class="st5" d="M456,13.6c1.5,0,2.7-1.2,2.7-2.7s-1.2-2.7-2.7-2.7s-2.7,1.2-2.7,2.7l0,0
			C453.3,12.4,454.5,13.6,456,13.6z"/>
		<path id="Trazado_67575" class="st5" d="M432.2,13.6c1.5,0,2.7-1.2,2.7-2.7s-1.2-2.7-2.7-2.7s-2.7,1.2-2.7,2.7l0,0
			C429.5,12.4,430.7,13.6,432.2,13.6z"/>
	</g>
</g>
<path id="Trazado_67576" class="st3" d="M1305.8,492.7l-124.9-124.8L1389,159.8"/>
<g id="Grupo_26931_1_" transform="translate(0)" class="st1">
	<g id="Grupo_26930_1_" transform="translate(-2.374 -115.917)" class="st4">
		<line id="Línea_225_1_" class="st2" x1="1220.5" y1="603" x2="1106.4" y2="488.9"/>
		<line id="Línea_226_1_" class="st2" x1="1213" y1="610.5" x2="1098.9" y2="496.4"/>
		<line id="Línea_227_1_" class="st2" x1="1205.5" y1="618" x2="1091.4" y2="503.9"/>
		<line id="Línea_228_1_" class="st2" x1="1198" y1="625.5" x2="1083.9" y2="511.4"/>
		<line id="Línea_229_1_" class="st2" x1="1190.5" y1="633" x2="1076.4" y2="518.9"/>
		<line id="Línea_230_1_" class="st2" x1="1183" y1="640.5" x2="1068.9" y2="526.4"/>
		<line id="Línea_231_1_" class="st2" x1="1175.5" y1="648" x2="1061.4" y2="533.9"/>
		<line id="Línea_232_1_" class="st2" x1="1168" y1="655.5" x2="1053.9" y2="541.4"/>
		<line id="Línea_233_1_" class="st2" x1="1160.5" y1="663" x2="1046.4" y2="548.9"/>
		<line id="Línea_234_1_" class="st2" x1="1153" y1="670.5" x2="1038.9" y2="556.4"/>
		<line id="Línea_235_1_" class="st2" x1="1145.5" y1="678" x2="1031.4" y2="563.9"/>
		<line id="Línea_236_1_" class="st2" x1="1138" y1="685.5" x2="1023.9" y2="571.4"/>
		<line id="Línea_237_1_" class="st2" x1="1130.5" y1="693" x2="1016.4" y2="578.9"/>
		<line id="Línea_238_1_" class="st2" x1="1123" y1="700.5" x2="1008.9" y2="586.4"/>
		<line id="Línea_239_1_" class="st2" x1="1115.4" y1="708" x2="1001.4" y2="593.9"/>
	</g>
</g>
<line class="st6" x1="1303.4" y1="0.3" x2="1404.7" y2="101.5"/>
</svg>
